<svg xmlns="http://www.w3.org/2000/svg" viewBox="70 260 1120 720" fill="none">
	<path fill="#51ba93" d="M124.3 801.4c-.6-5.9-.2-16.3-.2-22.5V423.8c0-28 .2-46.5 18.8-69.7a86 86 0 0 1 57.7-32c11.8-1.3 33-.6 45.9-.6h753.8c36.4 0 67.7-5 98 19.8a84 84 0 0 1 30.3 57c.9 9.5.5 23 .5 32.8v374.4c0 3.9.2 12.4-.6 15.8a76 76 0 0 1-8 30.3l-4 8c-.5 6.9-12 17.3-17 21.9-28 25-51.6 25.6-87 24.9l-39.7-.5c-22.6-.4-45.4 1.8-68.1.1-9.8-.2-21 1.6-30.7 1.1-51.4-2.5-103.2.6-154.7-.6a1766 1766 0 0 0-91.2.7c-11.8.3-24.6-1.9-36.4-1.8-26.3.8-52 2-78.3.1-6.4-.4-17.5 1-24.8 1H381c-10.3 0-21.3-.7-31.2-.6l-71.3.6q-27-.2-54-.7c-5.7 0-11.4.6-17 .4-7.7-1.1-15.7-2.7-23.2-4.6-2.8-.7-8.5-5.4-11-7-10.2-6.1-29.8-18.8-34.5-30.1l.6-.8c-14.7-24.3-15.5-35-15.2-62.3" />
	<path fill="#1a8669" d="m124.3 801.4.4 1c.5 1.7.2.9.4 2.2.4 2.7 2.2 6.2 3.1 9a86.1 86.1 0 0 0 74.3 59.3c14.5 1 40.6.3 55.7.3H1013c13.7 0 30.7 1 43.9-1.1 38.8-6.3 62.9-34.3 71.5-71 0 5-.2 15.6.1 20.2a76 76 0 0 1-8 30.3l-4 8c-.5 6.9-12 17.3-17 21.9-28 25-51.6 25.6-87 24.9l-39.7-.5c-22.6-.4-45.4 1.8-68.1.1-9.8-.2-21 1.6-30.7 1.1-51.4-2.5-103.2.6-154.7-.6a1766 1766 0 0 0-91.2.7c-11.8.3-24.6-1.9-36.4-1.8-26.3.8-52 2-78.3.1-6.4-.4-17.5 1-24.8 1H381c-10.3 0-21.3-.7-31.2-.6l-71.3.6q-27-.2-54-.7c-5.7 0-11.4.6-17 .4-7.7-1.1-15.7-2.7-23.2-4.6-2.8-.7-8.5-5.4-11-7-10.2-6.1-29.8-18.8-34.5-30.1l.6-.8c-14.7-24.3-15.5-35-15.2-62.3" />
	<path fill="#e8fbc6" d="M285.3 361.3h684.2c1.3 65.8 48 108.4 113 108.6v254.9q-4.5-.2-8.8-.2a105 105 0 0 0-75 33c-22.2 23.2-29.8 49.5-29.2 80.8H285.2q.2-5.2.2-10.5a106 106 0 0 0-32.6-75c-24-22.9-49.3-29.8-81.4-29.1V470.2c8 0 15.1.2 23.1-1 55.4-8.5 90.5-53.3 91-108" />
	<path fill="#043246" d="M690.2 447.7c17.2-1.2 36.3.4 53.7-.3a36 36 0 0 1 15.7 2.1q5 3 7.4 8.3c2 4.4 7.5 27 9.2 33l19.6 73.3c14.4-1.5 27.7-.7 41.6 3.6a99 99 0 0 1 57.8 48.6 98.4 98.4 0 0 1-42.8 132.2 98 98 0 0 1-131.6-43.4 97 97 0 0 1-5.3-74.3c9.4-28 28.6-46.1 54.4-59q-4.4-14.5-8.3-29.2c-34.5 37.3-71.9 75-107.3 111.6a41 41 0 0 1-.6 14.5 31.9 31.9 0 0 1-39 23.3 32 32 0 0 1-20.5-16h-27.6a96 96 0 0 1-5.8 22.2 101 101 0 0 1-78.6 62.3A102 102 0 0 1 366 675.8a99 99 0 0 1 19-74.3c16.9-22.4 42-37.2 69.8-41 25.8-4 52 2.8 72.8 18.6a100 100 0 0 1 39.3 68.1c5.8 0 22.7.8 27-1.1.7-3.2-56.8-135.8-62-148.2-11 0-28.7 1.9-38.7-3.1a15 15 0 0 1-7-10.3c-2.8-24.2 19.1-21 35.2-21H555c7.6 0 17.5-1 24.5 0 11.2 1.3 16.9 16.9 9 25.2-6.7 7.3-18 6.4-26.8 6.8 3.5 9.3 8 19.6 11.9 28.9q87.5-4.9 174.9-8.3l4.5-3.9c-2.9-11.6-6.2-23.1-8.8-34.8-11.3 0-46.8 1.7-55.3-1a15 15 0 0 1-9.3-7.4 16 16 0 0 1 .1-12.4c2-4.8 5.9-7 10.5-9" />
	<path fill="#e8fbc6" d="M462.6 589.3c37-4.1 67.4 23 75.3 57.9h-47.6c-11.9 0-33.8-3.9-35 13.8-.4 5.5 4.8 13.4 10.8 14.2 8.3 1 16.9.7 25.3.7h46.1a71 71 0 0 1-13.7 29 73.6 73.6 0 0 1-103.1 12A70.1 70.1 0 0 1 410 616.4a75 75 0 0 1 52.6-27.2M803.7 592.1a68.5 68.5 0 0 1 73.1 78.4 70 70 0 0 1-27.1 46.2 69 69 0 1 1-71.5-117.3l12 43.2c2.2 7.5 4 16.1 7 23.2 5 11.8 25 7 23.9-6-.7-7.4-3.7-16.5-5.6-23.8zM710.2 545.3c3.3-.3 7.1-.3 10.5-.4l-53.5 55.2c-9.9 10.3-21.5 21.8-30.8 32.4a37 37 0 0 0-18.7-3c-1.3-4-3.7-9.3-5.4-13.2l-27.6-65.8c41.6-1.2 83.8-3.6 125.4-5.2" />
	<path fill="#1a8669" d="M279.7 544.6c9.5-.6 23.7 2 31 8.7 3.2 2.8-2.3 15.2-6.3 16.1-3.2.7-8.2-2.7-11.2-3.7-18.3-6.7-29.4 2.2-36 18.8 7.4 0 31-2.2 36.2 1.8q1.9 1.3 2.3 3.8c.3 1.9-.7 4.4-2.1 5.7-3.7 3.3-31.4 1.6-38.2 1.7v10.8c6.1.1 31.3-.8 35 1.2 2.6 2.7 3.3 7.4.4 9.3-6.8 4.4-26.2 2.4-34.2 2.5 3 8.9 4.8 13 12.6 18.6 19.2 9.6 29.5-4.4 36.3-1.4 2.7 1.2 5 6.4 6 9q1 2.5-.2 4.8c-2.8 4.8-11.4 7.3-16.6 8.5a51 51 0 0 1-38.1-5.6 50 50 0 0 1-21.8-33.8H232c-12.3-.2-12.9-12.7 1.3-13l.1-10.8c-6 0-14-2.4-8.1-10.9 1.9-2.7 6.7-2.3 10-2.2 6.2-23.4 19.8-37.2 44.4-40M997.4 544.6q5.5-.2 10.9.6c10.3 1.6 30.5 7.7 14 23.8-2.4 2.4-9.6-2.5-13.1-3.6-17.4-5.4-28.9 2.3-34.5 18.9 5.5.2 32.4-1.5 35.2 2.1 12 15.6-29.2 11-37.5 11l-.1 11.1c6.7-.1 30.6-2 35 1.7q2 1.5 2.1 4a6 6 0 0 1-1.7 5c-4.1 4-27.2 2-34 2.1 3.4 9.8 5 13.6 13.8 19.2 19.3 8.8 28.4-4.6 34.8-2.8 2.6 2.2 4.4 6.7 6 9.7 2.3 4.7-2.1 7.4-5.5 9.2-20.9 10.6-47.9 6.6-61.7-13.2a63 63 0 0 1-9.4-22.2c-2 .1-6.8.4-8.1-.9-8-7.6-.3-11.8 6.9-11.8v-10.9c-6.6 0-14.3-3-7.9-11.3 2-2.4 6.6-2 9.7-2 7-23.3 19.7-37.7 45.1-39.7" />
</svg>
