<svg width="680.1" height="392.6" xmlns="http://www.w3.org/2000/svg"><path style="fill:#e8fbc6;fill-opacity:1;stroke-width:2.85856" d="M27.6 26.5H655v298.2H27.6z"/><path fill="#54b586" d="M680 272V305l-.2-10.1a.2.2 0 0 0-.4 0q-.8 6.4-1.9 11.4c-.9 4.5-1.4 8.5-3.7 12.5q-6.7 11.6-17.6 20.4c-10.7 8.7-23.5 10.6-37 10.7-28.2.3-52.8 0-78 0l-343.6.1c-42.6 0-85.3-.2-128 0q-16.1.1-20-.4a59.3 59.3 0 0 1-40-26.4Q7.2 320 5.7 316c-.8-2.2-2-7.5-3.8-8.8q-.3-.3-.6 0l-1.2.7L0 62.4q0-32.7 25.8-52Q39.8 0 57.6 0C230 .3 402.1.2 574.4.4 587.8.4 602.8 0 617 0q12.7 0 19.1 1.6c24.5 6.1 41.3 29.3 43.6 53.8q.2 2.5.2 20V272zM116.2 87.3q-22.7 36-66.2 32.5-5.6-.5-10.8-2.4-.4-.1-.4.3L39 241a.8.8 83.7 0 0 1 .7c12.6-2.7 26-3 38.2.8q10 3.2 17.6 8.8 31 23 31 62a1.2 1.2 0 0 0 1.2 1.3c17.7-.4 36.5-.1 53.1-.1H537q7.8 0 15.4.3a.8.8 1 0 0 1-.9q-.5-35 23.8-57a67.7 67.7 0 0 1 62.9-15.1 1.1 1.1 0 0 0 1.4-1V118q0-.5-.5-.4c-24 5.6-48 1.8-66-16.4q-17.7-17.7-20.7-41.7-1.2-9.7-.8-19.4a1 1 0 0 0-1-1.1H127.8a1.3 1.3 0 0 0-1.3 1.3 102 102 0 0 1-3.2 30.1q-2.8 10-7 16.7z"/><path fill="#344e5e" d="M413.2 113.3q-10.5-.7-23.3 0-12-.3-24.3 0-6.7.2-10.4-5.2c-3.8-5.6-1.5-13 4.7-15.7q2-.9 6.8-.9 29-.2 57.9 0 5.6 0 8.1 1.1c5 2.3 7.6 8.2 5.6 13.3-2 5-7.5 7.3-12.7 7.2l-12.4.2zM296.2 127q-.4 1.3-1.7 1.9-.8.4-2.2.2-5.3-.6-10.7-.6c-2.4 0-4.6.9-6.9 1.6q-.4 0-.6-.3-.5-1.1-.5-.3l-1.8-4.9a2.4 2.3 0 0 0-2.3-1.5c-4.5 0-10.2.5-14-.6-6.8-2-10-9.8-6-15.8 2.8-4.3 7-5.1 12.2-5.2q20-.2 40-.1c7.3 0 12-.4 16.2 4.6 5.7 7-.6 15.9-8.4 17q-3.7.4-10.8.2-.9 0-2 .4a.8.8.2 0 0-.6.5q-.4 1 .1 3z" style="stroke-width:.846267"/><path fill="#54b586" d="M413.2 113.3q8.8 24.5 16 41.6.5 1 1.8.9-.7 0-.8 1.3 0 .6.3 1.3 3.3 6.8 6 13.9c.4 1.2 1 1.6 2 2.3v1.2l.2.8q4.7 11 9 22.3 1 2.6 2.3 4.5c2.3 3.1 5.6 5.9 7 9 6.1 14.7-15 24.3-23.7 12.2-2.4-3.4-3.4-9.2-5.1-13.4l-10.8-25q-.6-1.5-2-1.4 1.2-2.4.3-4-3.6-7-5.2-12.5c-.5-1.6-1.4-2.7-3.1-2.5q1.5-3.5-2.5-5.8-.4-.2-.7.1l-16.6 18-11.4 12.6q-16.1 18.1-33 35.5-.6.5-.5.9.1.4.7 1-2.8-.7-3.6-.7-15 .6-30.2.5-1.7 0-3 .4-1.8.6-2.7 1.3-7.7-2.3-9.6 1.7-.4-1-.3-2.5 0-.9-.9-.8l-19.8 2q-1.2-.9-1.8-.8-12.6.2-25.3 0-3.5-.2-13.8 1-11.5 1.1-14.7-10c-1.7-5.7 2.3-12 7.5-14.3q2.6-1 8.1-1 19.6.5 39.5.3 8.8 1.6 18.8 1.4c2 0 2.2-1 2.3-2.6q2 2.2 7 .9 1.5-.3 1-1.6-13.7-34.4-27-69.1l-1.3-4.7q0-.8.5.3.2.4.6.3c2.3-.7 4.5-1.7 6.9-1.6q5.4 0 10.7.6 1.4.2 2.2-.2 1.3-.6 1.7-1.8 4 1.7 9.2 1.5l4.2-.1q42.6 0 85 .2a.7.7 0 0 0 .7-1q-3.5-6.8-5.4-14.5 12.8-.6 23.3 0zm-105.8 38.4a.3.3 0 0 0-.3.4l21 54.8a.3.3 0 0 0 .6.1l51-54.6a.3.3 0 0 0-.3-.5z" style="stroke-width:.846267"/><path fill="#344e5e" d="M294 204c-.2 1.6-.5 2.6-2.4 2.6q-10 .2-18.8-1.4-4.3-13-14.5-21.2a42.4 42.4 0 0 0-56.9 3.2 42.1 42.1 0 0 0 .3 60.4 42.5 42.5 0 0 0 45 10.6q19.8-7.8 26.6-28.2l19.8-2q1 0 .9.8-.1 1.4.3 2.5-8.6 30.7-35.8 44-13.2 6.6-28.8 6-5.7-.3-12.8-2.2a65.5 65.5 0 0 1-42.8-35.4c-19.8-41.5 11.4-88 56.1-89.4q17.2-.6 32.4 8c15.8 9 26.7 24 31.3 41.7zM407.4 165.8c1.7-.2 2.6.9 3 2.5q1.7 5.5 5.3 12.4 1 1.7-.3 4.1a47.8 47.8 0 0 0-14.9 27.1 43.2 43.2 0 0 0 17.4 40 42.5 42.5 0 0 0 56.7-4.7c19.2-20 15-51.4-8.4-66q-12.2-7.7-27.7-6.6c-1-.7-1.6-1.1-2-2.3q-2.7-7-6-13.9-.4-.7-.3-1.3 0-1.4.8-1.3 8.5-2 15.4-1.4 34 2.6 51.8 30.6 7.3 11.4 8.8 25.1a65.8 65.8 0 0 1-38.8 65.9q-8 3.6-15.5 4.7c-16.3 2.4-33-2-46.2-11.6a62.5 62.5 0 0 1-26.7-53.1c.5-20 11.4-38.2 27.6-50.2zM343.4 228c7.2 3.9 8.4 13.8 1.2 18.3q-3.3 2.2-8 2.2-13.9 0-21.6-.3c-6.3-.2-10.8-1.7-13.2-7.4q-2.2-5.3 2.1-11.2 1-.7 2.8-1.3 1.2-.4 3-.4 15 .1 30.1-.5.8 0 3.6.7z" style="stroke-width:.846267"/><path fill="#386c69" d="M680 304.9q.4 20.3-1.2 34.6c-3 25.7-23 47.6-49 52-9.2 1.5-23.3 1-32.7 1q-262 .2-524 0-16 0-20-.5-18.3-2.4-32.5-15.3-12.4-11.4-17.4-26.5Q.5 342 .5 337q0-14.6-.3-29.2l1.2-.7q.3-.3.6 0c1.8 1.3 3 6.6 3.8 8.8q1.5 4 3.7 7.2a59.3 59.3 0 0 0 40.1 26.4q3.9.5 20 .5c42.7-.3 85.4 0 128 0l343.5-.1c25.3 0 50 .2 78 0 13.6-.2 26.4-2.1 37-10.8q11-8.8 17.7-20.4c2.3-4 2.8-8 3.7-12.5q1-5 1.9-11.4a.2.2 0 0 1 .4 0z"/><text xml:space="preserve" style="fill:#54b586;fill-opacity:1" x="75.6" y="151"/><text xml:space="preserve" style="font-size:125.333px;fill:#386c69;fill-opacity:1" x="54.1" y="226.2"><tspan x="54.1" y="226.2" style="font-style:normal;font-variant:normal;font-weight:700;font-stretch:normal;font-size:125.333px;font-family:Arial;-inkscape-font-specification:'Arial Bold';fill:#386c69;fill-opacity:1">€</tspan></text><text xml:space="preserve" style="font-size:125.333px;fill:#386c69;fill-opacity:1" x="550.5" y="227.9"><tspan x="550.5" y="227.9" style="font-style:normal;font-variant:normal;font-weight:700;font-stretch:normal;font-size:125.333px;font-family:Arial;-inkscape-font-specification:'Arial Bold';fill:#386c69;fill-opacity:1">€</tspan></text></svg>