<svg xmlns="http://www.w3.org/2000/svg" width="364" height="294" viewBox="63 28 364 294">
  <path fill="#052637" d="M128.3 41.2c-2.8-3.6-3.6-8.5 1.8-10a6 6 0 0 1 4.7.6c4 2.3 2.6 6.6.6 9.6.4 8.7 1.2 18 1.7 26.7q1.6 22.2 2.8 44.6l1.9 28.5c.2 3 .2 12.9 2.2 14.9 5.7 6 12 8.1 14.1 17.4q3.6 16.7 7.5 33.3l3.1-8.6c-2.1-6.2-3-10.6-4.3-17.1l-4.2-20.6q-4.6-23.5-8.9-47c-2.5-15 1.8-26.2 18.4-28.7 9.2-1.4 18.3-.1 24.8 7.3 4.2 4.8 5.2 10.4 6.9 16.5l4 15q4.8 19.6 10 38.8c1.7 6.5 2 15.3 9.7 16.6l6.8 1 18 2.4c8 1.1 18.5 1.3 19.9 11.5 1.4 11-6.1 12.4-15 13.7-.8 4.5-.9 5-4.3 8 11.7 6 14.8 11.8 19.3 23.8q3.8.5 7.3 1.5-.2-4.8-.8-9.6c-.2-3 0-4.1 1.8-6.6 2-.7 11.4-2.2 13.7-2.5 2.2-4.8 4.6-12.2 6.5-17.4l9.5-26.2c-5.9-1.8-10.7-3-13.6-9.1a14 14 0 0 1-.4-11c2.6-7.4 9.2-9.2 15.6-12.2l-.6-4q.9-1.2 2-2.1c-1.2-3.7-3.2-7-4.3-10.7-.9-3-.5-4.6 1-7.2-2.8-.4-5.7-.8-8-2.6-2-1.6-3.6-4.3-5.9-5.6a5 5 0 0 0-4-.3c-.9.2-.9.3-1 .9.8 2.4 5.8 4.4.5 8.5-4.2 3.2-8 1.2-12.5 3.2a10 10 0 0 1-2.1-2.5l.3-.2c2.2-1.1 4.8-1 5.7-2.5 0-1 .2-.6-.3-1.3-1.6-1-3.3-.4-5.3-.6l-2-1.5c-7.1 1-14 3.7-21.1 3.9-6.1.1-6.7-11.5-1.8-12.6 6.1-1.3 13.8-3 20-4 1.3-4.8 5.6-5.2 10-5.7 4.1-.5 6.6.3 9 3.9a20 20 0 0 1 10.7 1.8c3-1 4.9-1.8 8-2.2 0-2-.2-3.9.6-5.8 2.1-5 7.3-6 11.6-3.3h.3c4.5 0 10.6-3 13.9.3s2.3 9.2-2.6 10.3l-6.3 1.4c.9 4 1.3 6.3-.8 10.1-1 2-3 3-3.3 3.5-1.8 3-2 4-4.3 6.7l4.1 10c3.1-.3 3 .4 4.2 3.1.8 1.8.8 3.9 1.5 5.7l5.1 11.8a7 7 0 0 1 5 10.4q3.6 7.8 7 15.8l2.6 4.5-.1 2.5c1.4 1.5 3.6 3.6 4.7 5.4a52 52 0 0 1 30-3.8c3.2.5 13.2 2 9.3 7.1-.5.6-2.1 1.6-2.8 2 2.7 1.3 6.1 2.7 8.6 4.2a58 58 0 0 1 24 30.3 70 70 0 0 1-1.7 53 52 52 0 0 1-28 28 45 45 0 0 1-34.6-.7 60 60 0 0 1-30.4-33.7q-2.7-7.4-3.7-15c-5.7 5.6-6.2 2-6.7-4.2a73 73 0 0 1 14.5-50.8q3.2-3.6 6.8-6.9c-1.1-2.6-2.5-5.8-3.3-8.4-1.3-.1-2 0-3-1.1-.3-.9-.3-1.3 0-2.2l.5-1c-2-4.3-5-12-7-15.6-1 1.8-1.9 4.6-2.7 6.7l-4.5 12-13.8 38q-3.7 10.2-7.8 20.3c-.8 2.2-2.2 4.4-3 6.6-.3.9 0 3.8 0 4.8q0 7.7-4.2 14.2c-3.4 5.5-8.3 8-14.3 9.6l-.1 8a7 7 0 0 0-2.1 3.9c-4.3 1.3-10.2 3-14.6 3.1-2.2.1-5-.7-7.1-1-1.6-.3-5.2-.3-5.4-2.3-.1-1-.4-5 .4-6 2.8-1.8 9.8-2.4 13.2-3a31 31 0 0 1 7.8.4v-2.4a34 34 0 0 1-25.3-13.2c-5-1-9.5-2-14.5-2.6-14.8 12.8-35 8.6-47.1-5.6q-1.8-2.2-3.4-4.6c-4.8-1.3-15.3-3.3-20.3-4-3.5 14.4-9.5 28.1-22.8 36.4-21.2 13.2-43.3 2.1-55.2-17-17.6-28.2-16.2-81.9 15.2-100.5a34 34 0 0 1 26-3.9c22 5.7 32.8 28.6 37.5 48.9l6-1.5-.5-2.9c-.7-3.7-2-8.4-2.9-12.2l-5.3-24.9q-.8-4.1-2-8.5c-2.3-6.5-12.2-8.3-13.9-16-1-4.2-1-7.9-1.4-12.2l-1-16.8c-.8-13.2-2.1-28.3-2.5-41.5-9.9-2.4-20-5.6-29.9-8.4-4.3-1.3-18.3-4.6-21.1-6.7-.9-2 .8-3.3 2.3-4.1l15.3-9q14.8-8.9 30-17.4m241.3 205c2.3 0 4 0 6.1.7 8.5 3 10.2 15 3.8 20.9-4 3.6-8.8 4.1-13.5 1.7-6.1-4-6.4-9-5.2-15.6-3.9-8.5-9-16.7-13-25.2q-.7-1.9-1.7-3.7a48 48 0 0 0-11 32.7c.2 11 3.8 21.7 10.3 30.6l.9 1c4.5 6.5 12 11.6 19.6 13.8h.3a29 29 0 0 0 15.7-.2 38 38 0 0 0 21.4-18.4 53 53 0 0 0 3.9-40c-6-20.7-24-36.5-46.4-29.7l-1.4.5-3 1.4 7.7 17 3 6c.8 2 2 4.5 2.5 6.5m-259-56.4h-.3c-8.1-.3-11.7 2.5-17.6 7.7-2.7 2.3-3.9 4.7-5.6 7.6-5 8.2-7.2 18.5-7.6 28-.1 3.8 0 10.4 1 14.1 1.8 13.4 10.8 33.1 25 37 5.4 2.8 12.6 1.2 17.6-1.8 9.3-5.4 14.2-15.7 16.8-25.8-8.2-1-16.5-3-24.7-4.4q-3.2-.7-6.5-1c-5.6-1.8-8-3.8-10-9.4-2.3-14 10-23.3 20.4-12.5l13-2c3-.4 5.6-.6 8.7-1.1a56 56 0 0 0-13.7-27.8c-4.4-4.6-9.8-8.4-16.4-8.6m109 68.3c-3.8-2.4-9.7-5.1-13.8-7.4-4-2.2-10.3-5.8-14.3-7.4l-.4-.3c-4.2-.6-7.2-.6-11.5-.6a49 49 0 0 0 3.7 8.3l.7 1.2c4.8 8.3 12.7 15.3 23 13.9 4.9-.7 9.6-3.8 12.5-7.7m-98.8-15a12 12 0 0 1-4.5 6.3q2.8.7 5.7 1c5.9.9 13.1 2.9 18.5 3.5.4-2 2-12.3 1.2-13.5h-1c-6.5.7-13.3 2-20 2.6m55.9-25.4 2.2-.5c1-2.3 2.8-9 3.2-11.5l-2.8-.4a43 43 0 0 0-2.6 12.4m95.7 55.6c0 2.3-.2 5.8 3.3 4.3 2-1.4 2.7-2 4-4-1.2-1.3-2.3-2.8-4-2.9q-1.4 1.4-3.3 2.6M256 238a22 22 0 0 0-14.2-12.7q0 5.8-.2 11.5c4.1.3 10.5.6 14.4 1.2m-19.2 34.5c-.7-1.4-3-6-4.2-6.7l-3.9 5.2 4.6.9q1.8.1 3.5.6m17.7.8c-1.7-6.6-2.6-6.5-2-13.9-.4-.3-.2-.2-.8-.1l-7 2c1.5 3 4.2 6.9 6.4 9.3 1.3 1.3 1.9 1.7 3.4 2.7m-47.8-39.6 12.6 1c-2.3-3.9-4.7-8-8.3-10.7-.4 2.4-.6 4.9-2.9 6.4-2.4 1.6-5.6 1.5-8.2.9l-2.2-.5c3 3 4.8 2.7 9 2.9M171 259.5h.7c0-1.2-1.6-3.6-2.1-5a54 54 0 0 1-4-12.3c-2.6-.2-6-.2-8.6-.2-.5 5.4-.7 9.4-1.8 14.6zm54.5-38c.8 1.7 2 4.3 3.4 5.5h.3q.3-2.7 0-5.5zm51.7 38.7c1.6-.2 2.6-.2 2.7-2.2q-.5-1-1.2-1.3c-.9.7-2.1 1.6-2.6 2.5v.5zm8.1-20.7c.8-1.5 2.2-3.5 1.8-5q-.7-.5-1.6-.3c-.4.2-.5.1-.6.6-.3 1-.4 4.4.2 5zm-84.4-25.4.4-4.4c-2.3-.7-3.4-.9-5.9-1l-3.5 7c1.6-.4 4-1.2 5.5-1.3zm112.3-61.2c-5.3 2.4-15.7 6.2-11.9 13.7q1.3 2.1 3.6 3.2c2.2 1.1 3.3 1.6 5.8 2 1.6-4.6 2.7-8.3 5.3-12.5a55 55 0 0 0-2.8-6.4M272.3 251c-.1 1.3-.4 2.3.4 3.3 1 .4 1.3 0 2.2-.6.6-1 .7-.8.7-1.8-1-1-2-.9-3.3-.9m-9.2 15.7c.5-.5.5-3.6.6-4.6-4.4.4-2.9 4.4-.6 4.6"/>
  <path fill="#026963" d="M152.3 171.9c-3.6-7.5-11-8.3-13.4-15.8-.6-1.8-.5-2.6 1-4v-.5c.3 1.6.9 2.4 1.4 3.9 2.7 6.7 11.4 8.4 13.6 15.6 3 9.5 4.8 19.8 7 29.5.8 3.9 1.3 7.4 2.3 11.3l-.4.8c-2 .4-2 .3-1.7 2.3l.8 2.7-.6.5-.6-.3c-.6.2-.6.5-1 1-.6-3.7-2-8.4-2.8-12.2l-5.3-24.9q-.8-4.1-2-8.5c.2-1 .9-1 1.7-1.4"/>
  <path fill="#040c10" d="M154.2 177.6c1.2 4.3 2 10.6 3.1 15l2.8 13c.7 3 1.1 6.7 2 9.4l.8 2.7-.6.5-.6-.3c-.6.2-.6.5-1 1-.6-3.7-2-8.4-2.8-12.2l-5.3-24.9c2-.4 1.5-2.6 1.6-4.2"/>
  <path d="M150.6 173.3c.2-1 .9-1 1.7-1.4.8 2 1.5 3.6 1.9 5.7 0 1.6.4 3.8-1.6 4.2q-.8-4.1-2-8.5"/>
  <path fill="#038379" d="M170 223.2c1.9.5 3.2.7 4.2 2.6s.4 5.6-1.2 7c-.7.2-1.8.4-2.4 0 .1-3 .8-4.9-.5-7.8l-.5-1.5z"/>
  <path fill="#026963" d="m165.4 217 .8 4 3.8 2.2-.4.3.5 1.5c-1.7-1.8-3.7-2-6-2.5l-1-4.1c1.3-.2 1.6-.2 2.3-1.3"/>
  <path fill="#038379" d="m164.2 211.9 1.2 5.2c-.7 1.1-1 1-2.3 1.3l-.2-.7-.8-2.7c-.2-2-.3-1.9 1.7-2.3z"/>
  <path fill="#48555c" d="M164.4 91c5.5-2.6 14-3 19.8-1.3 3.7 1.1 8.5 5.5 9.9 8.9 2.8 6.8 4.8 15.7 6.5 22.9l7.3 28.7c1.3 5.2 2.7 11 4.3 16 1 2.5 2.8 9.8.3 11.5-3 2.1-8.7 2.4-12.4 3l-14.3 2.1c-3 .5-7.5 1-10.2 2.4-1.3.6-3.4 3.5-4.5 4.7l-.1-.2c-1.6-4-4-16.5-4.8-21l-5.2-26.1-3.9-20.1c-2.2-11.3-6.9-26.4 7.3-31.4"/>
  <path fill="#2d414b" d="M171 190v-.3c-1.6-4-4-16.5-4.8-21l-5.2-26.1-3.9-20.1c-2.2-11.3-6.9-26.4 7.3-31.4-6.4 7.9-4 14.8-2 23.8l2.6 12.7 7.1 34.9c.8 3.6 2.3 12 3.7 15 3 2.2 8 2.5 11.6 2 6-1 17.6-1.8 21.6-6.9 1.3-1.6 2.8-4.5 3.2-6.4 1 2.5 2.8 9.8.3 11.5-3 2.1-8.7 2.4-12.4 3l-14.3 2.1c-3 .5-7.5 1-10.2 2.4-1.3.6-3.4 3.5-4.5 4.7"/>
  <path fill="#cac8c9" fill-opacity=".1" d="M394.6 230.6h.3c0 1-6 8-7 9.1h-.4c0-.8 6-7.9 7-9.1m.6 47.1c-1.3-1.1-8.4-7.4-9-8.4l.2-.2 7.9 7c.1.8.3 1 .9 1.6"/>
  <path fill="#cac8c9" fill-opacity=".3" d="M394.2 276c1 1.1 4.5 4.2 5.3 5.2h-.6l-3.8-3.5c-.6-.7-.8-.8-1-1.6m-5.3-20.9.3.4c-1.8.5-2.8.8-4.6 1 1-.7 3-1 4.3-1.4"/>
  <path fill="#cac8c9" fill-opacity=".1" d="M399.5 281.2q1 .6 1.6 1.5h-.3l.2-.1v.2q-1.2-.6-2-1.6zm-10.7-26c.9-.3 1.1-.4 2.1-.4v.2q-.7.4-1.8.6zm17.6-4.7h.4v.2l-1.4.8-.7-.2c.3-.3 1.2-.6 1.7-.8"/>
  <path fill="#adadae" fill-opacity=".7" d="M127.5 207.2c0 1-9.4 15.7-11 17.6h-.1a185 185 0 0 1 11.1-17.6"/>
  <path fill="#cac8c9" fill-opacity=".2" d="M83.5 227.4a50 50 0 0 1 12.5 4.9c-1.3-.2-11.1-4.1-12.5-4.9m15.8-7.9c1.6.7 3 3.7 4 5.3-1-.4-3.3-4.2-4-5.3"/>
  <path fill="#2d414b" d="M145.6 257.8c1.5.5 2.8.2 4 1 .5 1.5-1 5-1.5 6.6a49 49 0 0 1-11.6 20.3 34 34 0 0 1-24.4 10.7A35 35 0 0 1 87 284.8a48 48 0 0 1-10-14.9 40 40 0 0 1-4.3-13c-.2-1-1.2-2.6-1.4-3.8q-1.6-8.8-1.7-17.7c.1-16.5 5.8-36 17.6-48 6-6.2 15.2-9.8 23.9-9.4 9.6.5 17.2 5.1 23.8 11.8a72 72 0 0 1 17 43.4c-1.8 0-5.3.2-6.9-.1v-.2c-1.6-16.6-9-35.5-24.4-44-5.2-2.8-13-3.7-18.7-1.6a37 37 0 0 0-19.7 19A69 69 0 0 0 87 274c17 24 43 18 53.4-7.6.9-2.2 2-7.1 2.9-8.6q1.1-.3 2.4 0"/>
  <path fill="#adadae" d="M145.6 257.8c-.2 3.4-2 7.4-3.3 10.7-6.2 16.4-23.2 29.5-41.1 21.7a48 48 0 0 1-24-27.8 76 76 0 0 1 1.1-55.2c7-16.3 23.6-30 41.8-21.6a50 50 0 0 1 23 27.7 69 69 0 0 1 4.2 19.4q-1 .6-2.4.4v-.2c-1.6-16.6-9-35.5-24.4-44-5.2-2.8-13-3.7-18.7-1.6a37 37 0 0 0-19.7 19A69 69 0 0 0 87 274c17 24 43 18 53.4-7.6.9-2.2 2-7.1 2.9-8.6q1.1-.3 2.4 0"/>
  <defs>
    <linearGradient id="a" x1="542.1" x2="539.6" y1="444.3" y2="484.4" gradientUnits="userSpaceOnUse">
      <stop offset="0" stop-color="#425057"/>
      <stop offset="1" stop-color="#606a71"/>
    </linearGradient>
  </defs>
  <path fill="url(#a)" d="M436 457.6c13.3-1.2 25.6-3.8 38.8-5.9q27.7-4.6 55.4-8.7c3.8-.5 9.2 1.8 12.8 2.5 10.6 2.8 21.6 3.1 32.4 4.8 19.4 3 39 4 58.2 8.3a19 19 0 0 1 13.7 11.2c1.4 5.7 1.7 18-4.7 20.9-10.7 4.7-24 6.4-35.5 8.6l-26.7 5c-7.6 1.4-23.4 4.8-31.2 4.7-19.8-.2-42.7-6.4-62.5-9.8-16-2.8-32.4-5.6-48.2-9.1-4.1-1.2-13.7-4.4-15.3-8.8-3-8.1 5.7-20.5 12.8-23.7" transform="scale(.41)"/>
  <path fill="#2d414b" d="M265.2 192.5c.6 2.3.7 7.4-2 8.5-4.3 2-9.7 2.7-14.5 3.6l-10.9 2c-3.1.6-9.6 2-12.8 2-8-.1-17.5-2.7-25.6-4q-10-1.7-19.7-3.8c-1.7-.5-5.7-1.8-6.3-3.6-1.2-3.3 2.3-8.4 5.2-9.7 0 3 4.2 3.9 6.5 4.4q10.9 2.2 21.9 4c5.8 1 12.9 2.8 18.6 3.2 1 .1 8.3-1.1 9.8-1.4l20.9-3.7c2.2-.4 6.8-1.6 9-1.5"/>
  <path fill="#adadae" d="M355.8 209.4c1.5-1.6 5.1-2 7.2-2.6 15.9-3.8 35 6 42.9 19.6l.4.1c.5-.4 1.1-1.3 1.6-1.5.5.4.3.3.6 1-.2.7-1.3 1.8-1.3 2.1l4.6 9.4a64 64 0 0 1 3.1 34.3c-.3 1.9-1.7 6-1.8 7.5q0 .6.3 1c.5.8 1.6 1.3 1.8 2.2-.9 1.8-3.6.2-4.3 1.8a42 42 0 0 1-23.1 23.8l-4 1.5a36 36 0 0 1-14 1.3 44 44 0 0 1-19-7.4c-2.6-2.2-5.6-4.8-8.3-6.9l-2.5-3.8c-6.6-8-10.3-19-11.5-29.1-1-8.1 0-25.4 5.1-32 .4-.4.8-1.4 1.1-2 2.3-4.3 4.9-7.6 8.2-11.2l1.1 2.8-3.4 4.7q-4.2 6.1-6.5 13.3a56 56 0 0 0 3.6 43.2 46 46 0 0 0 25.8 23.3 34 34 0 0 0 26-2.4 46 46 0 0 0 21-27.7c7.5-24.3-3.8-56.3-29.3-64.5a35 35 0 0 0-25.8 2.1l-1.6-3.2z"/>
  <path fill="#2d414b" d="M355.8 209.4c1.5-1.6 5.1-2 7.2-2.6 15.9-3.8 35 6 42.9 19.6l.4.1c.5-.4 1.1-1.3 1.6-1.5.5.4.3.3.6 1-.2.7-1.3 1.8-1.3 2.1l4.6 9.4a64 64 0 0 1 3.1 34.3c-.3 1.9-1.7 6-1.8 7.5q0 .6.3 1c.5.8 1.6 1.3 1.8 2.2-.9 1.8-3.6.2-4.3 1.8a42 42 0 0 1-23.1 23.8l-4 1.5-.4-.4.6-.2c41.5-13.4 41.2-80.3 3.6-98.4a39 39 0 0 0-31.8-1.2"/>
  <path fill="#2d414b" d="M383.8 309.6a36 36 0 0 1-14 1.3 44 44 0 0 1-19-7.4c-2.6-2.2-5.6-4.8-8.3-6.9l-2.5-3.8c-6.6-8-10.3-19-11.5-29.1-1-8.1 0-25.4 5.1-32-1 3.2-2.4 6-3.2 9.3a63 63 0 0 0 .7 33c5.8 20.6 25 39.4 47.6 36.2a27 27 0 0 0 4.7-1z"/>
  <defs>
    <linearGradient id="b" x1="795" x2="710.9" y1="517.2" y2="471.8" gradientUnits="userSpaceOnUse">
      <stop offset="0" stop-color="#039383"/>
      <stop offset="1" stop-color="#03ae9c"/>
    </linearGradient>
  </defs>
  <path fill="url(#b)" d="m781.8 355.3 5.8-1.5c2.3 4.7 12.7 27.9 13.6 32l.3 1.1c-1.7 2.3-8.4 6.5-11 8.3 3.8 6 3.6 11 7.8 17.5 3-.7 7.8-1.6 10.7-2.5 4.9.9 5.8 5 7.7 9.7 2.2 5.7 5.8 12.2 7.8 17.7 1.6 4.2 9.4 18 10 21.2-1.6 1.2-1.9 1.2-3.8 2l-17 8.5a513 513 0 0 0-14-35c-4-9.3-7.7-19.3-12.4-28.4-2.1 11.3-8.4 23.7-12.4 34.7-17.3 47.6-33.2 95.8-51.7 143-5 12.4-9.6 28.2-15.6 39.8-3.4-9-5.9-12-11.2-20 10.3-16.2 16.2-36.6 23-54.5 9.7-24.4 18-49.1 27.2-73.7 10.5-28 19.5-60.4 33.5-86.7-4-9.3-8.2-18-10.5-27.8 4.3-2.5 7.7-3.7 12.2-5.4" transform="scale(.41)"/>
  <path fill="#26c5ad" d="M331.4 168c2 .4 2.4 2.1 3.2 4 1 2.4 2.4 5 3.2 7.3.7 1.7 3.9 7.4 4.1 8.7-.6.5-.8.5-1.6.8l-1.8-.2c-1-1.2-7.6-16.2-7.8-19.1q0-1 .7-1.4m-11.1-22.5 2.4-.6c1 1.9 5.2 11.4 5.6 13l-.3.1-.8-2a4 4 0 0 1-2.8-1.2c-3-2.8-4.8-5.1-4-9.3"/>
  <path fill="#cac8c9" fill-opacity=".8" d="M346.7 249.2c-2.6-1.5-7.2-3-9.6-4.8.9-.2 5.9 2.5 7 3l6.7 3c.8.3 3.2 1.3 3.7 1.8q-3.4-1-6.7-2.6z"/>
  <path fill="#cac8c9" fill-opacity=".7" d="M346 265.3c4.3-1.3 10-3.3 14.2-4-3.8 1.5-9.8 3.2-13.8 4.4z"/>
  <path fill="#898e91" fill-opacity=".9" d="m342.3 266.2.7.4c-1.5.5-5 1.7-6.2 1.8v-.2c.8-1 4-1.6 5.5-2"/>
  <path fill="#cac8c9" fill-opacity=".8" d="m346 265.3.4.4-3.4 1-.7-.5z"/>
  <path fill="#ec6e46" d="m128.7 45.1.5.2c.6 12.4 1.6 25.1 2.2 37.6a152 152 0 0 0-12.5-3.7L87 70c3-2.1 9.4-5.7 12.8-7.7z"/>
  <path fill="#cac8c9" fill-opacity=".3" d="M129.1 255.6c2.2.4 4.6 3.3 6 5-.8-.3-5.3-4.3-6-5"/>
  <path fill="#038379" d="m196.1 235.7 45 4.3c5.2.5 12.5 1 17.4 1.7 4 .2 11.7 1 15.6 2.1q-.3.7-.7 1c-2.4.4-5.6-.3-8-.3.8.3 3.3.6 3.4.8-1.5.5-1.7.4-3.2 1.2l.5.2c-7 1.9-8.7 4.3-12.5 10l-.2-.1c-3.7-1.6-9-5.8-13.8-8-14.8-6.8-28.5-6.7-44.3-8.4z"/>
  <defs>
    <linearGradient id="c" x1="645.9" x2="642.7" y1="600.9" y2="587.3" gradientUnits="userSpaceOnUse">
      <stop offset="0" stop-color="#38a59f"/>
      <stop offset="1" stop-color="#68c8b8"/>
    </linearGradient>
  </defs>
  <path fill="url(#c)" d="M647.8 596.7c-3.3-1.4-23.7-2-30-3.6 1.2-.7 1.6-.2 3.4.2l.5-.3.7-2.2c2-1 5.8-.7 8.5-.8 10 .3 28.6 2.4 38 5.1-.5 1.1-.7 2-1.6 2.2-5.9 1-13.6-.5-19.5-.6" transform="scale(.41)"/>
  <defs>
    <linearGradient id="d" x1="858.1" x2="875.8" y1="558.4" y2="549.7" gradientUnits="userSpaceOnUse">
      <stop offset="0" stop-color="#009f91"/>
      <stop offset="1" stop-color="#18c9ab"/>
    </linearGradient>
  </defs>
  <path fill="url(#d)" d="M835.7 467.4c3.9 1.8 9.8 25.2 12.2 31 15.8 39.8 34 78.6 51.9 117.4.5 4.9 9 7.8 9.5 10 2.5 10.3-3.6 16.4-12.5 11-3.5-4.4-3.4-10.7-6.1-15.4a1595 1595 0 0 1-50.3-97.3c-7.6-16-15.4-31.8-20.5-48.9 5.2-2.2 10.2-5.4 15.8-7.8" transform="scale(.41)"/>
  <path fill="#26c5ad" d="M341.3 200q-1.1-1.3-.2-2.6c.9-.5 1.4-.3 2.4-.2 1 1 4.3 11.2 5.5 13.2l-.2.2q-.6-.8-1-1.9c-.5.4-.5.5-.9 1 1.2 3.5 2.9 5.7 4.2 8.7l-.2.2c-2.3-2.8-7.4-17.2-9.6-18.6"/>
  <path fill="#98ded3" d="M341.3 200q-1.1-1.3-.2-2.6c.9-.5 1.4-.3 2.4-.2-.3 1.6-.6 2.3-2.2 2.8"/>
  <path fill="#cac8c9" fill-opacity=".1" d="M200.3 250.8c.5 1.3 0 2.8-.3 4.2-.5-1 0-3.1.3-4.2"/>
  <path fill="#2d414b" d="M262.8 269.6c0 2.3-.7 3.6-.7 5.2.6.3.7 0 1.8 0a8 8 0 0 1 .4 3.6l-.3.2a13 13 0 0 1-5.1-4c-8-10.2-2.5-27.7 12.2-25.7-3.2 6 1.2 14.2 8.5 12.8.8-.1 2.1-.9 2.9-1.3.4 4.5.8 7-1.2 11.1l-.5-.7c-3-4-5.3-3.5-8.7-.5.3-3.7 1.6-12-5.7-9.8-1 .3-1.5 1.2-2.7 1.6-4.4.4-2.9 4.4-.6 4.6-.8.3-1 .3-1.4 1q.2 1 1.1 2"/>
  <defs>
    <linearGradient id="e" x1="575.9" x2="612.4" y1="565.3" y2="532.3" gradientUnits="userSpaceOnUse">
      <stop offset="0" stop-color="#008278"/>
      <stop offset="1" stop-color="#05a28c"/>
    </linearGradient>
  </defs>
  <path fill="url(#e)" d="M531.3 518c9.4 2.4 18.2 0 25.3 2 18.2 5 39.3 8.9 56.4 16.6 15.5 7 31.3 30.6 36 46.6-5 .2-10.4-.9-15.3-2l-4.6-10.4c-16.7-33.6-58.5-31.8-88.7-43.4-1.6-.6-7.3-7.6-9-9.5" transform="scale(.41)"/>
  <path fill="#019484" d="M203.4 210.4c7.6.2 8.2 3 13.8 7.5 3 2.4 12.1 14.8 12.3 17.7-1.7 0-4.2-.4-6-.6a58 58 0 0 0-13.2-15.4c-2.3-1.8-4.8-3-7-4.9l-.3-.2z"/>
  <path fill="#2d414b" d="M181.3 264.8c1.8.3 5.8 1 7.4 1.5 6.4 1.2 12.7 3 19.1 4q2 0 3.9.6c1 0 5.7 1 6.9 1.3a24 24 0 0 1-15.7 4c-9.3-.5-15.6-5-21.6-11.4"/>
  <path fill="#616a6e" d="M188.7 266.3c6.4 1.2 12.7 3 19.1 4q2 0 3.9.6c.2.2.1 0 0 .5-6 2.7-18.4 0-23-4.6z"/>
  <defs>
    <linearGradient id="f" x1="785.7" x2="806.6" y1="570.5" y2="577" gradientUnits="userSpaceOnUse">
      <stop offset="0" stop-color="#01a495"/>
      <stop offset="1" stop-color="#008c7c"/>
    </linearGradient>
  </defs>
  <path fill="url(#f)" d="M825.2 507.2c2.1 1.6 3.3 5.7 4.3 8.2l-6.7 5.9c-22 21.5-35.4 53.7-39 84-1.2 9.8-.6 19.5-.7 29.3 0 5-.2 4.8-3.8 8.2-1.4.8-.7.7-2 .6a139 139 0 0 1-.7-21.7c1-36.2 12.2-73.8 35.9-101.7a82 82 0 0 1 12.7-12.8" transform="scale(.41)"/>
  <path fill="#019484" d="M180 221c2.3-.2 3.7.8 5.6 2q2.7-1.5 5.7-2c4.5-.7 4.3 2.9 4.4 5.9-2.1.8-5 2.2-7.1 1-1-.6-1-2-1.3-3-2.8 1.5-3.7 1.6-6.9 2.5v.2l1.1.7c4 2 7.1 2.8 11.1 5.4-4.6-.3-10.3 0-14.7-.8-2.1-.5-.6-4-1.2-6q-.7-2-1.8-4z"/>
  <path fill="#48555c" d="M106.5 229.5c3.2-.2 3.7 2 6.3 4 1.1 4.1 0 5.8-1.6 9.7l4.6-.1c-.9 1.9-1.3 2.2-3 3.2-9.5 4-15.8-11.9-6.3-16.8"/>
  <path fill="#052637" d="M106.7 233.5c6.3-.6 5.2 5.7 1.8 9.1-5.5-.2-6.6-6.3-1.8-9.1"/>
  <path fill="#2d414b" d="M107.8 235.1q.4 0 .8.3c1.2 1.6.5 3.8-.7 5.2-2.9-1.2-1.6-3.7 0-5.5"/>
  <path fill="#019484" d="M229.4 248.4a32 32 0 0 1 7.1 2.6c.7 1.2 2.1 4.8 2.8 6.3 3.4 8 5.7 11.6 11.8 17.7-2.4 0-6.2-.9-8.6-1.6-6-7.8-9-16-13.1-25"/>
  <path fill="#2d414b" d="M169.6 242.5h6.7a42 42 0 0 0 11.7 20 13 13 0 0 1-5.3-.8l-4.8-1.2c-3.9-4-6.8-12.8-8.3-18"/>
  <path fill="#616a6e" d="M173.2 242.5h3.1a42 42 0 0 0 11.7 20 13 13 0 0 1-5.3-.8c-4.4-5-7.8-12.8-9.5-19.2"/>
  <defs>
    <linearGradient id="g" x1="525" x2="531.1" y1="623.5" y2="601.1" gradientUnits="userSpaceOnUse">
      <stop offset="0" stop-color="#017a6f"/>
      <stop offset="1" stop-color="#03a18f"/>
    </linearGradient>
  </defs>
  <path fill="url(#g)" d="M491.7 595.3c8.2.3 34.7 3 41.8 6.6 21.5 10.6 22.4 11.3 30.5 33.4-3.8-1-18.7-10.7-23.5-13.2-15.2-8-30.3-16.6-45.7-24.5q-1.7-1-3-2.3" transform="scale(.41)"/>
  <defs>
    <linearGradient id="h" x1="733.3" x2="742.6" y1="283.7" y2="264.9" gradientUnits="userSpaceOnUse">
      <stop offset="0" stop-color="#b6b7b9"/>
      <stop offset="1" stop-color="#e5e5e5"/>
    </linearGradient>
  </defs>
  <path fill="url(#h)" d="M707.3 257.5c25 .7 23.5 14.8 43.3 22.3 8.1 3 14-9.8 24 1.5l-1.2 1.8a94 94 0 0 1-12 3.4c.6 1.2.6 1.2 1.5 2.1-3.8 1.3-11 2.1-15 2.2-15-1-19.2-16.7-32.2-20.6-1.1-.4-5.6-.3-7-.3q-.4-6.2-1.4-12.4" transform="scale(.41)"/>
  <path fill="#2d414b" d="m145 236 2.9.3 4.1.3c0 6.9-.3 12-1.4 18.9l-4.6-.7c-2.6-.5-2.1-.8-1.7-3.4.7-5.2 1-10 .7-15.3"/>
  <path fill="#adadae" d="m145 236 2.9.3a94 94 0 0 1-1.5 18.3l-.4.2c-2.6-.5-2.1-.8-1.7-3.4.7-5.2 1-10 .7-15.3"/>
  <path fill="#26c5ad" d="M369.2 194.4c2.4-.2 15.5.3 17 2.3-.3.5-3 2.1-3.7 2.6a53 53 0 0 0-18.4-.8 36 36 0 0 0-13.1 4.7l-1.5-3.6a58 58 0 0 1 19.7-5.2"/>
  <path fill="#2d414b" d="M252.3 112.7c2.2-1 19.6-4.5 21.5-4.3q.8.8.8 2 .2 1.4.1 2.8c-5.9 1.1-11.5 2.9-17.4 3.8-1.5.3-3.2 1-4.8 1q-1-1.2-1-2.7c-.4-1.4-.4-1.8.8-2.6"/>
  <path fill="#616a6e" d="M252.3 112.7c2.2-1 19.6-4.5 21.5-4.3q.8.8.8 2c-5.7.4-10.2 2.2-15.8 3.2-2.3.3-4.8 1-6.5-.9"/>
  <path fill="#019484" d="M156.6 236.3h.2a414 414 0 0 1 36 .5q0 1.3-.5 2.5c-1.4 1-11.3 0-13.9.1h-19.6q-1.1.1-1.9-.5c-.3-1-.3-1.6-.3-2.6"/>
  <path fill="#038379" d="M311 148.5c.9.2 1 .2 1.6.8.3 2.3-6.3 4-8.7 5.6a14 14 0 0 0-4.4 4.5c-1 1.8-1.7 4-1 6 1.7 5.8 7.4 6.3 11.3 8.6 0 .6 0 .6-.6 1.3-2.5.6-4.7-.4-7-1.5-5.7-2.8-8-11-5-16.5 2.3-4 9.4-7.8 13.9-8.8"/>
  <defs>
    <linearGradient id="i" x1="753.2" x2="783.1" y1="299.5" y2="317.3" gradientUnits="userSpaceOnUse">
      <stop offset="0" stop-color="#a5a7aa"/>
      <stop offset="1" stop-color="#e2e3e2"/>
    </linearGradient>
  </defs>
  <path fill="url(#i)" d="M774.6 281.3c4.7 11.5-4 17.8-10.2 25.8 3.7 9.3 8 18.1 11.1 27.6l-10.4 3.6c-2.7-7.8-13.2-27.7-11-34.5.7-2.1 7.3-8.3 8.9-11.8l-.3-.8c-4.2 0-11.1.4-14.7-.4 4 0 11-1 15-2.2-1-1-1-1-1.6-2l3.5-.8c2.4-.5 6.1-1.8 8.5-2.7z" transform="scale(.41)"/>
  <path fill="#2d414b" d="M171 201.5c.8.6 2.3 1.4 3 2q1.2.4 1.8 1.2-1.6 6.7-2.6 13.5c0 .3-1.7.6-2 .7-1 .2-1.1.3-2 .1-3.1-2 .7-14.4 1.8-17.5"/>
  <path fill="#616a6e" d="M174 203.6q1.2.3 1.8 1.1-1.6 6.7-2.6 13.5c0 .3-1.7.6-2 .7l-.6-.3a37 37 0 0 1 3.4-15"/>
  <path fill="#2d414b" d="M287.6 260.1c1 6.6 0 12.4-3.9 18-1.7 2.4-8 7-11 6.6-1-1.7 1-3.1 2.3-4 7.9-4.9 10.3-10 9.8-19.2.9.6.9.7 1.7.6q.7-.9 1-2m-20.2 3.1c1.2-.1 1.7-.3 2.3.7.3 1.6-.5 3.5-.4 5.2q.1 8 .8 16a31 31 0 0 1 0 8l-2.4-.9c-1-6-1.2-20.9-1.4-27.7 0-.6.7-1 1.1-1.3"/>
  <path fill="#019484" d="M274 243.8c8 2.8 11.7 8.4 13.6 16.3q-.4 1.1-1.1 2c-.8.1-.8 0-1.7-.6a26 26 0 0 0-7.4-12.3c-4-3-6.7-3.1-11.3-2.5l-.5-.2c1.5-.8 1.7-.7 3.2-1.2-.1-.2-2.6-.5-3.4-.8 2.4 0 5.6.7 8 .2q.4 0 .7-.9"/>
  <path fill="#898e91" d="M275.8 104c3 0 5.6-.4 8.7-.8a8 8 0 0 1 2 3.3v2.2c-.3 5-3.9 4.9-8.1 5.7l.2-5.2-.9-2.2z"/>
  <path fill="#2d414b" d="M286.5 108.7c-.3 5-3.9 4.9-8.1 5.7l.2-5.2.5.7c1.2.4 6.5-.3 7.4-1.2"/>
  <path fill="#48555c" d="m286.4 106.5.1 2.2c-1 .9-6.2 1.6-7.4 1.2l-.5-.7-.9-2.2z"/>
  <path fill="#019484" d="M156 226.7c2-.3 9.9-1.7 11-.9.8 1.6 1.9 5.8-.4 6.5-2.8.9-7 .8-10 1l-.3-3z"/>
  <path fill="#038379" d="M167 225.8c.8 1.6 1.9 5.8-.4 6.5-2.8.9-7 .8-10 1l-.3-3c1.2.4 9.8-.7 10.8-1.8q.2-1.4 0-2.7"/>
  <path fill="#2d414b" d="m222.3 259.9 2.7 1.5 2.6 1.7a19 19 0 0 1-5.7 6.6l-5.2-1-3.9-.8c5.4-3.2 5.8-3 9.5-8"/>
  <path fill="#616a6e" d="m222.3 259.9 2.7 1.5c-1.6 2.2-5.7 6.6-8.3 7.2l-3.9-.7c5.4-3.2 5.8-3 9.5-8"/>
  <path fill="#019484" d="M185.9 206.7c2.7.3 4.2.7 6.8 1.5l-4.9 8.8-1.4 1.5h-3.7zm12.1 13.1c2.8-.7 7.6-1.5 9 2 .3 1-.5 2.9-1.2 3.7-1.2-.1-7.4 1-9 1.2-.2-1.5 0-4-.6-5.1l-.6-1c.6-.5 1.7-.7 2.4-.8"/>
  <path fill="#038379" d="M196.8 226.7c-.2-1.5 0-4-.6-5.1l-.6-1c.6-.5 1.7-.7 2.4-.8-.8.6-1.1.5-1.4 1.4q.3.6.8.5c5.5-.2 4.8 1.3 8.4 3.8-1.2-.1-7.4 1-9 1.2"/>
  <path fill="#48555c" d="M375.6 255.7c.7.7 1 1.2 2 1.6.8 0 .5 0 1-.3l.3-.7c.3 4-.3 7.7-4 10a7 7 0 0 1-5.5.8c-2.6-.6-6.2-3.8-5.2-6.7 1.6.3 1.5 3.7 7.7 3.5 3.9-2.1 4-4.2 3.7-8.2"/>
  <path fill="#038379" d="M121.4 233.7c3.3.4 18 1.7 19.8 2.5l.2.4q-1 .5-2.4.5c-5.2.4-11.8 1.5-17 2.3z"/>
  <path fill="#fdfdfd" d="M309 105c1 0 2 1.3 2.8 2 1 1 3.2 1.8 3.7 3.1-.5.4-1.7.5-2.4.6-2 .3-2.9.7-4.7 1.4l-.8.2c-1.7-.6-5.8-3.2-5-5.4 1.4-1.4 4.5-1.7 6.5-2"/>
  <path fill="#cac8c9" d="M317.7 101.1c3.9-.2 4.8 4.8 5.3 7.8.5 3.3-.5 5.2-2.5 7.8l-.7-1.5c-.6-1.3-1.3-2-2.3-3 4.5-4.7-3.6-7 .2-11"/>
  <path fill="#019484" d="M246.9 277.7c1.7-.1 3.5.6 5.2.9 4.2.7 8.8 1.3 12.1 4.3.5.5.4 2 .4 2.7a31 31 0 0 1-17.7-8"/>
  <defs>
    <linearGradient id="j" x1="577.6" x2="567.2" y1="559" y2="559.5" gradientUnits="userSpaceOnUse">
      <stop offset="0" stop-color="#2c4250"/>
      <stop offset="1" stop-color="#495961"/>
    </linearGradient>
  </defs>
  <path fill="url(#j)" d="M566 542.4c4.6 1 8 2.3 12.3 4.4a78 78 0 0 1-2.2 27.6c-1.8 1.5-1 1.3-3.2 1.6-7.6-3-6.7-26.3-7-33.6" transform="scale(.41)"/>
  <path fill="#2d414b" d="M280.3 228.3q1.4-.1 1.6 1.3c.3 1.8.6 4.6.5 6.4 0 1.4.7 7.3.3 7.9h-.5l-2.5-1.8c0-4-.9-7.7-.9-11.6 0-1.3.5-1.7 1.5-2.2"/>
  <defs>
    <linearGradient id="k" x1="878.1" x2="892" y1="554.5" y2="552.1" gradientUnits="userSpaceOnUse">
      <stop offset="0" stop-color="#f5f2f9" stop-opacity="0"/>
      <stop offset="1" stop-color="#c7c5c6" stop-opacity="0"/>
    </linearGradient>
  </defs>
  <path fill="url(#k)" d="m877.1 525.6 3.6-1.4c3.3 0 4.2.3 6.6 2.5l.4 3c-1.4 2.6 5 31 6 36.3l1 .3c1.1 4.5 4.2 14.8 1.2 18.8q-4-7.3-7.3-14.7l1.3-1.6c1.5-5.6-5.7-33-6.3-40-.3-4.3-7-1.1-8.9-.2l-.2-.4z" transform="scale(.41)"/>
  <path fill="#019484" d="m249.7 209 .9.1c.3 1.2-1.8 4.4-2.5 5.5l-6-1.6c-1-.3-2.1-.3-2.6-1.3l.3-.5c1.9-1 7.5-1.7 10-2.1"/>
  <path fill="#2d414b" d="M323.7 98.8q-.4-.4-.6-1l.2-.3c2-.6 6.3-2 8.3-.9.6.7.5.9.7 1.8-.7 2.8-4.1 2.8-6.5 4a10 10 0 0 0-2.1-3.6"/>
  <path fill="#616a6e" d="M323.7 98.8q-.4-.4-.6-1l.2-.3c2-.6 6.3-2 8.3-.9.6.7.5.9.7 1.8h-3.4c-1.5 0-3.9.5-5.2.4"/>
  <path fill="#26c5ad" d="M331.8 160c3.7 1 2.4 6-3.4 6.4-1.2-.5-2.5-2.3-1.6-3.5a8 8 0 0 1 5-3"/>
  <path fill="#48555c" d="M268.1 296.2c.6 0 .4-.1.8.3q.4 1-.2 1.9c-1.4 1.6-7.8 2.4-9.8 2.7h-.5c-.6-.7-.4-1.7-.2-2.4 1.7-1.1 7.6-2 10-2.5M320 139h.6q.8 1.4 1 3-3.5 1.4-7 2.5H313l-.2-.4c0-3.2 4.6-4 7.1-5.1"/>
  <path fill="#019484" d="M140.2 229.6c.8-.1.4-.2 1 .1q.6 1.4.4 3.1-5.2-.6-10.5-.8-1.2 0-2.3-.6c.6-.5 10-1.6 11.4-1.8"/>
  <path fill="#48555c" d="M313.4 96.1c3.2-.2 4.7 1 7.1 2.8q-2.9-.5-5.8-.2c-1.1 1-1.7 3-3.2 3.3-.6-.7-.3-2.3-.2-3.2q.4-1.8 2.1-2.7M257 293.4q3.6-.4 7 .6c-1.7.8-4 1.4-5.8 1.9-2.6.5-4.4-.2-6.8-1q2.6-1 5.6-1.5"/>
  <path fill="#898e91" d="m375.6 255.7-.2-.2c-1-1.9-4-4-3.8-5 3.3-1 6.1 3.3 7.3 5.8l-.2.7c-.6.4-.3.3-1 .3-1-.4-1.4-.9-2.1-1.6"/>
  <path fill="#48555c" d="M284.3 117.3h1.2c1.6 0 3 .5 2.8 2.2-.5.9-1 1-1.9 1.6l-2.8.8c-.2-2.1-1.4-3.4.7-4.6M114 233.2c3.9 0 4.8 1.6 3.7 5.4-.7.3-.9.5-1.7.5-1.3-1.2-.6-3.2-2-5.7z"/>
  <path fill="#019484" d="M240.9 253c1.3.2 6.3 2.6 6.7 3.8l-.4.2-3.8 1q-1.4-2.4-2.5-5"/>
  <path fill="#616a6e" fill-opacity=".6" d="M183.3 250.7c.5-.9 4.7-4.7 5.6-5.5-.2 1-.4 1-.1 1.8l.2.2c-1.5 2.3-2.5 3.6-5 4.7z"/>
  <path fill="#616a6e" fill-opacity=".9" d="M366.7 296.5c1.3-7.3 1.8-16.5 3.3-23.2 0 2.4-3 28.3-3.8 29.9l-.3-.1c.2-2.4.4-4.3.8-6.6"/>
  <path fill="#898e91" d="M98.3 242.4c-.5.5-16.6 5.7-17 5.6v-.3a78 78 0 0 1 17-5.3"/>
  <path fill="#2d414b" d="M251 297.9c1.4 0 2.8 0 3.4 1.5-.1.9-.2 1-.6 1.8-2.5 0-5.3-.3-2.9-3.3m37.9-73.3c1.1 0 1.5-.2 2.3.3.3 1.7-4 1.9-5 2q-1.2 0-2-.7c.7-1 3.6-1.6 4.7-1.6m-2.2 4.4 2.9-.3-1 3.1c-.7 0-1.8.2-2.3-.5q-1-1.4.4-2.4"/>
  <path fill="#cac8c9" fill-opacity=".3" d="M366.6 232h-.4c-.4-2.3-3-14-2.5-15 .5 1.2 3 13.7 2.9 15"/>
  <path fill="#adadae" fill-opacity=".6" d="M110.3 190.1c.4 3-.5 10 .3 12.7 0 1.3 0 11.2-.3 11.7a248 248 0 0 1 0-24.4"/>
  <path fill="#040c10" fill-opacity=".9" d="m106.6 272.1.4.1-.8 9.2c0 .8 0 2.2-.6 2.8a97 97 0 0 1 1-12"/>
  <path fill="#898e91" fill-opacity=".9" d="m108 258 .5.9c-.7 4-1 9.1-1.5 13.3h-.4z"/>
  <path fill="#48555c" fill-opacity=".9" d="m191.1 243 .4.3c-.6 1-1.7 3-2.5 4l-.2-.3c-.3-.8-.1-.7.1-1.8z"/>
  <path fill="#616a6e" fill-opacity=".8" d="M110.3 189.8h.4l-.1 13c-.8-2.6 0-9.7-.3-12.7z"/>
  <path fill="#48555c" d="M110.9 228.8c1.4 0 3.3-.2 4.2 1.2-1.5.4-3-.5-4.2-1.2"/>
  <path fill="#adadae" fill-opacity=".7" d="M108.8 251.5c.3 1-.2 6-.3 7.4l-.4-.8c0-1 .4-5.6.7-6.6"/>
  <path d="M276.6 126.4c-1.4 1-3.4 3.5-5.2 2.4-.8-2.3 1.5-3.9 3.1-5 .8 1.3 1 1.6 2 2.6"/>
</svg>
