<svg xmlns="http://www.w3.org/2000/svg" width="1137" height="604" viewBox="12 93 1137 604">
  <path fill="#061c28" d="M541.5 95.8c8.5-.8 21.8 2.2 23.1 12.4 1.4 11.1-4 30-8.5 40.5-1 2-13 13.5-15.4 15.7-1 .7-4 1.4-5.3 1.7 1.3 10.2 3.6 19.7 5.7 29.7l5.5 29.2c1.7 1.2 4.4 3.5 5 5.7 1.6 5.8.9 12 1.7 17.9.8 6 2.3 11.8 3 17.8 24.1-4 49.6-11.7 73.8-16 10.3-1.8 17.8-3.2 28.5-1.8 18.2 2.3 36.4 6 54.4 9l110 19 112.8 19.2c15.6 2.8 31.2 5.2 46.8 8.2 14.8 2.9 25.9 16 19.9 31.2-1.2 3-4.8 8-5.5 10.8-2.5 9.5-5 20-6.2 29.8.3 6 4.8 22.1 6.5 29q3 12.6 5.4 25.7l2.2-.4c12.7-2.3 40-6.2 52.9.3 6.2 3-1.5 10.5-4.2 13.8 20.5 6.7 26.6 6.8 45 21A124 124 0 0 1 1145 548c4.7 38.1-2.8 74.2-26.7 104.6a111 111 0 0 1-73.4 40.9c-44 5-83-12.8-108.6-49-15.5-22-19.9-43.5-22.8-69.5q-5.7-.5-11.4-.5c-24.5 49.2-70.2 38.8-114.5 34.2l-90-8.8c-16.3-1.6-40.3-4.9-56-4.9 5 16.1 16.9 35.2 24.2 50.7 2.5 5.1 18 18.2 14.8 24.3-5.5 3.4-34.4 2.7-38.3-1.8-1.8-4.4 0-13.6.6-18.8q-2.7-5.2-5-10.5c-8 1.9-18.6 5.9-26.7 8.5 1.8 5 4.2 13 6.8 17.4 3.2 5.8 15.1 17.3 12.8 24.5-4.6 5.3-29.9 3-36.6.5-4-1.5-3-5.7-2.3-9 1.7-7 4.2-10.3 1.5-17.6l-28.2-76c-6.5-.9-14-1.6-20.5-2.1-44-3.1-87.9-8.9-131.7-12.6l-12 7 1 6c15.7.1 27.1-2.4 23.7 20.2-2.2 10.9-13 9.6-21.4 9.4q-10.3-.1-20.6.2c-18.5 1-28.9-.9-24.4-23 1.4-7 11.7-4.7 16.6-7l-.1-2.2c-1-.9-16-3.1-19-4.1-15.4-5.4-32.2-6.3-48.3-9.8a156 156 0 0 1-36.1 60.5A138 138 0 0 1 140 667.2C48.6 644.5 8.7 543.5 30.1 457.5c-9.8.6-16.1.7-16-12.2.3-12 3.7-29.5 11.3-39.1 2.4-3.2 8.4-2.7 12.1-2.6 17.1-29.8 32.2-46.9 61-65-4.9-12.8-11.1-28.2-15-41-4.6-.2-13.5.3-17.8-.2-8.8-1.2-11.7-15.4.7-15.7l29.3-.2h103.5c5.4 0 28.8-1 32 2 14 12.9 28.7 24.7 43.5 36.8-2.3-6.7-3-12.6 2.3-18l.4-.5c-1.5-10-9.9-35.3-13.1-46.4-9 0-10.4-3.3-15.3-9.7-20 6.4-34.4 5-38.4-17.9-4.9-1.2-12-3.8-16-6.8-16.7-12.6-10.3-45 12-47 17.4-1.4 34 4.8 51.3 5.7 22.7.7 45-3.7 67.6-2.7 10.8.3 21.1 7 22.2 18.5 2.8 28-23.8 22-41.5 23.8-8.8 6.7-8.6 9-20.1 14 4 7.4 3.2 12.2 5.5 20l12.4 41.4c9.6 1 11.3 12 8 19.5a2529 2529 0 0 1 22.6 74.3c4.9 16.4 10.6 35 14.6 51.6l.5-.3c1.2-.8 3.4-2.3 4.8-2.4 15-1.4 31.4-.9 46.3-.3 11.4.5 11.3 12 9.9 20.3-1.8 10.5-14.1 4.9-19.7 8.2l-.2 1.1c.7.5 8.3 3.2 9.8 4 12 5.3 16.4 11 24.8 20.3 14 2.6 32.3 4 46.3 1.2 24.6-4.7 43.8-21.8 57.9-41.7 4.5-6.5 8.3-13.2 12.7-19.7-.9-7.5-2.8-16.8-4.1-24.5a4476 4476 0 0 0-14.3-79.8c-2-10.8-1.8-14.8-8.5-23.8-2.4-3.2-1.9-11.8-.6-15.6 2-6 6.7-9.8 12.2-12.5-1-6.2-2.7-15.8-4.1-21.9-2.1-9-3.9-8.2-4.3-18.5l2.8-4c-2.5-22-10.4-49-13.3-71.8-19-9.8-19.2-22.8-32.1-32-4-.5-8.4 0-12.5.2-2.5 3-2.5 3.3-6.5 4.4q-5.3 1.3-10.8 1.9a454 454 0 0 0-42 8.9c-13.1 3.4-19-3.7-20.2-16.4-.7-6.3.8-14.3 8.4-15.9q28.6-5.7 57.6-9.8c3.5-.2 7.1.3 10.6.4 9.8.2 23.8-1.7 32 4.7 9 7 14.2 18.4 22.3 26.4a23 23 0 0 1 17.7-4.4c2.2.2 4 .6 6.1.2 3-5.8-4.9-6-7.3-12a13 13 0 0 1 .2-10.2c2.1-5 5-7 9.9-9M265.8 354.4l.6.6c2.2-1 8-8.2 10-10.4-13.7-12.7-30-24-43.8-36.6-3.3-3-8-7.4-11.6-9.9-6.3-.7-14.5-.5-21-.5l-31-.1h-44.6c-7.6 0-17.3-.4-24.7 0l11.9 33.8c6.6-2.5 13.3-5.2 20-7.1 50.3-14.3 94-1.2 134.2 30.2M166 630.8c.1-2.4.1-6.8.4-9 .1 2.1 0 4.3 1 6.1 1.3-1.1 1.5-3.3 1.8-5.2v8.4c7.2 0 26.3-1.1 32.2-4.7.2-1 .3-1 0-2l2.6-1c.3 1.5 0 1 .8 2 4.9-.7 16.3-7.2 20.2-10.3-1.5-2-9.6-18.7-11-21.7-7-15.1-16.4-32-22.6-47.2-3.2-2.2-9.5-4.3-12.5-1.1-1.3.6-1.2.5-2 1.5l-.7-.8c-3.1-.3-3.6-.4-6.7.5-1 1.2-.6.5-.8 2.3l-1.6-.2-.4-2.1c-8.8-.7-12.4-3.5-19.4-4.6l-1.2-1.4c-1-1.7-5.1-5-7.1-5.4-1-.2-1.4.4-2.2 1l-.8-1.9c.8-.6.7-.7 1-1.6-1-3-3.6-6.5-5.5-9.2l-1-2.7c-2-6-2.4-10.9-3-17-5.8 0-12.4-1.1-18.2-1.6-13.7-1-31.5-4.1-44.9-4.2 0 15-.1 32.5 5.6 46.6l.7 3c4.2 13.8 7.4 20.2 14.6 32.6l2.2 3.1c7 9.4 9.6 12.1 17.4 20.2l2.6 2.5c17.2 15 35.4 24 58.5 25.1m-26.5-159.6 3-.2c.2.4.4.3.9.7l5.2-2c-2.2-7.8-7.9-21.5-11-29.3l-18.4-47.3a107 107 0 0 0-26 24.1l.5.8-1.9 2.2c-2.5.7-7 8.2-8.5 10.7-6.8 12.2-13 26.1-15.4 39.9l-.9 3.7c-1.3 7.3-1.7 12.4-2.4 19.6l40 3.6c7.2.6 16.6 1.7 23.8 1.7.3-1.5.4-3.6.6-5.2l1.2-3c3-7 6.4-11 10.2-17.3.4-.8-.5-2-1-2.7m53.8 75.3q4.7 8 8.6 16.6c8.2 17 17.1 33.7 24.9 50.9 11.5-4.1 31.1-29.8 36.8-41.3-7-4.3-12.5-10.8-19.4-15.2-6.3-4-42-10.5-51-11.8zm283.3-15q25.2 2 50.3 4.3c10.2.9 21.3 2.4 31.4 2.6-1.2-13-3.3-26.3-5-39.2-.4-3.7-2-18.8-2.9-21.1-5 5.3-10.5 11.5-15.9 16.4a123 123 0 0 1-76 33.8 75 75 0 0 0 18.1 3.2m-315-67.4c2.4 0 4.9.3 7-.5l.2-1.4 1.1.3c1-1 1.1-3 1.4-4.4 0 2-.4 3.9 1.6 4.8 2.7-.6 4.7-4.6 6-6.8 3.6-5 14-64.4 16.6-75.8-4.6-1.4-6.9-2.2-11.7-2.8-5.2-.5-7.7-.8-12.9-.4v9.2c-.9-1.4-.1-6.3-1.7-8.3l-.7 1-.6-1.4c-7.7-2.6-27.5 4.1-35 7.9l-.4.2q2.6 8.5 5.9 16.8c7.5 20.6 15.7 41 23.3 61.6m894.2 86.8c.5.7 1.1 1.8 1.7 2.4a34 34 0 0 1 2.8 9.4l.3 4c0 2.8 0 6.5-.2 9.1 8.7 3.5 22.7 4.6 31.8 7.5-3.3 1.3-5.6-1-9.3-.5 2.5.7 6.5 1.6 8.8 2.5l.1 1q-16.2-3.6-32.6-6.7c-1 1.8-2.6 4.6-2.5 6.6a460 460 0 0 1 39.1 31.3l.7.4c5-3 10.7-22 11.7-28 0-.8.4-2.2.5-3 1.2-4.6 2.9-22.6.9-26.3l-1.8-.2 1-1.2-1.8-1.4c1.2-.2 1.2-.1 2.2-.9 1-7-4.6-24.6-8.5-30.8A72 72 0 0 0 1072 493l-1.2-1.7c-2-.7-6.8-3.6-9.1-4.7-5.4-2.7-8.5-3.2-14-5 0-1.4-.2-1.1-1-2.6l-1.2-.2a28 28 0 0 1-4.6 1.6c-8-.6-17.9-1-25.8.5 1.3 6.7 13.6 52.4 16.2 55l1.4.6c3-1.5 2-3.5 2.7-6.4 0 2.2-.2 4.1.6 6.1q.4 0 .8-.3a12 12 0 0 0 6.8 3.3l.7-.3c.7.8.7 1 1.7 1.4.3 1.6 7.7 7.5 9.7 10.7m10.4 95.6.4 1c6.1-1.1 27.5-20.7 28.2-27.2l-1.9-1.8c-10.3-10.2-27.3-20.6-37.2-30.2-.9.1-9.6 8.7-11.7 10.3a979 979 0 0 1 22.2 47.9m-37.8-37.8c-.9-2.2-.3-1.4-2.3-2.9.5-1.8.7-1.4.3-3l-1.8-1c-2 0-2.8-.1-4.7.7l-1.5-1.6a37 37 0 0 0-6.7-2l-1.3-1.4a41 41 0 0 0-8-7c-.4-.3-1-1.1-1.2-1.6-.4-2-1.7-4.3-2.6-6.2l-5.3 1.2c-.1-.6-.7-1.8-1-2.4l1.3-.6c-2.2-2-38-3.6-43.4-3.6.3 3.7.8 12.9 2.8 15.6l1.2-.1c1 1 1.4 1 2.8 1.6l-2.5.5c-2.5 4.3 5.3 17.1 7.6 21.3l1.8 2.8a76 76 0 0 0 19 21l2 1.1a47 47 0 0 0 18.6 10.8l.4-.3.7.9 1.3-.8c1 3.6 16.1 5.9 19.3 4.5V655l.8.2c.8-1 .8-1 2-1.5l.4 3c5.5 3.4 31-3.2 35.8-7.9-7-16.7-15.1-32.4-22-48.8a77 77 0 0 1-13.5 2.5zM308 413l-3.4-11.8-8.1-26.9-1.7-5.9c-4 4-7.4 7.4-11.2 11.6a238 238 0 0 1 24.4 33m670.4 89.2a42 42 0 0 0-12.3 13.5c7.5 6.6 17.7 15 24.8 22v-.3c.1 0-11.4-31.7-12.5-35.2M998 549a60 60 0 0 0-8.3-8.8L964.9 518c-4 5.6-5.2 8.5-8 14.9.8.4 4 2 4.5 2.4 4.7 2.2 14 6.1 18 8.6 8.7 2.5 7 4 18.5 5.2M238.6 434l-4.6 6.4-1.2 1.6 1 1.4a118 118 0 0 0-22.6 25.2c6.8.2 11.2.8 17.4-2.1a373 373 0 0 1 38.2-19 99 99 0 0 0-12-22.7l-.9-1.7q-1.4-2.5-3.2-4.8-6.2 7.8-12.1 15.7m739 111.3-17.3-7.6c-2.3-.8-2-1.1-4.3-.7-1.7 1.5-2 4.7-2.6 7.1 6.8.6 17.8 1 24 1.8zm-620-82.4c0 1-.3 2.4.4 2.9 2 1.5 6.9.5 9.5.5l.3-2.6c-2-2-7.3-.8-10.3-.8m271.9 158c-4.6-9.8-9.6-19.6-14-29.4l-25.5-2c3.4 12 10 26.5 14.2 38.9l20.2-6zm-366.1-50.2 1-.3c2-2.7 3.4-6.3 4.8-9.4l-5.5-1c-5.2-1-10.8-1.9-15.9-3 2.9 2.4 14 11.4 15.6 13.7M197 433.6c3.6-1.3 27.9-31.3 32.3-36.3-3.4-3.2-9.6-7.9-14.3-8.2l-.6-1.6c-6-2.8-10.4-5.2-16.9-6.7L185 448.4c5.2-5 6.4-8 9.6-14.5l.8.8zm4.7 90.4c-1.7 2.6-9.7 13.4-10 14.7l1 .5c3.3.1 10 1.6 13.7 2.3 7.7 1.6 14.4 2.8 22.3 3.7-6.6-5.8-16-13.6-23-18.7zm109 37.7c5.1 1 21.3 4.8 25.6 3.9l-2-2.8a59 59 0 0 1-12.7-21.3c-.7-1.9-.8-2-2.5-3.2-1.8-.2-1.2-.2-3 .7-2.8 4.5-4.2 16.8-5.4 22.7m-43.3-112.1-18.5 9c-6.5 3.4-11.3 6.7-18.4 8.9 8.3 2 33 .7 43 .5a51 51 0 0 0-6.1-18.4m9.2 81.4q-16.5-1.3-33.2-3c-9.3-.9-25.7-3.2-35-2.8l-.2.5.6.4c7.9 5.2 20.7 18 27.8 21 4.4 2 21.9 4.7 28.4 6.4l6.3 1.4c2.8-8.5 3.8-15.1 5.3-24"/>
  <path fill="#d79c5d" d="M533.2 314c11.4 1.3 21.7 3.6 33 5.7l41.6 7.5 183 32.5c32.2 6 66.2 12.7 98.8 16.7 5.8.7 32.8-6.6 38.7-9.6 9.1-3 19.9-6.1 28.6-9.6-12.6 15-6.6 23-2.8 40.3-2.7 5.4-6.3 11-9.2 16.7Q931.1 441 917.7 468l-27.5 55.8c-2 4-10.1 21.3-12.4 23.5a82 82 0 0 1-56.4 20.4c-15.6-1-31.8-3-47.4-4.6l-77.2-8c-32.8-3.7-65.6-6.6-98.4-10-15.5-1.6-25.1-9.5-29-25q-.6-2-.9-4.3c-2.4-17.5-6-34.1-9-51.5l-18.1-100.2c-2.3-13-6.3-31-7.7-43.8l-.5-6.4"/>
  <path fill="#b37738" d="M533.2 314c11.4 1.3 21.7 3.6 33 5.7l41.6 7.5 183 32.5c32.2 6 66.2 12.7 98.8 16.7 5.8.7 32.8-6.6 38.7-9.6 9.1-3 19.9-6.1 28.6-9.6-12.6 15-6.6 23-2.8 40.3-2.7 5.4-6.3 11-9.2 16.7Q931.1 441 917.7 468l-27.5 55.8c-2 4-10.1 21.3-12.4 23.5a82 82 0 0 1-56.4 20.4c-15.6-1-31.8-3-47.4-4.6l-77.2-8c-32.8-3.7-65.6-6.6-98.4-10-15.5-1.6-25.1-9.5-29-25q-.6-2-.9-4.3c7.5 2.3 12 14.9 28.2 18.7 17.2 4 35.1 5.6 52.7 7.8 25.7 3.2 51.4 7 77.1 9 26.2 2 52 7 78.2 7.8a25 25 0 0 0 13.2-3.1c12.9-6.7 15.6-21.2 19.9-34q6.3-18.5 12-37.1l14.6-47.8c5.7-18.4 10.9-34.1 15.5-52.9-11.1-3.6-27-6.1-38.6-8.1q-17.6-3-35-6.5l-188.3-34a2074 2074 0 0 0-46.3-8.1c-9.6-1.6-29.5-4.7-38-7.2l-.5-6.4"/>
  <path fill="#f5ebc9" d="M523.8 291.6c1.4-3 2.8-6.4 6.3-7.5 5.5-1.7 11.8-2.9 17.5-4.1l33.4-7.3c21.6-4.6 47.6-12.1 69.3-13.9 10.8-.8 38.6 5.1 50.7 7.1l102.4 17.7L909.6 302q20.4 3.3 40.6 6.9c11.9 2 26 4 37.3 8.4 3.7 1.4 5.7 4.7 6 8.7-.8 11.1-6.8 13.5-16.6 16.5q-9.9 2.9-19.4 6.5c2.3 1.8 1.2 6.1-.6 8.2-8.7 3.5-19.5 6.6-28.6 9.6 2.3-3.5 11-3.4 13-6 .8-2 .9-2.2.5-4.4-6-.7-18.6 7.5-25 6.5a74 74 0 0 1-38.2 4.7c-19.2-3.2-38.3-7-57.4-10.5l-82.1-14.4-94.3-17-71.5-12.9c-11-2-22.3-3.5-33.2-6-3.9-.9-10-1.7-13-4.3-3.1-2.8-3-7-3.3-10.9"/>
  <path fill="#d79c5d" d="M523.8 291.6c3.9 3 7.8 4.8 12.5 5.7 16 3.2 32 5.7 48 8.6l108.7 19 133.7 23.6c17.4 3 52.5 11.3 68.6 10.2 10.2-.6 41-11.9 51.9-15.6 12.4-4.2 27.4-8.5 39.3-14.2 1.8-1 5.7-2.2 7-2.9-.8 11.1-6.8 13.5-16.6 16.5q-9.9 2.9-19.4 6.5c2.3 1.8 1.2 6.1-.6 8.2-8.7 3.5-19.5 6.6-28.6 9.6 2.3-3.5 11-3.4 13-6 .8-2 .9-2.2.5-4.4-6-.7-18.6 7.5-25 6.5a74 74 0 0 1-38.2 4.7c-19.2-3.2-38.3-7-57.4-10.5l-82.1-14.4-94.3-17-71.5-12.9c-11-2-22.3-3.5-33.2-6-3.9-.9-10-1.7-13-4.3-3.1-2.8-3-7-3.3-10.9"/>
  <path fill="#020202" d="M957.5 349c2.3 1.8 1.2 6.1-.6 8.2-8.7 3.5-19.5 6.6-28.6 9.6 2.3-3.5 11-3.4 13-6 .8-2 .9-2.2.5-4.4-6-.7-18.6 7.5-25 6.5 11-4.4 29-9.9 40.7-13.9"/>
  <path fill="#b37738" d="M555.4 286.1a356 356 0 0 1 51-12.3c13.6-2.5 35.6-9.5 48.8-8.4 21.1 1.6 47.1 8 68 11.6l164.6 28 60.7 9.9c6.4 1 33 1.1 31 10.3-1.8 1.9-3.4 1.9-5.8 1.6-2.7.3-12 4.7-15 5.5-14.6 3.9-51.4 18-64.7 18.4-12.3.3-48.2-7.2-62.2-9.8l-96.7-17-126.8-21.6-39-7c-4.4-.7-26.5-3.7-28-6.1 2.5-2 10.6-2.7 14-3"/>
  <path fill="#d79c5d" d="M555.4 286.1a356 356 0 0 1 51-12.3c13.6-2.5 35.6-9.5 48.8-8.4 21.1 1.6 47.1 8 68 11.6l164.6 28 60.7 9.9c6.4 1 33 1.1 31 10.3-1.8 1.9-3.4 1.9-5.8 1.6 1.5-.7 4-1.7 4.4-3.2l-1-.3a75 75 0 0 1-29 1.9 11 11 0 0 1-6.6 4.1c-4-1.5-12.3-1.2-16.8-2-13.7-3-27.3-4.9-41-7.2L723 292l-34.3-6c-11.8-2-25.5-2.6-36.8-6.3 0 6.3-.2 13.9-.9 20.1l-.3-2-.4-.4.1-.6c-.3 1.3-.7 1.6-1.5 2.6l-.6-1.5h-.7l-.8 1.6c-4.1-1.6-17.9-3.4-22.9-4.1l-32-5.3c-3.9 1.2-1.8-2-7.2-3.7-6 1-21.6-.4-29.3-.3"/>
  <path fill="#442006" d="M584.7 286.4c22-5.5 52-14 74.4-11 21.7 2.8 44 7.5 65.8 11.2L885 313.8c6.4 1 13.4 3 19.6 4 14 2 29.5 5.7 43.4 7.4a11 11 0 0 1-6.6 4.1c-4-1.5-12.3-1.2-16.8-2-13.7-3-27.3-4.9-41-7.2L723 292l-34.3-6c-11.8-2-25.5-2.6-36.8-6.3 0 6.3-.2 13.9-.9 20.1l-.3-2-.4-.4.1-.6c-.3 1.3-.7 1.6-1.5 2.6l-.6-1.5h-.7l-.8 1.6c-4.1-1.6-17.9-3.4-22.9-4.1l-32-5.3c-3.9 1.2-1.8-2-7.2-3.7"/>
  <path fill="#b37738" d="M592 290c3.5-2.4 44.5-7.4 53.6-10.7 0 6.4-.5 14.3 1.2 20.2-4.1-1.6-17.9-3.4-22.9-4.1z"/>
  <defs>
    <linearGradient id="a" x1="806.5" x2="812.4" y1="352.8" y2="313" gradientUnits="userSpaceOnUse">
      <stop offset="0" stop-color="#031527"/>
      <stop offset="1" stop-color="#1d2627"/>
    </linearGradient>
  </defs>
  <path fill="url(#a)" d="M593.9 306c8.2-.1 24.9 1.4 31.3.2 5.8 1.9 3.6 5.3 7.8 4q17.1 3 34.2 5.6c5.3.9 20 2.7 24.4 4.5l1-1.7h.6l.7 1.5c.8-1 1.2-1.4 1.6-2.7l-.1.6.4.5.4 2.1c3 1.4 19.6 3.2 24.2 4l46.3 7.9 65.6 11.8c38.7 6.7 81.5 14.5 120.5 20.5 7.6 1.1 44.3-9 53.6-12.4l.4-.2a12 12 0 0 0 7-4.4c11.2.9 19.9 1 31-2.1l1.1.3c-.3 1.6-3.1 2.7-4.7 3.5-3 .3-12.9 5-16 5.8-15.7 4.2-55 19.4-69.2 19.7-13.2.4-51.5-7.7-66.5-10.4L786 346.4l-135.5-23.2-41.6-7.3c-4.9-.9-28.5-4-30.1-6.7 2.7-2.2 11.3-2.8 15-3.2" transform="scale(.94)"/>
  <path fill="#028a7a" d="M448.6 538.1c29.5 3.3 59.6 4.5 89.2 7.7q8 1 16 1.4c5.8-.2 18 .7 23.7 2.3 10.2 2.9 13.8 4.7 24.5 5.8q105.7 12 211.6 22 13.6 1.3 26.8-.8c4.6-.8 13.9-2.9 18-3 11-.6 23.4.4 34.5.6-4.9 7.4-8.7 13.7-16 19-22.9 16.7-50 11-76 8.5-19.4-1.9-39.1-4.3-58.7-6.2l-175.5-16.8c-40.4-4-83.7-9-124.1-12-.7-1-.1-21.2-.1-24.5-.6-.5-4.7-2.2-5.6-2.6a74 74 0 0 1 11.7-1.4"/>
  <path fill="#5bd4c3" d="M448.6 538.1c29.5 3.3 59.6 4.5 89.2 7.7q8 1 16 1.4c5.3 1.6 11-.5 11.5 6.8l-.7.6c-6.6 0-15.2-1.1-21.9-1.8l-45.4-4.8-33.4-3c-4.6-.3-18.2-.5-21.4-2.9-.6-.5-4.7-2.2-5.6-2.6a74 74 0 0 1 11.7-1.4"/>
  <path fill="#2d464e" d="M295.9 566.3c-7.6 21.3-17.9 39-34 55.1a126 126 0 0 1-88.7 37c-36 0-65.7-13-91.5-38.1-30.1-30.8-43.9-71.1-44.7-113.4-1.1-51.4 14.2-84.7 49.3-121.2 3.5-3.7 18.2-15.2 22.7-15.2 1.9.7 1.3.2 2.3 1.8-.3 1.7-.6 1.4-2.1 3l1.9.4c-2 3-15 9.6-16.3 14 4.8-3.8 12.6-10.3 17.7-13q1.7 3.5 3 7.1a139 139 0 0 0-59 90.5c-13 69 23.4 150.8 97.4 164.5 26.8 5 54.6-.7 77.2-16 17.6-12 31.8-28.3 41.2-47.3 2.1-4.4 3.5-8.5 5.4-12.7 2.3.6 5.2 1.2 7.4 2-2.3 5.6-4.4 11.1-7.2 16.5l.6.3c2.4-1.6 5.3-12.2 7.5-15.7l1-.2-.2 2.4c.7-1.3.7-1.3 1.7-2.4 2.2-.7 5 .1 7.4.6"/>
  <defs>
    <linearGradient id="b" x1="203.2" x2="152.6" y1="420.5" y2="688.8" gradientUnits="userSpaceOnUse">
      <stop offset="0" stop-color="#8d9697"/>
      <stop offset="1" stop-color="#b4b6b6"/>
    </linearGradient>
  </defs>
  <path fill="url(#b)" d="M101.4 416.7c5-4 13.4-11 18.9-14l3.3 7.7a148 148 0 0 0-63.2 96.7c-13.8 73.9 25 161.4 104.1 176 28.8 5.4 58.4-.8 82.6-17.2a132 132 0 0 0 44-50.5c2.4-4.7 3.8-9.1 5.9-13.6 2.4.7 5.5 1.4 7.8 2.2q-3.4 9-7.6 17.6c-5.8 9-9 15.5-15.7 24.2a129 129 0 0 1-70 44.8c-31.9 7-64.8 2.2-92.4-15.7-19-12.4-26.9-21.7-40.7-39.2l-3-5a181 181 0 0 1-25.7-90c-.6-50.7 16.7-88.2 51.7-124" transform="scale(.94)"/>
  <path fill="#123741" d="m70.5 589.7 2.8 4.7-.9 1.2c-2-.6-2.5-2.2-3-4z"/>
  <path fill="#2d464e" d="M1067.2 470.5c1.7.2 2.8.2 4.5.2h-.2l-.2-1c-2-.4-4-.6-5.6-1.8-3.2-2.5-7.4-3-11-4.1a65 65 0 0 0-27.7-3.9c-2.2.2-10 1.4-10.9 1 4-3 17.8 0 19-5.2-2-1-16.8.7-18.4 0 29.7-3.3 52.2.4 77 19 23.8 18 37 48 40.5 77a131 131 0 0 1-27.2 95.8 94 94 0 0 1-62 33.3 100 100 0 0 1-81.4-23.7c-21-16.6-34.8-47.4-37.3-73.7l-.3-6.9c2.2 0 5.9 0 8 .2 10.1-.3 6.7 2 8 9.3a98 98 0 0 0 35.4 61.6 83 83 0 0 0 61.9 18.4c44.8-5 74.5-42.9 78.9-87.5 5.6-56.5-33.6-111.7-94-107.8-6.3.4-12.7 2-19 2.7-1.3-1.6-1.7-6.4.8-7.1 24-7.5 38.4-3.6 61.2 4.2"/>
  <defs>
    <linearGradient id="c" x1="1124.3" x2="1081.8" y1="498.6" y2="716.5" gradientUnits="userSpaceOnUse">
      <stop offset="0" stop-color="#8d9395"/>
      <stop offset="1" stop-color="#abafb0"/>
    </linearGradient>
  </defs>
  <path fill="url(#c)" d="M998.7 616.7c10.9-.3 7.2 2.1 8.6 9.9a105 105 0 0 0 37.9 66 89 89 0 0 0 66.1 19.5c48-5.2 79.7-45.8 84.4-93.5 6-60.4-35.9-119.4-100.5-115.3-6.7.5-13.5 2.2-20.4 3-1.3-1.8-1.7-6.9 1-7.7 25.6-8 41-3.8 65.4 4.6 28.5 15 47.8 36.6 57.2 67.7 20.2 66-18.4 145.7-92.7 148.8-47.9 2-88.6-30.1-101.3-75.9-2.5-9.3-4-17.6-5.7-27.1" transform="scale(.94)"/>
  <path fill="#06a994" d="M234.3 477.7c31.7-1.4 65.7-1.4 97.5-2.2 9.1-.2 40.5-1.5 48.2-.4 10.8.9 17.6 3.3 26.3 9.9 1 .8 3.5 2.6 4 3.6a46 46 0 0 1 14 21A51 51 0 0 1 399 570q-2-9.7-5-19c7.3-9 12.2-15.6 11.1-28.1a32 32 0 0 0-11.3-21.5c-12.1-10.2-32.8-9.4-42.6 3.2-10.2 13-10 34.6 4.3 44.6 4.8 3.4 8.8 5 14.3 6.8q3.2 8.5 4.6 17.6a52 52 0 0 1-35.7-17c-1 1.8-4 5.6-4.2 6.1a59 59 0 0 1-12.7-21.3l.5-.1 1 .9c1.4-2 2-2.3 4.1-3.5l.7-.3c-4.4-13-1-33.1-18.6-35.8-34.9-5-70.9-5.9-105.9-9.9-.8-5-.7-8.2-.7-13.3 6.5-1.4 24.3-1.7 31.5-1.8"/>
  <path fill="#3bc0ad" d="M234.3 477.7c31.7-1.4 65.7-1.4 97.5-2.2 9.1-.2 40.5-1.5 48.2-.4l-1 .6c.7 1.4 1.5 1.7 2.9 2.6-1.9 1-2.6-1-4.2.8l.4.8-5 .1c-18.9.5-38-.7-56.9-.1-26.4.7-53 1.7-79.4 1.6 1.4-1 16.8-1 19.3-1-1.4-.4-2-.7-2.7-2a141 141 0 0 0-19.5 0z"/>
  <path fill="#5bd4c3" d="M380 475.1c10.8.9 17.6 3.3 26.3 9.9 1 .8 3.5 2.6 4 3.6 1.2 5.7 6 4.6 5 11.4-3.7-5.7-6.7-9-12.2-12.9a57 57 0 0 0-25-7.2l-.4-.8c1.6-1.9 2.3.2 4.2-.8-1.4-.9-2.2-1.2-3-2.6z"/>
  <path fill="#020202" d="M328 538.5a72 72 0 0 0 10.6 18.2c-1 1.8-4 5.6-4.2 6.1a59 59 0 0 1-12.7-21.3l.5-.1 1 .9c1.4-2 2-2.3 4.1-3.5z"/>
  <path fill="#3bc0ad" d="M410.4 488.6c6.7 5 11 13.2 14 21-5 1.8-8-6-9.1-9.6 1-6.8-3.8-5.7-5-11.4"/>
  <path fill="#06a994" d="M302.4 317.5c3.3 1 4.6 9.8 5.7 13.4l12.3 42.1c7.9 27.3 17 55.1 24.8 82.4l3.4 10.8h-15.3c-2.1-9.3-7.2-23-10.2-32.4l-11.9-37.7c-2.3 1-4.7 1.3-6 2.7l-.6 2.5-8.1-26.9c1.9-2.2 4.7-3.5 7.2-5-1.7-6.2-3.2-11.4-5.4-17.5-10.2 7.3-113 125.7-119.9 138.4 1.2 2.7 3.8 7.4 6.5 8.3 6.7 2.3 18.6 3 25.9 3.8q30 3.4 60 5.8c9 .8 33 2 42.2 5.6 2.6 1 3 11.7 3.3 15.2-17.2-1.1-36.2-5.7-53.4-7.7-12.4-1.5-24.6-2.4-37-3.8a882 882 0 0 0-45.5-4.3c-3.6-.2-10.2 4.8-14.4 4.7a12 12 0 0 1-9-3.9 15 15 0 0 1-4.5-10.9c.1-8.8 14-16.7 20.1-24.4 30-38 62.5-73.8 93.6-110.8 8.1-9.7 18.1-19.9 27.1-28.8-.7-5.3-2.3-12.5-3.4-17.9q6.5-1.3 12.5-3.7"/>
  <path fill="#3bc0ad" d="M302.4 317.5c3.3 1 4.6 9.8 5.7 13.4l12.3 42.1c7.9 27.3 17 55.1 24.8 82.4l-2.4.4c-4.5-2.8-13.1-35.8-15-42.7l-12.9-45.3c-4.4-15-10-30-13.8-45.4-.6-2.5 0-2.5 1.3-4.9"/>
  <path fill="#020202" d="M296.5 374.4c1.9-2.2 4.7-3.5 7.2-5 2.4 8.3 5.6 18.5 7.5 26.7-2.3 1-4.7 1.3-6 2.7l-.6 2.5zm-130 120.4c9.4-.3 14.5 12.6 3 17.8-11.3 0-14.6-12.6-3-17.8"/>
  <path fill="#d79c5d" d="M195.6 203.8c.8-11.1 2.8-20.5 16.2-19.8 14.7.8 29.7 4.8 44.3 5.3 25.5.7 48.8-3.6 74.5-1.6l1 .8c4 2.8 5.4 5.5 6.2 10.1-.2 2.1-.5 6-2.3 7-8.5 4.2-20.5 1.5-29.7 2.7-26.7 3.7-48.5 20.2-76.5 14.7-10.4-2-32-6.4-33.7-19.2"/>
  <path fill="#b37738" d="M337.8 198.6c-.2 2.1-.5 6-2.3 7-8.5 4.2-20.5 1.5-29.7 2.7-26.7 3.7-48.5 20.2-76.5 14.7-10.4-2-32-6.4-33.7-19.2 4.5.5 11.6 4.9 16.1 6.8 16.7 7 33.9 7.2 51 2 10.8-2.8 22.4-9.2 33.4-10.8 13.8-2 27.7-1.2 41.7-3.2"/>
  <path fill="#06a994" d="M998.7 486.3c6.4 21 11.8 41 21.2 61.2 3.8 8.3 17.3 16.5 13.2 24.6a8 8 0 0 1-5 4c-9.1 2.5-11.4-6.7-14.8-12.6C993 528 981.6 489.9 973.7 450c-.9-5.1-.6-8.6.8-13.4 3.3-11.3 31.6-11.7 16.6 1.1-.6 2.8-.6 6.3-.6 9.2.3 2.5 2.2 10.7 2.2 12.7 1.6 7.7 5 19.7 6 26.6"/>
  <path fill="#5bd4c3" d="M988.4 439c.6 3.7.5 4.7 2 8 .4 2.5 2.3 10.7 2.3 12.7-.4 4.3-.6 5.4.2 9.6l-.3.8c-1.9-1-1.6-2.1-2.9-3.8-1.3-4.9-3-9.1-4.8-13.8-2.7 1-5.1 2.3-7.6 1.3-3.6-4.4 8-12.3 11-14.8"/>
  <path fill="#3bc0ad" d="M992.7 459.7c1.6 7.7 5 19.7 6 26.6l-.3.5c-1.8.5-1.1.6-2.8.1-2.6-3-4.9-16-5.9-20.6 1.3 1.7 1 2.8 2.9 3.8l.3-.8c-.8-4.2-.6-5.3-.2-9.6"/>
  <path fill="#002216" d="M1024.2 564c2.7.7 3.8 1 5 3.7 0 2.1 0 2.4-1.1 4.2-1.8 0-2.1 0-3.9-.6-2.6-2.6-2-4.4 0-7.3"/>
  <path fill="#5e6a6f" d="M124.4 364.8c-.5-2.8-.9-2.4 0-4.8 5.7-6 32.9-10 42-10.2 27.3-.8 54.1 7.3 76.4 23.1 3 1 4 1.7 6.3 4.1-1.7 1.7-5.3 5.4-7 6.7l-6.8 7a102 102 0 0 0-33.8-18.4 104 104 0 0 0-72.8 4.7c-1.2-3.1-1.8-6.4-3.1-9.7-.7-.7-.8-1.4-1.2-2.5"/>
  <path fill="#2d464e" d="M124.4 364.8c-.5-2.8-.9-2.4 0-4.8 5.7-6 32.9-10 42-10.2 27.3-.8 54.1 7.3 76.4 23.1 3 1 4 1.7 6.3 4.1-1.7 1.7-5.3 5.4-7 6.7-3.3-5-25-15.7-31.5-18.3a116 116 0 0 0-85 2c-.7-.8-.8-1.5-1.2-2.6"/>
  <defs>
    <linearGradient id="d" x1="197.4" x2="196.6" y1="380.5" y2="406.4" gradientUnits="userSpaceOnUse">
      <stop offset="0" stop-color="#0c1f25"/>
      <stop offset="1" stop-color="#253542"/>
    </linearGradient>
  </defs>
  <path fill="url(#d)" d="M133 390.1c5.7-3 12.8-4.4 19-6 26.5-7 56.9-5.8 82 6.4q6.3 3.1 12.4 7c3.6 2.2 11.9 8.7 15.7 8.2 1.9-1.3 1.5-.7 2-2.5-1.1-2-2.8-3-4.5-4.4a13 13 0 0 1 6.8 4.4c-1.8 1.8-5.7 5.8-7.5 7.1-3.6-5.2-26.8-16.8-33.7-19.5a124 124 0 0 0-91 2q-.8-1-1.1-2.7" transform="scale(.94)"/>
  <path fill="#028a7a" d="m545.2 443 .6-.1c.8 2.6 3.3 18.7 3.6 21.6-29.5 41.4-63.3 58.5-113.8 54-1.2-5.8-2.9-11.5-3.9-17v-.6c.8-.4 18.3 1 20.9 1.2q6 .2 12-.4a89 89 0 0 0 35.2-11.1c4.8-.6 7.7-5.4 11.8-3.6a137 137 0 0 0 22.6-22.6c3-5.6 13-13 11-21.4"/>
  <path fill="#5bd4c3" d="M499.8 490.6c4.8-.6 7.7-5.4 11.8-3.6a91 91 0 0 1-48.3 20.3c-8 0-18.5.5-26.2-.9-3-.5-4-2.4-5.4-4.8v-.7c.8-.4 18.3 1 20.9 1.2q6 .2 12-.4a89 89 0 0 0 35.2-11.1"/>
  <path fill="#06a994" d="M511.6 487a137 137 0 0 0 22.6-22.6c-1.6 6.4-2.2 11.8-8.4 14.8-6 2.8-10.3 9.2-15.3 13-3.2 2.5-21.4 13.6-24.6 13-1.5-1.4-2-1.4-4.1-.3l1.5.5q-.3 1.2-1.1 1.7c-5.1 1.7-13.5.5-19 .2a91 91 0 0 0 48.4-20.3"/>
  <path fill="#028a7a" d="M958.7 409c1.5 5.2 4.8 20.9 5.3 26a159 159 0 0 1-23.2 36.5 135 135 0 0 0-37.6 80.8l-11.4.2H888q-2.4-1.5-.8-4c6.7-10 11.6-21 16.9-31.9l33.2-67.4c3.3-6.8 17.4-35.4 21.4-40.1"/>
  <defs>
    <linearGradient id="e" x1="199.9" x2="200.5" y1="392.7" y2="351.2" gradientUnits="userSpaceOnUse">
      <stop offset="0" stop-color="#0d9080"/>
      <stop offset="1" stop-color="#0db4a0"/>
    </linearGradient>
  </defs>
  <path fill="url(#e)" d="M172.1 350.7c8-.6 17.9-.7 25.8 0 30 3.1 58.1 15.6 80.6 35.6a32 32 0 0 1-6.3 9.9 125 125 0 0 0-33.4-23.2 164 164 0 0 0-15-6.3 138 138 0 0 0-77-1.7 123 123 0 0 0-20.4 8.8c-1.8-3.8-2.5-6.4-3.7-10.4 18.2-6.7 30-11.1 49.4-12.7" transform="scale(.94)"/>
  <defs>
    <linearGradient id="f" x1="1006.6" x2="1008" y1="611.8" y2="597.7" gradientUnits="userSpaceOnUse">
      <stop offset="0" stop-color="#008275"/>
      <stop offset="1" stop-color="#1fb6a1"/>
    </linearGradient>
  </defs>
  <path fill="url(#f)" d="M943.4 596.9c31.2 0 63.7 2.6 95 4 13.5.7 26.6 2.9 40 2.7l5.3 10q-5.7.2-11.5 0c-46.6-4-94.2-5.1-140.8-7.9 3.7-3.6 7.6-6.2 12-8.8" transform="scale(.94)"/>
  <path fill="#06a994" d="M973.2 372.4c2-.3 4.4-1 6.2-.3 3.5 7 6.3 27.5 8.7 34.7 1.7 3.3 3.2 12.3 4 16.4a44 44 0 0 0-19.5 4.4c-5.7-18.3-8.3-34.3-13.4-52a42 42 0 0 1 14-3.2"/>
  <path fill="#5bd4c3" d="M973.2 372.4c2-.3 4.4-1 6.2-.3 3.5 7 6.3 27.5 8.7 34.7v7.7l-6 1.6c-1.9-6.3-10.9-39.5-8.9-43.7"/>
  <path fill="#2d464e" d="M398.5 115.7c7.5-1 51.5-10.1 54.2-9.2 2.3 2 2.7 2.4 4.4 5 0 2.6.5 5.6-.6 8l-1.3 1.2c-12.8 2.5-39.7 8.8-52 9.5-.6-2.8-1.3-6.5-2.2-9.2-.5-1.4-1.8-3.9-2.5-5.3"/>
  <path fill="#78878a" d="M398.5 115.7c7.5-1 51.5-10.1 54.2-9.2.5 2.2 1 2.8.4 4.7q-3.3 1-6.8 1.5c-15.2 2.2-30.2 5.7-45.3 8.3-.5-1.4-1.8-3.9-2.5-5.3"/>
  <defs>
    <linearGradient id="g" x1="524.2" x2="535.6" y1="148.1" y2="127.1" gradientUnits="userSpaceOnUse">
      <stop offset="0" stop-color="#9d9d9d"/>
      <stop offset="1" stop-color="#dde0e0"/>
    </linearGradient>
  </defs>
  <path fill="url(#g)" d="M504.5 115c25.6 0 25 15.4 40.9 31.2 2 2.2 13 5 13.8 7.5 4.6 13.4-11.1 9-15.3 8-7.8-6.7-13.2-14.7-19.5-22.8-7.5-9.6-11.9-13.5-24-11.3-3.3-1.7-6-8.6-5.3-12l1.6-.7z" transform="scale(.94)"/>
  <path fill="#dcdcdb" d="M464.5 107.5h7.3c-.5 1-.5 1-.5 2.2 1.7 1.9 1.7.7 5 1.7-3.4 0-8 1.3-10.4.5-1.6-1.9-1.1-1.6-1.4-4.4"/>
  <path fill="#3bc0ad" d="m572.7 588.8 9.4.2c4.3 7.3 11.5 26.2 13.6 34.7 1.6 3.3 2.3 5 3.3 8.6 2.4 7.4 5.6 15 7.7 22 1.6 3.2 2.8 5.7 4 9.1l-.4 1c-2.7.7-7 .5-10 .4-2.3-4.9-3.2-9.9-5-14.8q-4.4-11.4-8.2-22.9c-3.6-10.7-11.5-27.8-14.4-38.3"/>
  <path fill="#077068" d="m572.7 588.8 9.4.2c4.3 7.3 11.5 26.2 13.6 34.7l-.3-.5c-3.3-4.5-6-18.5-12-14.9-.7 2 9 30.2 11.1 34 3.7 6.8 5 15.2 8 21.8 2.6 0 6 .1 8.2-.7l-.4 1c-2.7.7-7 .5-10 .4-2.3-4.9-3.2-9.9-5-14.8q-4.4-11.4-8.2-22.9c-3.6-10.7-11.5-27.8-14.4-38.3"/>
  <path fill="#5bd4c3" d="M606.7 654.2c-.1 2 .2 5.1.2 7.5l-1-.2c-3.3-2.7-15.8-35.2-13.5-38 2.1.3 4.5 6.6 6.6 8.8 2.4 7.4 5.6 15 7.7 22"/>
  <path fill="#2d464e" d="M369.8 501.7c24.1-1.8 33 13.5 26 36-.6 1.7-2.3 3.8-3.4 5.2-.6-2.3-1.6-6-1.6-8.3-.1-15.1-5.3-30.8-24.2-25.4a21 21 0 0 0-9.5 15.3c-.5 8.7 5.5 15.3 8 23.2l.2.7c-7.2-3.4-12.5-7-14.4-15.2-3.4-14.5 4.2-28.2 18.9-31.5"/>
  <path fill="#06a994" d="M101.6 347c1.8 1.8 2.9 6.7 3.6 9.3a140 140 0 0 0-39.8 34.6c-4.3 5.4-8.3 14.4-14 18.3-4.4-2.8-5.2-5-2-9.8C61 382 82.7 355.9 101.7 347"/>
  <defs>
    <linearGradient id="h" x1="166.5" x2="170.2" y1="569.3" y2="514.4" gradientUnits="userSpaceOnUse">
      <stop offset="0" stop-color="#2d444d"/>
      <stop offset="1" stop-color="#687278"/>
    </linearGradient>
  </defs>
  <path fill="url(#h)" d="M185.5 571.2c-15.2.5-29-3-35.6-18.3a36 36 0 0 1-.2-27.6c1.7-4 8-14.8 13.4-11.8 1.3 6-9 16.7-7.3 27 2.6 14.6 13.4 21 27.9 18.6 2.9.2 2.3-.3 4 1.3 1.7 4-1.8 7.4-2.2 10.8" transform="scale(.94)"/>
  <path fill="#5e6a6f" d="M262.6 404a228 228 0 0 0 9 11.8c6.6 8.3 21.3 41 19.6 50.5-1.1.9-3.8.9-5.4 1l-2.2-.2c-2-1.8-2.6-6.9-3.4-9.6-5-17-13.1-31.5-23.8-45.9z"/>
  <path fill="#020202" d="m205.9 526.5 2.4-.8.6.4c7.9 5.2 20.7 18 27.8 21 4.4 2 21.9 4.7 28.4 6.4.7 3.6-.6 3.6-1.4 6.5-5.2-1-10.8-1.9-15.9-3 2.9 2.4 14 11.4 15.6 13.7-.1 1.3-.3 1 .1 2-7-4.3-12.5-10.8-19.4-15.2-6.3-4-42-10.5-51-11.8-.4-2.5-.8-4-.3-6.5 3.3.1 10 1.6 13.7 2.3 7.7 1.6 14.4 2.8 22.3 3.7-6.6-5.8-16-13.6-23-18.7"/>
  <path fill="#2d464e" d="M1008 580.3c11.2.6 19.7 7.7 29.7-2.1 11.8-11.6-4.2-23.6-4.3-30.4 1-1.6.3-1 2.3-1.6 2 .4 2.3.7 4 2 .6.6 3.4 3.3 4 3.6 12.7 8 7 30.2-4.8 37.6a21 21 0 0 1-16.5 2.7c-7.4-1.8-10.7-5.7-14.3-11.8"/>
  <path fill="#78878a" d="M1043.6 551.8c1.6 2.3 3.7 5.6 2.4 8.4-3.2 0-10.5-9-11.6-11.9 1.1-.7 3.6-.2 5.3 0 .6.5 3.4 3.2 4 3.5"/>
  <path fill="#dcdcdb" d="m516.3 161.4 10.2 2.7q1.5 6.3 2.5 12.6c1.1 7 9.8 46.3 8.1 49.8-1.6 1-7.7 2.4-7.9-.4-.8-10.6-6.7-26-7.2-36a247 247 0 0 1-5.7-28.7"/>
  <path fill="#9ca0a1" d="m516.3 161.4 10.2 2.7q1.5 6.3 2.5 12.6a32 32 0 0 0-6.6-4.6c0 4.6 0 13.7-.4 18a247 247 0 0 1-5.7-28.7"/>
  <defs>
    <linearGradient id="i" x1="980" x2="1026.1" y1="537.4" y2="543.3" gradientUnits="userSpaceOnUse">
      <stop offset="0" stop-color="#009483"/>
      <stop offset="1" stop-color="#7dbdb5"/>
    </linearGradient>
  </defs>
  <path fill="url(#i)" d="M1033.3 489.4c.9 1.2 1 5.5 1.2 7.3a129 129 0 0 0-50.7 69.7c-1.3 4.4-4.3 21-5.4 23.2-2.2 1.6-1.9 1.1-5 1.4-1.3-2.5-.2-6.3.3-9 5.9-29.6 21-56.8 42.5-77.8 5.6-5.5 10.4-10.5 17-14.8" transform="scale(.94)"/>
  <defs>
    <linearGradient id="j" x1="309.2" x2="324.5" y1="459.4" y2="454.1" gradientUnits="userSpaceOnUse">
      <stop offset="0" stop-color="#067f73"/>
      <stop offset="1" stop-color="#0d9689"/>
    </linearGradient>
  </defs>
  <path fill="url(#j)" d="M297.1 414.2c3 .3 5.6 4.3 7.4 6.5a162 162 0 0 1 30.7 62c1 4 4.8 14.9 1.2 17.5-6-.4-5.1-.5-5.8-6-2.9-22-12.9-44.3-26.3-61.9-2.8-3.7-8.8-10.3-10.7-14 .5-2 1.8-2.7 3.5-4.1" transform="scale(.94)"/>
  <path fill="#9ca0a1" d="m972.2 485.5.7.3c1.3 2.1 1.4 4.3 1.8 6.8a97 97 0 0 0-32.8 59.6c-.3 1.3-3 1.6-4.2 2l-1.7-.7c-.6-1-1-1.6-.7-2.8 5-27.4 16.1-47 37-65.2"/>
  <path fill="#5e6a6f" d="m373.5 535.3 7.8-.3c2.2 5.8 3.4 12.8 5.2 18.7q5 15.9 9.4 31.9-5 .5-10 .5c-3-8.6-3.9-17-6-25.5z"/>
  <defs>
    <linearGradient id="k" x1="314.6" x2="298.4" y1="579" y2="585.4" gradientUnits="userSpaceOnUse">
      <stop offset="0" stop-color="#707579"/>
      <stop offset="1" stop-color="#848f91"/>
    </linearGradient>
  </defs>
  <path fill="url(#k)" d="m304.8 569.2 8.8 1 .7 2.9 1.3.4c2-3.9 4.3-2.2 8.5-1.5-2 8.5-2.5 18-4.8 26l-10.2-.8c-1.7-.4-1.7-.4-3.3-1.2-2.4-.5-3-.6-5.2-1.6-.6-1.5 3.4-15.2 3.7-18z" transform="scale(.94)"/>
  <path fill="#2d464e" d="M295.1 536.3c1.9-3.6 4-2 8-1.4-1.8 8-2.4 16.9-4.5 24.4q-4.8-.3-9.5-.9v-.6c4-4.4 5.4-15.6 6-21.5"/>
  <path fill="#123741" d="m293.3 533.2.6 2.7 1.2.4c-.6 5.9-2 17-6 21.5v.6c-1.7-.3-1.7-.3-3.2-1l2-.7c2.6-3.8 5-18.5 5.4-23.5"/>
  <path fill="#077068" d="M625.1 593.9c5.6 0 7.7.2 10.6 5.3 3 5.3 5.1 10.8 7.8 16.3l10.6 22.1c1.4 3 2.6 4.4 3.7 7.5l-.9.7c-10.1 1.5-9.5-.1-12.5-9.1l1.4-5.5c-1.6-6-3.5-10.7-9.8-12.4a66 66 0 0 1-10.9-25"/>
  <path fill="#5e6a6f" d="M378.1 444c5.6-.7 16.6-1.8 21.7 1.2 4 2.3 2.8 7.3 2 11-4.8 1-8.2 1-13 1-1.5-5.4-1.3-7.5-7.1-9.5-3.2.4-6.4-.8-10.7 0l-.5.2c-3.5 3.8-2 5-4.3 7.7-2.1 1-6.3.7-8.9.7l-1.4-8c.1-1.8.2-2 .8-3.7 4-.7 16.6-.5 21.4-.6"/>
  <path fill="#2d464e" d="M378.1 444c5.6-.7 16.6-1.8 21.7 1.2 4 2.3 2.8 7.3 2 11-4.8 1-8.2 1-13 1-1.5-5.4-1.3-7.5-7.1-9.5 3.5-.3 14 4.7 18.9.6l-.4-1.3c-3.5-3.9-16-2.5-22-3m-22.2 4.3a26 26 0 0 0 14.5-.4c-3.5 3.8-2 5-4.3 7.7-2.1 1-6.3.7-8.9.7z"/>
  <path fill="#607477" d="M356 448.3c0-1.8 0-2 .7-3.7 4.3.4 9.6 1 13.9 1.7l.4 1.5-.5.1a26 26 0 0 1-14.6.4"/>
  <path fill="#06a994" d="M1030 434.6c4-.1 16.4-1.1 19.5 1.3.7.5.4.8.3 2-1.3 2-4.1 3.5-6.4 4.9-9.5-.3-17.8-.3-27.2 1.3a89 89 0 0 0-16.5 4.5c-.3-1.8-1.3-7.1.3-8.1 7.2-4.9 21.8-5.3 30-6"/>
  <path fill="#123741" d="M377.6 593.8c4.8-.3 17.4 0 22 .7.8 1.5.7.8.3 2.8-1.8 2-8 9.2-9.9 9.8-8.8 2.8-28.2 3.1-22.7-12 1.4-1.5.7-1.2 2.5-1.4z"/>
  <path fill="#9ca0a1" d="m369.8 593.7 7.8.1c3.4.4 3.8 0 6 2.6l-.2 1.2c-3.8 2.8-9.6 4.7-13.6 1.2-1-2.4-.5-2.2 0-5.1"/>
  <path fill="#9ca0a1" d="M377.6 593.8c4.8-.3 17.4 0 22 .7-1.7 2-5.8 7.5-7.7 8-2.3-1.5-1.9-2.5-4.2-4.6-1.6-2.3-1.7-2-4.1-1.5-2.2-2.6-2.6-2.2-6-2.6"/>
  <path fill="#061c28" d="M383.6 596.4c2.4-.5 2.5-.8 4.1 1.5.4 3.3 1.2 5-1.7 7.2-1.8 0-1.1.2-2.6-1.2-1-2.1-.4-3.9 0-6.3z"/>
  <path fill="#9ca0a1" d="m276 252.6 4.1-.1 1.3.8c4.6 12.8 8.4 26.8 12.2 40 1 3.3.5 4-.6 5.9-1.5.2-3.9.5-5.2-.5a314 314 0 0 1-13-42 5 5 0 0 1 1.2-4"/>
  <path fill="#028a7a" d="M540.6 246.4c.9-.2 4.2-.4 4.4 0 1.6 3.8 4.6 18 5.3 21.5l-10.2 2.1-5.8 1.2-4.6-23zM434.8 536.8c3.6 0 10.4.4 13.8 1.3a74 74 0 0 0-11.7 1.4c1 .4 5 2.1 5.6 2.6 0 3.3-.6 23.6 0 24.5-5.5-.2-14-1.3-19.8-1.9a60 60 0 0 0 12-27.9"/>
  <path fill="#de4b13" d="M31.7 411.7c2.7.3 5.4.6 7.5 2.5 1 2.6-.5 5.2-1.5 7.8l-10 24.8-.9.8c-1.8.2-2 .3-3.6-.4-4.1-5.3 4-30.8 8.5-35.5"/>
  <path fill="#dcdcdb" d="M547.8 105.4c7.5-.5 9.8 3.4 9 10.5-.7 8.2-3 16.9-5 24.8-.6.7-.4.4-1.3.8-3-2.1-1.8-5.2-6.4-9.9a60 60 0 0 0 2.3-15.7c0-3.4-.6-8 1.4-10.5"/>
  <path fill="#077068" d="M634.5 625.4c2.8-.2 3.4-.2 5.5 1.8.8 2 .8 1 .1 3-4 4-21.7 8.7-28 10.7-1.3.4-1.7.6-3 .4-1.6-1.6-2.2-5.4-2.9-7.8 8-1.2 19-6 28.3-8.1"/>
  <path fill="#9ca0a1" d="M529.3 133c16 .6 16.8 20 5.1 25.4-2.2-.4-2.9 0-4.4-1.5-.6-3.3 1.6-7.6 1.4-11.2-.3-5.2-4.3-7.4-8.1-10.5v-1c1.8-1 3.8-1 6-1.2"/>
  <path fill="#dcdcdb" d="M528.8 134.6h2.6c4.3 0 12 5.7 4.3 9.8-2.5-.4-2.7-2.5-3.5-4.6-1.8-1-4.7-2.2-5-4.3z"/>
  <path fill="#2d464e" d="M609 670c2.9-.4 4.3-.2 6.2 2.2 3.2 4 5.5 8.2 8.7 12.3h-8c-5.1 0-11-.4-16.1-.6 1.8-7.7-.5-13.4 9.2-14m350.4-184.5c1.4.7 2.2.1 3.5 1.5h-1c-8.6 1.4-26.8 27.8-25.7 35.6q.6-1.1 1.4-2.1l1.8.7c2-.5 3-2 4.4-3.6-5.6 11.2-7 11.3-9.5 23.8 0 2-1.1 10.2-1.7 11.4-1.4.7-2.3.3-4 0-4.1-4.3 3.2-20.3 4.5-25.8 4-17.5 14.2-29.4 26.3-41.5"/>
  <path fill="#123741" d="M654.7 652.3c1.2-.3 5-.2 6.5-.3 2.5 3.2 8.9 8.6 8.6 12.4-1.8 1.3-2.4 1-5 1a247 247 0 0 1-16.3-.4c.2-4-.4-8.2 1.4-11.5 1.4-1.3 2.8-1 4.8-1.2"/>
  <defs>
    <linearGradient id="l" x1="562" x2="566.6" y1="495.9" y2="500.6" gradientUnits="userSpaceOnUse">
      <stop offset="0" stop-color="#1ea29b"/>
      <stop offset="1" stop-color="#45c4ae"/>
    </linearGradient>
  </defs>
  <path fill="url(#l)" d="M583 473.7c2.2 9-8.5 17-11.7 23a145 145 0 0 1-24.2 24c-4.5-1.9-7.5 3.2-12.6 3.9 2-1.7 9-6.4 11.8-8.5 7.8-6 12.1-11.2 18.6-18.3 6.8-7.4 11.2-18 18-24.1" transform="scale(.94)"/>
  <path fill="#555558" d="m64.5 494.1 40 3.6c7.2.6 16.6 1.7 23.8 1.7l-.8 4c-6 .2-12.5-1-18.3-1.5-13.7-1-31.5-4.1-44.9-4.2z"/>
  <path fill="#020202" d="m168.4 379 .7-1c1.6 2 .8 7 1.6 8.3l.5 48.3c0 7.4-.3 16.2 0 23.5-.3 1.4-.5 3.4-1.4 4.4l-1-.3c-1-13-.1-31.4-.7-45.1-.2-6-.6-33.3.3-38.2"/>
  <defs>
    <linearGradient id="m" x1="103.3" x2="105" y1="520.2" y2="511.1" gradientUnits="userSpaceOnUse">
      <stop offset="0" stop-color="#464c4e"/>
      <stop offset="1" stop-color="#686267"/>
    </linearGradient>
  </defs>
  <path fill="url(#m)" d="M72.5 503.4q21.3 6.5 42.4 13.8c5.5 2 19.2 7.1 24.2 8.1l-1.3 3.2c-20.3-5.6-46.8-17-66.3-21z" transform="scale(.94)"/>
  <path fill="#020202" d="m146 540.3 1.2 1.4c-2.6 6.3-10.3 17.5-14.2 23.7-8.4 13.3-17.4 26.7-25.6 40.3-.7-.5-2-1.9-2.6-2.5 14.6-20 26.8-42.7 41.2-63"/>
  <path fill="#5e6a6f" d="M367 519.7c7-9.6 20.5 1.1 13 9.7a10 10 0 0 1-6.8 3.3c-4.7.2-7.7-3.8-7.7-8.2.2-2 .7-3 1.5-4.8"/>
  <path fill="#9ca0a1" d="M367 519.7c4.3-2.5 9.3-3.3 12.4 1.5.2 1.9.4 1-.8 2.6-1.6-.4-5.3-2.5-6.3-1.6-1.6 1.7-1.6 2.7-4.1 3.4-2-.2-1.3.1-2.7-1 .2-2.1.7-3 1.5-4.9"/>
  <path fill="#020202" d="m167 548.4 1.6.2c1 12.9.5 29.8.6 43 .1 7.7.5 23.8 0 31-.4 2-.6 4.2-2 5.3-.8-1.8-.8-4-1-6.1.2-24-.4-49.6.8-73.4m9.8-1.8c.8-1 .7-1 2-1.5 7.5 25.9 17 52.3 25 78.4l-2.5.9c-2.8-7.2-5.7-18-8.1-25.6zM93.6 418q16.5 16.7 32.2 34c4.9 5.3 12.4 13.3 16.7 19l-3.1.2c-2.4-2.3-5.5-6-7.7-8.5-12.7-14.7-27-28.2-40-42.5z"/>
  <defs>
    <linearGradient id="n" x1="108.7" x2="106.5" y1="572.9" y2="568.2" gradientUnits="userSpaceOnUse">
      <stop offset="0" stop-color="#38383b"/>
      <stop offset="1" stop-color="#464649"/>
    </linearGradient>
  </defs>
  <path fill="url(#n)" d="m139.4 556.6 1.2 2.9c-10.2 4.5-22.4 9-32.8 13.2-10.1 4-22.2 9-32.3 12.5l-.7-3.2c11.2-3.6 23.8-9.4 35-13.8 9.7-4 20-7.6 29.6-11.6" transform="scale(.94)"/>
  <path fill="#020202" d="m191.3 546.2 1.9.3q4.7 8 8.6 16.6c8.2 17 17.1 33.7 24.9 50.9l-1.8 1c-1.5-2-9.6-18.6-11-21.6-7-15.1-16.4-32-22.6-47.2"/>
  <path fill="#9ca0a1" d="M273.3 235.6q4.8-.7 7 3.5c-.2 6.2-11.3 5.8-15.8 6.1-3.9.1-5.3-.7-7-4.2 0-5 11.6-4.9 15.8-5.4"/>
  <path fill="#2d464e" d="M171.8 522.9c3.8-1.3 6.7-2.4 10.6-3.3 4.5 1.2 7.8 2.2 12.2 3.8a37 37 0 0 1-21.1 10.8c.3-3.2 3.6-6.4 2.1-10.2-1.7-1.4-1.1-1-3.8-1.1"/>
  <path fill="#020202" d="M1041 480.3c1.7-.5 2.7-.8 4.5-1.6l1.2.2c.8 1.5 1 1.2 1 2.6-.7 1-9.8 49.2-10.9 54.3l-.8.3c-.8-2-.7-3.9-.6-6 .9-5.2 9.2-47.8 8.7-48.8z"/>
  <path fill="#78878a" d="m300.8 302.3 1.4.3c1.8 2 1.8 2.8 1 5.2-3.8 4-11.6 4.8-17 5.7-1.3-.3-1.3-.4-2.4-1.1-.7-1.7-.8-2-.4-3.7 2.8-3.9 12.7-5.3 17.4-6.4"/>
  <path fill="#020202" d="M1044.3 538.8c2-5 23.6-43.7 26.5-47.6l1.2 1.7c-4.3 9-9.9 18.9-14.7 27.7-2.9 5.1-8.1 15-11.3 19.6-1-.4-1-.6-1.7-1.4"/>
  <path fill="#045756" d="M251.4 309.4c5.4 1.7 16.2 13.2 21.7 16.7 3.6 2.3 11.6 8.4 11 13.2l-1.2.9c-5.8.6-13.9-10.2-20-14.8-3.5-2.4-7.3-4.6-9.8-8l-.4-.5.7 1-.4-1.2c6 4.9 12.7 10 19 14.7l.4-.4-.2-1.4c.8-1 1-1 1.3-2.3a457 457 0 0 1-21.8-17.6z"/>
  <path fill="#555558" d="m116.1 551.8 1.8 2.5-19.3 17.9c-3.2 2.9-8.7 7.6-11.2 10.8l-2.2-3c1.4-1.8 8-7.4 9.9-9.1z"/>
  <path fill="#020202" d="M1056.6 586.2a460 460 0 0 1 39.1 31.3l-2.9 1c-10.3-10.2-27.3-20.6-37.2-30.2zm-12.7 12.4a979 979 0 0 1 22.2 47.9l-2 2.2c-7-16.7-15.1-32.4-22-48.8zm-17.9 7.2c2 1.5 1.4.7 2.3 2.9q-.6 13.1-.4 26.2c0 4.8.5 14.3 0 18.7-1.2.5-1.2.4-2 1.5l-.7-.2c-.6-12.4-.5-37.5.8-49.1m-7.7-4.8 1.5 1.5c-2.3 7-12.2 46.4-14 49.2l-1.3.8-.7-1c.8-5.6 11.9-46.3 14.5-50.6"/>
  <path fill="#3c3d40" d="M1090.7 529.2c.7 1.2 1 1.5 1 2.9-10.7 6.7-24.2 14.3-34.3 21.2-.6-.6-1.2-1.7-1.7-2.4 6.3-5.1 26.7-16.5 35-21.7"/>
  <path fill="#5e6a6f" d="m376 451.3.5.1 2.5.8c3.2 1.5 6 11 4.8 13.8l-1.3.2-7.8-.1c-1.5-5.8-3.5-10.3 1.3-14.8"/>
  <path fill="#020202" d="m1010.3 597.5 1.3 1.3c-7.7 13.8-18.4 28.8-26.9 42.3l-2-1c.9-1.7 6-9.6 7.2-11.5 6.1-9.2 13.4-23 20.4-31"/>
  <path fill="#607477" d="M968.5 355.5c5.5 0 6 2.7 8.3 7.2-4.2 2-5.7 2.4-10 3.6-3 .6-4.3 1.3-6.7-.2l-.1-1.4c1.6-3.8 5.3-6.6 8.5-9.2"/>
  <path fill="#5e6a6f" d="M542 232.2c2.4.8 2.7 3.4 2.4 5.5-2.4 2.8-10 3.1-14.3 4-2 0-1.2.2-2.6-1-.5-1.8-.8-2.3-.3-4 2.6-3.3 10.5-3.8 14.9-4.5"/>
  <path fill="#123741" d="m956.4 555-3.1-.2c-1.7-1.2-1.2-.5-2-2.5l.6-1.1c2.1-1.3 1.7-.8 4.6-.6 5 .3 20 1.7 23.8 4l.3 1c-3 2.4-19.8-.1-24.2-.7"/>
  <path fill="#045756" d="m956.4 555-3.1-.2c-1.7-1.2-1.2-.5-2-2.5l.6-1.1c2.1-1.3 1.7-.8 4.6-.6 1.5 1.4 1.3.8 1.7 2.6-1 1.5-.3 1-1.8 1.7"/>
  <path fill="#020202" d="m214.5 387.5.6 1.6a359 359 0 0 1-18 44.5c-.7.5-1 .7-1.8 1l-.8-.7c3.3-8.2 7.2-16.2 10.5-24.5 1.7-4.4 7.4-18.5 9.5-21.9m52.3 60 .7 2.1-18.5 9c-6.5 3.4-11.3 6.7-18.4 8.9l-2-1a373 373 0 0 1 38.2-19M954 592.8c8.1-3.3 29-8.7 38.2-11.3.3.6.9 1.8 1 2.4-9.9 3-26.8 8.4-36.3 10.5-1.4-.5-1.7-.5-2.8-1.6"/>
  <path fill="#78878a" d="M407.2 594.2c4.3-.3 6.3-1 8.9 2.8.6 4.2-.8 4.8-4.5 5-4.3 0-6.7.7-9.8-2.9-.6-3.5 2.2-4.5 5.4-4.9"/>
  <path fill="#3c3d40" d="M1060.2 562.7c10.9-.3 20.6-2 31.4-3l-.6 1.8c1 .5 1 .5 2.1.8-5.7.8-28.4 3.3-32.6 4.4z"/>
  <path fill="#555558" d="m1059.1 579.6 1.2-3.8c8.7 3.5 22.7 4.6 31.8 7.5-3.3 1.3-5.6-1-9.3-.5 2.5.7 6.5 1.6 8.8 2.5l.1 1q-16.2-3.6-32.6-6.7"/>
  <path fill="#020202" d="M966 515.8c7.6 6.6 17.8 15 24.9 22l-1.3 2.5-24.7-22.3zm10.8 90c6.4-4.7 17.7-13.4 24.3-16.9l1.2 1.7c-5.2 4.7-17.7 13.2-23.7 17.5q-1-1-1.8-2.3"/>
  <path fill="#2d464e" d="M221.2 231.8c4.5.4 13.7 1.8 18.3 2.5l.6.8-.8 2.1c-9.7 3.3-12.2 2.8-18-5.4"/>
  <path fill="#020202" d="M116.1 551.8q10-8.7 19.8-17.8l.8 1.9c-3.8 5.3-13.8 13.4-18.8 18.4z"/>
  <path fill="#b37738" d="M986.4 347.8c1.6 2.1 1 8.6-2.2 10.4-2.2-.6-2-.8-3.7-2.5l-4-3.6a36 36 0 0 1 9.9-4.3"/>
  <path fill="#045756" d="M192.7 484.8c3 1 4 6.1 2.7 9-1.9 1.5-2 1-4.9.9-2.3-1.2-3.3-1.4-3.6-4 1-2.2 3.9-4.3 5.8-6"/>
  <path fill="#123741" d="m1006 481.3 1.2.6a29 29 0 0 1 6.4 18.2c-1.4-1.5-3.8-8.7-4.6-11l-.7-2-.7-.2c-.6 3.2 2.3 10.4 1.4 13l-.8-.6c-2.2-4.8-3-12.7-2.3-18"/>
  <path fill="#020202" d="m254 423 .8 1.8a196 196 0 0 1-21 18.6l-1-1.4 1.2-1.6c1.6-.6 5.5-4.7 7-6.1z"/>
  <path fill="#555558" d="M976.8 605.8q.8 1.2 1.8 2.3c-4.7 3.8-10 7.4-14.8 11l-1.8-2.9c4.6-3.5 10-7 14.8-10.4"/>
  <path fill="#3c3d40" d="m1091.7 586.2-.1-.9c-2.3-1-6.3-1.8-8.8-2.5 3.7-.4 6 1.8 9.3.5 5.7 1 11 2.6 16.5 3.6-.1.8-.5 2.2-.5 3q-8.2-2-16.4-3.7"/>
  <path fill="#020202" d="M961.4 535.3c4.7 2.2 14 6.1 18 8.6-.5 1.2-.3.8-1.9 1.4l-17.2-7.6 1-2.4m130.3 24.4 15.3-2 1.7 1.5c-.2.3-.6 1-1 1.2-4 1-10.2 1.5-14.5 2l-2.1-1zm8-35.7c.2.7.6 1.7 1 2.1-1.9 2.3-6.1 4.5-8.8 6-.1-1.4-.4-1.7-1-2.9z"/>
  <path fill="#123741" d="m323 461.8 1.7.7c1.4 1.9 1.3 3.8 1.5 6.2-1.7-.4-2.2-.3-3.4-1.4-.8-1.8-.2-3.5.1-5.5"/>
  <path fill="#dcdcdb" fill-opacity=".1" d="m238.6 434 2.4.3c-1.5 1.4-5.4 5.5-7 6z"/>
</svg>
