<svg xmlns="http://www.w3.org/2000/svg" width="1172" height="595" viewBox="30 42 1172 595">
  <path fill="#051c27" d="M542 110.7c-1.7-6-3.4-9.1 3.2-13l22.4-12.5c12.2-6.9 32.8-20.2 30 4.7 0 .8 3 6 2.9 7.8-1.3 10.3-4.5 20.4-7.2 30.5l2.2 4.8c7.6 19.7-4.1 33-20 45.3-.4 4.3 3.9 19.5 5 24.6 9.4 6.9 5.6 10.9 6.6 20.1.7 6 2.8 13 3.9 19l48.4-9.7c12.9-2.6 36.9-8 49.4-7.8 9.7 0 32 3.9 42.2 5.5l77.7 12.2 138.1 21.4 51.9 8q15.7 2.3 31.4 4.9c4.3.7 9 2 12.8 4q8.7 4.9 11.2 13.7c2.6 9.7-5 16-7.2 21.7a290 290 0 0 0-6.1 26.4c0 8.8 5.8 24.6 7.7 34.2 3.2-3.2 4.3-4.9 6.8-8.5-4.2-3.5-6.7-7.3-7-12.6-.7-14.6 19.4-18.6 31.8-19.4q7.6-.8 12 5c4 10.4 4.7 29.3-6.6 36.3-6.6.3-9.8-.6-16.2-2l-11.7 15.8a159 159 0 0 1 42.2-2.6c8 .7 15.7 4.6 8.3 11.8l-3.9 4c112.3 21 128.9 168.6 33.1 217.2-23.5 12-54.2 16-80.6 10.9a116 116 0 0 1-73.9-46 114 114 0 0 1-20.6-61.5c-3.8-.3-8-.7-11.7-.6a64 64 0 0 1-42.2 33.1c-24.8 7.2-49.3.2-74-.2-3.3 8.7-4.4 11.3-14.6 15.9a42 42 0 0 1-12 3.6c-36.6-3.1-74.2-6.3-110.6-10.9-3-.4-7.6-6.1-8.5-8.5-.8-2-1-4.3-2.9-5.5l-2.1-.3-.4.4c5.6 12.8 14 26.7 21.2 39 2.6 4.4 18 16.7 15.2 21.9-2.6 4.5-39.1 3.6-40.9-2.1-.8-2.6 1.2-12.3 1.8-15.8q-2.6-5-5-10.3c-8.9 2.4-18.4 4.9-27 7.6 2 5.5 3.7 10.3 6.6 15.7 2.4 4.8 23.2 23.3 8.4 25.7a85 85 0 0 1-32.9-1.7c-6.7-2.4-.2-15.8 1.3-19.6-9-23.6-19.1-46.8-28.4-70.2-4.6-.4-37.5-2-39.6-1-1.5 2.5-.8 2-3 3-3.3-.2-3.2-.7-4.6-3.4-4.3-1-10.2-1.2-14.7-1.5q-23.3-1.5-46.4-3.8c-3.7-.4-5.3 2.8-9.2 2.6-2.8-1.4-.9-.9-2.5-3.2l-4.4-1.1c-12.2-2.2-16.8-1.5-25.8-9.7-5.1-1-8-1.4-13.1-1.9-3.5 1.8-8.1 4.7-11.6 6q.5 3 .7 6c14.9-.3 26.6-2.3 25 16-1.3 12.8-12.7 11.6-23.5 11.4-10.4-.3-21 .2-31.4.1-12 0-15.8-6.6-14.9-16.4.3-3.3 0-5.4 3-7.8 3.7-3.6 13.6-2.7 16-4.4-2.6-3-61.9-13.5-70-14.5a142 142 0 0 1-78.3 83.4 156 156 0 0 1-108.8 4.8C60.7 578.3 28.9 491.5 48.5 415.8c-8.7.6-15.8 1.3-16.1-9.1a77 77 0 0 1 7.6-32.2c2.7-6.1 5.8-8 12.9-8.2l4-.1a149 149 0 0 1 60.7-58.8c-3.7-12-11.6-25.8-14.8-38-6.4 0-19.4 1-23.7-2.5a6 6 0 0 1-2.4-5.1c.1-4.2 3.7-7 8.1-7l31-.2 59.4-.2 48.5-.1c5.8 0 27.3-.9 30.9 1.9 14.8 11.4 29 23.5 44.4 34.3-1.6-7.6-3.8-11.9 3.7-17.4-5.4-13.7-9.4-28-14.3-42.1-8.9-.4-11.5-2.2-15.5-9.5-20.3 6.6-35.8 5.7-39.6-16-8.3-1.9-18.5-5.5-22.9-12.4a26 26 0 0 1 9.7-35.2c10.8-5.6 25.3-2 37-.5 12.1 2 22 3.2 34.5 3 21.9-.4 46.3-4.8 68-1.1 11.9 2 17.7 15.5 14.3 25.5-5.3 15.5-27.7 11.2-41.6 12.1-8 4.8-11 9.6-20.9 13 3.8 8 2.1 9.4 4.4 16.3 4.3 13 8.3 26.9 13 39.7 10.2 2.1 12 10.5 8.4 18.3l4.3 14a78 78 0 0 1 38-2.6c10.9 3.1 37 11.7 41.8 21.4 13.3 27.3 23 56.7 33.8 85 4.8 12.5.5 27.3-5.2 39.1l3.3 5.4 25.3 2.3c37.7 3 68.4-16.6 88.2-44.2q.3-6.5 0-12.8c-.7-4-1.3-11.1-2-15.6q-2.4-16.5-5.7-32.9c-3.4-.6-6-1.3-5.4-5.1 1.8-1.5 1-1 3.5-1.6.6-4.1-3.5-19-4.6-24.2q-5-21.7-8.8-43.6c-4.5-26.5-8-50.7 7.5-74.8-3.5-16.6-8.6-36.2-11.2-52.4-20.8-11.8-16.8-16-31.6-29.6-5.4-.9-13.4-2-17 2.3-.4.4-2 1.4-2.6 1.5-11.3 2-22.6 3.5-33.7 6q-5.4 1.3-11 2.3c-6.7 1.2-14.8 3.8-21.6 3.4q-2.2-1.3-3.9-3c-4.7-5-6.5-12-5.9-18.4.3-3 1.5-6.3 4.3-8.3 4.5-3.1 53.9-10.3 62-10.8 4.6-.3 9 .2 13.6.2 7.2 0 14.3-1.1 21.5 0 12 1.8 21.4 15.2 27.8 23.5m32 62.4c14-11 23-20 17.5-37.5l-1.2-1.2c-6.8 1.8-10 8.5-15.4 12.4-.8.6-5 1.9-6.2 2.2 1.7 7.8 3.8 16.4 5.2 24m513.4 171c-1.4-1.8-.7-1.5-2.6-1.8-5.6 3.1-6.1 25-1.7 29.5 8.6-5 6.8-20.1 4.3-27.7M131 300.4c58.7-19.9 108.9-15.8 158.2 21.1l1.1.6c3.7-2.3 7.2-7 9.8-10.3-12-9.4-25.6-18.4-38-27.9-4.2-3.3-14.7-12.2-18.2-14.3a550 550 0 0 0-31.2-.3c-31 .5-62.7-.7-93.8 0q5.8 15.6 12.1 31.1m56.4 274.3.9.8c.9-1.3 1.3-4.5 1.7-6.1v7c12.7 0 21.2-1 33.5-4.1-3-7.6-6.3-18.4-9-26.2l-17-49.6c-2.7.1-4.1.3-6.8.7l-.4 1c-1-.5-1.5-.3-2.6 0l-.3-.8c-1.8-.6-4.6-.7-7-1.3-4.3-1.1-8-2.5-12.1-3.7l-2-1.4c-1-1-5.1-3.7-6.7-4.6a1378 1378 0 0 1-35.5 30.3c-3.3 2.7-15.6 11.9-17.8 14.1a96 96 0 0 0 18 19.5l2.6 2a99 99 0 0 0 58 23.6q1.2 0 2-.4zM162 431.5c-13.4-15.9-35.7-34.8-50.8-50.1-2.4.6-6.5 7-7.9 9.3a114 114 0 0 0-16.4 37.5l-.7 3c-1.4 6.1-2 12.4-2.6 18.7v2.7a107 107 0 0 0 5.1 43.4c20.3-6 41.5-15.7 62-22.2a78 78 0 0 1-2.6-15.6l.4-3.3c.2-1.8.6-2.8 1-4.5a36 36 0 0 1 12.5-18.9m86.3 128.9.8.6a116 116 0 0 0 38.2-39l-.4-.6c-7.6-4.4-16.1-12.5-22.6-15.4-12.1-2.3-38.6-7.8-49.7-8.9 4.4 5.2 31.4 56.2 33.7 63.3m-58.5-147c.4 2 1 4.5 1.3 6.6l.2.2c1-1.7.5-2.9 1.4-4.8-.1 2.5-.7 4.7 1.7 6.3 7.7-2.6 12-29.3 13.5-36.2q4.4-20.3 9.2-40.4c-8.9-2.2-16-2.9-25.1-2.7v7c-.4-1.9-.8-4.7-2-6l-.5.8-.6-1.4c-7.4-1.8-29.9 4.5-36.7 7.8l30.4 71.8 7.2-.3zm-25.4 16.2 5-2.3c-8.4-22.2-20.9-47.3-30-70.1-5 2.4-26.2 17.8-26.7 22.3 8.3 7 16 14.7 23.8 22.1a557 557 0 0 1 27.9 28m-60 98.8 53.5-43.8c-1.3-2.2-4.1-6-5.7-8.3-20.8 7.5-41.5 15.4-62.5 22.4 4.2 12.6 7.2 18.4 14.7 29.7m990 17.4c2.7 3.7 7 12.2 9.2 16.7 4.2 8 9.3 17 12.9 25.2.3.4 1.3 2.7 1.5 3.3 13.3-5.9 20.7-15.1 29.5-25-12.8-10.4-29.5-20-41.8-30.2a44 44 0 0 1-11.3 10m12.4-43.6c1.8-1.5 10.4-6.3 12.7-7.7q15.8-9.2 31.9-18.2c-5-10.5-17.5-21-27.6-27.7l-2.4-.3c-1.7-5-19.1-8.1-23.5-10.3-.7-1-.8-.9-2-1.4l-1.1.6c-3.2.3-7-.2-10.3-.3a96 96 0 0 0-19.3.9c1.2 5 13.8 46.8 16.1 50.5l1.3.5 2-.8.7-1.7q1 1.4 2.4 2.2c1.2 1.6 3.9 2.2 6.1 3q1.5 1 2.9 1.5c3.8 2.6 7 6 10.1 9.2m-13.7 45c-3.5-.2-9.1 1.9-13.7 2l-3.5-.1c-2.2-.3-3.6-.8-5.4.2-1 1.5-1 2.5-1.4 4.3-1-2.4-.3-1.6-2.6-2.9l.3-2.4c-1.2-1.9-1.6-1.6-4.2-2.6l-3-1.5c-1.5-1.8-5-4.2-7-5.8l-1.2-2c-1-2-1.4-2.9-3-4.5-2.4-.7-2.2-.3-5 .2l-.6-2.3 1.3-.5c-2.4-1.6-38.8-2.7-44.7-2.8.3 5 1.3 10.1 1.7 14.7 1.6-.7 5.5-1.7 7.5-2.2l.7 2.8-7.3 1.7a93 93 0 0 0 9 18.4l9-5.7c3 2.2 1.3.5 4.3 1-3.4 2.8-8.7 5.3-11.4 7.7 4.5 5.7 12.6 16 19.6 19l2 .7c1 3.6 14.4 9 18.4 10.9l2.8 1.1a149 149 0 0 0 23.3 3.5c9 .6 28-2.1 35.1-7.4.9-1.8.6-1.1-.4-3.6-5.1-12.2-16.5-30-20.6-42m-845.8 14.3c-12-20-23.2-42.6-34.3-63.3a11 11 0 0 0-12.7-2.3c.4 2.8 6.6 19.3 8.1 23.4l18.4 52.1c5.2-1.9 17.2-6.1 20.5-9.9m337.6-92 2.8-4.3c1.8-5.5-2.7-24.2-3.3-31-12.8 12.4-23.5 23.2-40.4 31.7-6.8 3.4-14.4 6.4-21.3 9.6.3 1 0 .5 1.2 1 3.4 0 7.5.8 11 1 17.5 1.5 37.4 6.2 50-8m-332.4 27.2c-6.6-4-24.8-18.9-29.3-19.4a148 148 0 0 1-10 12.5q15.3 3.2 30.6 5.6zm-.5-136.3c-2.6-1.7-11.5-7.9-14.5-7l-1.2-1.7a111 111 0 0 0-16.5-5.8 609 609 0 0 1-8 36.3c-2.3 9.1-3.5 17.5-6.4 26.7a39 39 0 0 0 11.4-15.3l2 1.4c3.7-2.6 10-9.7 13.2-13.1zM564.3 533l-.3 2.8c3 2.1 31 1.2 36.6 2-2.5-2.7-31.2-4.3-36.3-4.8m451-63.2a334 334 0 0 1 26 21.4c-1-2.8-4.3-10-5.6-13q-4.3-10.4-7.9-21c-6.1 4.6-7.9 7-12.5 12.6M326 355.5q-2-7.3-4.6-14.6l-2-6.5a125 125 0 0 0-11.2 10.5 191 191 0 0 1 23.5 29c-1.7-6-3.5-12.7-5.7-18.4M1153 479c-11.4 8-32 18-44.7 25.5 1.2 2.8 2.5 5.3 3 8.4 13-.3 27-3.3 39.3-3.7 1.8 3 3 2.2 6.6 2.2-14.2 1.5-31.2 3.8-45.3 4.9a76 76 0 0 1-.6 9.1q12.4 2 24.9 4.4c8.2 1.7 16.6 4 24.8 5.2 1.5-10.5 2-13.2 1.3-24.2l-.5-3a68 68 0 0 0-8.8-28.8m-595.8 56.9.4-3.3c-7.8-1-16.3-1.3-24.2-2l-41.7-3.4-.1 2.8c2.8 2 57.4 5.6 65.6 5.9m-95.8-11c6 2.8 16.5 5.5 23.3 5v-2.7c-2-1.7-19.2-2.2-23.3-2.4m51.8-40.1.2-5.8c-16.3.3-24.2 2.4-41.4.6-2.4-.3-4-.7-6.2.1l-.2.7c2 1.3 4 1 6.4 1.1 13.5 1.5 27.6 2.3 41.2 3.3m-242 22.8q9 5.8 16.8 12.4c1.8-2 3.9-6.2 5.1-8.6-4.3-1.1-9.2-1.6-13.7-2.7q-4-.4-8.1-1.1m-12.4-109.7a270 270 0 0 0 18.6-14.3c-1.3-1.6-1.4-2.3-3.2-3-2.3 1.7-14 15-15.4 17.3m745.9 90.2a63 63 0 0 1-2.2 7.4c5.5.6 19.5 1.4 24 2.3-1.2-1.7-18.8-8.5-21.8-9.7m105.7 39.8-3.1 5.7c14.9 10 27.8 19.5 42.2 30.1a66 66 0 0 0 10.9-25.4c-16.6-3.8-33.4-6.8-50-10.4m-518-37.1c-.2-6.4-1.4-13.2-1.7-20l-2.2 2.1c-14.6 16.3-43.6 10-63.8 7.7l-3.3-.2c-1.8 1.3-2.2 2.2-1.5 4.2 3 1.6 64.8 5.8 72.5 6.2M666 565q-3.5-6-6.8-12.2l-3.7-6.2c-2.9-.8-8.4-2.5-10.6-1.1-5 3.2-5.6 3-9.4-1-.7-.7-5-.7-6.7-.8l12.7 30.9c5-1.3 21.2-5 24.7-7.4.4-1.1.3-1-.2-2.2m-325.4-75.6c-1.4 7.3-3.3 15.3-4.6 22.4l22.2 3.7 4 .3.2-.5c-8.2-9.4-12.4-13.4-16.4-25.6zM291.5 408a340 340 0 0 1-38.7 17.5l44.7-.6c-1.4-6-2.9-11.5-6-17m-1-2c-3.3-7.5-6.8-13.3-11.2-20.2-7.2 6.9-18.8 15.2-26.9 21Q242 416 233 426c4.2 0 7.6-.1 11.8-.4 5.7-1.7 11-4.6 16.5-7 9.5-4.1 19.5-9 29.2-12.6m723.5 65.8a74 74 0 0 0-7.7 13.7c11.8 4.8 19.6 7.7 31.5 13.4 1.2 0 8.2 1.6 9.7 2-2-3.7-3.8-5.5-7.1-8.2-7.9-5.5-18.8-14.7-26.4-20.9M230 478l.7.3c7.4 4 22 16.3 28.1 19.4 3.1 1.7 33.4 7.2 36.4 6.7.8-1.6 1.2-2.7 1.8-4.3a178 178 0 0 0 4-16.4c-22.5-2.3-48.4-4.8-71-5.8"/>
  <path fill="#020405" d="M559 343.3c-3.4-.6-6-1.3-5.4-5.1 1.8-1.5 1-1 3.5-1.6-2 1.5-3 3-1.5 5 3 .5 4.7.4 7.5.1l.4.3c3 16 5.5 29.3 7.5 45.4l-.4 3.2-.2-.5h-.7c-1-.1-1.4-.2-2.2.2l-.3.6c-.3.7-.1.5-.4.9-.8-4-1.4-11.1-2.1-15.6q-2.4-16.5-5.7-32.9m32.5-207.7c1.6-1.6 1.8-2 4-2.6 7.6 19.7-4.1 33-20 45.3-.4-2.4-.5-3-1.6-5.2 14.1-11 23-20 17.6-37.5M1087.4 344c1-1.5 2.8-2.1 4.6-3 4 10.4 4.8 29.3-6.5 36.3-2.4-2.2-3.3-2.4-2.4-5.5 8.6-5 6.8-20.1 4.3-27.7"/>
  <path fill="silver" d="M563.5 342c2.2-.5 1.6-.6 3.1.1q.9 3 1.5 6.2c2.4 14 5.7 28.1 8 42.2-1.4 1.7-1.6 2.4-3.5 3.1-1.1-1-1.3-4.4-1.6-6.2-2-16.1-4.6-29.5-7.5-45.4"/>
  <path fill="#d49c5d" d="M566.7 285.4q131.6 21.8 263.5 42.3L895 338c8.2 1.3 38 6.7 43.9 6a430 430 0 0 0 67-18.1c-11.8 14.5-7.6 20.1-2.9 36.7-27.5 41.5-48.8 89.3-74.6 132.1-7.5 12.5-25.6 17.6-39.9 21.9-17 4.2-43.5.2-61.1-1.5q-31-3-62-5.7l-88.5-8q-22.1-1.9-44.1-4a51 51 0 0 1-14.2-3.5c-10.8-6.2-14.1-16.7-16-27.3l-35.1-172.5a39 39 0 0 1-1-8.8"/>
  <path fill="#b17638" d="M566.7 285.4q131.6 21.8 263.5 42.3L895 338c8.2 1.3 38 6.7 43.9 6a430 430 0 0 0 67-18.1c-11.8 14.5-7.6 20.1-2.9 36.7-27.5 41.5-48.8 89.3-74.6 132.1-7.5 12.5-25.6 17.6-39.9 21.9-17 4.2-43.5.2-61.1-1.5q-31-3-62-5.7l-88.5-8q-22.1-1.9-44.1-4a51 51 0 0 1-14.2-3.5c-10.8-6.2-14.1-16.7-16-27.3 1.8 1.4 4.3 4.6 5.9 6.4 6.5 7.9 16 13.7 27 15.4a2358 2358 0 0 0 151.6 16.7c22 1.9 43.9 5.4 65.8 5.5 8.6 0 20.2-7.7 23-14.8 7-14.5 12-30 17.3-45q11.5-31.6 21.9-63.6c4-12 8.3-24.7 11.4-36.9-6-1.2-14-2.3-20-3.3l-47.7-8-116.2-18.8q-68.5-11.6-137.2-22.3c-10.9-1.6-25.1-4-36.3-5-.8-.1-1 .4-1.6 1.2a39 39 0 0 1-1-8.8"/>
  <path fill="#f2e9c7" d="M557.7 263.9c2.4-3.8 4-5.7 9-6.6 38.4-7.2 76.7-16.1 115.3-22.1 13.1-2 35.5 2.6 49.2 4.8l70.3 11 157 24.3c22.5 3.6 45 6.8 67.6 10.7a40 40 0 0 1 14.8 5c5.4 6.1 2 16.9-6.1 19-28.7 7-61.5 20.7-89.8 26.6-13.2 2.8-63-7.3-77.7-9.7l-102.9-16.4L637 290.1l-43.9-7.5-26.6-4.5c-9.1-1.6-9.6-7.2-8.8-14.2"/>
  <path fill="#d49c5d" d="M1040.9 291c5.4 6.1 2 16.9-6.1 19-28.7 7-61.5 20.7-89.8 26.6-13.2 2.8-63-7.3-77.7-9.7l-102.9-16.4L637 290.1l-43.9-7.5-26.6-4.5c-9.1-1.6-9.6-7.2-8.8-14.2 5.5 8 27.1 8.9 37.6 10.6l40 6.7L784 304.5l95.8 15.2c15.3 2.5 46.2 8.4 60.7 8.8 10 .3 46.7-12.5 58.2-16l27-8.4c3-1 5.7-2.5 8.4-3.4 7.3-2.6 9-2 6.8-9.7"/>
  <path fill="#b17638" d="M585.6 260.8c8.9-3.7 36.6-8 47.3-10 15.3-2.9 43.5-10.5 58.3-10 19.7.5 44.8 6.4 64.6 9.4l175.2 27 67 9.8 15.4 2.2c5 .8 13.1.5 15.9 4.9 0 4-5.3 4.7-9 4.8-2.9.7-7.6 2.6-10.6 3.5-16.8 4.9-54.3 18-70.4 18.2-10.2.2-43.6-6-55-7.9q-50-7.6-100-15.9l-150.2-23.2c-15.7-2.4-31.5-4.6-47-7.8-3.8-.7-8.8-.6-12.3-2l-.2-.8c3-1.9 7.3-2 10.9-2.2"/>
  <path fill="#d49c5d" d="M585.6 260.8c8.9-3.7 36.6-8 47.3-10 15.3-2.9 43.5-10.5 58.3-10 19.7.5 44.8 6.4 64.6 9.4l175.2 27 67 9.8 15.4 2.2c5 .8 13.1.5 15.9 4.9 0 4-5.3 4.7-9 4.8 4-1.6 5.6-2.4 9.2-4.6-7.5 1.5-12.9 2.7-20.6 3-1.5.7-4 .5-6 .6-3.4.2-8.8 2-11.7 2.3-2.2-.6-11.4-1.1-14.5-1.5l-45.6-6.7a16592 16592 0 0 1-163.5-25.5l-46.5-7c-9-1.4-23-3-31.4-5 .2 6 0 12.7-.1 18.8-2.6 0-3.2 0-5.8-.8-5.4-1.5-18-3-23.8-3.7a408 408 0 0 1-34.6-5.5c-2-.9-2.2-2-5.6-3.4-7.4 1.2-24.7.5-34.3.9"/>
  <path fill="#412106" d="M620 259.9c12.6-2.2 29.5-5 42-7.7 24.9-5.3 35.3-2.7 59.7 1.3l42.8 6.9q86.6 14 173.6 26.8c19 2.8 53 9.6 71 10-1.6.8-4.1.6-6.1.7-3.4.2-8.8 2-11.7 2.3-2.2-.6-11.4-1.1-14.5-1.5l-45.6-6.7a16592 16592 0 0 1-163.5-25.5l-46.5-7c-9-1.4-23-3-31.4-5 .2 6 0 12.7-.1 18.8-2.6 0-3.2 0-5.8-.8-5.4-1.5-18-3-23.8-3.7a408 408 0 0 1-34.6-5.5c-2-.9-2.2-2-5.6-3.4"/>
  <path fill="#b17638" d="M625.5 263.3c5.6-1.1 12.3-1.3 18.2-2.3 13-2.1 26.6-4.2 39.5-7 0 4.8-.3 14.1.7 18.5-5.4-1.5-18-3-23.8-3.7a408 408 0 0 1-34.6-5.5"/>
  <path fill="#051c27" d="M585.6 260.8c9.6-.4 26.9.3 34.3-1 3.4 1.5 3.5 2.6 5.6 3.5 12 2.4 22.5 4 34.6 5.5a223 223 0 0 1 23.8 3.7c2.6.7 3.2.7 5.8.8q87.3 12.7 174.5 27l44.8 7.3c18.5 3 33.6 6.5 52 .8 9.9-3 20.5-5.2 30.3-8.2 2.9-.3 8.3-2 11.7-2.3 2-.1 4.5 0 6-.6 7.7-.3 13-1.5 20.6-3-3.6 2.2-5.3 3-9.1 4.6-3 .7-7.7 2.6-10.7 3.5-16.8 4.9-54.3 18-70.4 18.2-10.2.2-43.6-6-55-7.9q-50-7.6-100-15.9l-150.2-23.2c-15.7-2.4-31.5-4.6-47-7.8-3.8-.7-8.8-.6-12.3-2l-.2-.8c3-1.9 7.3-2 10.9-2.2"/>
  <defs>
    <linearGradient id="a" x1="924.8" x2="499.3" y1="663" y2="503.8" gradientUnits="userSpaceOnUse">
      <stop offset="0" stop-color="#036f64"/>
      <stop offset="1" stop-color="#01a790"/>
    </linearGradient>
  </defs>
  <path fill="url(#a)" d="M450.8 514.5c3.5-5.2 7.4-10.8 10.2-16.4 1.3-2.8 1.2-8.6 3.2-10l1.6.3a205 205 0 0 1 23 2.5q13 .8 25.7 2c7.6 0 16 .9 23.7 1.6 23.2 2 46.6 3.5 69.9 5.9 6.5.6 13.5 3.8 20 5.1 7 1.2 16 1.8 23.2 2.4l140.1 13 45.9 4.3c19.1 1.8 37 4.2 56-.1 15.3-3.5 31.6-2 47.3-1.7-3.2 4.8-7 10.7-11.4 14.5-14.7 12.5-36.5 15.7-55.9 14.4-21-1.5-42-3.8-63-5.8l-97.7-8.8-132.8-12c-35.8-3-72.7-5.6-108.3-9.5-6 0-14.8-1-20.7-1.7"/>
  <path fill="#5cd0bc" d="M467.7 490.9c6.4.2 14.7.6 21 .3l25.7 2c10.8 3.6 34 2.9 46.2 4.5 11.8 1.6 25.5 1.7 37.2 4.1 1.2.3 2.1 1.6 2.6 2.6l-.5.8q-3.4 1.3-7 .7l-35.4-3-84.8-7.7c-1.6-1.8-3.1-2.9-5-4.3"/>
  <path fill="#078a7b" d="M450.7 514.9c3.5-5.3 7.4-10.9 10.2-16.5 1.3-2.8 1.2-8.6 3.2-10l1.6.4c-1.4 1.4-1 .5-1.2 2.5 2 1.8 3.6 1.6 6.5 3.8.5 7.5 0 14.4.4 21.5-6 0-14.7-1-20.7-1.7"/>
  <path fill="#284349" d="M319.7 516c-4.3 14.2-8.3 19.5-16.8 31.6a127 127 0 0 1-66.5 48c-68.4 22.2-140.4-12-167-71.8-19.4-43.2-20.3-103.2 9-143.4 12-16.5 28.7-34.4 48.1-43.7 1.6-.7 2.5-.6 4 0 .9 1.5.9 2 .9 3.7q.4 1.2 1.2 2.3c1.7 2.8 1.8 3.4 2.6 6.5-6.5 4-13.2 8-18.9 13a127 127 0 0 0-40.6 68.3C61.4 493.5 98.5 571 174 583.7a115 115 0 0 0 80.3-15.3 118 118 0 0 0 47.3-55.1l.7-1q4-.5 7.5 1.3c.4 1 .5 2.2 1.5 2.9l1-.6c3-1.4 3.8-.8 7.4.1"/>
  <defs>
    <linearGradient id="b" x1="209.3" x2="168.9" y1="401.8" y2="662.9" gradientUnits="userSpaceOnUse">
      <stop offset="0" stop-color="#959a9a"/>
      <stop offset="1" stop-color="#b5b6b5"/>
    </linearGradient>
  </defs>
  <path fill="url(#b)" d="M132.6 342.4c1.7 2.8 1.8 3.4 2.6 6.6-6.5 4-13.2 8-18.9 12.9a127 127 0 0 0-40.6 68.3c-14.3 63 22.8 140.3 98.3 153.1a115 115 0 0 0 80.3-15.2 118 118 0 0 0 47.4-55.2c2.3 0 3.3-.2 5.5.6q1.5 1.3 1 3.2c-7.8 21.7-26.7 43-46.6 55.7a128 128 0 0 1-86.5 19.2 127 127 0 0 1-106.2-101c-7-30.1-4-64.5 10.3-92.7 4-8.2 10.4-17.2 15.9-24.7a119 119 0 0 1 37.5-30.8"/>
  <path fill="#1f2f36" d="M117.5 567.9A127 127 0 0 0 175 592l3.3 1.3h-.3l-.6.8c-21.8-1.5-44-10.7-60.1-24zM95 373.5c-3.6-6.4 29.4-30.5 36.4-33.1q.4 1.2 1.2 2.3c-14.8 7-27.3 19-37.5 30.8"/>
  <path fill="#020405" d="M84.9 531.8a117 117 0 0 0 32.6 36.1l-.2 2.2A130 130 0 0 1 85 536.5c-1.4-2.2-1-2.6-.2-4.7"/>
  <path fill="#284349" d="M1070.5 414c18.6-1.4 29.6-1.2 47.5 4.3 74.6 23 90.3 120.4 42.2 172a104 104 0 0 1-69 31.8 111 111 0 0 1-66.5-13.6 93 93 0 0 1-45-57.3c-1.8-5.9-6-18.7-4.3-24.5.8-.7 11.3-1 13-.8 2.4 2 2.7 10.5 3.7 14.2 1.5 5.6 3 10.3 5.3 15.7a75 75 0 0 0 13.7 21.5 93 93 0 0 0 123.2 13.9 90 90 0 0 0 36.5-63c2.7-27.4-4.2-51-24-72.2a92 92 0 0 0-70.7-27.9c-5.5.3-16.2 3.3-21 3-1.7-1.1-1.4-2.3-2-4.5-.4-1.1-1.4-6.6-.1-7.8 4-3.5 12.1-4 17.5-4.7"/>
  <defs>
    <linearGradient id="c" x1="1083.1" x2="1109.4" y1="475.1" y2="689.1" gradientUnits="userSpaceOnUse">
      <stop offset="0" stop-color="#8c9292"/>
      <stop offset="1" stop-color="#b0b1b1"/>
    </linearGradient>
  </defs>
  <path fill="url(#c)" d="M1053.4 426.3c-.5-1-1.5-6.6-.2-7.8 4-3.5 12.1-4 17.5-4.7-2.1 1-4.2 1.8-5.5 3.6 1.3 2.2 14.6.5 18 .5 23 0 45.2 8.3 61.4 23.1.6 1.2 1.7 3 2.1 4.2 3.8 3.5 6.2 6 9.6 9.8a99 99 0 0 1-1.7 127.6 101 101 0 0 1-43.6 27.7c-35.2 9.3-69.7 3.2-96.5-20-3.1-2.6-6-5.7-8.9-8.5-6.5-8-11-15-15-24.3-2.2-5.9-8.9-25.5-7-30.7 2.2-1.4 2.1-1 5-1.2 2.4 2 2.7 10.4 3.7 14.2 1.5 5.5 3 10.2 5.3 15.6a75 75 0 0 0 13.7 21.5 93 93 0 0 0 123.2 13.9 89 89 0 0 0 36.6-63c2.6-27.3-4.3-51-24-72.1a92 92 0 0 0-70.8-27.8c-5.5.2-16.1 3.3-21 2.9-1.7-1.1-1.4-2.3-2-4.5"/>
  <path fill="#1f2f36" d="M1053.2 426.6c-.5-1.1-1.5-6.6-.2-7.8 4-3.5 12.1-4 17.5-4.7-2.2 1-4.2 1.7-5.5 3.5 1.3 2.3 14.5.6 18 .6 23 0 45.2 8.3 61.4 23.1.6 1.2 1.7 3 2.1 4.2-21-16.7-43-26.7-72-24.3-5 .4-18.4 2.2-21.3 5.4m57.6 184.1c19-7.3 30-13.2 43.6-27.7l.8 1.7c-4.3 7.3-35.7 30.3-44.4 26"/>
  <path fill="#020405" d="M990.3 557.8c4.2 9.3 8.6 16.3 15.1 24.4-5.5-.5-13.3-15-15.3-20-1-2.5-1.2-2.5.2-4.4"/>
  <path fill="#051c27" d="M1146.5 445.5c-.4-1.1-1.5-3-2-4.2 3.7 2.9 10.6 8.5 12 12.7l-.4 1.3c-3.4-3.8-5.8-6.3-9.6-9.8"/>
  <path fill="#06a792" d="M283.1 433.3a5477 5477 0 0 1 80.6-1.7c12.4-.2 49-1.9 58.2 2.3a62 62 0 0 1 22.8 16l1 1.2c10.9 11.8 11.8 30 5.9 43.9a46 46 0 0 1-25.5 24.2c-1.3-5.7-3.3-11.9-5-17.6 4-4.5 7.3-7.7 9.7-13.3 6-14.3-1.9-31.7-17.8-37.1a38 38 0 0 0-26.3.8c-15.2 6.1-20.7 25.9-13.6 38.8 4.9 9 13.2 12.4 23.3 15.3 2.1 6.1 3.6 10.6 5 16.8-25.5-2-44.2-17-49.7-39.7-2-9-1.7-23-14.6-25.5-24-4.6-50.7-4.5-75.2-6.9-12.3-1.1-24.6-1-36.7-3-1-8-3.5-12.7 6.7-13 17-.7 34.1-1.9 51.2-1.5"/>
  <path fill="#5cd0bc" d="M283.1 433.3a5477 5477 0 0 1 80.6-1.7c12.4-.2 49-1.9 58.2 2.3 1.1 3.7 3 1.6 4.2 4.5l-.8.8c-1.3-.2-1.4-.2-2.5-1-2.5-1.4-5.9-1-8.7-.7-9-2.6-24-1.6-34-1.4q-29.1 0-58.2.7c-11.2.2-37.3 1.5-47.5.3 4.9-.4 12.9-.2 18-.2.6-1.1.4-.5 0-2-2.4-1.6-18.3-.6-23-.7 4.2-.2 9.7 0 13.7-1"/>
  <path fill="#5cd0bc" d="M421.9 434a62 62 0 0 1 22.8 15.9l1 1.2c.3 3.7 5.7 11.2 5.8 16.2-.8-.4-12-15.7-13.7-17.8-.3-.2-3.4-3.3-5-4.4-5.8-4.2-11.8-5.5-18.7-7.6 2.8-.3 6.2-.7 8.7.8 1.1.7 1.2.7 2.5 1l.8-.9c-1.2-2.9-3-.8-4.2-4.5"/>
  <path fill="#06a792" d="M314.4 291c4.2-1.2 10-3.6 14-2.8 3.2 2 4.1 9.8 5 13.9 2.2 5.2 3.6 11.2 5.4 16.6q6.9 20.2 13.4 40.5c2 6.4 9.4 26.3 10.3 31.5a244 244 0 0 1 10.5 32v.3c-1.4.8-11.6.4-14.2.4-1.8-6-5.2-13.8-7.4-20.1-5.8-17-12.3-34-17.7-51-3.8 1.4-5.4 1-7.8 3.2q-2-7.3-4.6-14.6c2.8-1.8 4.2-1.6 7.5-4a179 179 0 0 0-5.9-18.6c-2.4 1.9-6.8 6-9.1 8.3q-24 23.9-47.7 48.4c-16.2 17-32.7 33.4-48 51.1-4.7 5.5-15.9 13.6-17.3 20.4-.4 2 3.8 6.5 6.2 7.1 8 2 17 2.4 25.2 3.1l71 6.1c7.8.7 28 1 34.9 4.3 3.1 1.5 3.4 10.2 3.6 13.9-5-.2-10.4-1.4-15.4-1.8-12.4-1.2-24.3-3-36.7-4.8-12-1.7-25.3-2-37.5-3.3q-23-2.6-46-4.5c-6.3-.5-13.1 4.2-19.8 4.3a13 13 0 0 1-9-3.3c-4-3.8-5.9-12-1.5-16.3 6.1-5.8 13.5-10.4 19.1-16.7q20.2-22.3 40.7-44.2Q255 370 274.7 350c14.8-15 27.3-29 43.8-43.1-1.7-5.6-2.9-10.3-4-16"/>
  <path fill="#5cd0bc" d="M365.2 411.8c-4-11.6-40.3-118.2-39-122.7 3.2 1 4.2 9.7 7.3 13 2 5.2 3.5 11.2 5.3 16.6q6.9 20.2 13.4 40.5c2 6.4 9.4 26.3 10.3 31.5a244 244 0 0 1 10.5 32c-5-.3-6.7-7.3-7.8-11"/>
  <path fill="#3cc2a9" d="M362.5 390.7a244 244 0 0 1 10.5 32c-5-.3-6.7-7.3-7.8-11 .4.2 1.5.2 1.8.2 1.5-2.8-4.5-13.9-4.5-21.2"/>
  <path fill="#020405" d="M321.3 340.9c2.8-1.8 4.2-1.6 7.5-4q2.2 7.7 5 15.5c-4 1.3-5.5.8-7.9 3.1q-2-7.3-4.6-14.6M188.2 450.4c4.6-.4 8.8 2.6 9.4 6.7.6 4.2-2.5 8-7 8.7a9 9 0 0 1-8.3-2.8 7 7 0 0 1-1.2-7.8c1.3-2.7 4-4.5 7.1-4.8"/>
  <path fill="#d49c5d" d="M218.3 176.5c1.2-4 2.8-7.8 7.1-10 8.8-4.7 40 2.7 51.9 3.2q12.8.3 25.4-.2c15.1-.8 30-2.6 45.3-2 9.2.2 14.4 1.6 16.2 10.4 0 3.3-.6 6.3-4.3 7.5-9.2 3-20.8.5-30.2 1.9-26 3.8-48 18.3-75.4 14-11-1.7-25.7-5-33.7-12.4-3.4-3.5-2.8-8.1-2.3-12.4"/>
  <path fill="#b17638" d="M364.2 178c0 3.2-.6 6.2-4.3 7.4-9.2 3-20.8.5-30.2 1.9-26 3.8-48 18.3-75.4 14-11-1.7-25.7-5-33.7-12.4-3.4-3.5-2.8-8.1-2.3-12.4 0 2.5-.2 4.5 2.3 6.2a88 88 0 0 0 44.6 12.3c20.6-.7 38.1-9.8 57.6-14.1 8.7-2 36 .3 41.4-3"/>
  <path fill="#284349" d="M378.7 321.1c4.2.5 15 6 16.7 9.5 6.3 12.6 11.3 26.2 16.3 39.3 4.4 11.3 10.5 23.8 12.9 35.5l-23.1 8-14.8 5.2a1861 1861 0 0 1-26.7-78.2c1.3-2.9 10.6-6.6 13.8-8.3 1.7-2.9 3.6-7.8 5-11"/>
  <path fill="#06a792" d="M1055 463.4c1.7 3 2.9 7 4.3 10.3 4.6 10.2 8.4 21.3 14.3 31 1.5 2.3 8.3 5.8 10 8 2.8 3.6.5 11-4.4 11.9-11.5 2.8-11.8-6.3-16.4-13.2-16.5-25-27.1-52-34.4-80.3-2.2-8.6-5.6-17.2-6-26.2q0-3 1.1-5.8c3.6-8 19.3-13 22.4-5.7-.5 2.2-3.6 4.7-5.5 6.7-.2 4.7.6 8.5 1.3 13 3.8 20.6 7.9 31.1 13.4 50.3"/>
  <path fill="#3cc2a9" d="m1041 413.3.7-.1c3.8 20.5 7.9 31 13.4 50.2-1 .5-1.7.2-3 0l.6 1.7-.8-.1c-3.6-4.6-11.3-34.6-13-41.7l1-.2c2.1-2.3 1.4-6.6 1.2-9.8"/>
  <path fill="#5cd0bc" d="M1034.3 412.6c-3 1.1-5 2.3-8 1.3-2.7-4.4 8.6-11.2 12-13.4v.4c.5 4.8 1.4 7.8 2.8 12.4.2 3.2 1 7.5-1.2 9.8l-1 .2c-1.3-3.4-3.2-7.3-4.6-10.7"/>
  <path fill="#0f3a40" d="m1075.2 514.1 2.1.5q3.9 3 1 6.8c-2.8-.7-3.8-.8-5-3 0-2 .7-2.6 1.9-4.3"/>
  <path fill="#078a7b" d="M560.8 424.9c2.4-3.3 15.3-21.2 17.8-22.6l1 .2a69 69 0 0 1 3.6 18.8c-10.5 19-40.3 39-62.3 46a112 112 0 0 1-47.7 5.4c-3.6-.4-7.4.4-9.6-2.6l-.6-2.9c-.6-3.4-2-7.5-3-10.9l-.3-1c1.2-.8 4.2-.2 5.7 0 20 3.5 32.2.8 51.4-3 16.8-6 23.1-9.8 36.5-20.6 1.8-2 5.4-5 7.5-6.8"/>
  <path fill="#3cc2a9" d="M560.8 424.9c9.5-7.1 12.7-17 17.5-20.2l.8.3a23 23 0 0 1 1 10c-3.2 2.1-4.4 2.1-7.5 4.7-3.4 3-4.8 8.2-7.6 10.6-7.1 6.2-14.7 11.1-21.3 17.8-.5.1-5.4 1-5.2.8a53 53 0 0 1-33.6 13.6c-13.9-.2-26.3 2-40 .2-1-.1-1.3.3-1.8 1l1 3.7-1-.2c-.7-3.4-2-7.5-3-10.9l-.4-1c1.2-.8 4.2-.2 5.7 0 20 3.5 32.2.8 51.4-3 16.8-6 23.1-9.8 36.5-20.6 1.8-2 5.4-5 7.5-6.8"/>
  <path fill="#5cd0bc" d="M553.3 431.7a38 38 0 0 1-20.3 17.8c-4 1.8-13 6.5-16.2 7.7-15 5.4-35.9 3.8-51.8 3.3l-5-4.2-.3-1c1.2-.8 4.2-.2 5.7 0 20 3.5 32.2.8 51.4-3 16.8-6 23.1-9.8 36.5-20.6"/>
  <path fill="#566266" d="M144 331c-.5-2.5-.9-2.1 0-4.2 3.5-2.8 7.3-3.3 11.8-4.6a128 128 0 0 1 42.7-5c22 1.4 53.7 10 70.5 23.7.6.5 1 1.6 1.3 2.3-.5 2-.5 1.4-2.6 3l-2.3 2-6.5 6.4-7-4.4c-31-19.1-68.4-20.9-103.1-8.1l-2.8-6.5z"/>
  <path fill="#284349" d="M144 331c-.5-2.5-.9-2.1 0-4.2 3.5-2.8 7.3-3.3 11.8-4.6a128 128 0 0 1 42.7-5c22 1.4 53.7 10 70.5 23.7.6.5 1 1.6 1.3 2.3-.5 2-.5 1.4-2.6 3l-2.3 2a121 121 0 0 0-29.6-15.6 133 133 0 0 0-85.7-.3c-2.6 1-3.2 1.4-4 3.3z"/>
  <path fill="#1f2f36" d="M144 331q6.6-1.4 13-3.3c30.3-8.2 64.6-6.8 92.4 7.5q9.5 5 18.3 11l-2.3 2a121 121 0 0 0-29.6-15.6 133 133 0 0 0-85.7-.3c-2.6 1-3.2 1.4-4 3.3z"/>
  <path fill="#078a7b" d="M1007.1 372.9c1.9 1.7 5.7 19.9 6.6 23.4-1.6 3.5-4.3 6.7-6 10-7.8 15.2-22.2 25.9-32.5 39-12 15.3-23 39.8-23.7 58.5l-11.3.2-7.1-.3c3-5.6 8.4-13 12.2-19.8 20.2-36.7 40-75.2 61.8-111"/>
  <defs>
    <linearGradient id="d" x1="373.2" x2="426" y1="402.4" y2="387.7" gradientUnits="userSpaceOnUse">
      <stop offset="0" stop-color="#5f6f73"/>
      <stop offset="1" stop-color="#899093"/>
    </linearGradient>
  </defs>
  <path fill="url(#d)" d="M430.9 393.8c-7.1-16.9-12.6-34.3-20.2-51-.7-1.3-5-11.5-5-11.7-.3-11.4-53.6-24.9-54.6-27.2 1.8-.8 19.7-3.4 21.2-3 10.5 2.6 35.4 11.2 42 18.7a904 904 0 0 1 18.5 46c3.6 9.6 8.6 20.7 11.5 30.3-2.5 1.7-6.5 5-9.1 5.5-3.7-1-3.6-4.5-4.3-7.6"/>
  <path fill="#566266" d="M414.1 319.8a905 905 0 0 1 18.6 46.1c3.6 9.5 8.7 20.6 11.5 30.2-2.5 1.8-6.5 5-9.1 5.5-3.7-.9-3.6-4.5-4.3-7.6 1.1 2.1 1.9 3.7 3.7 5.5h.8c.3-7.2-24.6-64.3-28.4-75.2 2.5-1.6 4.9-2.6 7.2-4.5"/>
  <defs>
    <linearGradient id="e" x1="212.5" x2="212.2" y1="375.8" y2="334.5" gradientUnits="userSpaceOnUse">
      <stop offset="0" stop-color="#088d7f"/>
      <stop offset="1" stop-color="#13ad9b"/>
    </linearGradient>
  </defs>
  <path fill="url(#e)" d="M186.5 296.6c34.7-3.3 72.3 11.2 98.5 30.8a47 47 0 0 1-7 8.4c-11.4-9.2-20-14.5-33.8-20.2-4.6-2-11-4.5-16-5.7a145 145 0 0 0-73.1.5c-5.8 1.7-11.4 4.6-16.7 7.2a46 46 0 0 1-4-9.4c15.3-6 35.3-10.4 52-11.6"/>
  <path fill="#1f2f36" d="M714 547q26.6 2 53 4.3c13.6 1.1 28.5 2.1 42 3.7-.6 2.2-1.5 7-2.3 8.8-.7 2-1 2.7-2.2 4.4-3.7 1.5-76.5-6.4-88.6-7.2-2 .2-2.5.4-4.5 0-2.6-2.6.5-5.6 2.4-7.7z"/>
  <path fill="#566266" d="m713.8 553.3-.2 2.6c1.5-1.1 1.7-1.4 4-1.3 10 .4 20.3 1.5 30.2 2.4l49.4 4q4.5.3 8.5 1.6l1 1.2c-.7 2-1 2.7-2.2 4.4-3.7 1.5-76.5-6.4-88.6-7.2-2 .2-2.5.4-4.5 0-2.6-2.6.5-5.6 2.4-7.7"/>
  <path fill="#202126" d="m713.8 553.3-.2 2.6c.2 2.2 0 3.7 2.3 5.1-2 .2-2.5.4-4.5 0-2.6-2.6.5-5.6 2.4-7.7"/>
  <defs>
    <linearGradient id="f" x1="955.4" x2="969" y1="590.8" y2="564.2" gradientUnits="userSpaceOnUse">
      <stop offset="0" stop-color="#00756f"/>
      <stop offset="1" stop-color="#1ba491"/>
    </linearGradient>
  </defs>
  <path fill="url(#f)" d="M929.7 509c17.2 0 35.3 1 52.6 1.4 12 .4 24.6.4 36.4 1.6q8.6.1 17.1.9c7.3.5 16 1.4 23 1.3 1.8 3 3.3 5.5 4.7 8.8-8.5.2-16.7-1.2-24.8-1.2-22.6.1-46.6-3.6-69-3.3-5 0-12.3-.5-17.6-.7q-17-.7-33.9-1.1 5.5-4.2 11.5-7.8"/>
  <path fill="#078a7b" d="M1035.6 513.2c7.3.5 16 1.5 23 1.3 1.8 3.1 3.3 5.6 4.7 8.8-8.5.3-16.7-1.1-24.8-1.1-22.6 0-46.6-3.7-69-3.4l-.2-1.3c.9-.5 3-1.7 4-1.8 12.2-.4 24.7 1.3 36.6 2 5.3.4 13-.4 18-1 2.5-.2 9-.2 10.9-1.5l-.2-.6z"/>
  <path fill="#5cd0bc" d="M975.5 513c9.1-3 32.6 1.4 43-.7q8.6.1 17.1 1l3 1.3.2.6c-1.8 1.3-8.4 1.3-11 1.5-4.3-.7-10.4-.4-15-.8-11.4-.9-26.3-1-37.3-3"/>
  <defs>
    <linearGradient id="g" x1="1040.1" x2="996.5" y1="531.6" y2="536.8" gradientUnits="userSpaceOnUse">
      <stop offset="0" stop-color="#999396"/>
      <stop offset="1" stop-color="#a5aeac"/>
    </linearGradient>
  </defs>
  <path fill="url(#g)" d="M989.9 462.7c4-9 20.2-23.6 30-28.2l1 .3c.8 3.4.1 4-2.9 6.3-6.5 4.7-11.6 11.2-16.9 17-1.4 1.6-2.5 3.9-4.1 5.8l1.2.5c2.4-3.2 7.2-10.7 11-12 5.1-3.6 8.1-7.3 14-10.6.3 2 1 4.7 1.2 6.7-21.4 17.8-27.6 30.3-33.3 55.8-2.2-.1-5.2-.1-7.2-.5H981c-2.2.2-3.6.5-5.3-.8v-1.6c-1.2-11 7-29.8 14.1-38.7"/>
  <path fill="#284349" d="M989.7 463c4-9 20.2-23.6 30-28.2l1 .3c.8 3.4.1 4-2.9 6.3-6.5 4.7-11.6 11.2-16.8 17-1.5 1.6-2.6 3.9-4.2 5.8a68 68 0 0 0-12.9 26.1c-.7 3.5-1.6 11-3 13.8-2.2.2-3.6.6-5.3-.7v-1.7c-1.2-11 7-29.8 14.1-38.7"/>
  <path fill="#0f3a40" d="M975.6 501.7c-1.2-11 7-29.8 14.1-38.7-4.7 13.3-10 24.6-14.1 38.7"/>
  <path fill="#1f2f36" d="m996.8 464.2 1.2.5c2.4-3.2 7.2-10.7 11-12-13.7 17-22.2 29.7-25.3 51.5l-2.8-.1c1.4-2.8 2.3-10.3 3-13.8a68 68 0 0 1 12.9-26.1"/>
  <path fill="#06a792" d="M1022.3 340c2.3-.4 4.3-1 6.4-.4 1.7 3.5 8.5 26.2 9.3 30.4q2.3 7.9 4.4 15.9c-7.5.2-14 1-20.7 4.3-5.7-16.3-8.4-31-13.5-47.1 4.8-1.7 9-2.6 14.1-3"/>
  <path fill="#5cd0bc" d="M1022.3 340c2.3-.4 4.3-1 6.4-.4 1.7 3.5 8.5 26.2 9.3 30.4-.2 3.2 1 5-1.6 7.5-1 .2-4.5 1.2-5 .1-2.7-7-10.7-31.6-9-37.6"/>
  <path fill="#284349" d="M482 92.8c1.4 1.2 2.9 2.9 4.2 4.2 2 2.5 1.6 7 1.6 10.2-14.2.6-38.2 6.5-54.6 8.5-1-3.4-1.6-6-3.3-9.2-.9-1.5-1.8-2.9-1.1-4.4 15-3.6 36.2-5.7 53.2-9.3"/>
  <path fill="#828a8b" d="M482 92.8c1.4 1.2 2.9 2.9 4.2 4.2l-1.2.9c-13.5 1-43.5 8.1-55.1 8.6-.9-1.5-1.8-2.9-1.1-4.4 15-3.6 36.2-5.7 53.2-9.3"/>
  <defs>
    <linearGradient id="h" x1="540" x2="549.3" y1="142.4" y2="130.5" gradientUnits="userSpaceOnUse">
      <stop offset="0" stop-color="#9c9b9a"/>
      <stop offset="1" stop-color="#d5d6d5"/>
    </linearGradient>
  </defs>
  <path fill="url(#h)" d="m494.6 97.6-.2-2.8c4.8-3.6 28 .2 30.6 7.5l.4.4c9.2 8.4 11.9 18.9 25 22.1 2.8.6 3.3.7 5.6 2.2.8 2 1 7.5-1.3 8.3-13.3 4.5-26-11.4-30.8-18.3-10.7-11.9-10.8-12.6-28-12.6q-.5-3.3-1.3-6.8"/>
  <path fill="#a5a6a6" d="M494.5 97.7c3 1.3 8.3.9 11.9.9 6.2 1.6 11 7.2 16 11.3.5 2.2 1.3 5 1.4 7.2-10.7-11.9-10.8-12.6-28-12.6q-.5-3.5-1.3-6.8"/>
  <path fill="#eaeaea" d="m494.5 97.7-.2-2.8c4.8-3.6 28 .1 30.6 7.5q.5 1.6 1.3 3c-5.3-.5-10.3-6.5-19.8-6.8-3.6 0-8.9.4-11.9-1m55.9 27.3c2.7.6 3.2.7 5.5 2.2l-.6 1.2c-1.6.9-6.7 1-7.6-.1 1.7-.6.9-.6 2.5 0l.6-.3v-1.5l-1-.8z"/>
  <path fill="#078a7b" d="M610.3 542.6c9.8-.1 11.3.7 15 9.6l2.4 5.3c2.1 5 4.2 11 6 16.1 2.5 5.2 4 10.3 6 15.6l7.3 16.5.6 1.5-.5.8c-2.4.9-6.8.5-9.5.4-6.5-17.3-14.2-33.9-20.8-51.2q-3-7.4-6.5-14.6"/>
  <path fill="#5cd0bc" d="M647 605.7c-.3.9-.3.7-1 1.6q-2.3.8-4.6-.3c-2-1-16.6-39.7-17.9-44.5-.4-1.8-.7-2.3.3-4l-.5-.3c3.3.7 7.5 12.7 10.4 15.4 2.5 5.2 4 10.3 6 15.6z"/>
  <path fill="#087269" d="M610.3 542.6c9.8-.1 11.3.7 15 9.6l2.4 5.3c-2.7-3-4.6-5.1-9-3.7-1.6 1.2-1.6 1.6-2 3.4q-2.7-7.4-6.4-14.6"/>
  <defs>
    <linearGradient id="i" x1="205" x2="164.6" y1="547.4" y2="505.9" gradientUnits="userSpaceOnUse">
      <stop offset="0" stop-color="#223c41"/>
      <stop offset="1" stop-color="#495c61"/>
    </linearGradient>
  </defs>
  <path fill="url(#i)" d="m159 453 .6.4.6-.8c2.6-.4 3.1-.3 5.7 0l.1.7.7-.3c-.4 5-.7 7.3 1.8 12a22 22 0 0 0 23.4 10.5c3.5-.6 8.5-3 12-2.9 3.6 0 9.2 2 12.7 3a53 53 0 0 1-10.4 7c-20.6 10-46.6-1.1-48-22.8 0-2 0-5 .7-6.8"/>
  <path fill="#06a792" d="M121.4 315c1.8.9 3 6.5 3.7 8.6-15.1 6.9-30.2 20-40.8 32-4.2 4.8-8.7 11.8-13.2 16l-.4.5c-2-1-2.6-1.3-4.2-2.9-1.8-4.2 6.5-12.4 9.2-15.8a141 141 0 0 1 45.7-38.5"/>
  <path fill="#566266" d="M286.3 366.9c9.8 6.6 31.8 47.1 29 57-1.2.7-4 .5-5.7.5h-2c-2.1-1.3-2.3-4.8-3-7.2-5-16.6-13.3-29.7-24.6-43.4 1.8-2.2 4.4-4.8 6.3-7"/>
  <path fill="#eaeaea" d="M549.7 144.9c3.8.7 6 1.3 9.9 2.3 1.5 7.6 12.9 55.3 12 58l-8.8.6c-2.2-7.2-13.7-57-13.1-60.9"/>
  <path fill="#078a7b" d="M995.4 433.3c6.3-5.5 13.6-12.2 20.5-16.7l1.4 6.6a109 109 0 0 0-47 55.5c-2.3 5.4-5.5 21.4-7.8 24-2.1 1.1-1.2 1-3.6.7-1.5-2.3-.7-3.6-.3-5.9 3-17.7 11.2-33.5 22.2-48.3 4-5.3 8.6-12 14.6-15.9"/>
  <path fill="#5cd0bc" d="M995.4 433.3c6.3-5.5 13.6-12.2 20.5-16.7l1.4 6.6a93 93 0 0 0-21.6 16.5c-3.6 1-9.6 7.6-13.3 10.6 2.7-4.8 9.2-12 13-17"/>
  <path fill="#078a7b" d="M302 351.1c1.2.2 1.8.5 2.7 1.2 16.2 13.3 35 52 36.7 70.9-1 1.2-.7.8-3 1-.5.1-4.1.3-4.3-.5-1.2-6.5-1.9-13.5-4.3-19.7a128 128 0 0 0-32.3-48.7z"/>
  <path fill="#284349" d="M1059 528.2c5 .8 10.7 3 15.4 3.4 4.3.5 8.7-.7 12-3.2a14.4 14.4 0 0 0 4.7-17.5c-1.5-3.8-10-9.7-5.7-13 1.7 0 1.8.1 3.4 1 5.5 3.8 7.6 5.7 10.3 11.6 2.8 4.7 2 12-.3 16.8a23 23 0 0 1-13.7 11.6c-11.6 4-22 0-26-10.7"/>
  <path fill="#828a8b" d="M1099 510.5q-.6.7-1.6 1.2l-1.3-.2c-3.4-2.1-11-8.2-10-12.3l2.7-.3c5.5 3.8 7.6 5.7 10.3 11.6"/>
  <defs>
    <linearGradient id="j" x1="383.2" x2="426.7" y1="535.1" y2="536.6" gradientUnits="userSpaceOnUse">
      <stop offset="0" stop-color="#23454c"/>
      <stop offset="1" stop-color="#5a5d64"/>
    </linearGradient>
  </defs>
  <path fill="url(#j)" d="M391.6 498.8c-12-5.7-17.8-14.2-14.4-26.7 5.4-19.8 35-23.7 46.6-5.8-.8 1.8-.8 2.2-2.7 3.2-3.4.7-5.7-1.3-8.4-3l-4.8-3.3c-7-4.2-17-.7-21.2 5.6-7.8 11.5 2 19.1 4.9 30"/>
  <path fill="#566266" d="M400 487.4c.7-.2 7-.7 8.8-1 3.6 16.2 9.6 32 14.1 48.2l-10-.2c-4.3-14.8-8.3-32.9-13-47"/>
  <path fill="#828a8b" d="M309.8 484.3q3.9.4 7.8.5l3.3.8c2.4-.4 4.4.3 6.6 1.2a64 64 0 0 1-4.7 21.9c-2.5.8-5.4 0-8-.4-3.3-.2-4.6-.5-7.7-1.2-1-.4-2.8-.9-2.3-2.1a92 92 0 0 0 5-20.7"/>
  <path fill="#284349" d="M320.9 485.6c2.4-.4 4.4.3 6.6 1.2a64 64 0 0 1-4.7 21.9c-2.5.8-5.4 0-8-.4 3.9-7 4.8-15 6-22.7"/>
  <defs>
    <linearGradient id="k" x1="316.9" x2="325.5" y1="554.8" y2="561.9" gradientUnits="userSpaceOnUse">
      <stop offset="0" stop-color="#1a2533"/>
      <stop offset="1" stop-color="#273a3d"/>
    </linearGradient>
  </defs>
  <path fill="url(#k)" d="m317.7 484.4 3.3 1c-1.4 7.6-2.3 15.6-6.2 22.5-3.2-.2-4.5-.4-7.6-1.1h4.8c2.2-3 6.5-19 5.7-22.4"/>
  <path fill="#eaeaea" d="M546.5 218.6c1.4-1 1.4-1.1 3.1-1.3 1.6.7 1 .1 1.9 1.5.7 2.7 2.8 5.4 3.6 8.5q2.9 10.7 5 21.6c-6.3 3.6-9 6.2-12.9 11.8-1.7-16.8-2.7-25.4-.7-42"/>
  <path fill="#284349" d="M1056.7 350.1c4.9-5 13.1-6.1 20.2-7q-1.5 4.6-2.2 9.4c-1.3 5.9-.3 11.8.6 17.7-9.4-2.7-15.5-4.7-20.4-12.5.3-3 .3-4.9 1.8-7.6"/>
  <path fill="#828a8b" d="M1056.7 350.1c4.9-5 13.1-6.1 20.2-7q-1.5 4.6-2.2 9.4c-3.5 1.6-15.4 0-18-2.4"/>
  <path fill="#06a792" d="M1078 395.4c4.1-.6 20.8-1.8 22.8 1.6-.9 2.7-3.8 4.2-6.4 5.9-9.7-.4-16.8-.3-26.3 1.1-5 .8-15.2 3.8-18 3.9-1.3-1.3-1.7-5.2-.6-6.2 5.8-5.2 20.7-5.6 28.5-6.3"/>
  <path fill="#1f2f36" d="M394.7 546.2c0-1.7.2-2.2.6-3.8 2.8-1.2 24.5-1 28.7-.3 1.6.2 1.7 1 2.5 2.5-1 .6-3.1 1.6-4 2.3.3 2 .2 2.6 1.7 3.9l1.7.4c-1.7 2-.1-.9-3 1v1.2c1.4 0 1.4-.1 2.5.4l-4.7.6c-5.3.5-20.2 1.8-24.5-1.4-2-1.4-1.5-4.6-1.5-6.8"/>
  <path fill="#828a8b" d="M394.7 546.2c0-1.7.2-2.2.6-3.8 2.8-1.2 24.5-1 28.7-.3 1.6.2 1.7 1 2.5 2.5-1 .6-3.1 1.6-4 2.3-1.3 1.7-.7 1.3-2.6 2-2.3-.3-2.8-.9-4.5-2.2-1.2-1.4-1.2-1.5-3-2.1-2 .5-1.3.1-2.9 1.8-4.1 2.5-10.3.8-14.8-.2"/>
  <path fill="#051c27" d="M409.5 546.4c1.6-1.7.8-1.3 3-1.8 1.7.6 1.7.7 2.9 2 0 2.7.2 3.3-2 5-2 .3-1.2.4-3.1-.6-1.3-2.2-.9-1.8-.8-4.6"/>
  <path fill="#a5a6a6" d="m304.5 227.7.8.2a266 266 0 0 1 14 40.7c-1 1.6-2 1.5-4.2 2.4-1.2-.2-3.7-.9-4-1.7-2.2-5.5-12.1-36.2-11.5-39.8 1.3-1.2 3-1.3 4.9-1.8"/>
  <path fill="#078a7b" d="M577.8 223h1c1 1 5 17.2 5.8 20-4.5 1.2-9.5 2-14 3-1.7 0-1 .3-2.3-.4-2.5-7.4-3.5-12.9-4.9-20.6 5.1-.9 9.3-1.4 14.4-2"/>
  <path fill="#087269" d="m664.4 550.6-.3-2c2.5-1.3 10.2.2 12 3.8q6.6 13.4 14.3 26.7c-2.3-.2-3.7-.6-5.7.4l-1.7 1.8c1-7.7-1.6-12.2-9.5-15.3l-3.6-5.2c-1.3 1.6-3.7 3.3-4 4.3q-3.6-6-7-12.2a9 9 0 0 1 5.5-2.3"/>
  <path fill="#020405" d="M659 552.9c2.2-1.7 2.6-1.8 5.4-2.3 1.6 3.1 3.5 7.4 5.5 10.2-1.3 1.6-3.7 3.3-4 4.3q-3.6-6-7-12.2"/>
  <path fill="#df4e16" d="M49.6 374.6c3.9-.3 7-1 9.2 2.2-.7 3.1-3.3 8-4.7 11.2l-7.4 17.3c-.5 1-.8 1-1.7 1.8-2.4 0-1.4.3-3.5-.7-3.9-5.3 4.4-26.7 8.1-31.8"/>
  <path fill="#020405" d="m584.9 469.5 2.8-4.3q1.4 3 2.9 5.6l-2.2 2.1c-14.6 16.3-43.6 10-63.8 7.7 1.4-1.2 1.8-.4 3.2-1.4-1-1.4-2.1-1.4-3.6-2.4l-.3-.2c3.4-.1 7.5.7 11 1 17.5 1.4 37.4 6.1 50-8.1"/>
  <path fill="#020405" d="m584.9 469.5 2.8-4.3q1.4 3 2.9 5.6l-2.2 2.1c-2.2-1-2.3-1.5-3.5-3.4"/>
  <path fill="#087269" d="M671.7 572.1h3c2.6 1 3.2 1.4 3.1 3.8-3 4.3-22.2 8.7-28.4 10.4-1.6.3-1.6.3-3.1-.1-1.8-1.4-2.7-4.5-3.5-6.7 9.8-2.9 18.7-5.6 28.9-7.4"/>
  <path fill="#284349" d="m429.9 412 1 .8c2.2 6 2.6 10 1 16.2a64 64 0 0 0-21.4-6l-10.5-.8q14.6-5.7 29.9-10.1"/>
  <path fill="#a5a6a6" d="M556.3 119.2c8.3-1.6 14.3-1.8 18 6 3.7 8.4-4.2 21.6-12.7 15-1-2.2 6.3-6.2 1-16.4l-.3-.6z"/>
  <path fill="#eaeaea" d="M556.3 119.2c8.3-1.6 14.3-1.8 18 6q-.4.6-1 1c-4.6-.6-7.3-.5-11-3z"/>
  <path fill="#566266" d="M640.8 613.1h9.4c2.5 2.2 10 10 8.5 13.2l-2.4.2c-7.3.1-12.9 0-20.3-.5.7-4.3 1.5-9.7 4.8-12.9"/>
  <path fill="#020405" d="M188 498.2c1-.2 1.4-.4 2.5 0l-.1 46.3c0 7.4.3 17.8-.2 25-.4 1.6-.8 4.8-1.7 6l-1-.7a253 253 0 0 1-.5-26c.3-16.5-.1-34.1 1-50.6"/>
  <path fill="#566266" d="M392.6 477.5c-.2-16 25.7-6 13.2 6 1 .7 2.8 1.8 3 2.9-1.8.3-8.1.8-8.8 1-.8-2.4-2-2.6-4.6-4.6-2.2-1-2.6-2.2-2.8-4.4z"/>
  <path fill="#828a8b" d="M392.6 477.5c4.1-10.9 14-7.7 13.4-2.1l-1 .5c-3.1-.7-3.7-2-5.8-1.6-2 1.6-2.9 3.5-5.3 4.2l-1.3-.1z"/>
  <path fill="#1f2f36" d="M395.4 482.8c4.5 1.3 5.7 1.7 10.4.6 1 .8 2.8 1.9 3 3-1.8.3-8.1.8-8.8 1-.8-2.4-2-2.6-4.6-4.6"/>
  <path fill="#4a4a4d" d="m158 484.6 1.8 1.9a1378 1378 0 0 1-35.5 30.3c-3.3 2.7-15.6 11.9-17.8 14.1l-2.1-2.5z"/>
  <path fill="#0f3a40" d="M687.6 597c2.2-.1 9.2-.7 11 .1 4.6 2.3 8.6 6.5 10.4 10.9l-.7 1c-6.4 1-15.1.3-21.5 0 0-4.9 0-7.3.8-12"/>
  <path fill="#284349" d="M446 404.3c6.4 4.1 1.5 27.3-3 30.3-1-.6-2.6-1.6-2.6-2.7 0-8.5.2-15-2-23.5a91 91 0 0 1 7.6-4"/>
  <defs>
    <linearGradient id="l" x1="116.8" x2="118.5" y1="514.1" y2="505.9" gradientUnits="userSpaceOnUse">
      <stop offset="0" stop-color="#5f6060"/>
      <stop offset="1" stop-color="#514c54"/>
    </linearGradient>
  </defs>
  <path fill="url(#l)" d="M83.7 449.6c22 1.1 43.2 3.7 64.8 5l-.4 3.3c-18.3-.4-45.5-4-64.6-5.6z"/>
  <path fill="#020405" d="M112.7 379.5c8.3 7 16 14.7 23.8 22.1a557 557 0 0 1 27.9 28l-2.4 2c-13.4-16-35.7-34.9-50.8-50.2z"/>
  <path fill="silver" d="M551 279.6c3.5 2 4.7 6 5.4 9.5 2.9 15.3 6.5 30.6 9 46-1.6 0-1.6.2-3-.3-2.8-10.6-4.9-22.4-7.3-33.1-1.2-5.3-4-17.3-4-22.1"/>
  <path fill="#4a4a4d" d="M88.7 496c20.3-6 41.5-15.7 62-22.2q.5 1.5 1.5 2.5c-20.8 7.5-41.5 15.4-62.5 22.4z"/>
  <path fill="#020405" d="m213 498.2 1.6-1c4.4 5.1 31.4 56 33.7 63.2l-1 1.1c-12-20-23.2-42.6-34.3-63.3"/>
  <path fill="#eaeaea" d="M588.4 94.2h1.4c4.3 3 0 19.6-1.8 23.5l-.8-.3-6.6-8.8.5-11z"/>
  <path fill="#284349" d="M423.7 466.6c2.3 9.5 4 20.5-4.6 28-2.5-10.9 0-20.8-6.4-27.8 2.6 1.7 5 3.7 8.4 3 1.8-1 1.9-1.4 2.6-3.2"/>
  <path fill="#a5a6a6" d="M295.2 212.7c3.7-.4 7.6-.7 9.7 2.8-.4 5.6-10 5.4-14.8 5.9-3.8.7-10.7-1.2-9-5.4 3.7-2.8 9.2-2.8 14.1-3.3"/>
  <path fill="#4a4a4d" d="m1151.4 476.3 1.5 2.7c-11.4 8-32 18-44.7 25.5l-1.4-2.3c1.8-1.5 10.4-6.3 12.7-7.7q15.8-9.2 31.9-18.2"/>
  <path fill="#1f2f36" d="M692.2 545.4c5.5 0 9 .2 14.4.8-.1 1.1-.5 3.8-.3 4.8.6 2.9 2.9 6.2.4 8.8-2.1.5-5.8.2-7.5-1.3-1.3-1.1-2.4-3-3.4-4.3-2-2.1-2.9-6.2-3.6-8.8"/>
  <path fill="#566266" d="M695.8 554.2c3.4-2 11.7-1.2 10.7 3.4-3 2.6-4 1-7.3.9-1.3-1.1-2.4-3-3.4-4.3"/>
  <path fill="#020405" d="m166.5 491.1 2 1.4c-8.5 13.8-18.8 27-27.7 40.7q-2 3.2-4.3 6.2c-1.3-.3-1.2-.6-2.4-1.8 11-15.6 21.3-31 32.4-46.5"/>
  <path fill="#202126" d="M1107.2 533.6c14.9 10 27.8 19.5 42.2 30.1-.5.7-1.3 1.9-2 2.4-12.7-10.5-29.4-20.1-41.7-30.3.1-.4 1.1-1.8 1.5-2.2"/>
  <defs>
    <linearGradient id="m" x1="1105.5" x2="1110" y1="519.4" y2="519.9" gradientUnits="userSpaceOnUse">
      <stop offset="0" stop-color="#040405"/>
      <stop offset="1"/>
    </linearGradient>
  </defs>
  <path fill="url(#m)" d="m1095 436.9 1.2-.6c1 .5 1.2.5 2 1.4-1.7 5.6-2.3 11.8-3.5 17.5-2 10.5-4 22.6-6.8 33q-1.3-1-2.4-2.2c.2-3.3 2.7-13.6 3.6-17.8z"/>
  <path fill="#0f3a40" d="M349.8 310.2c2.9.5 10.2 1.2 11 3.7-10 12 4.7 15 4.5 19.3-2 1.1-6.7 1.7-8.6 0l-.2-.8c-2-8-4.9-12.5-6.7-22.2"/>
  <path fill="#1f2f36" d="m356.5 332.4 2.2-.4c1.3-3.9-8-13.6 2.1-18-10 11.9 4.7 14.9 4.5 19.2-2 1.1-6.7 1.7-8.6 0z"/>
  <path fill="#4a4a4d" d="M1111.2 525.4q12.4 2 24.9 4.4c8.2 1.7 16.6 4 24.8 5.2-.1.7-.6 2.7-.6 3.3-16.6-3.8-33.4-6.8-50-10.4z"/>
  <path fill="#202126" d="M1076 549c.8.1 2.6.1 3.4.3 0 14 .3 29.6-.5 43.5l-3.4-1.5c.8-11.8.5-30 .4-42.2"/>
  <defs>
    <linearGradient id="n" x1="111.2" x2="111.8" y1="496.8" y2="484.5" gradientUnits="userSpaceOnUse">
      <stop offset="0" stop-color="#3c3f41"/>
      <stop offset="1" stop-color="#5b555a"/>
    </linearGradient>
  </defs>
  <path fill="url(#n)" d="M87 427.9c12 3 34 9.5 45.5 13.8-1.3 1.6-1.2 1-1 2.6-14-4.7-31-9.3-45.3-13.4z"/>
  <path fill="#020405" d="m1059.7 544.2 3 1.5c-7 9-13.1 18.5-19.7 27.6-1.5 2-6.9 10-8.4 11.3l-2.1-.7q1-2.5 2.7-4.7c8-11.7 16.7-23.1 24.5-35m34.7 1.6c2.7 3.7 7 12.2 9.2 16.7 4.2 8 9.3 17 12.9 25.2-1.3 1-1.2 1-2.8 1.4-5.1-12.2-16.5-30-20.6-42z"/>
  <path fill="#4a4a4d" d="M290.4 406c.3 1.2.1 1.1.9 2a340 340 0 0 1-38.7 17.6c-2.8.8-5.2.5-8 0 5.8-1.7 11.2-4.6 16.6-7 9.5-4.1 19.5-9 29.2-12.6"/>
  <path fill="#828a8b" d="M323 273.9c3.8-.3 4-.8 5.9 2.3 0 5-10.7 5.9-15.4 6.8l-1.4.1c-2.7.2-5-.5-5.2-3.2 2.6-3.3 11.6-5 16-6"/>
  <path fill="#020405" d="m236.3 351.7 1.2 1.8c-4.3 12.6-12.8 29-18.7 41.5l-2-1.4c2.2-6 16.3-37.9 19.5-41.9"/>
  <path fill="#566266" d="M158.9 453.4c.8-6 7.3-17.4 14.5-16.9 2.6 2.9-2.8 8.4-4.4 11.1a20 20 0 0 0-2.3 5.7l-.7.3-.2-.7c-2.5-.3-3-.4-5.7 0l-.6.8zM1018.4 324c3.2.3 6.9 1.5 8.2 4.3-.7 4.6-5.6 5-9.8 6-2.3.6-5 1.3-7.2.6-3-3 6.4-9.2 8.8-10.8M574.3 210c1.4-.2 1.3-.3 2.8.2 1.6 1.6 1.7 3.7 2.2 6q-6.7 1.2-13.6 2c-3 .5-4.6.6-6.3-1.8.2-5.2 10.6-5.8 14.9-6.4"/>
  <path fill="#1f2f36" d="m1113.6 459.7.4 2.5.8.3 1.8-1c-6.3 10.7-13.6 21-19.9 31.5q-1.5-.4-2.9-1.5c1.4-1.6 5.5-8.7 6.8-10.8z"/>
  <path fill="#020405" d="M1066.5 550.7c2.3 1.3 1.6.5 2.6 2.9a735 735 0 0 1-11.4 35.8c-1.7-.7-1.7-.8-2.7-2.2 3.7-11.7 8.6-24.6 11.5-36.5"/>
  <path fill="#4a4a4d" d="M1111.3 512.9c13-.3 27-3.3 39.2-3.7 1.8 3 3 2.2 6.6 2.2-14.2 1.5-31.2 3.8-45.3 4.9z"/>
  <path fill="#087269" d="M277.5 281.2c5.5 2 15.3 12.3 21.4 15.5 3.1 1.6 16.6 9.1 6.8 11.5-4.1-.3-10.5-6.5-14.4-9.4-3.6-2.6-6-4.6-9.4-7.5 3.6 1.5 10 7.6 15 9.3l2.4-1.6c-.3-1-19.1-15.4-21.8-17.8M683 581.3l1.7-1.8c2-1 3.4-.6 5.7-.4 2.6 4.6 3.8 6.6 5.7 11.5-8.5 1.1-14.3.8-13.1-9.3"/>
  <defs>
    <linearGradient id="o" x1="1056.8" x2="1046.3" y1="619" y2="611.5" gradientUnits="userSpaceOnUse">
      <stop offset="0" stop-color="#191f25" stop-opacity=".9"/>
      <stop offset="1" stop-color="#4f4b4a"/>
    </linearGradient>
  </defs>
  <path fill="url(#o)" d="m1051.6 536 1.2 2c-6.8 4.8-21.1 15-28.3 19-3-.7-1.3 1-4.3-1.1 7.4-5.3 23.4-15.2 31.4-19.9"/>
  <path fill="#4a4a4d" d="m277.3 383.6 1.8 2.3c-7.2 6.9-18.8 15.2-26.9 21 .6-2.8 3.5-7.8 6.5-9a270 270 0 0 0 18.6-14.3"/>
  <path fill="#284349" d="M1000.6 501.6c6 .4 26.7 2.2 31.6 4.2l.2 1.2c-5 .4-27-1-31.5-2-.9-1.3-.5-1.4-.3-3.4"/>
  <path fill="#4a4a4d" d="m189 362.8 3.3.6c.5 8.5.7 21 .4 29.6a10 10 0 0 1-1.9-5.6c.6 1.7-.3 3.8-1.5 5.1a659 659 0 0 1-.3-29.7"/>
  <path fill="#eaeaea" d="M565.8 105.2c2 1.7 5 3.9 6.1 6-1 2.2-3.2 1.2-5.3.7-12.2.2-8.2 1.2-18 4.7-1.8-.3-1.3-.2-2.7-1.6l.3-.8c3.2-.7 6-2.2 9-3.4z"/>
  <path fill="#a5a6a6" d="M566.6 112c-12.2 0-8.2 1-18 4.6-1.8-.3-1.3-.2-2.7-1.6l.3-.8c3.2-.7 6-2.2 9-3.4 3.2 1.7 7.6 0 11.4 1.1"/>
  <path fill="#4a4a4d" d="M1004.6 488.1c.5-1.3.6-1.4 1.5-2.5 11.8 4.8 19.6 7.7 31.5 13.4-2.5.5-8.8-.3-11.1-1.2-1.3-1.7-19-8.5-22-9.7"/>
  <path fill="#828a8b" d="M428.1 545.4c4.4-4 14.4-5.3 15.6.9-1 2.7-2.3 3-5.2 3.7-5.3-.6-8 0-10.4-4.6"/>
  <path fill="#020405" d="M1015.3 469.7a334 334 0 0 1 26 21.4l-1.1 1.7c-7.9-5.5-18.8-14.7-26.4-20.9z"/>
  <path fill="#1f2f36" d="M816.2 556.2c3.7 0 6.7-.7 9.3 1.4 1.5 3.6-2.4 5.5-5.4 7.2l-6.9 3.6c1.4-4.6 2.1-7.5 3-12.2"/>
  <path fill="#284349" d="M244.1 208.7c6.2.7 13.5 1.3 19.5 2.4v.7l-1.8 1.9c-7.7 3.6-14 2.2-17.7-5"/>
  <path fill="#020405" d="m264.3 506 .9-.5c2 .7 2.7.8 4.3 2 1.8-1.2 3-2.5 4.8-2.7 1 .6 1.8.9 2.4 1.8h-3.6c2 1.1 4.6 1 7 1.3-.4.7-.1.5-.8.8q-4-.4-8.1-1.1 8.7 5.8 16.7 12.4l-1 1.4c-7.6-4.4-16.1-12.5-22.6-15.4"/>
  <path fill="silver" d="M553 201.2q1 3 2.1 5.6c-3.5 5.2-3.5 5.9-3.6 12-.8-1.4-.3-.8-1.9-1.5-1.7.2-1.7.3-3.1 1.3a37 37 0 0 1 6.5-17.4"/>
  <path fill="#1f2f36" d="M1008.6 539c6.3-2 13.7-3.8 20.2-5.6q.5 1.4 1.3 2.6-10.3 3-20.8 5.8z"/>
  <path fill="none" d="M258.7 398c1.5-2.5 13-15.7 15.4-17.4 1.8.7 2 1.4 3.2 3a270 270 0 0 1-18.6 14.3"/>
  <path fill="#0f3a40" d="M1056.1 437.9c3.4 2 7.4 19.8 9 24.6l-.4.1c-2-3-4.5-12.2-5.3-15.9h-.4c-.6 2.4-.6 1.5.4 4.2.3 3.6 5.5 14.9 4.8 16.8-2.3-5.5-10-25-8-29.8"/>
  <path fill="#020405" d="M189.6 399.6h1.3c.9-.8.8-1 1.9-1.2 0 5.5.2 11.5-.1 17-.9 2-.4 3-1.4 4.8l-.2-.2-1.3-6.7c-.3-3.9-.1-9.7-.2-13.7"/>
  <path fill="#284349" d="M212.5 441.7c2 0 1.4-.3 3.1.5 2 2.4 3.5 5.2.5 7.4-7.6-.2-10.5-3.2-3.6-7.9"/>
  <path fill="#020405" d="m189.5 344.2.6-.9c1 1.4 1.5 4.2 1.9 6l.3 14-3.3-.5c0-5.3-.3-13.7.5-18.6"/>
  <path fill="#1f2f36" d="M134.1 537.6c1.2 1.2 1 1.5 2.4 1.8q-4.5 6.6-9.4 13l-2.6-2z"/>
  <path fill="#202126" d="M132.5 442q9 2.9 18.2 5.2l-1.1 3.2c-4.5-2-13.3-4.5-18.2-5.8-.1-1.7-.3-1 1.1-2.6"/>
  <path fill="#789a96" d="m1060 372.2 1.5 1.2c.3 2.8-6.7 11.6-8.9 14.5-1.3-.9-.9-.6-1.6-2.2.2-2.9 6.7-10.1 9-13.5"/>
  <path fill="#202126" d="M1113.6 459.7c1.7-2.8 5.5-9.2 7.8-11.4l2.4.3c-1.2 2.3-5.8 11-7.2 13l-1.8 1-.8-.4z"/>
  <path fill="#4a4a4d" d="M1020 556.2c3 2.2 1.3.5 4.3 1-3.4 2.8-8.7 5.3-11.4 7.7q-1.1-1.4-2-3 4.6-2.7 9.1-5.7"/>
  <path fill="#020405" d="M1028.8 533.4c4.3-.9 9.7-2.4 14-3.6l.6 2.3-13.3 4q-.8-1.4-1.3-2.7"/>
  <path fill="#1f2f36" d="M1074.7 600c.7-1.6.7-6.8.8-8.7l3.4 1.5.1 7.3z"/>
  <path fill="#202126" d="m1150.5 509.2 11.2-1.4.5 3-5 .6c-3.7 0-5 .7-6.7-2.2"/>
  <path fill="#1f2f36" d="M189.3 392.5c1.2-1.3 2-3.4 1.5-5.1 0 1.7.8 4.2 2 5.6v5.4c-1.1.2-1 .4-2 1.2h-1.2zM1055 587.2c1 1.4 1 1.5 2.7 2.2-.6 2.1-1.3 5.2-2 7.2l-2.8-1.1z"/>
  <path fill="#566266" d="M588 80.6c1.4-.3 2.8.4 3.3 1.7q.5 2-1.5 3.1a3 3 0 0 1-3-.3 2.4 2.4 0 0 1-1-2.6q.5-1.5 2.2-2"/>
  <path fill="#202126" d="M1001 541.2c1.7-.7 5.6-1.7 7.6-2.2l.7 2.8-7.3 1.7z"/>
  <path fill="#284349" d="M599.8 486.8c2 1.4 3.9 3.6 3.7 6-2.4-.5-3.3-.7-4.7-2.4-.2-2.2-.3-1.3 1-3.6"/>
  <path fill="#566266" d="M581.7 120.2c2.9 2 3.8 4.2 3.7 7.4-1.4 0-1.3 0-2.5-.8-1.2-2-1-4.2-1.2-6.6"/>
  <path fill="#26be6b" d="m148.7 44.2-86.8 97.4h47.4l-20.1 93.3L176.8 123H127z"/>
</svg>
