<svg xmlns="http://www.w3.org/2000/svg" width="1019" height="695" viewBox="67 84 1019 695">
  <path fill="#051921" d="m714.4 145.8-33.5.5c-9.3 0-23 1.3-29.8-5-10-9-6.3-31.3 8.4-33.6 17.4-2.6 36 .3 53.7-.7 1.7-.4 3.3-3.4 5.2-4 15.6-4.7 33-12.9 48.5-16.6 3.3-.8 7 11.8 5.9 16.2-2.8 2.8-12.2 5.2-16.3 6.4q.3 5.1.3 10.4c13.6 3.5 13.5 5.7 24.4 13.6 6.1 4.4 8.6 4.7 15 10.9-1.1.9-3 2.5-4.3 3.2a75 75 0 0 0-9-7.4c.4 2.3.5 9.2 2 10.1l-.3.7c-.6 2.1 0 3.1-1.3 4v.2q-1.5 10.7-6.3 20.4c-2.7 5.7-6.7 11.5-9.5 16.8-6.2 11.4 2.7 32.3 7.5 44l5 2c3.5 5.1 12 31.5 15 39.2 4.6-22.6 11.7-52 8-75.1q-1.2-13.2-5.3-25.9c2-1.2 2.6-1.2 5-1.8 2.2 7.6 4 14.8 4.8 22.7a226 226 0 0 1-9.8 88.6q3.1 9.2 6.5 18.3c.4-1.6 1.6-5.8 2.2-7l.9-.3c.6-1 .8-1.6 1.2-2.8 1.7-.7 1-.5 3-.3l-.4 1.5.7.3c-1 4.8-3.4 11.5-5 16.2a558 558 0 0 0 16.2 45.3c3-5.9 5.3-14 7.3-20.4a38 38 0 0 1-10-11.8A25 25 0 0 1 819 305c6.7-19.7 48.2-37.2 59.7-13.3a57 57 0 0 1 3 26.6c-1.6 29.1-18.8 32.4-42.8 22.6a48 48 0 0 1-13.5 27c2.4 5.2 5.6 14.6 7.6 20a220 220 0 0 1 48.8-12c23-1.1 53.6-2 74.4 8.7 7 3.7-1.5 12-4.7 15.2a161 161 0 0 1 40 16.8c43 26 73.9 68 85.7 116.9 13.2 53 5 109-23 156a178 178 0 0 1-108.9 80.8 190 190 0 0 1-144.7-22.7 185 185 0 0 1-82-115.6c-13.7 15.4-16.7-5-18-15.5a217 217 0 0 1 3.7-78.1c13.3-57.4 42.4-101.7 92.6-132.8-4.5-15-9.4-29.3-14.8-44-1.8-5-4-10.7-5-15.8a1815 1815 0 0 1-115.2 181.1c-2.5 3.5-2.7 8.7-6.4 11.3-5.4 3.7-16.1 18.8-21.2 24.9-11 13-22.6 24.8-36 35.1 6.4 32.5-6 56.6-33.5 73.3 2.5 8.5 5.7 17.6 8.5 26 9.3-.3 27.3-3 29 10 3.2 19-8.5 22.6-25 21.3-12.1-1-45.4 6.5-46.4-11.6-.7-13.7 1.6-18.7 15.3-19.8-2.3-5.9-4.6-13-6.6-19-32-1.7-56.7-10.2-87.4-18.8-11.7 35.2-40.1 67.6-71 87.4a193 193 0 0 1-145.6 24.7 188 188 0 0 1-119-82.8 202 202 0 0 1-25.2-144.3C62 565 77.2 526 81.8 513.3c-7-5.3-9.7-8-8.3-17.7 1.6-10.3 5-27.7 15.5-33 4.8-2.4 11.7.7 16.1 2.8a198 198 0 0 1 81.6-73.8c-3.9-10.9-9.7-23.3-14.1-34.7-6.4 0-22.8 1.6-27-4.2-2.6-3.8.2-8.5 4-10.4q3-1.4 6.2-1.5c9.3-.4 21.3 0 30.8 0l62 .1h60c13.2 0 47.8-1 58.9 2.6 2.7 3.1 5.7 8 8.6 10.7 13 12.4 27.7 25.2 41.4 36.8q9.1-9 18.7-18c-7.4-8.3-13.5-16.2-2.9-25.5q-9.3-30-17.5-60.6c-12-1-12.5-2.2-16.8-13.1-21.3 6.7-38 10.4-42.3-17.5-11.4-3.9-20.6-7.5-21.6-21.3-1.2-15.4 8.2-31.2 24.8-32 19-.6 36.7 5 55.7 5.7 24 .8 48.5-2 72.4-.1 4.1.3 8.5 2.7 11.5 5.4 11.6 10.3 11.7 31.7-6.1 35.2-10.6 2-21.7 1.3-32.4 1.3-9.6 7.3-10.6 9.7-23 15 3.6 7.4 7.4 24.1 9.8 32.6q5.9 21 12.4 41.8c14.9 5 6.8 13 10.3 24.4 10.8 35.4 21.7 70.8 31.6 106.5 6 .5 20.5-.2 25 3.2 7.8 5.8 5.7 27.2-7.5 25.5a35 35 0 0 0-6.6.8c10.4 3.4 31.8 3 42.9 1.8-4-5.2-6.2-8.6-5.3-15.4 1.5-12 11.5-24.3 18.2-34l21.8-31.5 22.4-32.3c3.7-5.4 19.6-29.8 24.4-32.4 15-8.5 43.7-6.3 60.6-5.5 5.9.8 10.3 1.2 14.3 5.7 9 10-16.8 30.8-13.3 35.5l1.1-.4c18-27.1 44-67.9 60.3-94q-2.1-8-5.3-16c-4-10.4-14.8-28.2-5-37.3-2-7.5-5.5-19.2-8.3-26.7-9-24 5.5-41.7 16.2-63.3-6.3 4-17.1 13-24 13-16.6.3-21.5 4.2-35 13.1-3.8 2.5-8.6-5.2-4.7-9.4 9.4-10 23.9-12.2 36.9-14-3.8-15.3-9.7-1.7-16.8-11.4M148.8 489.6l-.4 1c-3 3.8-4.6 6.7-7 10.8l54.3 29c4.8 2.5 21.3 11.5 25.4 12.8 1.3 2.3 5.9 3.8 8.4 4.6l.8.3c1.5-1.3 3.2-3.9 4.8-5.5 4-4 8-6.8 12.9-9.6-14.2-29.3-27.2-64-41-94.2-3.2 1.5-8.4 3.9-11 6.2l-1 .4a150 150 0 0 0-46.2 44.2m185.4 55.5c3.6-2.1 10-6.9 13.1-8.4a76 76 0 0 1-11 8.3c9.6.8 23 .8 32.9.8 18 0 41.1 1.4 58.7.2-3.5-17.1-10.6-38-21.2-52.1l-.2-1a240 240 0 0 0-21.6-27.8 2472 2472 0 0 0-67 77.2c2.5 4.2 11.8 2.8 16.3 2.8m435.4 123.7a158 158 0 0 0 29.9 35.1c4 3.6 9 6.8 12.7 10l1.1.1c17.4 13.9 34.3 17 54 23.3 1.1-4 2.3-11 3.2-15.2l.3.2 1.8-.6c-1 5-2 11-3.2 16 21 3.9 37 4.4 58.2.4h1.6c2.1-1 16.1-4.4 20.3-5.8 12.5-4.4 21.6-9.8 33-16.5l1.7-1.3a157 157 0 0 0 41-44.8l1.5-1.4c.6-1.7 5-9.7 6.4-12.4 5.4-11 13.7-32.7 14.4-44.6-40-7.2-80.7-16.8-120.8-22.6a60 60 0 0 1-3.4 8.4l-1 1.8-5.8 5.8-1.9 1.7c-2.6 1.4-5.9 3.4-8.9 3.5l-1.6.8a42 42 0 0 1-10 .2l-2-.3c-2.7 0-7-2.3-9.4-3.4l-1.1-.9a35 35 0 0 1-6.7-7l-1-1.6c-2-3.1-2.4-4.8-3.6-8.4-5.2 0-10.3 1.1-15.8 1.1l-2.1-.2c-18-.8-34.9-.3-53 0l-53 .4q.6 9 1.6 18l.2 1.3c2.9 19.5 9.1 40 20 56.6q8.5-5.1 16.8-10.5l1.4 1.6c-5.1 3.4-11.6 8-16.8 11.2M289 527l1.4.9 1.6-.4 18.4-21.9c16.7-19.7 33.5-39.5 51.7-58a139 139 0 0 0-52.8-23l-.8-.5c-2.2-.2-5.5-.9-7.7-1.3a144 144 0 0 0-52.4 1.3l-1 .4c-9.4 2-18 3.9-27 7.6 2.7 8 6.8 17.4 10.1 25.2l17.3 40c2.2 5 11 26 13.3 30 1.6.4 2 .2 3.6-.1h.9c6.4-2.6 16.7-.5 23.4-.2m637.6 48.4c2.4-1 12-3 14.6-3.6l27.9-6c24.4-5.4 53.3-13.3 77.5-17.8-6.2-21.7-9.8-36.5-23.2-56.1l-.5-1.4c-2-2-8.1-10.7-10.5-13.6a129 129 0 0 0-32.1-28.1l-1.8-1.2c-16.4-11-31.9-16-50.9-20.1l-1.2-.7h-.5c-13.7-.5-26.2-3.9-40.2-1.2-2.2.4-14 2.1-15.7 2l-1.6.7c-7.4 1.8-13.3 3.6-20.5 5.7 9.2 27.2 23 68.3 37.3 93 .7 2.3 1.9 3.7 3.4 5.6 1.8 4.9 6.6 17 11.5 20 .4.3 2.8.6 3.4.6l4.1-22.2 1.7 1-3.8 21.5c2.4.8 6 2 8 3.6l1.4.8c2.2 1.7 4.8 4.1 6.5 6.3l1.1 1.9q3.1 4.2 4.1 9.3M264.8 640l-.7-.4c-7.3-.9-14.9-5-21-8.8l-33 51.4c-6.4 10-14.7 22-20.5 32.2a168 168 0 0 0 47.8 21.7c2.3.6 6 1.4 8 2.3h.9c17.9 3.3 44.8 4.8 62.5-.4h.8c22-4.3 37.6-12.3 56.5-23.4l1-.7c20.3-14.9 29-26 43.1-46.5-5.6-4.3-15-10.3-20.9-14.5-3.6-2.6-19.3-14.2-22.3-15.3-15-5.6-34.3-9.8-50-13.7-2.1 1.7-3.4 3-5.3 5l-1 .7a59 59 0 0 1-20.7 9.5l-1.3.5a62 62 0 0 1-23.9.4m-22.4-9.7c-6.8-5-10.8-10-15.5-16.8l-.3-.6a61 61 0 0 1-7.3-21.5l.1-.8c-1.5-5.5 0-14.5.8-20.2l.5-.7c.6-3.4 1.4-5.4 2.7-8.5a4497 4497 0 0 1-88.5-47.2 209 209 0 0 0-7.4 20.7c-1 3.5-2 8.7-3.2 11.8l-.1 1.1c-2.9 14.5-4 26.5-3.2 41.3.2 4.4 1.5 14.7 1.4 18.3l.4 1c4.4 24.4 8.5 36 20.7 57.4l.6.6c11 19.6 26.6 35 44.8 47.8 4.8-8.6 12.8-20.1 18.2-28.7zM750.6 547c7.7 1.1 18.8 4.2 26.6 6.2L824 565c9.3 2.3 33.4 7.1 41.1 10.2h5.9q1.3-4 3.2-8l-4.1-5-1.8-3.2a154 154 0 0 0-6.7-11.4 692 692 0 0 1-47.6-95.5 138 138 0 0 0-39.3 39.1l-1 1.6q-11.7 17.6-18.4 38c-.8 2.3-4.3 15-4.8 16.2M418.1 650.7c-12.5-4-36-10.3-48.8-12.8 13.4 9 28 19.2 41.4 28.4l3-5.8c1.4-3 3.2-6.6 4.4-9.8m44-155c8.6 20 9.2 29 13.5 49.5H491c-4.8-12.8-10.2-32.8-14.2-46.5-5.7-.2-9-.2-13.5-4.2l-1.8-3.7c-1-9.7-1.7-14.5 7.2-20.4-6.7-22-13.2-47.9-20.7-69.4-7.6 6.2-22 21.3-29.1 28.8 16.3 18.6 32 38.4 41.6 61.4zm183.2 37.8a262 262 0 0 1-41.6 48.4c-3.5 3-10.4 6-6.5 10.6l.5-.3a366 366 0 0 0 51.1-55.2zM200 385.2c43-15.5 76.4-21.2 121.3-10.7 31 7.3 47.6 16 73.4 34 .4.1 3 1.8 3.2 1.8 3.3-3.4 7-7.4 10.4-10.5-14.3-12.4-29-24.5-43-37.4q-3-2.8-6.2-5.3c-7.8-.7-18.6-.4-26.6-.4H224.2c-11.2 0-24.6-.4-35.5.2 3.4 8.4 8.4 19.9 11.3 28.3m514.6 50.5 1.8.6c3.4-2.4 41.4-65.2 41-68-4.3 6.3-44 63.6-44.4 65.7zm-77 46.4c9-5.6 26.3-38.1 34.6-47.8.8-.9 3-4.3 3.5-5.5-.8-1.2-.7-1.2-1.9-2a1035 1035 0 0 1-37.7 54.5l.2.7zm-110.8 50.5q2.3 6.3 4.3 13c3.4.1 6.2.3 9.6.7a65 65 0 0 1 32.4 12.3c7.6-6 29-24.4 33.6-32.7v-.4c-10 3.7-10 1.5-18.6 2.9a341 341 0 0 1-61.3 4.2m225.8-388c-2.8 1.5-8 3.9-9 6.6l.4.6q1 0 2-.3c2.8-1.3 6.9-3 8.9-5l.2-1c-1.2-.6-1.3-.7-2.5-1m-12.2-28.8c2.1.5 3.9 1.2 6 .6.8-1 .3-2.8-.5-3.7-2.3.6-5.1 1-7 2.4.6.8.2.5 1.5.7m88.2 465.5-76.2.5c-4.4 0-27.4-.2-30.6.6-.7 1.1-.5.8-.3 2.5 2.3 1.2 36 .3 41 .3l63.5-.8h41.5c1 0 1.3-.3 2-.8l.6-1.4-.4-.9c-6.5-.9-33.6-.3-41.1 0m34.9-290.8c-4.1 8.2-5.7 16-5.6 25.1 0 4.2.8 21.3 8.1 20 5.4-11.2 12.7-38.2-2.5-45.1M708 441.4c-12.6 17.4-25 36.6-37 54.4-5 7.2-16.8 24-20.4 30.9 1.8 1.2 2 1.3 4.1 2.1 9.3-14 19.6-28.1 29.2-42 9.2-13.6 18.4-28.8 27.7-42zm154.5 133.8c-6.9-1.5-14-2.4-21-4q-45.5-11-91.1-22.3-3.2 13.7-3.5 27.8l84-1c6.3-.1 27.3.2 31.6-.5m64.4 2.2c.5 4 .5 5 .1 9q45.2 7.6 90 17c4.2.9 28.6 5.2 31.3 6.4 0-2.4.5-6 .8-8.4 2.2-17.4.5-33.4-2.2-50.7-40 7.5-80 18.4-120 26.7"/>
  <path fill="#131519" d="M797.7 176.1c2-1.2 2.6-1.2 5-1.8 2.2 7.6 4 14.8 4.8 22.7q-1 1.2-1.6 2.3l-1 .3c0-3.4 2-2.5 1.4-4.5-1.6-5.3-1-13-4.4-17.4l-1.8.1c-1.1 3.6 5.8 20 2.9 24.2q-1.2-13.2-5.3-25.9"/>
  <path fill="#08b699" d="M279 554.1c3.5-2.6 5-4.4 8-7.5h5.2c3.5.2 4.1.4 6.7 2.6-1 2.1-1.4 2.7-1.7 5 16.2.9 33 0 48.8.8l135.1-.4h37.6c21-.3 39.3 0 55 16.4a55 55 0 0 1 15.8 39.4c.1 6.5-.3 11.8-2 18.2-.2 1.2-1.3 4.8-1.4 5.9a50 50 0 0 1-24.6 28.3l-2.7-8.2-6.8-20.2c3.1-4.3 5.6-7.5 7.3-12.5 4.8-13-1.2-26.9-12.2-34.6-13-9.3-32-5.3-40.8 8-12.4 18.6-3.2 45.2 20.2 48l6 17c.8 1.7 2.5 6.8 3.1 8.8-19.7.3-56-12-76.8-17.4a6796 6796 0 0 0-139-36.1q-13.2-3.2-26.5-5.4c-16.6-2.6-34.9-1.9-42.8-19.3-4-11.7-1-25.1 10.1-31.7 6-3.5 11.7-4.1 18.4-5.1"/>
  <path fill="#41cdb4" d="m346 555 135.1-.4h37.6c21-.3 39.3 0 55 16.4a55 55 0 0 1 15.8 39.4c-4.2-3.1-7-16-11.1-22.7-7-11-17.8-20.7-30.5-24-7.4-2-26.1-1.3-34.2-1.3h-44.4q-63.8 0-127.3-1.4-11.2-.2-22.3.2c-3.1.1-9 1.4-10.4-1.7.3-2 1.6-2.9 3-4.3 10.7-.1 23.2.4 33.7-.2"/>
  <path fill="#099483" d="M250.5 590.9c3 1.7 6.7 5.2 9.8 6.1 12.3 3.6 25 5.3 37.5 8.3l119 28.3q32 7.4 63.8 15.6c17.5 4.6 32.7 10.5 50.7 12.2q.8-.4 1.2-1c.8 1.6 2.5 6.7 3.1 8.7-19.7.3-56-12-76.8-17.4a6796 6796 0 0 0-139-36.1q-13.2-3.2-26.5-5.4c-16.6-2.6-34.9-1.9-42.8-19.3m308.3 63.7c11.7-4.3 19-17.8 27.3-20.1a50 50 0 0 1-24.6 28.3z"/>
  <path fill="#1a2b30" d="M279 554.1c3.5-2.6 5-4.4 8-7.5h5.2c3.5.2 4.1.4 6.7 2.6-1 2.1-1.4 2.7-1.7 5z"/>
  <path fill="#051921" d="M312.6 590.3c-3.4-1.1-6.2-2.2-7.9-5.7-1.1-2.3-1.7-5-.6-7.5a8 8 0 0 1 4.9-4c10.7-3.8 131.1 11.3 148.2 14.8 3 .6 6.4 1.5 9.2 2.9 2.4 1.2 4.4 4.1 5.1 6.7a18 18 0 0 1-2.5 13.4l-1 1.7c2 4.4-3.2 8-6.3 10-11 .5-26.8-3.4-37.8-5.5l-44.4-8.4c-9.9-2-63.2-10.2-67-15-.6-1.8-.6-1.7 0-3.4"/>
  <path fill="#41cdb4" d="M312.6 590.3c49.2 6.7 98.2 19 147.5 25.4 2.8.4 5.7-1.4 7.8-3.1 2.2 4.4-3 8-6.2 10-11 .5-26.8-3.4-37.8-5.5l-44.4-8.4c-9.9-2-63.2-10.2-67-15-.6-1.8-.6-1.7 0-3.4"/>
  <path fill="#f7f6f7" d="M332 581c31 4.4 65.6 7.1 97.2 10.9l-.7 8.6c-2.6 0-14-2.1-17-2.7-26-5.3-52.4-8.8-78.4-13.4-1.1-1.3-.8-1.4-1-3.4"/>
  <path fill="#444a4c" d="m436.6 593 10.8 1 1.6.8c.5 2.9 0 8.7-2.1 10.8h-1.2c-1.7-.8-8-2-10.2-2.5q.7-5.1 1.1-10.1"/>
  <path fill="#1a2b30" d="m447.4 594 1.6.8c.5 2.9 0 8.7-2.1 10.8h-1.2q.7-5.9 1.7-11.6m9.2 1.2c8.4 1 10.3 5.5 6 12.3-2 .2-5.9 0-8-.1.1-4.4.5-8.1 2-12.2"/>
  <path fill="#444a4c" d="M311.7 580c2.8-.5 9.2-1 11.7.8.7.6.7 2 .8 3-4.2-.5-10.2-.2-12.5-3.8"/>
  <path fill="#2a373b" d="M841.1 413.2c24.8-12 73.1-14.3 99-6.2a160 160 0 0 1 80.9 44.5c19 17 34.5 46 42.8 69.6a194 194 0 0 1-37.3 189.6A167 167 0 0 1 911 765.6a179 179 0 0 1-130.1-45 176 176 0 0 1-52.2-87.7 303 303 0 0 1-5.8-41.6l8.6-.1 7.1-.1A161 161 0 0 0 929 746.8a151 151 0 0 0 98.5-64.7c26.2-38 36-85 27.5-130.5-12.6-65.5-57.6-118.6-124.6-131.3a162 162 0 0 0-84.6 7.3c-1-2.2-2.2-6.3-3-8.7z"/>
  <defs>
    <linearGradient id="a" x1="891.8" x2="907.1" y1="409.6" y2="754.7" gradientUnits="userSpaceOnUse">
      <stop offset="0" stop-color="#464b4c"/>
      <stop offset="1" stop-color="#9b9b9a"/>
    </linearGradient>
  </defs>
  <path fill="url(#a)" d="M863 413.1c26-7 59-5 84.6 3 56.2 17.2 95.9 63 111 119 12.5 47 5.7 97.1-18.8 139.1a157 157 0 0 1-97.7 76.3 167 167 0 0 1-204.8-120.9l-2-7.6c2 0 4.6-.6 6.7-1a161 161 0 0 0 187 125.8 151 151 0 0 0 98.4-64.7c26.2-38 36-85 27.5-130.5-12.6-65.5-57.6-118.6-124.6-131.3-23.4-4.5-42.4-3-65.7 1.5-1.2-.6-1.6-.5-2.9-.3h-.7c2.2-3.8-1-4.3 2-8.4"/>
  <path fill="#444a4c" d="M940 407a160 160 0 0 1 81 44.5c-6.4.7-22.5-13.1-29-17.3q-8.8-5.6-17.9-10.5-10-5.3-20.7-9.3c-4.2-1.7-11.6-2.9-13.4-7.4"/>
  <path fill="#595a5d" d="m731.4 591.2 7.1-.1c.5 11 1.4 19 3.5 30-2.1.3-4.7 1-6.7 1-2.2-9.6-3.3-21.2-3.9-31"/>
  <path fill="#444a4c" d="M863 413.1c-3 4 .2 4.6-2 8.5l.7-.1c1.3-.2 1.7-.3 3 .3a252 252 0 0 0-19 5.8c-1-2.2-2.2-6.3-3-8.7 2.6-1.5 17-5 20.3-5.8"/>
  <path fill="#08b699" d="M776.2 262.8c2.8-.1 2.2-.5 4.3.7 2.6 4 9.4 26.5 11.4 32.5 6.3 18.3 15.9 41.2 20.8 59.4-.8 1.3-2.4 1.8-3.8 2.5l-2.7 1c-3.3 1.3-11.1 4.6-14.4 3.2-3.5-4.4-10.5-29.7-13.2-36.8l-78.3 115.1-38.8 57.4c-19.7 29.2-40.3 62.6-68.8 83.8l-5-8q-4.2-5.2-8.6-10.1c5.7-5.7 13.1-11.7 19.2-17.5a252 252 0 0 0 28.7-33.3c-3.2-.5-10.4 2.3-13.8 3.4 5.2-8.6 10.8-16.2 16.7-24.4l5.5-2c3.7-1.3 4-1.6 7-.1 2.2-3.6 5.3-7.7 7.8-11.2 3.8-4.8 7.6-10.6 11.2-15.6 8.1-11.5 16.2-23.6 24.1-35.3l-7-7.7c4-6.8 9.7-15.5 14.3-21.9 2.7 1.2 6.2 3.2 8.8 4.6l60.1-92.2 1-1.6 2.1-3.6q1-2 2.6-3.5c2.8-2.7 1.6-4 .8-7.6-1.4-3.6-8-23.4-7.3-26l2.4-1c3.3-.7 9.8-3 12.9-4.2"/>
  <path fill="#099483" d="M776.2 262.8c2.8-.1 2.2-.5 4.3.7 2.6 4 9.4 26.5 11.4 32.5 6.3 18.3 15.9 41.2 20.8 59.4-.8 1.3-2.4 1.8-3.8 2.5l-2.7 1c-3.3 1.3-11.1 4.6-14.4 3.2-3.5-4.4-10.5-29.7-13.2-36.8l-78.3 115.1-38.8 57.4c-19.7 29.2-40.3 62.6-68.8 83.8l-5-8c8.1-6.1 16.2-10.8 23.6-18.2 21.7-21.6 38.4-49.5 55.4-75a5060 5060 0 0 0 65.2-97.7c12.4-18.8 26-37.4 38.7-56 1.3-2.1 3-4 3-6.7.1-9.6-2.5-10.2-11-11.3l2.2-3.6q1-2 2.6-3.5c2.8-2.7 1.6-4 .8-7.6-1.4-3.6-8-23.4-7.3-26l2.4-1c3.3-.7 9.8-3 12.9-4.2"/>
  <path fill="#08b699" d="M776.2 262.8c2.8-.1 2.2-.5 4.3.7 2.6 4 9.4 26.5 11.4 32.5 6.3 18.3 15.9 41.2 20.8 59.4-.8 1.3-2.4 1.8-3.8 2.5l-2.7 1c-12.6-.4-11.4 3.3-17-12q-8-22.5-16.5-44.9c-1-2.5-1.2-4-1.6-6.6l-3-1.4c-1.3-3.6-8-23.4-7.2-26l2.4-1c3.3-.7 9.8-3 12.9-4.2"/>
  <path fill="#41cdb4" d="M776.2 262.8c2.8-.1 2.2-.5 4.3.7 2.6 4 9.4 26.5 11.4 32.5 6.3 18.3 15.9 41.2 20.8 59.4-.8 1.3-2.4 1.8-3.8 2.5-4.4-5.8-27.4-77-32.4-89-.6-1.3-.4-4.6-.3-6.1"/>
  <path fill="#099483" d="M768.2 294c-1.4-3.6-8-23.4-7.3-26l2.4-1c.2 5.4 6 22.2 7.8 28.4z"/>
  <path fill="#088778" d="m768.2 294 2.9 1.4c.4 2.6.6 4 1.6 6.6-3.2 3.7-3 3.3-7.9 3.1q1-2 2.6-3.5c2.8-2.7 1.6-4 .8-7.6"/>
  <path fill="#41cdb4" d="M761.7 310.3c2.3 1 2.4.5 3.4 2.1 0 3.7-8.5 15.2-11 19.5-24.6 39.7-52 77.7-78.2 116.4a167 167 0 0 1-11 14.8c-2.8 4.2-8.5 13.4-12 16.6-1.4-.5-1.5-.5-2.7-1.3 3.8-4.8 7.6-10.6 11.2-15.6 8.1-11.5 16.2-23.6 24.1-35.3l-7-7.7c4-6.8 9.7-15.5 14.3-21.9 2.7 1.2 6.2 3.2 8.8 4.6z"/>
  <path fill="#099483" d="M692.8 398c2.7 1.1 6.2 3.1 8.8 4.5q-7.7 12.8-16.1 25l-7-7.7c4-6.8 9.7-15.5 14.3-21.9m-62.9 93.8 5.5-2c3.7-1.3 4-1.6 7-.1-.6 1.5-14.6 22.5-15.4 23-3.2-.4-10.4 2.4-13.8 3.5 5.2-8.6 10.8-16.2 16.7-24.4"/>
  <path fill="#2a373b" d="M442.6 657.4q-2 5.4-4.3 10.6C401 750.2 304.6 783.4 221 757.5 114.4 724.4 68.5 601.7 113.8 503.2c3 1.3 4.7 2.2 7.4 3.8l7 4c-19.1 47-21.2 92.8-1.3 140l2.2 5c5.6 10.7 10 18.8 17 28.5 19.9 27.2 50 47.8 82.1 57.9 42.2 13.2 88 9.1 127.2-11.5 29.3-15.3 47.7-35.4 64.2-63.6l6.1-14.5 5.5 1.7z"/>
  <path fill="#939292" d="M123.4 659c0-.3 0 0 .4-.7l.9 1.8h.7c1.7-1.3 3-2 3.7-4 5.6 10.6 10 18.7 17 28.4 19.9 27.2 50 47.8 82.1 57.9 42.2 13.2 88 9.1 127.2-11.5 29.3-15.3 47.7-35.4 64.2-63.6 1.4.4 4.1 1 5.4 1.5-20.3 38-50 64-90.8 78.3-43 15-90.3 12.2-131.4-7.5a170 170 0 0 1-79.4-80.5"/>
  <defs>
    <linearGradient id="b" x1="94.4" x2="153.6" y1="572.3" y2="597.2" gradientUnits="userSpaceOnUse">
      <stop offset="0" stop-color="#4d5152"/>
      <stop offset="1" stop-color="#818383"/>
    </linearGradient>
  </defs>
  <path fill="url(#b)" d="m121.2 507 7 4c-19.1 47-21.2 92.8-1.3 140l2.2 5c-.7 2-2 2.8-3.7 4.2h-.7l-.9-1.9-.4.8a179 179 0 0 1-8.7-134.4c1.6-5 4.2-13 6.5-17.7"/>
  <path fill="#444a4c" d="m425.7 652.8 5.5 1.7c-1.3 3.9-5.7 12.4-6.2 14.3-1.3-.5-4-1-5.4-1.5z"/>
  <path fill="#2a373b" d="m574.8 457.6 40.4-58c3.6-5.3 22.9-34.5 26.3-36.9 8.9-6.1 46.9-5.9 57.8-4.3 2.1.1 2.3.1 4.2.8 1 2.2 1.8 4 2.3 6.4-.7 1.3-2 4-2.8 5a68 68 0 0 0-20.8-6.9c-1-.1-1-.3-2-.8-1.1.2-3.6.6-4.6 1-6 2.8-11 5.5-13.3 12.3a17 17 0 0 0 1 13.8c2.3 4.2 5.1 6.4 8.9 9.3q3.7 2.1 7.2 4.6c-15.7 25.7-33.8 51-51 75.7-2.5 3.5-5 7.7-7.6 11a55 55 0 0 1-9-6.4c-9.4-6.8-23.3-16-32-23.2z"/>
  <path fill="#939292" d="m574.8 457.6 40.4-58c3.6-5.3 22.9-34.5 26.3-36.9 8.9-6.1 46.9-5.9 57.8-4.3 2.1.1 2.3.1 4.2.8 1 2.2 1.8 4 2.3 6.4-.7 1.3-2 4-2.8 5a68 68 0 0 0-20.8-6.9c-1-.1-1-.3-2-.8-1.1.2-3.6.6-4.6 1-6.4.5-24.2 1.4-28.8 4-4.6 2.7-18.3 24.1-22 29.4l-28.2 40.3c-3.8 5.5-12.6 18.7-16.9 23.4z"/>
  <path fill="#2a373b" d="M699.3 358.4c2.1.1 2.3.1 4.2.8 1 2.2 1.8 4 2.3 6.4-.7 1.3-2 4-2.8 5a68 68 0 0 0-20.8-6.9c-1-.1-1-.3-2-.8 6.7-2.2 12.4-3 19.1-4.5"/>
  <path fill="#1a2b30" d="M672.2 399.3q3.7 2.1 7.2 4.6c-15.7 25.7-33.8 51-51 75.7-2.5 3.5-5 7.7-7.6 11a55 55 0 0 1-9-6.4c7.7-8.1 14-18.2 20.4-27.4l24.8-35.6c5-7.1 10-15 15.2-22"/>
  <path fill="#c18650" d="M347 222.8c2-3.3 5.5-8 9.6-8.5 20.7-2.5 42 4.1 62.8 5 13.1.4 25.4-.6 38.4-1 10.3-.3 29.2-3.2 36.7 4.8 1.8 1.8 2.3 3.4 3.4 5.7 0 2.3 0 7-2 8.3-8.7 5.8-28.4 2.6-38 4-20.8 3.2-43 15-64.1 13-13.6-1.2-38.3-5-47.6-15-.8-3.3-1.2-4.7-1.1-8 .5-3.7.8-4.8 2-8.3"/>
  <path fill="#996434" d="M497.9 228.8c0 2.3 0 7-2 8.3-8.7 5.8-28.4 2.6-38 4-20.8 3.2-43 15-64.1 13-13.6-1.2-38.3-5-47.6-15-.8-3.3-1.2-4.7-1.1-8l3 1.8c18.2 9.5 48.4 17 68.1 10.6 10.8-3.6 24.8-9.5 36.1-10.5 13-1.2 29.6 1.9 42.6-1.5 2.2-.6 2.2-1 3-2.7"/>
  <path fill="#d8a172" d="M347 222.8c2-3.3 5.5-8 9.6-8.5 20.7-2.5 42 4.1 62.8 5 13.1.4 25.4-.6 38.4-1 10.3-.3 29.2-3.2 36.7 4.8l-1.5 1.1c-3.1-.7-4.2-2-8.3-2.3-22.7-2-45.6 1.8-68.4 1.3-17-.3-33.7-2.5-50.6-3.3-5.6-.3-14.9 5.2-18 4.4z"/>
  <path fill="#08b699" d="m453 364.8 7.8-2.4 1.8 6.1L502.8 501l1.8 5.8 8 1.4c13.2 1.8 36.8 3.8 49.7-.2h1.6a328 328 0 0 1 19.2 14c-17.4 3.4-36 2.7-53.7 3.2-4 0-16.6-1.5-19 .5 1.8 5.8 3.8 12 5.2 17.8l.2 1.2-.8.8c-5.3.8-10 .2-15.3-.2-3.7-9.6-7.2-23.5-10.3-33.5a340 340 0 0 1-7.2-25.5c-1.8-5.4-3.4-12-5-17.5q-2.1-9-4.8-18c-1.3-2.4-7.5-25.3-9.1-30.3-1-4.1-2.7-9.3-4-13.5l-1.5-4.8c-1.6-5.4-2.7-12.3-7.6-15.2q-2 1.5-3.8 3.4l.3-.9c-.3-2-1.4-2.8-2.8-4.3 1.1-2.5 1.7-4-.2-6 .3-.5 2.9-1.9 3.5-2.3l-2.5-9.3c3.1-1.3 5-1.9 8.3-2.8"/>
  <path fill="#41cdb4" d="M498.7 505.5c-2-4.9-4.6-15-6.3-20.6l-13.9-47.6c-2.7-9.2-19-59.7-18.9-67 1-1.4 1-1 3-1.8L502.8 501l1.8 5.8 8 1.4c-3 .7-3.2.5-4.6 3.3-1.4-.7-5.4-1.5-7-1.9z"/>
  <path fill="#099483" d="M562.3 508h1.6a328 328 0 0 1 19.2 14c-17.4 3.4-36 2.7-53.7 3.2-4 0-16.6-1.5-19 .5-.5-1.3-.5-1.2-.4-2.5 4-4.8 51.4 1 57.3-4.2.5-4.7-3-3.8-4.3-7.4l.6-1.4z"/>
  <defs>
    <linearGradient id="c" x1="489.4" x2="504.3" y1="513.9" y2="510.4" gradientUnits="userSpaceOnUse">
      <stop offset="0" stop-color="#0b8d7a"/>
      <stop offset="1" stop-color="#0aa68d"/>
    </linearGradient>
  </defs>
  <path fill="url(#c)" d="M482.2 486.3c.5-2.2-.3-3.3-.4-6l1-1 12.8 39.3c2.3 7.1 4 13.6 7.2 20.4 2 4.3 9.7 6.7 12.8 4.5l.2 1.2-.8.8c-5.3.8-10 .2-15.3-.2-3.7-9.6-7.2-23.5-10.3-33.5a340 340 0 0 1-7.2-25.5"/>
  <path fill="#41cdb4" d="M512.6 508.2c13.2 1.8 36.8 3.8 49.7-.2l1.3 2.2-.6 1.4c-5.2.7-12 2-17.1 2.5-9.2.9-29.5.5-38-2.6 1.5-2.8 1.6-2.6 4.7-3.3"/>
  <path fill="#099483" d="M444.7 367.6c3.1-1.3 5-1.9 8.3-2.8l-2.2 2.2c-3.5 3.6-.8 10-.4 14.5l-.2 5.5q-2 1.5-3.8 3.4l.3-.9c-.3-2-1.4-2.8-2.8-4.3 1.1-2.5 1.7-4-.2-6 .3-.5 2.9-1.9 3.5-2.3z"/>
  <path fill="#41cdb4" d="M472.4 450.9c2.2 2 3 6 3.9 9 .7-1.4-1.3-8.4-1.8-10.6 2.3 3 8 24 8.1 28.4l.3 1.5-1.1 1c0 2.8.9 4 .4 6-1.8-5.3-3.4-11.9-5-17.4q-2.1-9-4.8-18"/>
  <path fill="#099483" d="M477.3 468.8c5 1 4 4.4 5.3 9l.3 1.4-1.1 1c0 2.8.9 4 .4 6-1.8-5.3-3.4-11.9-5-17.4m-26.8-87.3c3 3.8 3.4 5.8 7.2 8.6.5 4.3 1.4 8 .2 12.1-1.6-5.4-2.7-12.3-7.6-15.2zm9 25.5c5 3.6 8.2 7.5 3.9 13.5-1-4.1-2.7-9.3-4-13.5"/>
  <path fill="#08b699" d="M810.7 417.5c-2.1-3.8-11.4-28-10.1-32.8.9-3.1 14.2-6.7 17.8-7.6 1.8 3 2.4 4.4 3.6 7.8 12.7 38.4 25.6 77.8 40.4 115.3 6.6 16.6 16.7 32.7 24 48.8a137 137 0 0 1 7.1 15c2.4 3.7 3.5 5.5 6.7 8.7 1.4 1.3 3.8 3.4 4.8 4.8.6 2.9.7 3.4.6 6.4-2.8 8.5-11.9 11.7-15 .6-1.8-3.7-3.5-9.6-5.9-14.5-28.8-46.5-57.2-100.3-74-152.5"/>
  <path fill="#41cdb4" d="M813.3 385.6c3.8-1.7 4.9-1.6 8.7-.7 12.7 38.4 25.6 77.8 40.4 115.3 6.6 16.6 16.7 32.7 24 48.8-1.1.6-.6.4-1.8.3-30-46.6-45.3-96.2-62.1-148.3-2-6.2-3.3-12.5-9.2-15.4"/>
  <defs>
    <linearGradient id="d" x1="801.1" x2="820.3" y1="395" y2="394.7" gradientUnits="userSpaceOnUse">
      <stop offset="0" stop-color="#0c8e7f"/>
      <stop offset="1" stop-color="#04af93"/>
    </linearGradient>
  </defs>
  <path fill="url(#d)" d="M810.7 417.5c-2.1-3.8-11.4-28-10.1-32.8.9-3.1 14.2-6.7 17.8-7.6 1.8 3 2.4 4.4 3.6 7.8-3.8-1-5-1-8.7.7-9.1 7.4-1.3 23.3-2.6 31.9"/>
  <path fill="#099483" d="M893.5 564c2.4 3.7 3.5 5.5 6.7 8.7 1.4 1.3 3.8 3.4 4.8 4.8.6 2.9.7 3.4.6 6.4-2.8 8.5-11.9 11.7-15 .6-1.8-3.7-3.5-9.6-5.9-14.5l4.7 2.6c2.2.7 7 2 9.2 1-.2-2.3-3.6-4.4-5.4-9z"/>
  <path fill="#1a2b30" d="M901.5 582.3c-2.2 1.7-3.4 3.3-6.3 2.6l-.7-1.3c0-1.4 0-2 .8-3.2q1.2-2.1 3.5-2.6c2-.5 3.4 0 5.2 1z"/>
  <path fill="#099483" d="m884.7 570 4.7 2.6c1.3 1.5 2.1 2 2.2 3.7-.8.7-1 .8-2 1.4.2 2.8 1.7 4.3 1 6.8-1.8-3.7-3.5-9.6-5.9-14.5m20.3 7.5c.6 2.9.7 3.4.6 6.4-1.4-1.6-2.1-1.3-4.1-1.6l2.5-3.6z"/>
  <path fill="#2a373b" d="M211 410.2c7.8-3.4 18.7-6.4 27-8.3a166 166 0 0 1 141 28.9l-5.9 5.7-5.3 6a176 176 0 0 0-26.4-15c-40.6-18.6-82.7-17-124-1.7l-3.1-7.3c-1.1-2.7-2.3-5.8-3.5-8.3"/>
  <path fill="#444a4c" d="M214.4 418.5c2.3-2.4 9.8-4.3 13.1-5.2 16.3-4.8 31.6-7.6 48.7-7.8 34.9-.5 69 10.4 97 31l-5.3 6a176 176 0 0 0-26.4-15c-40.6-18.6-82.7-17-124-1.7zM722.7 577c5.8-60 30.1-114 82.9-146.7l2.6 6.6 3.2 8.4A165 165 0 0 0 739 577z"/>
  <path fill="#2a373b" d="M722.7 577c5.8-60 30.1-114 82.9-146.7l2.6 6.6c-41.5 27.9-64 63.7-74.1 112.8-1.5 7.3-2.8 20-3 27.4z"/>
  <path fill="#41cdb4" d="M443.7 379.1c1.9 2 1.3 3.6.2 6 1.4 1.6 2.5 2.4 2.8 4.4l-.3.9c-39.9 39-78.4 78-114.2 121q-11.2 13.5-23 26.7-5 5.7-10.3 11.1c-2.6-2.2-3.2-2.4-6.7-2.6H287q6-7.4 12-14.4a1894 1894 0 0 1 116.2-126.9c6.8-6.7 21.3-21.6 28.5-26.2"/>
  <path fill="#099483" d="M300.3 538c4.7-4.6 11.9-13.6 16.4-18.9l35-39.9q25.4-28.2 52.4-54.7c13.3-13 26.2-26.5 39.8-39.3 1.4 1.5 2.5 2.3 2.8 4.3l-.3.9c-39.9 39-78.4 78-114.2 121q-11.2 13.5-23 26.7c-2-.4-6.5-.1-8.9 0"/>
  <path fill="#099483" d="M300.3 538c2.4 0 6.8-.3 9 0q-5 5.8-10.4 11.2c-2.6-2.2-3.2-2.4-6.7-2.6 3-2.5 5-4.7 7.4-7.8z"/>
  <path fill="#08b699" d="M299 532.2c-.7 3.3-2.5 4.2-3.4 7.4l.7.7c2 0 1.8-.8 3.3-1.5a47 47 0 0 1-7.4 7.8H287q6-7.4 12-14.4"/>
  <path fill="#41cdb4" d="m799 415 .9.2c1.7 2 2.2 4.5 3 7a171 171 0 0 0-50.2 47.6 197 197 0 0 0-34.5 146.9c-1.4 2.2-3.5 5-5 7.2l-.8.7-1-.2c-1-2.4-1.7-8.4-2-11.3-9.7-75.7 23.8-157.4 89.6-198.1m-527.5-36.2h.9c37-2.2 91.3 14.4 119 39.3l-5.7 5.8c-19.6-12.2-27.7-18.2-49.8-26.4a178 178 0 0 0-128.3 4.7l-3.4-7.9c17.7-9.2 47.5-14.3 67.3-15.5"/>
  <path fill="#2a373b" d="m570.3 464.5 5 3.4c11.5 7.4 29.1 21.2 40.2 29.7-2.2 4.5-5 8-7.7 12-5 7.5-6.6 14.8-16.8 8s-19.7-14.6-29.8-21.3c-10.1-6.6 4.4-25.3 9.1-31.8"/>
  <defs>
    <linearGradient id="e" x1="566" x2="565.7" y1="466.2" y2="493.9" gradientUnits="userSpaceOnUse">
      <stop offset="0" stop-color="#898888"/>
      <stop offset="1" stop-color="#a4a5a4"/>
    </linearGradient>
  </defs>
  <path fill="url(#e)" d="m570.3 464.5 5 3.4c-6.5 10.6-12.5 15.5-14 28.4-10.2-6.6 4.3-25.3 9-31.8"/>
  <path fill="#2a373b" d="M400.2 447.8a167 167 0 0 1 45 73.3c2 6.2 5 16.4 5.6 22.9-2.8.5-5.2 1.1-8 1l-7.6.5c-5.7-34.7-22.2-60.5-45.4-86l5.3-6z"/>
  <path fill="#444a4c" d="M395.1 453.4c24.8 25 41.4 57 47.7 91.7l-7.6.4c-5.7-34.7-22.2-60.5-45.4-86z"/>
  <path fill="#2a373b" d="M120.4 490.4c5-7.3 9.7-14.9 15-22 14.8-19.4 39.1-42.5 62.3-51.3q1.9 3.4 3.2 7l3.2 7.7A162 162 0 0 0 135 498c-2.2-1-5.4-2.8-7.5-3.7a47 47 0 0 0-7-3.8"/>
  <path fill="#444a4c" d="M127.5 494.2c16.5-24.7 30.5-42.7 55.8-59.6 5.4-3.6 11.6-8 17.6-10.5l3.2 7.7A162 162 0 0 0 135 498c-2.2-1-5.4-2.8-7.5-3.7"/>
  <path fill="#41cdb4" d="M190.4 400.4c1.7 2 3 5.8 4 8.3A197 197 0 0 0 105 502c-4.5 10.5-7.2 21.8-12.6 31-.6 1.1-5 4.6-6.1 5.5l-1.4 1-1-.3c-1-3.4 3.7-15.4 5.1-19.1 5.6-15.2 12-28.9 20.9-42.4 3.9-6 6-12 10.7-18.5 17-23 44-46.6 69.8-58.7"/>
  <defs>
    <linearGradient id="f" x1="288.9" x2="220.9" y1="619.9" y2="585.6" gradientUnits="userSpaceOnUse">
      <stop offset="0" stop-color="#434749"/>
      <stop offset="1" stop-color="#5d6162"/>
    </linearGradient>
  </defs>
  <path fill="url(#f)" d="m230.4 564.8 5.6 3c1.4.7 3.3 1.4 4.5 2.3a43 43 0 0 0 0 21.8c11 30.7 40.8 23.9 65.8 30.8a49 49 0 0 1-47.8 7.3 50 50 0 0 1-28.1-65.2"/>
  <path fill="#2a373b" d="M240.5 592c11 30.6 40.8 23.8 65.8 30.7a49 49 0 0 1-20 9.3c-2.9-1.6-9.4-1.6-12.9-2.6-17-4.6-30.4-13.9-36.8-30.6 2.3-2.6 3-3.5 4-6.9"/>
  <path fill="#444a4c" d="M236 567.8c1.4.7 3.3 1.4 4.5 2.3a43 43 0 0 0 0 21.8c-.8 3.4-1.6 4.3-3.9 7a52 52 0 0 1-.6-31"/>
  <path fill="#c18650" d="M659.7 117.7c7.3-3.5 39.1-.3 48.7-1.2 2.8-.3 4.9.2 6.6 2.5q.8 1.5 1.3 3c1 7.7-1 14.6-10.4 15-14.1.6-28.4-.5-42.6-.2-6.6.1-7.7-6.6-7.2-12 .6-3.6 1-4.6 3.6-7.1"/>
  <path fill="#996434" d="M716.3 122c1 7.7-1 14.6-10.4 15-14.1.6-28.4-.5-42.6-.2-6.6.1-7.7-6.6-7.2-12 2.1 2.3 5.4 4.9 8.4 4.8 8.3-.3 45 .8 50.5-1.7 1.4-1.8 1.2-3.7 1.3-6"/>
  <path fill="#d8a172" d="M659.7 117.7c7.3-3.5 39.1-.3 48.7-1.2 2.8-.3 4.9.2 6.6 2.5-2 1.4-20.3 1-24 .8-6.3-.3-27.3 1.5-31.3-2.1"/>
  <path fill="#595a5d" d="M530.4 603c2.7.6 3.4.7 5.8 2.3 2.7 3.3 2.6 4.5 2.8 8.6-.4 3-1.1 6 0 8.7 2.8 6.5 25.9 72 25.2 74.3-1.9.6-2.8.6-4.8.7l-3.1.2c-4.9-2.5-22-60.5-26.1-69.4-1.8-3.8-5.3-9-7-12.5-1.8-6.9.2-11.1 7.2-12.9"/>
  <path fill="#444a4c" d="M530.4 603c2.7.6 3.4.7 5.8 2.3 2.7 3.3 2.6 4.5 2.8 8.6-.4 3-1.1 6 0 8.7-2.2 1-3 1-4.4 2.9-2.3 8.2 14.4 44.8 17.2 54.7a140 140 0 0 0 7.6 17.4l-3.1.2c-4.9-2.5-22-60.5-26.1-69.4-1.8-3.8-5.3-9-7-12.5-1.8-6.9.2-11.1 7.2-12.9"/>
  <path fill="#b0b0b0" d="M530.4 603c2.7.6 3.4.7 5.8 2.3-1.8 2.2-1.8 2.6-5 3l-2.1.8c-3.6 1.3-4.1 3.4-6 6.8-1.7-6.9.3-11.1 7.3-12.9"/>
  <path fill="#b0b0b0" d="M530.4 603c2.7.6 3.4.7 5.8 2.3-1.8 2.2-1.8 2.6-5 3l-2.1.8c.3-1.9.9-4.2 1.3-6"/>
  <path fill="#939292" d="M536.2 605.3c2.7 3.3 2.6 4.5 2.8 8.6-.6 1.2-.3.8-1.3 1.8-4.7-1.9.5-5.8-6.5-7.4 3.2-.4 3.2-.8 5-3"/>
  <path fill="#099483" d="M411.6 436.3a92 92 0 0 1 15 15.9c18.2 23 31 49.8 37.3 78.5.8 3.5 2.6 10.8 2.2 14.1-1.4 1-3.2.8-4.9.9-.6-.2-1.8-.6-2-1.3-8.8-42.4-23.3-69.6-52.8-102.4z"/>
  <path fill="#41cdb4" d="M898.5 384.4q25.6 0 50.4 6.3a59 59 0 0 1-9 6.8 173 173 0 0 0-101.2 7.3l-3-8.4q30.6-10.5 62.8-12"/>
  <path fill="#b0b0b0" d="M747.6 137.5c0-2.3-.6-11.1.8-12.3 15.6 2.1 31.2 10.3 26.6 28.8-3.2 17.8-16.1 30.4-18.9 46.2l-4.7-3.5c-1-1.6.1-2.8-2-5.3 6-17.5 35-52-1.8-53.9"/>
  <path fill="#f7f6f7" d="M748.4 125.2c15.6 2.1 31.2 10.3 26.6 28.8-1.7-1.3-3.8-13-11.6-19.7-4.7-3-10-3.8-15.4-4.5z"/>
  <path fill="#444a4c" d="M829.8 303.6c3.1-5 17-12.8 22.4-11.4.6 1.4-.1 2.9-.5 4.7-.8 3.4-1.3 6.3-1.8 9.8v.9c0 12.5 0 16.5 2.7 28.9-8.6-2.8-19.2-5.9-23.7-14.7q-1.2-2.3-1.7-5c.1-3.7.3-6 .8-9.7.7-1.7.8-2 1.8-3.5"/>
  <path fill="#2a373b" d="M849.5 321.3c-.2-4.2-.4-9.7.4-13.7 0 12.5 0 16.5 2.7 28.9-8.6-2.8-19.2-5.9-23.7-14.7q-1.2-2.3-1.7-5c3 .2 8.5 2.1 11.7 2.9a97 97 0 0 0 10.6 1.6"/>
  <path fill="#595a5d" d="M829.8 303.6c3.1-5 17-12.8 22.4-11.4.6 1.4-.1 2.9-.5 4.7-.8 3.4-1.3 6.3-1.8 9.8-6.4-.2-15 .4-21.9.4.7-1.7.8-2 1.8-3.5"/>
  <path fill="#939292" d="M829.8 303.6c3.1-5 17-12.8 22.4-11.4.6 1.4-.1 2.9-.5 4.7-3.8.6-6.1 1.3-9.7 2.5-3 .9-10 4.8-12.2 4.2"/>
  <path fill="#2a373b" d="M526.5 589.6c5.9-.6 10.5-.4 15.8 2.6 5.5 3.2 9.5 8.5 11 14.7 2 7.6 0 13.6-3.8 20.1-4.6-8.9-2.4-13.3-5.7-21.7-4-10.4-14.4-10-23-5.3-11.4 10.2-.7 26.4 4.6 37l-2.8-1.5c-6.9-3.7-12-9-14.2-16.7a23 23 0 0 1 2-17.8c3.7-6.2 9.3-9.7 16-11.4"/>
  <path fill="#f7f6f7" d="M429 284c2-.1 3.4-.4 5 .7 2.4 4.2 17.8 54.6 17.1 57.7a10 10 0 0 1-3.3 1.9c-.9 0-4.7.6-5.8.8-2.6-6-17-54-17-59.2 1.3-1.5 1.8-1.3 4-2"/>
  <path fill="#b0b0b0" d="M442 345.1c-2.6-6-17-54-17-59.2 1.3-1.5 1.8-1.3 4-2 .6 5.7 16.3 56 18.8 60.4-.9 0-4.7.6-5.8.8"/>
  <path fill="#1a2b30" d="m179.2 354.6 2.2.9c2.2 2.4 14.7 34.4 17 40l34.1 81c3.4 8.1 21.9 48 22.3 54.3-4-2.1-20.3-42.5-23.3-49.5L195.2 395c-2.5-6-16.5-36.7-16-40.5"/>
  <path fill="#595a5d" d="M901.2 561.7c9 3.6 14.2 6.4 16.5 16.5 2.2 7-1.7 15.8-7.4 20a21 21 0 0 1-15.7 3.9 18 18 0 0 1-12-7.3c-4.4-6-4.2-12.1-3-19l1.1 1.5c4.9 5.3 5.9 15.6 13.3 18 6.8 2.2 14.1-2.7 16.2-9.3 2.6-8.2-3.4-11.7-6.7-18a48 48 0 0 1-2.3-6.3"/>
  <path fill="#939292" d="M901.2 561.7c9 3.6 14.2 6.4 16.5 16.5-5-2.4-8.1-7.3-14.2-10.2a48 48 0 0 1-2.3-6.3"/>
  <path fill="#444a4c" d="M577.5 711.6c0-1.6-.3-2.3.6-3.6 4.8-3.3 12.1-1.8 15.8 2.5-.5 2.8-.9 7.6-4.2 8.1-9.1 1.4-40.3 3.1-47.6-.5-2.4-2.7-2-4.6-2.1-8.2 3.7-3.2 11.9-5.6 15.6-1.2l.3 3c-.2 2-.3 2.2.3 4.3 1.5 1.6.8 1.2 2.8 1.6 3.2-1.4 3.1-3.2 2.5-6.4.8-5.5 6-6.4 9.7-3a8 8 0 0 1 .4 3c-.8 3.1-1.3 5.3 1.8 7 4.3-.5 4-3 4.1-6.6"/>
  <path fill="#939292" d="M577.5 711.6c0-1.6-.3-2.3.6-3.6 4.8-3.3 12.1-1.8 15.8 2.5-3.5 1.6-12.2 1.2-16.4 1.1m-37.5-1.7c3.7-3.2 11.9-5.6 15.6-1.2l.3 3c-5.3-.1-11.1.4-16-1.8"/>
  <path fill="#b0b0b0" d="M561.5 711.2c.8-5.5 6-6.4 9.7-3a8 8 0 0 1 .4 3c-3 .4-7.2.3-10.1 0M115.4 493.4c8.5 4.3 18.5 10 27 14.7l59.2 31.6 32 16.8c2.3 1.3 9.3 4.5 10.5 6.5l-.8 2.6a262 262 0 0 1-19-9.8c-36-19.9-73.7-38.1-109.3-58.4-.8-1.7-.4-1.5.4-4"/>
  <path fill="#1a2b30" d="M165.7 347.9c38.7-1.3 81.7-.3 120.8-.3l41.3-.2c11.3 0 24.8-.5 35.6 2-4.3 1.3-10.7 1-15.4 1l-96.1-.6c-13.7 0-88.3 1.4-96.7-1.3q5.3-.6 10.5-.6"/>
  <path fill="#939292" d="M749.4 191.4c2.1 2.5 1 3.7 2 5.3l4.7 3.5c-.2 4.2 0 5.6.8 9.7 2.8 9.5 6.1 19 9 28.6l-7.6 2.7c-5-15.4-14.1-34.3-8.9-49.8"/>
  <path fill="#f7f6f7" d="m751.4 196.7 4.7 3.5c-.2 4.2 0 5.6.8 9.7l-.4 1h-.8c-4.5-3.6-5.3-8.8-4.3-14.2"/>
  <path fill="#e74f1e" d="M91.2 469c3.4.6 7.4 1.6 9.5 4.6-1 3-5.6 10.6-7.2 13.7q-3.3 6.3-6.2 12.8c-1 2-1.6 3.2-3.4 4l-1-.4c-4.5-7 3.5-28.7 8.3-34.6"/>
  <path fill="#2a373b" d="M725.2 120.6c5.2.8 9.8 1.2 15 1.7l.1 7.7v7.4c0 1.3.1 1.2-.6 2.3-4.3 1.7-12.5.8-17.3.5l1.7-5.7 1.5-7.2q.1-3.4-.4-6.7"/>
  <path fill="#595a5d" d="M725.2 120.6c5.2.8 9.8 1.2 15 1.7l.1 7.7c-4-.4-10.8-1.4-14.7-2.7q.1-3.4-.4-6.7"/>
  <path fill="#1a2b30" d="m722.4 140.2 1.7-5.7.7 1.2c4.4 1 10.7 1.1 15.6 1.7 0 1.3 0 1.2-.7 2.3-4.3 1.7-12.5.8-17.3.5"/>
  <path fill="#595a5d" d="M734.1 103.7c4.3-1.5 28.5-11 31.3-10.3l.9 5.6c-14.2 5.3-28.6 9.9-43 14.8l-2.8-5.5z"/>
  <path fill="#7d7b7e" d="M734.1 103.7c4.3-1.5 28.5-11 31.3-10.3-3.4 4-26.8 12.5-31.3 10.3m182.4 501c21 36.4 46.5 73.3 67.7 109.8l-1.8 1.3c-21.6-35.4-45-75-67.8-109.4zm61.9-157 1.8 1.2c-2.1 4.9-6.5 11.6-9.4 16.4L955.7 490a3313 3313 0 0 0-40.9 67.9l-1.3-.8c1.8-5.2 16.2-28 20-34.3zm-96.8 158.6 1 .9c-3 5.9-7.8 12.8-11.5 18.5L851.3 656l-25.2 39.2c-2.2 3.5-10.3 16.6-12.8 18.7l-1.1-.2a188 188 0 0 1 13.6-22c19.1-27.5 36.2-58.5 55.8-85.5m41.7-9.2c30 18.9 59 41.8 88.7 61.3l14.7 10-1.4 1.4c-16.2-10.4-33.8-23.1-49.8-34.2l-53.2-36.6zm3.2-21.5c2.4-1 12-3 14.6-3.6l27.9-6c24.4-5.4 53.3-13.3 77.5-17.8l.4 2.6c-40 7.5-80 18.4-120 26.7zm.5 10.9q45.2 7.6 90 17c4.2.9 28.6 5.2 31.3 6.4l-.8 1.5c-40-7.2-80.7-16.8-120.8-22.6z"/>
  <path fill="#444a4c" d="m904.1 610.7 1.6-.8c1.4 3.8 3.1 15 4 19.3l6.6 37 8.9 48.4c1 5.8 3.6 18.2 4 23.6h-1.6c-1-3.6-2.2-12-2.8-15.9l-6-33.4-9.5-50.6c-1.7-9-3.8-18.6-5.2-27.6"/>
  <path fill="#7d7b7e" d="m773.8 492.8 1-1.6c9.3 6.2 18.3 13.8 27.4 20.3 22 15.6 43.9 32.5 66.2 47.5l1.8 3.2c-16.4-9.5-37.4-25.9-52.9-37.3-13.6-10-30.7-21.7-43.5-32.1M750.6 547c7.7 1.1 18.8 4.2 26.6 6.2L824 565c9.3 2.3 33.4 7.1 41.1 10.2h-2.7c-6.9-1.5-14-2.4-21-4q-45.5-11-91.1-22.3z"/>
  <path fill="#595a5d" d="M921.3 564.3c1.8-1.6 8.5-6 10.8-7.7q10.9-7.5 21.6-15.3l45.7-34c5.4-4 18.2-14 23.4-16.7l.5 1.4a4821 4821 0 0 0-69 51c-5.6 4.1-26.9 20.5-31.9 23.2zm-153-318.4c5.8-.7 6.9 0 8.3 6.2q-.2 1.8-2 2.5c-4 3.2-14.1 7-18.9 3.9-1.4-1.8-1.2-2.4-1.3-4.8 2.5-5.8 7.8-5.4 13.3-7.6z"/>
  <path fill="#444a4c" d="M754.4 253.7c11.9 4.8 14.4 0 20.2.9-4 3.2-14.1 7-18.9 3.9-1.4-1.8-1.2-2.4-1.3-4.8"/>
  <path fill="#939292" d="M768.3 245.9c5.8-.7 6.9 0 8.3 6.2l-1.2.3c-2.5-1.4-6.2-3.8-7.1-6.5"/>
  <path fill="#131519" d="m892.1 610.6 2 .3c-.9 8.6-4.7 22-6.4 31.2-4.9 26.6-10.8 52.9-15 79.6l-1.9.6-.3-.2c1.2-9.7 5.4-27.1 7.3-37.5l7.8-40c2-11.1 4-23 6.5-34"/>
  <path fill="#444a4c" d="m868.3 428.4 1.6-.8c1.2 4 2.1 11 2.9 15.3l4.5 27.7 7.6 42.3c1 5 3.1 15 3.6 19.8-1.5-1.9-2.7-3.3-3.4-5.5.3-2.8-2-13.8-2.6-17.2-5-27-8.6-54.7-14.2-81.6"/>
  <path fill="#595a5d" fill-opacity=".9" d="m874 597.7 1 1.6c-29 18-60.2 39-88.6 58.3L785 656z"/>
  <path fill="#444a4c" d="M811 364.2c3-1 2.2-1.1 4.8-.6 2.1 1.7 2.4 3.3 1.2 5.8a117 117 0 0 1-14.3 5.6c-3.6 1.3-10.3 3.1-9-3.3 2.7-3.6 12.6-6 17.4-7.5"/>
  <path fill="#b0b0b0" d="M811 364.2c3-1 2.2-1.1 4.8-.6 2.1 1.7 2.4 3.3 1.2 5.8-2.7-2-3.7-2.7-6-5.2"/>
  <path fill="#0a0a0b" d="m926.3 426.9 1.2.7c-5 35.4-12.6 69.4-18.3 104.5l-1.7-1c.7-4.6 1.7-9.8 2.7-14.4 6.3-29.7 10.6-60 16.1-89.8"/>
  <path fill="#939292" d="M237.5 552.2c3.3-3.7 8.5-10 13.2-10.6 1.8.8 1.3 1 2.3 3.4l2.5 6.2c-3 2.3-5.5 4.2-8.2 7l-5.2-3.3z"/>
  <path fill="#444a4c" d="m253 545 2.5 6.2c-3 2.3-5.5 4.2-8.2 7l-5.2-3.3c2.8-2.7 9.2-7.3 11-10m252.3-65c5 0 13.4-1 16.8 2.6 1.2 3 .5 4.4-.5 7.6-12.3 3.2-13 .5-16.3-10.2"/>
  <path fill="#595a5d" d="m852.4 590.2 2.1.2a387 387 0 0 1-36 7.3c-23 3.6-47.5 9-70.3 12.2l-.2-1.4c31-4.6 61.8-11.4 92.6-16.4z"/>
  <path fill="#939292" d="M424.7 268c5.8-.9 6.1 1.6 8.6 6.4-4.5.8-11 1.5-15.8 2.1-3.3.4-7 .9-9-2 1.6-5 11.8-6 16.2-6.6M264.5 535.2a71 71 0 0 1 20.4-.4l-3.8 4.8c-4 4.8-11.8 9.1-14.5.7-.8-1.5-1.5-3.5-2-5.1"/>
  <path fill="#444a4c" d="M266.6 540.3c3.3-.7 10.8-.7 14.5-.7-4 4.8-11.8 9.1-14.5.7"/>
  <path fill="#b0b0b0" d="M441.4 353c4.3-1.3 14.6-4.7 18.4-1.4-.5 3.4-5.2 4.7-8.1 5.7-4.2 1.9-10.6 4.5-14.6.9-1-3.1 1.7-4.2 4.3-5.1"/>
  <path fill="#7d7b7e" d="M451.7 357.3c-4.2 1.9-10.6 4.5-14.6.9-1-3.1 1.7-4.2 4.3-5.1 3.8 3.5 4.9 3.8 10.3 4.2"/>
  <path fill="#595a5d" fill-opacity=".9" d="M124.2 546.6c19 3.7 38.5 9.2 57.3 13.6l25.7 6c3.3.9 10.4 2.4 13.4 3.6l-.5.7c-4-.3-21.2-4.8-26-6l-70-16.8zM311.6 629c13.6 20.3 26.6 41.7 40.3 62.2 5 7.5 9.8 15.6 15 22.8l-1 .7c-2.9-3.2-11.7-17.8-14.8-22.5l-40.5-62.5zM148.8 489.6c6 3.3 78.8 55.7 80.7 58.2-2.5-.8-7.2-2.3-8.4-4.6-2.1-2.6-14.6-11.2-18.2-13.7l-32-22.8c-7-4.9-16-10.9-22.5-16.2z"/>
  <path fill="#1a2b30" d="M686.4 386.3c2.3-6.2-.7-13.7.2-15.1 3.1 0 10.5 3.3 13.6 4.6-6 5-7.5 10.3-10.6 13.6-.9-1.9-1.2-2.6-3.2-3.1"/>
  <path fill="#444a4c" d="M366.5 261c4.5.1 19.8.9 21.5 5l-.8 1.5c-10.4 4.2-14.7 2.5-20.7-6.6"/>
  <path fill="#444a4c" fill-opacity=".8" d="m247.3 424.6 1-.4q5.4 34 11.3 68c1.3 7 5.6 29.1 5.9 35h-1q-9-51-17.2-102.6"/>
  <path fill="#131519" fill-opacity=".9" d="M122.3 607.3c3-.8 9.8-1.6 13.3-2.2l29-4.9 35.7-6.5c4.4-.8 15-3 19-3v.8c-19.8 4-40.9 7.3-60.7 10.9-9.4 1.7-27.3 5.3-36 6z"/>
  <path fill="#444a4c" fill-opacity=".9" d="m288.6 639.7 1.3-.5c1.7 6 3.1 14.4 4.4 20.7l7 35.3 5.5 28.1c.7 3.6 2.4 11.2 2.7 14.7l-.8.1c-5.6-23.9-9.3-50.3-14.8-74.3-1-4.3-3.9-21-5.3-24.1"/>
  <path fill="#444a4c" fill-opacity=".8" d="m226.5 613 .3.6-50.2 32.4c-8.6 5.6-24 16-32.6 20.3l-.6-.6c20-11.8 39.7-25.5 59.4-37.9 4.2-2.6 20.2-13.5 23.7-14.8"/>
  <path fill="#444a4c" fill-opacity=".9" d="m264 639.7.7.4c-1 8.2-3.3 18.8-4.9 27l-9 47.3c-1.2 6-4 18.7-4.6 24h-.9c.2-4.6 4.5-23.7 5.7-29.8z"/>
  <path fill="#595a5d" fill-opacity=".9" d="m195 445.4 1-.4c3.7 5.2 8 14 11.5 19.8 7.6 12.8 15.2 27 23.3 39.6l-.7.8c-5.7-8.2-12.7-20.8-18-29.7-5-8.6-13-21.4-17.1-30.1"/>
  <path fill="#2a373b" d="M674 376.5a5.2 5.2 0 1 1 4.3 9.5 5.2 5.2 0 0 1-4.3-9.5"/>
  <path fill="#444a4c" fill-opacity=".8" d="M288.9 527.1c.4-4.5 4.4-23.3 5.5-28.4 3.8-17.9 6.7-38.6 10.9-56h.8l-11.6 60.4c-1 4.8-4.3 20.9-4.2 24.9z"/>
  <path fill="#2a373b" d="M686.4 386.3c2 .5 2.3 1.2 3.2 3.1-1.6 2.7-4.6 6.6-6.5 9.3q-3-2.3-5.8-5c4.6-2.5 6.2-3.1 9.1-7.4"/>
  <path fill="#7d7b7e" d="m785 656 1.4 1.6c-5.1 3.4-11.6 8-16.8 11.2l-1.4-2.3q8.5-5.1 16.8-10.5"/>
  <path fill="#595a5d" d="m907.5 531.1 1.7 1-3.8 21.5-2-.3z"/>
  <path fill="#1a2b30" d="M256.8 536.2c3.6 1.2 7.7 14.2 8.9 18.1-4.3-1.6-8.4-13.7-9-18.1"/>
  <path fill="#595a5d" fill-opacity=".7" d="m406.5 493 .2.9c-3 2.1-24.4 18-26 18 .8-2 22.6-17 25.8-19"/>
  <path fill="#595a5d" d="m870.5 722 .3.3 1.8-.6c-1 5-2 11-3.2 16l-2-.4c1-4 2.2-11 3-15.2"/>
  <path fill="#2a373b" d="M470.8 480.6c2.2 1.5 3.8 7.5 2.5 9.9-4.8-2.7-4.9-5.3-2.5-10"/>
  <path fill="#444a4c" fill-opacity=".7" d="m361.7 526 .2-.6c4-3.2 15-11.6 18.9-13.4a104 104 0 0 1-19.1 14"/>
  <path fill="#444a4c" fill-opacity=".9" d="m308.4 424.2.8.5-3 18h-1c.6-5.2 2.2-13.1 3.2-18.5"/>
  <path fill="#7d7b7e" fill-opacity=".7" d="M230.8 504.4c1.5 2.6 4 6.3 4.7 9.1l-.4-1.2h-.8l-4.2-7z"/>
  <path fill="#f7f6f7" fill-opacity=".1" d="m461.5 490.8 1.8 3.7-1.1 1.2-1.7-4.5z"/>
  <path fill="#131519" d="M811.7 170.5a210 210 0 0 1 7.6 86.8l-.7-2.5c-1.5-1.3-1.3-.9-4-.8 3.8-25.8.3-57.2-7.9-81.9zm1.3 96.9c2 1 2.4 1.3 4.7 1.2a222 222 0 0 1-6 26.7l-.6-.3.4-1.5c-2-.2-1.3-.4-3 .3-.4 1.2-.6 1.7-1.2 2.8l-.9.3c1.7-9.6 4.7-18 6.5-29.5"/>
  <path fill="#051921" d="M802.5 151.7a87 87 0 0 1 9.2 18.8l-5 1.6a82 82 0 0 0-8.7-17.5c1.5-1.9 2.2-2 4.5-3"/>
  <path fill="#0a0a0b" d="M784.9 149.8c4.4 2.6 9 7.6 11.4 12-2 1-2.3 1.5-4 3a59 59 0 0 0-9-10v-.3c1.2-.9.7-1.9 1.3-4z"/>
  <path fill="#051921" d="M796.3 161.8c3 4.1 4.4 7.8 6.3 12.5-2.3.6-2.9.6-5 1.8a68 68 0 0 0-5.3-11.3c1.7-1.5 2-2 4-3"/>
  <path fill="#0a0a0b" d="M814.7 254c2.6 0 2.4-.5 4 .8l.6 2.5c-.5 3.9-.9 7.4-1.6 11.3-2.3 0-2.7-.1-4.8-1.2zm-18.5-110.1a43 43 0 0 1 6.3 7.8c-2.3.9-3 1-4.5 3q-2.8-4-6-7.6c1.1-.7 3-2.3 4.2-3.2"/>
  <path fill="#26be6b" d="M155.9 128.1 69 225.4h47.4l-20.1 93.2L184 207h-49.8z"/>
</svg>
