<svg xmlns="http://www.w3.org/2000/svg" width="492" height="352" viewBox="20 20 492 352">
  <path fill="#012431" d="M369.9 129.5c1.7-12.6.7-22.5 12.4-31.2 9.3-7 23.1-6.1 33.9-5.6 14.3.7 27.2 1.4 36.2 14 7.1 10 5.6 21 5.5 32.4l16.2 2.2c6.3.8 14.4 1.5 20.1 4q5.5 2.4 9.1 7.2a34 34 0 0 1 6 18.2q.3 11.6.2 23.4v54.5l.1 49c0 8.8.5 18.1-.5 26.8-1 8.5-5.8 16-14 18.8-6.1 2.1-12.7 4.4-18.9 6.2-6.3 1.8-14.2 5-20.5 5.9-9.3 1.2-22.6-3-31.8-5.2l-34-7.8-40-9.2c-7.4-1.7-19-4-25.9-6l-4.9-1c-7.4-1.4-14.6-3.6-19.2-10-7-9.8-3.8-21.1-2.3-32 1.9-13.3 5-26.6 6.8-40l.7-4c1-5.1 2.2-11.5 2.8-16.6a22 22 0 0 1-2.8-11c.7-7.7 3-16.5 4.5-24.2l4.7-23c3.1-14.7 5.4-27.2 20.5-34.2 12-5.7 22.9-1.7 35-1.6m20.2 2c11.4 1.8 25.4 2.8 37.3 4.2l8.8.9c.6-6 2-13.9-2.1-18.8a11 11 0 0 0-4.4-3c-4.2-1.6-24.7-2.7-29.5-2.4-10.1 1.6-9.8 11-10.1 19"/>
  <path fill="#029789" d="M346.6 133c4-.6 18.2.9 22.7 1.3 0 1.1-.2 3 .8 3.7 2.3 1.7 5.6 1.8 8.4 2 5.3.5 8.9.7 12.6-3.4 4.9.2 10.8 1 15.8 1.5q14.2 1.5 28.4 3.3c0 1 0 2.8.8 3.5 2.5 2.4 8.4 2.7 11.7 3 5.3.3 6.6-.4 10.3-3.7 4.4.2 9.9 1 14.3 1.6 7.3 1 16 .8 22 5.1-4.3.2-8.3.4-11.9 3-4 2.7-7.9 7.3-9.7 11.9-2.8 6.7-4.1 15-5.5 22.2l-5.2 27.8c-2.1 11.7-4 26.4-17.5 30.4-1.9.4-4.6.7-6.6.5-14.6-1.5-29-4.8-43.6-6.8 0-6 3.3-12.8-.5-18.4a15 15 0 0 0-10.3-5.8c-5.4-.7-12.3-2.5-17.7-2a11 11 0 0 0-5.2 2.2c-5.4 3.7-5.8 10.7-6.7 16.8-3.2-.4-8.7-1.4-12-2-5.7-1-15.6-2.4-21-4.3q-3.2-1-5.9-3.1c-4.6-3.7-5.4-9.3-4.6-14.9 1.4-9 3.5-17.8 5.3-26.7 2-9.3 3.6-18.7 6.1-27.9a27 27 0 0 1 24.7-20.8"/>
  <path fill="#029789" d="M312 227.1a51 51 0 0 0 20.5 6.7c6.8 1 13.6 2.8 20.5 3.3 0 .9-.7 6.5-.9 7-1 7.7-3.4 15.2 4.2 20.3 5 2 9.4 2.2 14.3 3.5 19.5 5.1 20.5-7.2 22.5-23.1 4.1.3 10.2 1.5 14.3 2.2q10.7 2 21.3 3.5c13.4 2 18.8 3.4 29.1-7-.1 3-1.3 9.4-1.7 12.5l-8.8 57.6c-1.1 7-2.5 14.3-3.3 21.5-.7 6 0 10.1 3.9 14.9l-1.8-.3c-7.9-1.1-20.4-4.5-28.6-6.3l-52.4-12.2c-18.1-4.2-36.8-8-54.8-13-1.9-.5-5.2-3.3-6.3-5-6.3-10.1-2.5-22.3-.9-33.2 2.6-16.4 5.7-32.4 8.3-48.6z"/>
  <path fill="#00726a" d="M457.8 243.5c-.1 3-1.3 9.4-1.7 12.5l-.3-.9c-.7 0-2.4 1.3-3.2 1.7-9.4 5.2-20 2.3-30.2.4l-16-2.8c-3.8-.6-7.3-1.3-11.3-1.4-4.4 22.6-9.2 23-30.5 18-3.9-1-7-2.4-8.3-6.6 5 2 9.4 2.2 14.3 3.5 19.5 5.1 20.5-7.2 22.5-23.1 4.1.3 10.2 1.5 14.3 2.2q10.7 2 21.3 3.5c13.4 2 18.8 3.4 29.1-7M312 227.1a51 51 0 0 0 20.5 6.7c6.8 1 13.6 2.8 20.5 3.3 0 .9-.7 6.5-.9 7-.7-.7-5.2-.5-6.7-.8q-12.7-2.1-25.2-5c-4-1-6.8-6.4-8.8-7zm179.1-70.9c3.5-.3 8.3-.4 10.3 3 1.6 3 2.5 8.6 2.6 12q.6 17.4.4 34.8v96.7c.1 10.9 2.1 26.9-7.9 34a43 43 0 0 1-11.5 4.5c-8.5 2.5-16.9 5.5-25.5 7.7-8 2-11-5.7-10.7-12.3q.7-8.3 2.2-16.6l4.4-28.9 5.7-35.9c3.4-21.3 6.6-41.5 11-62.7.4-3.9 1.7-9.9 2.4-14h10.1c-.9 20.8-2.7 42.6-4 63.5l-3.2 49.9-2 30.6c-.1 2.7-.5 4.5-1.4 7-.7 2-4 5.8-3.9 7.7l.5.3c3.8-.4 8.3-7.3 8.8-11 1-6.2 1.1-12.7 1.5-19l2-31.6 3.3-51c1-15.5 2.3-32.9 2.7-48.3 2.5-.7 6.2-1.5 8-3.3.3-.8.3-.4 0-1.2-2.3-2.2-15.7-3-19.5-3.2 2.6-6.5 6.6-11.2 13.7-12.7"/>
  <path fill="#f7ce3f" d="M360.4 222.4c2.7-4.4 6-4.8 10.8-4.3 5.6.8 15 .9 18.6 5.5q.9 1.2 1.3 2.7c-.3 9-3 18.8-4 27.7-1 8-4.1 12.2-12.8 10.3-4-.9-10.5-1.8-14.2-3l-.7-.3q-2.6-1-3.7-3.6c-.5-1.2-.8-3.8-.6-5 1-6.4 3.1-24.6 5.3-30"/>
  <path fill="#faf0bb" d="M360.4 222.4c2.7-4.4 6-4.8 10.8-4.3 5.6.8 15 .9 18.6 5.5q.9 1.2 1.3 2.7c-.3 9-3 18.8-4 27.7-1 8-4.1 12.2-12.8 10.3-4-.9-10.5-1.8-14.2-3 2.7-.1 4.6 0 7-1-2.2-.4-8.4-.7-9-1.2-.6-.8-.6-.8-.6-1.7.9-1 16.9 3.2 19.7 1.7q2.8-1 3.1-4.1 2.1-12.7 3.8-25.5c1.4-6.4-7.2-5.6-11.3-6.3-5.3-.9-7.6-1-12 2.1l-.4-.1c0-1 0-1.1.3-2z"/>
  <path fill="#ebb131" d="M371.2 218.1c5.6.8 15 .9 18.6 5.5q.9 1.2 1.3 2.7c-.3 9-3 18.8-4 27.7-1 8-4.1 12.2-12.8 10.3-4-.9-10.5-1.8-14.2-3 2.7-.1 4.6 0 7-1l1 .2c4.7 1 13.2 2.4 14.3-4.2 1.5-9.8 4.1-20 5.1-29.9-1-2-1.6-2.8-3.3-4.2l-1.3-1.4c-4.3-1.3-7.3-.6-11.7-2.7"/>
  <path fill="#f7ce3f" d="M360.4 222.4c2.7-4.4 6-4.8 10.8-4.3 4.4 2 7.4 1.4 11.7 2.7l1.3 1.4c-5-1.4-14-.8-19.7-2.8a10 10 0 0 0-3.8 3.8z"/>
  <path fill="#48545a" d="M374.2 129.2c1.5-10.6-.1-18.6 10.1-26.8a28 28 0 0 1 10.3-4.8c10.2-1.6 23.9-.1 34.2.7 7.4.6 15.8 5.3 20.1 11.3 5.4 7.4 4.3 15 4.2 23.7l-.3 8.4c0 .5 0 .5-.3 1-2.5.8-9-.1-11.7-.5V138c.6-10.8 2.8-24.3-10.5-27.8-7-2-20.8-2.1-28.4-2.3-4.2 0-6.2 0-10.2 1.7-4.4 6.6-5.8 9-5.6 17.2 0 1.2 0 5-.3 6 0-1 .1-1.2-.4-2-1-.4-2 .2-3.6.2h-.3q-3.6-.6-7.3-1.7"/>
  <path fill="#283c45" d="M381.5 130.9c-.1-7.3-.2-15.7 6.5-20q6.4-4.4 14-3.1c-4.3 0-6.3 0-10.3 1.7-4.4 6.6-5.8 9-5.6 17.2 0 1.2 0 5-.3 6 0-1 .1-1.2-.4-2-1-.4-2 .2-3.6.2z"/>
  <path fill="#ebb131" d="m440.9 137.9.4-1.2c5.1 1.6 6.4 1.6 11.5 1v4c0 .5 0 .5-.3 1-2.5.8-9-.1-11.7-.5zm-66.7-8.7q3.6 1 7.3 1.7h.3c1.5 0 2.7-.6 3.6-.2.5.8.4 1 .4 2l-.2 2.7c-3.8.2-8 0-11.6-.9 0-2.2 0-3.2.2-5.3"/>
  <path fill="#53a85f" d="m165.7 42 3 .1c1.3.5 5 .3 6.6.2 1 0 1.7-.2 2.5.4.8 1 .7 2.5.7 3.8 0 2.7 0 6.8.2 9.4h3.9c2.2 0 6.1 0 8.3.5l.3-.9v11.8c.2 12.8.1 26.4 0 39.1 16 2 38.8 6.7 50.4 19.2 2.7 3 4.1 8.4 3.5 12.3-1.7 12.3-17.8 19.4-27.8 23.6l-10 3.8c-6.8 2.4-27.7 8.7-20.7 19.2 1 1.5 6 4.3 7.8 5 17.3 6.7 35.6 11 53 17.7a204 204 0 0 1 47.9 25c3 2.2 7.2 5.3 9.8 8l-.7 4c-1.8 13.3-5 26.6-6.8 40-1.5 10.8-4.8 22.1 2.3 32 4.6 6.3 11.8 8.5 19.2 9.9l5 1c-11.2 18.9-35.9 31.5-56.5 36.6a237 237 0 0 1-111.9-1.9c-5.5-1.4-17.3-4.5-22.1-7.2a70 70 0 0 0 24-37.7l1.2-5.5c6-1.8 12.7-5 18.1-7.4 24.7-11.4 50.5-26.3 12.7-45.7C160 243.2 117.4 234 95.3 208c-13.3-15.7-4.7-37.2 11.2-46.7 2.4-1.4 5.8-3.5 8.1-5.2l.3-.2c-5.9-.3-35.2.9-38.2-.6a3 3 0 0 1-1.4-1.8c-.2-1 .5-2.3.6-3.3.3-2 0-4 0-6V83.6C76 76 84.4 77 89.5 77h33c3.1.1 5.3 2 5.5 5l.1 44.2c0 7.5.3 15.8.1 23.2 3.8-1.4 8.5-3.1 12.3-4.2-.2-6.5-.1-13.5-.1-20.1V70.8c0-5.4-.2-11.2.2-16.5 1-3.9 4.2-3.3 7.6-3-.2-4-.8-8.7 4.5-9h7.6q1.4-.3 2.8-.3zm25.2 89q1.5-.7 3-1.7c.6-.7 1.5-1.4 1.4-2.3 0-1.9-2.8-3.4-4.3-4z"/>
  <path fill="#7bc570" d="m165.7 42 3 .1c1.3.5 5 .3 6.6.2 1 0 1.7-.2 2.5.4.8 1 .7 2.5.7 3.8 0 2.7 0 6.8.2 9.4h3.9c1.6.3 2.8.3 4.4.3 0 3.9-.4 15 0 18.5v57.8c-10 3-20.6 5.3-30.8 8-4.6 1.3-11.4 2.9-15.7 4.7-.2-6.5-.1-13.5-.1-20.1V70.8c0-5.4-.2-11.2.2-16.5 1-3.9 4.2-3.3 7.6-3-.2-4-.8-8.7 4.5-9h7.6q1.4-.3 2.8-.3z"/>
  <path fill="#53a85f" d="m165.7 42 3 .1c1.3.5 5 .3 6.6.2 1 0 1.7-.2 2.5.4.8 1 .7 2.5.7 3.8-8.6-.3-17.6.2-26-.2 0 2.4 0 7.4-.3 9.6-3.1.1-6.7.4-9.7 0-1.2-.2-1.3-.7-2-1.6 1.2-3.9 4.3-3.3 7.7-3-.2-4-.8-8.7 4.5-9h7.6q1.4-.3 2.8-.3z"/>
  <path fill="#046c3b" d="M148.2 51.3c-.2-4-.8-8.7 4.5-9-1 2.4-.7 10.7-.5 13.6-3.1.1-6.7.4-9.7 0-1.2-.2-1.3-.7-2-1.6 1.2-3.9 4.3-3.3 7.7-3"/>
  <path fill="#fefefd" d="m170 68 8.5.2c0 3.6.4 13.2-.1 16.3H170zm.1 25.2q4.2-.1 8.3.1.3 8.2 0 16.3H170zM153 68.1h8.3v16.4h-8.2c-.3-5-.2-11.4-.1-16.4m.8 25.1h7.5c0 2.5.3 14.8-.2 16.3l-.5.1H153c0-2-.3-14.9.2-16.2z"/>
  <path fill="#7bc570" d="M80.7 151q-.2-3.4-.2-7-.2-29.1 0-58.3c0-1 .1-2.5.5-3.4q1.7-.5 3.5-.6h31.9c2.4 0 5.3-.1 7.7.2l4 .2v44.1c0 7.5.3 15.8.1 23.2l-4 1.6c-5 .6-12.2.2-17.3.2z"/>
  <path fill="#53a85f" d="m124 81.9 4 .2.1 44.1c0 7.5.3 15.8.1 23.2l-4 1.6z"/>
  <path fill="#fefefd" d="M90.5 94.3h8c-.1 3.2.1 13.5-.2 16.1h-8.1c-.1-2.2-.4-15 .3-16.1m-.3 23.8 8.2.1v16h-8.2q-.5-8 0-16m16.8-.1h8.6l-.1 15.8-8.2.1zm.3-23.9 8 .2v16h-8.1c0-3.1-.3-13.4.1-16.2"/>
  <path fill="#046c3b" d="M187 74.7c.2-2.4.1-5.5.4-7.6.3 4.6 0 10.7 0 15.4v36.1c0 2-.3 12 0 13 1 .2 1.5.3 2.6.3.7-1.6.2-9.8 1.2-11.8 3.4-.5 15.2 10.1-1.5 15.5-11.5 3.7-24.5 6.6-36.2 10-66.8 17-86.9 56.3-12.5 87 19.3 8 45.7 17 63 29 8.8 6.5 13.1 18.8 5 27.6-11.8 12.8-35.4 21.9-51.4 27.7l1.2-5.5c6-1.8 12.7-5 18.1-7.4 24.7-11.4 50.5-26.3 12.7-45.7C160 243.2 117.4 234 95.3 208c-13.3-15.7-4.7-37.2 11.2-46.7 2.4-1.4 5.8-3.5 8.1-5.2l.3-.2c-5.9-.3-35.2.9-38.2-.6a3 3 0 0 1-1.4-1.8c-.2-1 .5-2.3.6-3.3.3-2 0-4 0-6V83.6C76 76 84.4 77 89.5 77h33c3.1.1 5.3 2 5.5 5l-4-.1c-2.3-.3-5.2-.2-7.6-.2h-32c-1 0-2.4.3-3.4.6q-.6 1.7-.5 3.4-.2 29.1 0 58.3 0 3.6.2 7l26.2.2c5.1 0 12.3.4 17.3-.2l4-1.6c3.8-1.4 8.5-3.1 12.3-4.2 4.3-1.8 11.1-3.4 15.7-4.6 10.2-2.8 20.7-5 30.8-8zm3.9 56.3q1.5-.7 3-1.7c.6-.7 1.5-1.4 1.4-2.3 0-1.9-2.8-3.4-4.3-4z"/>
  <defs>
    <linearGradient id="a" x1="387.1" x2="650.4" y1="372.2" y2="374.6" gradientUnits="userSpaceOnUse">
      <stop offset="0" stop-color="#006f3a"/>
      <stop offset="1" stop-color="#348a4d"/>
    </linearGradient>
  </defs>
  <path fill="url(#a)" d="M649.5 521c-2.3-1.6-5.5-4.7-8-6.4-6.7-5-13.7-11-20.5-15.7a424 424 0 0 0-67-36.4c-28.8-13.2-60-22.4-90.2-32.3-18.4-6-37.1-11.5-54.8-19.2-11.6-5-23.7-13.8-22.6-28 .3-3.6 2.4-10.2 4.9-12.8 19.2-20 49.7-24.5 74-35.8a144 144 0 0 0 36.6-21.4c15.1-13 17.3-29.7 2.7-44.1-18-18.2-46.5-24.8-70.7-30.6-4.6-1.1-24-2.8-26.2-5.4a473 473 0 0 1-1-49.4c.2-11.5-.7-34.2.1-45l1 5.2c.5 27 .3 56.1.1 83.3 34.1 4 82.8 14.2 107.5 41a35 35 0 0 1 7.6 26.3c-3.9 26-38 41.3-59.4 50.2a426 426 0 0 1-21.5 8.2c-14.4 5.1-59 18.5-44 40.9a54 54 0 0 0 16.6 10.6c37 14.4 76 23.5 113 37.9 36 14 71.1 30.2 102.3 53.3 6.4 4.7 15.4 11.3 21 16.9z" transform="scale(.469)"/>
  <path fill="#046c3b" d="m319.1 326 5 1c-11.2 19-35.9 31.6-56.5 36.7a237 237 0 0 1-111.9-1.9c-5.5-1.4-17.3-4.5-22.1-7.2 1.3-1.3 2.3-2.2 3.9-3.4 2.5.6 5.6 1.7 8.2 2.5a238 238 0 0 0 119.9 5c18-4.2 43.5-16 53.5-32.6"/>
  <path fill="#fefefd" d="M218.1 323a86 86 0 0 1 11.9 4.4c-2.8 2-24.8 15.3-27 15.5-3.2-1-10-3-12.5-4.4q6.4-3.9 13.2-7.5zm35.3-26.4 12.3 2.8a85 85 0 0 1-20.6 18.3c-1.6.4-10.6-3.1-12.5-4 1.9-1.6 5.6-4 7.7-5.6 5.2-3.8 8.8-6.8 13-11.5m14.7-33.4h.9c1.4 1.7 2.1 4.1 2.8 6.1a27 27 0 0 1 .6 17.5l-8.5-.7-4-.4c1.5-9.4.9-11.8-1.9-20.9q5-1 10.1-1.6m-31.5-27.8c4.7.8 20 12.2 23.9 16.4-2 .8-5.7 1.8-7.9 2.4l-2.8.9c-8.4-7.2-12.4-9.3-21.5-15zm-43-19.3a285 285 0 0 1 29.1 12c-1.2 1-5.4 3.1-7 4-.9.5-1 .6-2 .9-1.2-.4-10.3-4.4-12.3-5.3-4.2-1.9-11.3-4.3-15-6.4 1.6-1.4 5.4-4 7.2-5.2m-40.7-16.6c.7 0 24.2 10.1 25.7 11q-3.7 2.2-7.5 4.7h-.3a125 125 0 0 1-25.5-11.9q3.9-1.7 7.6-3.8m-24.1-20.3q4.4.1 9 .5c-.2 7.3 1 8.3 6.1 13.6l-2.2.8q-3.2.9-6.4 2.1c-6-4.6-7.9-9.6-6.5-17m22.4-19.5c1.3-.2 5.1 2.7 6.4 3.6-2.7 1.7-6.2 3.2-9 4.9-1.8 1.2-6 5.3-7.6 5.5l-7.2-2.3a60 60 0 0 1 17.4-11.7m57.5-23.4c1.8 1 2.7 1.7 4.2 3.1a68 68 0 0 1-20.5 10.5c-.8.3-1 .4-1.7.2-1.2-.8-1.8-2.5-2.5-3.8 4-1.9 8.4-3.4 12.4-5.4q4.2-2 8-4.6M179.7 149c1 .2 3.2 3.3 3.9 4.2-4.3 2-13.4 5-18.4 6.8l-4.3-4.4c5.2-2 13.5-5 18.8-6.6m11.5-36.6c3.7.3 18.8 3.7 19.3 7.5l-.6.7c-1.2.7-1.4 1.1-2.8.6-5.3-1.9-10.2-4.8-15.6-6.1zm22.8 10.5c4.2-.7 7 11.4 1.6 11.3q-2.2-.8-4.3-1.2l.4-1.8c.8-3 .3-4.8-1.3-7.4z"/>
  <path fill="#f7ce3f" d="M80.5 230.8c17.7-3 36 1.2 50.6 11.7a70 70 0 0 1 28 44.7c1 5.8 1.2 18.5-.3 24.2l-1.2 5.5a70 70 0 0 1-24 37.7 67 67 0 0 1-49.5 13 70 70 0 0 1-35.3-14.4A67 67 0 0 1 23 308.4a69.4 69.4 0 0 1 57.5-77.6"/>
  <path fill="#875805" d="M80.5 230.8c17.7-3 36 1.2 50.6 11.7a70 70 0 0 1 28 44.7c1 5.8 1.2 18.5-.3 24.2l-1.2 5.5a70 70 0 0 1-24 37.7 67 67 0 0 1-49.5 13c-.2-.9-1.3-1.2-2-1.5-1.1-1-2.6-1.9-3-3.2a61 61 0 0 0 26.5-.7 64 64 0 0 0 38.2-28.1 67 67 0 0 0 8-51 65 65 0 0 0-28.4-39.6c-3.4 2.5-9.3-2.5-12.6-3.5q-3.3-1-6.8-1.7c1 0 2 .1 2.3-.9-.7-1-1.3-1-2.4-1.9l-.1-.1c-5.8-1.8-14-1.5-20-1q-1.5.2-2.6-.5c-.6-1.1-.3-1.4-.3-2.7z"/>
  <path fill="#faf0bb" d="M103.8 235.4c6 1.3 14.4 4.7 19.6 8.1-3.4 2.5-9.3-2.5-12.6-3.5q-3.3-1-6.8-1.7c1 0 2 .1 2.3-.9-.7-1-1.3-1-2.4-1.9z"/>
  <path fill="#c28609" d="M84 367.5a70 70 0 0 1-35.2-14.3A67 67 0 0 1 23 308.4a69.4 69.4 0 0 1 57.5-77.6l.4.4c0 1.3-.3 1.6.3 2.7q1.1.7 2.7.5c-4.4.9-7.9 1.3-12.2 2.6a65.2 65.2 0 0 0-18.2 115c2.9 2.4 6.3 3.8 9.7 5.4.7.3 2.8 1.3 3.3 1.7 4.8 2 7.8 2.3 12.5 3.7.5 1.3 2 2.3 3.1 3.2.7.3 1.8.6 2 1.4"/>
  <path fill="#926302" d="M66.5 359.2c4.8 2 7.8 2.3 12.5 3.7.5 1.3 2 2.3 3.1 3.2-5-1.3-12-1.3-15.6-6-.3-.4-.1-.4 0-1"/>
  <defs>
    <linearGradient id="b" x1="174.2" x2="75.4" y1="628.9" y2="568.3" gradientUnits="userSpaceOnUse">
      <stop offset="0" stop-color="#faf6c8"/>
      <stop offset="1" stop-color="#fbfcf4"/>
    </linearGradient>
  </defs>
  <path fill="url(#b)" d="M179 500c12.7-1 30-1.6 42.4 2.2l.4.2c2.1 1.8 3.4 1.8 5 4.1-.8 2.2-2.9 1.9-5 2a202 202 0 0 0-38.7-1.7c-21 1.8-43.6 9.6-60.9 21.8-30 21.2-50.8 50-57.8 86.3A133 133 0 0 0 103 737c1 1.8 2.2 3.2 2.2 4.9-2 .4-1.3.3-3.4-.2a139 139 0 0 1 51.1-236c9.3-2.8 16.7-3.7 26-5.6" transform="scale(.469)"/>
  <path fill="#faf0bb" d="M48.3 345.5c1 .9 5.3 4.6 5.9 5.5-.4-.2-.3-.2-.5-.1q0 .7-.2 1.2a62 62 0 0 1-5.8-4.5c1 .3.7.3 1.6.1q-.2-1.1-1-2.2"/>
  <path fill="#f7ce3f" d="M62.7 345.5a57 57 0 0 1-20.6-22.3 57 57 0 0 1-2.5-41.8 54 54 0 0 1 69.2-33.2 50 50 0 0 1 26.1 21.5q.7 1.4 1.6 2.6c.3-1 0-1 .7-1.3 2 1 4.6 8 5.3 10.1 13.1 38.3-18.5 81-60 74-5.6-.9-17.8-3.6-21.1-8.4l-.1-.6c.5-.6.4-.4 1.4-.6"/>
  <path fill="#c28609" d="M108.8 248.2a50 50 0 0 1 26.1 21.5q.7 1.4 1.6 2.6c.3-1 0-1 .7-1.3 2 1 4.6 8 5.3 10.1 13.1 38.3-18.5 81-60 74-5.6-.9-17.8-3.6-21.1-8.4l-.1-.6c.5-.6.4-.4 1.4-.6a55 55 0 0 0 23.7 7.6q1.3.1 2.5-.4c-1.7.1-4.7.8-4.3-2.3l.4-.3c1.4.3 1.8.4 3.2 0l7.2-.1c35.2-3.2 53.9-42.2 40.5-73.2-5.9-13.5-16-21-29.3-26 1.3-.6 1.9-1.1 2.2-2.6"/>
  <path fill="#faf0bb" d="M136.5 272.3c.3-1 0-1 .7-1.3 2 1 4.6 8 5.3 10.1 13.1 38.3-18.5 81-60 74-5.6-.9-17.8-3.6-21.1-8.4l-.1-.6c.5-.6.4-.4 1.4-.6a55 55 0 0 0 29.5 7.8 53 53 0 0 0 47.8-36.5 58 58 0 0 0-3.5-44.5"/>
  <defs>
    <linearGradient id="c" x1="90.1" x2="227" y1="588.7" y2="654.7" gradientUnits="userSpaceOnUse">
      <stop offset="0" stop-color="#7e5702"/>
      <stop offset="1" stop-color="#b07602"/>
    </linearGradient>
  </defs>
  <path fill="url(#c)" d="M133.8 737c-19.5-13.5-33.2-25.8-44-47.5a122 122 0 0 1-5.3-89.2c10.3-29 31.6-52.9 59.3-66.4a115 115 0 0 1 88.2-4.4c-.6 3.1-1.8 4.3-4.6 5.7a104 104 0 0 0-47-3.5c-11.2-2.7-30.7 5.6-40 11.3a110 110 0 0 0-44.6 52c-1.7 4-6.5 15-5.2 19-1.2 8.8-2.6 18.2-2.6 27.2-.4 53.3 41 97.5 93.1 105l7 .8c-3 .7-3.8.5-6.7 0l-1 .5c-.8 6.6 5.7 5.2 9.2 5-1.8.7-3.2.6-5.2.7-14 .6-38.5-8.9-50.6-16.1" transform="scale(.469)"/>
  <path fill="#c28609" d="M42.5 287.8c-.6-1.9 1.6-7 2.4-8.8a52 52 0 0 1 21-24.4c4.3-2.7 13.4-6.6 18.7-5.4-4.5 1-9.2 3-13.4 4.8l-.2-.1c.5-.4 6.2-3 6.7-3-2.4-1.5-12.3 4.5-15.3 6.6a52 52 0 0 0-17.2 22c-.5 1.2-2.4 8-2.7 8.3"/>
  <path fill="#fefefd" d="M64.3 288.4c1.5-4.4 2.7-7.6 5.4-11.5a31 31 0 0 1 30.1-13c3.6.6 13.2 3.6 15.4 6.6l.4-.5c6 .3.7 9-1.5 10.8-1.3 1-3-.2-3.8-1.3q0-.3.2-.3c-1-1-4.4-2.8-5.8-3.2-2 .7-1.7-1.3-3.6.5h.2l2.8.4v.2h-.4c-8.8-1.9-19.4 2.1-22.7 11-1.3 0-3.5 0-4.8.2 4.7.3 25.8-.4 28.7.6l.2.5c1-2.2 3.9.5 3.8 1.7 0 2.3-.8 7.4-3.6 7.5a556 556 0 0 1-27.4 0v5.2c5.3.3 11.2 0 16.7.2 1.7 0 6-.2 7.4.1l.2.6.3-.6c1.7-.5 3.3.7 3.7 2.2s-.3 7.7-2.3 7.9q-4.3.2-8.7.1l-14.3.2c1.6 2.9 2.4 3.7 4.7 6 .8.7 2.8 2.1 2.9 2.8l-.1.4c8.8 3.2 14.2 0 22-3.6.3-.2.8.4 1 .6l.5-.8c.8-.2 2-.4 2.6 0 2.3 1.5 3.8 7.2 4.7 9.6-3.8 4.7-11.6 7-17.3 7.7-2.4.2-7.8-.2-9.7-1.8.2-.3 0-.2.3-.4-2.8-.8-5.5-.7-8.7-2-11.8-5-14.8-10.3-19.5-21h-9.2c0-3 .3-5 .6-7.8l7.4-.1-.2-7.5h-8.1q.1-4 1-7.9c3 0 5.5 0 8.5-.3"/>
  <path fill="#c28609" d="m102.2 304.7.3-.6c1.7-.5 3.3.7 3.7 2.2s-.3 7.7-2.3 7.9q-4.3.2-8.7.1l-14.3.2c1.6 2.9 2.4 3.7 4.7 6 .8.7 2.8 2.1 2.9 2.8l-.1.4c-5.6-2-10.2-6-12-11.7 7.5.3 16.8 0 24.5-.1q1-3.4 1.3-7.2m9.3 16 .4-.8c.8-.2 2-.4 2.6 0 2.3 1.5 3.8 7.2 4.7 9.6-3.8 4.7-11.6 7-17.3 7.7-2.4.2-7.8-.2-9.7-1.8.2-.3 0-.2.3-.4 8.5.5 15-1.7 22-6.4z"/>
  <defs>
    <linearGradient id="d" x1="195" x2="194.8" y1="616.8" y2="646.5" gradientUnits="userSpaceOnUse">
      <stop offset="0" stop-color="#a16603"/>
      <stop offset="1" stop-color="#c58205"/>
    </linearGradient>
  </defs>
  <path fill="url(#d)" d="M224.2 617.4c2.2-4.7 8.2 1 8.1 3.7-.1 4.8-1.6 15.7-7.7 15.9a1185 1185 0 0 1-58.3.1l-.3 11-7.5-.3c-.5-5.5-.1-9.4.3-14.8 19.3.6 42.2 0 61.9.1 1.8-5.1 2.6-10.3 3.5-15.7" transform="scale(.469)"/>
  <path fill="#c28609" d="m76.2 288.3.7-1.7c5.2-11.4 16.3-16 27.8-10.6-2 .7-1.7-1.3-3.6.5h.2l2.8.4v.2h-.4c-8.8-1.9-19.4 2.1-22.7 11-1.3 0-3.5 0-4.8.2m39-17.8.4-.5c6 .3.7 9-1.5 10.8-1.3 1-3-.2-3.8-1.3q0-.3.2-.3c1.2-1.5 3.8-6.8 4.7-8.7"/>
  <path fill="#7bc570" d="M256.2 51.8c.4-9.2 2.3-16.4 9.4-23a23 23 0 0 1 17.1-6c15.1 1 22.4 15.7 22.4 29.3 2.9 1 6.7 5 8.4 7.4 7.4 10 9 24 5.2 35.7a34 34 0 0 1-31.5 23.2c1 11.7 0 24 2.4 35.6.3 1.6 1.3 4.8.5 6.1-1.7.8-7 .3-9 .3-2.3 0-8.6.6-10.2-.5-.8-1.7 1-4.4 1.2-6.6 1.5-11.6 1.8-23.3 2.5-34.9-10.3-.7-18-3-25.2-11-12.6-14-12-40 2.3-52.5q2.1-1.8 4.5-3.1"/>
  <path fill="#046c3b" d="M256.2 51.8c.4-9.2 2.3-16.4 9.4-23a23 23 0 0 1 17.1-6c15.1 1 22.4 15.7 22.4 29.3 2.9 1 6.7 5 8.4 7.4 7.4 10 9 24 5.2 35.7a34 34 0 0 1-31.5 23.2c-.2-2-.6-6.9-.2-8.7l.2 4.2q3.5-.1 6.8-1c17.4-4.4 25.3-23.7 21-40.1a27 27 0 0 0-14-18.2c-.2-8-1.2-15.4-7-21.6-7-7.6-18.5-7.5-25.8-.2-6.2 6.2-7.6 13.2-7.7 21.6-2 1.3-4.5 2.7-6.2 4.4-16.3 15.4-10.7 49 12.9 53.9q3.7.6 7.4.6v-5.6c.1 1.5.4 9.6 0 10.7-10.3-.7-18-3-25.2-11-12.6-14-12-40 2.3-52.5q2.1-1.8 4.5-3.1"/>
  <defs>
    <linearGradient id="e" x1="650.7" x2="561.7" y1="227.9" y2="264" gradientUnits="userSpaceOnUse">
      <stop offset="0" stop-color="#4e4005"/>
      <stop offset="1" stop-color="#8d6c2b"/>
    </linearGradient>
  </defs>
  <path fill="url(#e)" d="M590.8 210.1v-.4c2-9.5-1.8-43.6 5.4-48q1.8-1 3.8-.4 2.8.8 4.2 3.4c2.4 4.7 2 36.3 2.1 43.6 7-6.4 16.5-27 24.1-27.9 6.9 1.7 2.7 8.2.5 11.7q-6.2 9.8-11.8 19.8c-3 7-6.3 14.5-6.8 22.2-.9 3.8 0 14.3.4 18.6 2.3 25 0 51 5.1 75.9.7 3.3 2.8 10 1.1 13-3.7 1.6-15 .7-19.4.7-4.8 0-18 1.1-21.6-1.3-1.6-3.5 2.1-9.3 2.7-13.9 3-24.8 3.7-49.7 5.3-74.5.8-2.5.2-19.7-.2-22.8-.3-7.6-4.4-14-7.9-20.7 1.2-1.8.4-1.1 2.5-1.9 5.7 1.6 14 18.6 11.5 24.8-.4 1 .4 2.6.5 4 .8-4 .5-18.5.2-23-1-1-1.4-1.4-1.7-2.9" transform="scale(.469)"/>
  <path fill="#122104" d="M270.9 98c.5-.8.1-.5 1.1-.9 2.7.8 6.5 8.7 5.4 11.6-.2.5.2 1.3.3 2l-2 45.9q5.3 0 10.4-.2c-.2-3.5-1-7.2-1-11-.5-12.9-2-26.8-1.2-39.6 0-.9 4-6.4 4.8-6.9 1 0 .6-.1 1.5.4-1.4 3.3-3 6.8-3.2 10.4-.4 1.8 0 6.8.2 8.7 1 11.7 0 24 2.4 35.6.3 1.6 1.3 4.8.5 6.1-1.7.8-7 .3-9 .3-2.3 0-8.6.6-10.2-.5-.8-1.7 1-4.4 1.2-6.6 1.5-11.6 1.8-23.3 2.5-34.9.4-1.1.1-9.2 0-10.7-.2-3.6-2.1-6.5-3.7-9.7"/>
  <path fill="#4c3d04" d="M270.9 98c-1.7-3-7.3-11-6.7-12.9 2-6.3 12 11.7 12.7 13.4.2.7.3.8.8 1.4.2 2 .3 8.9 0 10.7-.1-.6-.5-1.4-.3-1.9 1.1-2.9-2.7-10.8-5.4-11.6-1 .4-.6 0-1.1 1"/>
  <path fill="#046c3b" d="M160.3 42.2c0-5.4-.3-11.6.3-16.9.4-3.5 8.5-5 8.1 1.5-.2 4.6.5 10.8 0 15.3l-3-.2-2.6.1z"/>
  <path fill="#37752c" d="M163 42c.1-2.4-.4-15.5 1-16.8q.5-.3.9-.2.9.4 1 1.5-.5 7.8-.2 15.4z"/>
  <path fill="#046c3b" d="M175.3 42.3c5.6-.2 7.7.6 7.7 6.7v2.7c3.8-.1 7.4-1 8.2 3.8l-.3 1a29 29 0 0 0-8.3-.6h-4c-.2-2.6 0-6.7 0-9.4-.1-1.3 0-2.8-.8-3.8-.8-.6-1.5-.4-2.5-.4"/>
</svg>
