<svg xmlns="http://www.w3.org/2000/svg" width="1008" height="680" viewBox="57 100 1008 680">
  <path fill="#011722" d="M698.5 103q2.7-.1 5.3-.1c20.1.3 33-4.7 40.3 18q7 2.5 13.6 5.5c49.6 23.2 28.8 94.9 10.6 132 5.9 19.9 11.8 37.8 18.7 57.4 5.2 14.7 8.8 28 14.7 42.7 2.8-5.5 5.7-15.3 7.7-21.4a33 33 0 0 1-10.3-12c-14-28.1 26.8-49.9 49.8-42.3 15 5 14.1 39 9 51.7-7 17.5-26.4 12.8-40.2 7-2.4 12.1-4.3 18.6-13.2 27 2.1 6.5 4.9 13.8 7.2 20.4a191 191 0 0 1 71.6-12.9c16.2 2 40.1-.2 53.2 10.3 5.6 4.5-2.4 11.4-6 14.3a119 119 0 0 1 17.2 5.4c53.7 20.5 93 70.7 108 125.2a203 203 0 0 1-20 154 178 178 0 0 1-106.9 84.7 189 189 0 0 1-141.6-17c-48.5-27.2-75.3-67.8-90-120.3-1.3 1.5-3.3 4-4.9 5-4.2 3-8.5-.2-9.8-4.5a178 178 0 0 1-5.3-52c0-30.6 9-58 20.4-85.8-7.3 8.5-15 19.6-22.3 28.5a255 255 0 0 1-90.1 73.7 71 71 0 0 1-.6 35.4 64 64 0 0 1-33.7 40.2l8.3 25c14-.4 31.7-3.9 29.6 16.8-.3 7.1-2.7 13.5-10.9 14.2-12.4 1-24.6.6-37.2.6-11.3 0-23.7 1.3-23.9-14 0-13 2.2-17.2 16-17.7l-6.6-18.6c-20.7-.9-30.6-3.5-50.8-9q-18.2-4.7-36.3-10c-7.9 27.6-35.2 61.5-58 78.5-44.2 33-92.5 43-146.4 36l-4-.7C120.9 753.8 57.3 654 78 545.5l-1.2.8c-28.3 20.4-12.2-21.5-8.4-32-3.7-2.5-7.8-5.7-8.6-10.4-1-9.8 3.5-24.5 8.2-33 5.7-10.2 14.7-10.6 23.7-4.8a204 204 0 0 1 81.5-73.9c-4.4-11.7-9.5-23-14-34.5q-9.3.2-18.5-.1c-4.7-.3-9.5-3.1-10-8-.6-5.8 8.5-8.1 12.8-8.2l29.8.1h124.4c16.8 0 38.2-1.3 55 2 2.4.4 7 8.8 9.8 11.3l41.2 37q9.5-9 18.8-18.2c-8-8-12.8-16-3.2-25.5-6.6-19.5-11.9-40.4-17.6-60.4-11.2-.4-12.9-3.4-16.8-13.4-19.4 8.4-39.1 8.4-42-17-10.5-3-20.4-7.9-21.7-20-2-17.2 8.5-33.4 26.8-34 10.8-.3 21.1 2.2 31.7 4q11.8 1.8 23.8 2.4c22.5 1 43.8-2 67.4-.8 17.7 1 29.8 21 18.9 35.8-6.6 8.8-31.2 6.8-42.5 6.7-10.1 7.5-10.2 9.7-23.1 15 5.1 8.8 5.3 16 8.3 26l14.6 48.2.3.1.6.3c13.4 4.5 6.3 13.5 9.3 24.2l44.9 154c18.2.4 34.9.9 52.7-3.8a117 117 0 0 0 46.6-24.5c19.1-16.5 38.8-45.5 53.3-66.6 29.7-43.4 55.6-88.8 82-134.1q-2.2-7-4.8-13.9c-2.5-6.8-7.3-14.4-7.3-21.7 0-4.9 1.7-7 5-10-3.7-12-12.7-34.5-11.5-46.2 1-10.1 14.5-32.9 19-43.4-10.3 7.8-17.6 13.6-30.8 13.7s-18.2 7.2-28.4 12.6c-2.7 1.5-8.5-5.6-4.6-9.7 9.4-10 24.6-12.2 37.5-14-2.5-9-2.7-8.9-12-7.4-2.7-1.7-3.1-2.2-5.3-4.6l-32.4.1c-14.2.1-35.7 3.2-36.1-17.7-.5-25.4 21.5-21.9 39.3-21.6h29c1.9-1.6 3-2.2 5.1-3.4M300.8 590a13 13 0 0 1-4.2 2.7l-.2.3.4-.2.1 1 .2-1.2 1.3 1.5c48.5 9.7 97.3 18.4 146 27.1 5.3 1 13.2-2.3 10.6-8 3.6-5.1 5-15.3.2-20-4-3.8-12.3-5.4-17.7-6C387 582 336.3 572 285.3 573.9c-7.7.3-14.9 1.2-22.5 1 11.5 13.5 20.5 11.5 38 15.2M754 491.3c12 7.8 30.4 22.7 42.3 31.3 9 6.4 38.9 28.4 44.4 35-13.8-7.7-36.8-25.7-49.7-35.4-11.4-8.6-27.8-20-38.6-28.7a182 182 0 0 0-22.7 53.8c23.4 5.5 46.6 11.6 70.2 17.2l34.3 8.2c3.7.9 12.1 2.7 15.4 4.2 0-3 2-6 3.4-8.7a660 660 0 0 1-60.1-115c-16.1 8.9-28.1 23.5-39 38.1m-617.7-1.6-1.3 2q-12.5 18.5-19.5 39.9c-1.7 5-2.7 10-4.2 14.8 35 8 69.7 17.5 104.9 24.7 3.4.7 7.8 1.5 10.7 3 .3-5 2.9-9 5.5-13.3l1.3-1.6c2.7-3.2 5.4-5.1 8.8-7.5-16.2-37.5-32.7-74.3-48.5-112-4.1 1.8-6.9 3.5-10.7 5.7l-1.5 1c-19 12-32.7 25-45.5 43.3m158.9 249.4 1.6-.5a158 158 0 0 0 55.6-23l.9-.7c17.9-10 32-31.2 43.6-46.6l.3-1.3a97 97 0 0 0 8-15.9c-15.5-3.6-32-9-47.5-12.2-1.5-.8-2.8-.7-4.6-.9-2.5-1.3-10-3.2-13.1-4a685 685 0 0 0-45.6-11l-2.2-.7c-3.3 0-12.6-2.4-18.2-2.5l-1.7-.6c-2.7.2-12.2-1.6-15.3-2.1l-1.8-.5c-4.9-1.3-8-2.6-12.6-4.5l-1-.9a53 53 0 0 1-9.1-8l-1-1.7c-2.8-3.9-4-8.4-5.4-12.9-5 2-22.4 5-28.6 6a3066 3066 0 0 1-56 9.7c-9.1 1.5-23.6 3.4-32 5.4 4.1 19.4 9.4 39.2 20.5 56l1 2c12 19 25.3 33.7 43.9 46.5l1.6.8c17.5 11 33.7 19 54.2 23.4l.6-.4 1.7 1.2c5 0 15.7 2.2 22 2.7 14.9 1 25.5-1 40.2-2.8m-40-193.7q4.6-.7 9.2-1c3.5-4 7-8.6 10.4-12.7l1.7-2c24.4-25.8 46.8-55.8 72.3-81.6a145 145 0 0 0-53-22.8h-1.4c-16.9-5.5-41.8-3.2-59-.2l-2.1.3q-13.5 3-26.5 7.4c10.2 26.5 22.3 52.5 33.4 78.6 1.6 3.7 11 25.8 12.6 27.8l.7.3c-.2 2.2.8 3.9 1.8 6m309 16.3c2.8 2.9 5 5.2 7.7 8.3 16.2-8.7 29.1-16 43.3-28.1 25.6-21.8 46.2-49.8 65.7-77a7192 7192 0 0 0 46.7-65.8c9.7-13.8 20.6-30 30.8-43.2-2.4-7.3-5.3-17-8.4-23.7a1637 1637 0 0 1-49.3 81.1c-22.8 35.7-50.8 80.5-83.5 107.1a139 139 0 0 1-71 30.1c7.8 4 11 5.6 18 11.2m-149.6-16.1a154 154 0 0 0-20.7-50.7l-.8-1.5c-6.8-9.5-13.7-19-21.9-27.4-23.5 26.2-46.3 54.3-69.7 80 6.5-.2 14.6-.6 21-.3l2.1-.1c21-.4 43 1.5 64.1.6 8.7-.4 17.2.3 25.9-.6m455.2 65.6c-2.4-.6-6-2.3-8.3-3.4-2.8 6.5-15.5 24.8-20.1 32l-31.5 49.3c-3.7 5.7-13.2 21.1-17.5 25.7 13.7 10.3 31 16.7 47.3 21.3 2 .6 4.8 1.2 6.7 2 1-10.8 4-22 5.7-32.7 4.9-31.4 13.2-63 17.7-94.2M728 129.4c-.2 2.2-1 6.5.3 8.4 3.4 4.7 21.8-1.4 30.5 15.3 1.8 3.5 2.9 7.1 2.5 11.2-.3 4.7-2.8 9.4-5.2 13.5-3.3 5.4-7.4 10.8-9.8 16.6-4.6 11.4 4.2 30.2 8.1 41.6 6.5 2.4 6.5 3 8.4 9.6l.7.5c1.1-1.9 1.6-3.3 2.4-5.3q9-23.6 11.8-48.5c1.6-15.7.7-32.8-9.9-45.4a56 56 0 0 0-39.8-17.5m-267.6 404 2 12.3 11.1-.2c-4.8-17.2-37.6-134.7-42.3-141.1a684 684 0 0 0-25.6 25.7c27.7 30.6 46.8 62.2 54.8 103.2M776 405.7c-.8-2-5.8-15.8-6.2-16.2-4 5.7-7.2 11.7-11 17.5q-7.8 11.8-16 23.2l4.2-3.2c11-10.2 16.9-13 29-21.3m-600.4-48q5.4 14 11.2 28c37-13.5 71.7-20.1 111.2-12.8 3.2.6 5.9 1 9 2 1.8-5.9 3-11.3 4.3-17.2q-67.8-.6-135.7 0m719.6 248c3.7 4.7 9 14 12.5 19.5a2472 2472 0 0 1 26 42.4c8.5 14 22 33.3 29.2 47.5 20.9-16.8 26.4-23 41.5-45.4-8.5-4-26.7-16.9-35.2-22.7a7670 7670 0 0 1-68.3-47.1c-1.4 1.5-4.2 4.5-5.7 5.7M318.3 377.4a162 162 0 0 1 57.4 27.5c1.9 1.5 7.4 6 9.5 5.7l1.6-1.9 8.3-8.5q-25-21-49.5-42.8h-21.8q-2.6 10.1-5.5 20m707.2 173.2c-16.5 4.3-34.8 7.8-51.6 11.8q-22.4 5.3-44.9 10.3c-7 1.6-16.1 4-23.1 5.2 0 2.9.3 5.7 0 8.6 40.1 6.4 80.6 15.6 120.9 22.9 3-22.8 2.5-36.5-1.3-58.8m-120.3 24.8c17-3.3 34.6-7.5 51.6-11.4q34.2-7.5 68.3-16c-.7-1.4-3.4-12.4-4.4-15.5q-6.7-20.8-18.4-39.3c-25 16.4-49 36.5-73.4 53.8-7.4 5.3-20.2 15.7-27.3 19.8 1.4 2.5 3.2 5.7 3.6 8.6m-679 .3c-21.3-5.5-43.3-9.9-64.6-15-16.9-4-33.4-8.3-50.3-12-4.4 9.9-4.5 47.4-1.8 59 7.7-.7 23-3.9 31.2-5.3q27.7-4.5 55.6-9.4c9.7-1.7 20.3-4.5 30-5.8-1.2-3.2-.5-8.1-.2-11.5M827 435c5.1 15.5 26.4 78.6 36.1 90.2-4.6-24.9-8-50.3-12.9-75.2-1.3-6.9-2.2-13.9-3.8-20.7-6 1.5-13.5 3.5-19.4 5.7m17.9-98.4c6.2-10.2 12.4-39.8-2-45.4-1.9 3-3 5.3-4.2 8.6-2.5 7.6-4.6 34.8 6.1 36.8M906 738.7c-2-7-4.5-22.9-6-30.8l-12.9-70.3c-1.6-8.2-3-18-5-26-3.2.3-5.9.2-9.1.2-3.1 12.2-4.8 24.8-7.5 37a563 563 0 0 0-5.2 26.8c-3.6 21-8 41.7-11.6 62.7a148 148 0 0 0 57.3.4m2.6-.3a156 156 0 0 0 52.2-22 6003 6003 0 0 1-45.3-73c-7.3-11.7-15.4-24.4-22.1-36.4-2.8 1.6-5.8 3.3-8.9 4 5.5 25.2 9.8 51.3 14.3 76.6 2.8 15.8 8.1 35.2 9.8 50.8M906.2 428c-2.8 26.7-9.7 57.2-14.5 83.7-1.8 10.2-5.2 32.8-8 42.2 3.8 1.2 5.8 1.7 9.2 3.9 1.6-10.3 55.5-94.4 64.5-109.8a148 148 0 0 0-51.2-20M723.6 152.5c3.7-1.5 9-3.4 11.8-6.3l.2-1-1-.7c-3.4 1.4-10 3.7-12 6.5.4 1.1 0 .7 1 1.5m176.6 412.2c9.6-6.3 20.4-14.7 29.8-21.7l41.4-30.8c8-5.9 21.3-16.3 29.6-21a149 149 0 0 0-41.3-41.5l-41.5 68.4c-6.4 10.4-19.6 30.5-24 40.7 1.5 1.3 5 4.5 6 5.9m-51.4-136c4.5 25.9 9.8 51.5 13.8 77.4.8 5.6 4.1 22 4.3 26.7 2.8 5.3 6.7 17.2 11.4 20.5.3.2 3 .4 3.5.5.3-6.2 5.1-30 6.4-37l7.8-44.5c2.8-15.3 5.7-29.2 7.9-44.7-19.7-2.3-35.7-3.6-55 1.2M729.2 549.9c-4.5 22-4.7 36-2.4 58.5 28.5-3.6 57.2-10.3 85.5-14.9 10.7-1.7 26-5.5 36.5-6.2-.4-2.8 0-6 .1-8.8-12.4-2-24.8-5.6-37.1-8.3-27.7-5.9-55-14.1-82.6-20.3m130.6 56.7a40 40 0 0 1-6.2-6.4c-9.7 6-19.1 13-28.7 19.2-25.4 16.2-50.9 34-76.4 49.8A170 170 0 0 0 777 703c2.7 2.4 12.8 9.7 14 11.3 1-5.2 60.5-94.3 68.9-107.8M727.3 611c3.5 20.2 9 37.6 19.6 55.4 11-5.7 23.5-14.5 34-21.5l45.5-30c6.2-4.2 20.2-14.3 26.1-16.8-2-2.7-2.7-5.8-3.6-9-8.9 2-19.2 3.6-28.3 5.2l-65 11.7c-9.2 1.6-19.4 3-28.3 5m178.2-22c-.9 2.6-1.8 5.7-2.8 8.2 7 5.7 16.9 12.2 24.4 17.5l38 26.4c9.6 6.5 30.6 21.7 40 26.8 10.5-14.3 17.3-38.5 21.3-55.5-14.2-3.2-29.4-5.9-43.7-8.7q-38.6-7.6-77.2-14.7"/>
  <path fill="#05b59a" d="M267.5 554.3c2-1.5 4.8-4.8 6.6-6.8l4.1-.2c4-.1 5-.5 8 2.2l-3.6 5c77.2 2.2 154.5-.4 231.6.5 18 .4 32.6 2.5 46 16.1a59 59 0 0 1 16.4 38.5 54.9 54.9 0 0 1-28.7 54.4l-2.5-6.6c-1.4-6-5.2-15.8-7.4-21.7a38 38 0 0 0 7.5-12.1 30 30 0 0 0-1.1-23.5c-3.6-7.4-10-13-17.7-15.7a29 29 0 0 0-22.5 1.5 31 31 0 0 0-15 18.1 33 33 0 0 0 2.3 25.5c4.8 9.3 12.4 11.9 21.6 14.8 1.9 7.4 6.2 18.2 9 25.6-24.3-1.5-52.1-11-76-17.4L327 620.8q-21.7-5.6-43.7-9.5c-26.3-4.7-49.1-2-47.4-35.3 1.3-5.2 2.3-6.8 5.7-11 2.7-3.8 7.1-5.9 11.2-7.7l.5-.1c4.4-1.4 9.6-2.1 14.2-3m33.3 35.7a13 13 0 0 1-4.2 2.7l-.2.3.4-.2.1 1 .2-1.2 1.3 1.5c48.5 9.7 97.3 18.4 146 27.1 5.3 1 13.2-2.3 10.6-8 3.6-5.1 5-15.3.2-20-4-3.8-12.3-5.4-17.7-6C387 582 336.3 572 285.3 573.9c-7.7.3-14.9 1.2-22.5 1 11.5 13.5 20.5 11.5 38 15.2"/>
  <path fill="#3ad5b8" d="M514.2 555c18 .4 32.6 2.5 46 16.1a59 59 0 0 1 16.4 38.5c-1.2-.4-1.7-.5-2.2-1.7-2.8-6.6-4.3-13.3-8-19.5a50 50 0 0 0-45.3-27.2c-4.7-.8-13 0-18.6-.7l.8-.4 1-2.9c4 2.7 7.9 2.5 9.9-2.2"/>
  <path fill="#009683" d="M545.4 657.4c6.5-3.5 16-14.2 21.6-19.6 1.7.5 2.8.7 4.5 1A55 55 0 0 1 548 664z"/>
  <path fill="#1cc3a8" d="M521.1 561.2c-9 .4-108.4 0-110.2-.7l.5-1.3c1.4-1 2.4-.5 4.2 0 3.2 1 5 .9 8.3.8q21.7-.2 43.5 0c11.2.1 25-.6 35.9.1l-.8.4c5.6.7 14-.1 18.6.7"/>
  <path fill="#29373c" d="M267.5 554.3c2-1.5 4.8-4.8 6.6-6.8l4.1-.2c4-.1 5-.5 8 2.2l-3.6 5q-7.5 0-15.1-.2"/>
  <path fill="#3ad5b8" d="M241.6 565c2 4.6-.6 10.1-5.7 11 1.3-5.2 2.3-6.8 5.7-11"/>
  <path fill="#011722" d="M262.8 574.8c7.6.2 14.8-.7 22.5-1 51-1.8 101.6 8 152.2 13.5 5.4.5 13.6 2.1 17.7 5.9 4.8 4.7 3.4 14.9-.2 20 2.6 5.7-5.3 9-10.6 8-48.7-8.7-97.5-17.4-146-27.1l-1.3-1.5-.2 1.2-.1-1-.4.2.2-.3c1.9-1 2.6-1.3 4.2-2.7-17.5-3.7-26.5-1.7-38-15.2M415.4 601l.4-8.5c-21.5-3.1-44.8-4.8-66.6-7.6-15-2-36.5-5.4-51.4-5.7h-.4c-2-.3-6.3-1-8.2-.1 1.2.4 1.7.7 3 .7l4.3.9c12.8 2.4 27.1 4.1 40.3 6.4z"/>
  <path fill="#3ad5b8" d="M300.8 590q46.7 9.2 93.7 17.6c17.1 3.1 34.7 6.9 52 9 3.8.4 5.6-1 8.5-3.4 2.6 5.7-5.3 9-10.6 8-48.7-8.7-97.5-17.4-146-27.1l-1.3-1.5-.2 1.2-.1-1-.4.2.2-.3c1.9-1 2.6-1.3 4.2-2.7"/>
  <path fill="#424b4e" d="m423.2 593.2 10 1.3c2.2 0 1.5-.3 3 1 1.5 3.5 0 10.8-4.1 10.8-3-1-6.7-1.7-9.8-2.4z"/>
  <path fill="#12272f" d="M433.1 594.5c2.3 0 1.6-.3 3.2 1 1.4 3.5-.1 10.8-4.2 10.8.5-1.6.9-9.7 1-11.8M444 594.7c7.5 2.3 10.6 8.4 5 14.7-3.4 0-5.3.4-7.6-2-1.5-3.5 1.2-8.7 2.6-12.7"/>
  <path fill="#509096" fill-opacity=".1" d="M292.2 579.9c-1.3 0-1.8-.3-3-.7 1.9-.9 6.2-.2 8.2 0z"/>
  <path fill="none" d="M297.4 579.3h.4l-1.3 1.5-4.3-1z"/>
  <path fill="#3ad5b8" d="M400.2 558.4c2.3-.1 3.6.2 5.6 1.2v.7l-1.3.4h-6.3l-.3-.6z"/>
  <path fill="#29373c" d="M820.4 413.7c31.6-13.5 65.5-13.4 98.6-6.1a159 159 0 0 1 80 44c10.3 9.2 22.5 26 29.3 37.9a193 193 0 0 1 17.4 146.6c-26.7 96.7-119.2 150.5-216.3 123.4a175 175 0 0 1-104.9-82.9 191 191 0 0 1-.2-180c15-27.8 32.7-50.3 60.4-65.8l2.1 6.1 3.4 9c-39 26.7-60.4 62.1-70 108.7-4.2 21-4 46.8 1.1 67.7a160 160 0 0 0 69.8 101.8c36 23.2 79.8 31.1 121.7 22a153 153 0 0 0 96-67.5c5.4-8.6 10.4-18.4 14.5-27.7 17.5-38 17-87.2 3.3-126.2-30.4-85.5-115.6-127-201.5-96.5l-3.2-9c-.1-.8-1.2-4.6-1.5-5.5"/>
  <defs>
    <linearGradient id="a" x1="917.4" x2="961.1" y1="401.2" y2="664.1" gradientUnits="userSpaceOnUse">
      <stop offset="0" stop-color="#43494b"/>
      <stop offset="1" stop-color="#7e8080"/>
    </linearGradient>
  </defs>
  <path fill="url(#a)" d="M821.9 419.1c17.4-6.6 38.5-9.3 57.3-9.4 70-.3 129.8 45 153.3 110.3 16.8 46.8 14.7 88.5-4 134.8l-5.2-3.9c17.5-38 17-87.2 3.3-126.2-30.4-85.5-115.6-127-201.5-96.5z"/>
  <defs>
    <linearGradient id="b" x1="865.9" x2="887.9" y1="602.1" y2="755.7" gradientUnits="userSpaceOnUse">
      <stop offset="0" stop-color="#777"/>
      <stop offset="1" stop-color="#999898"/>
    </linearGradient>
  </defs>
  <path fill="url(#b)" d="M714.5 624.3c1.9-1.4 4.5-1.6 6.8-2a160 160 0 0 0 69.8 101.8c36 23.2 79.8 31.1 121.7 22a153 153 0 0 0 96-67.5c5.4-8.6 10.4-18.4 14.5-27.7l5.2 3.9q-3.5 8.4-8 16.3c-21.8 39-54.3 67.3-97.6 79.5A167 167 0 0 1 797 735.5c-45.5-25.7-68.9-62-82.6-111.2"/>
  <defs>
    <linearGradient id="c" x1="720.2" x2="777.8" y1="503.9" y2="554.5" gradientUnits="userSpaceOnUse">
      <stop offset="0" stop-color="#424a4c"/>
      <stop offset="1" stop-color="#606668"/>
    </linearGradient>
  </defs>
  <path fill="url(#c)" d="M714.5 624.3c-1.4-8.7-3.2-16.3-3.8-25.1-4.3-65.3 21.6-125.9 76.1-162.3l3.4 9c-39 26.7-60.4 62.1-70 108.7-4.2 21-4 46.8 1.1 67.7-2.3.4-5 .6-6.8 2"/>
  <path fill="#424b4e" d="M919 407.6a159 159 0 0 1 80 44c-5 1.7-11.8-5-15.5-7.8-12.2-9.4-25-17.9-39.3-23.8-7.3-3-15.8-6-23-9.1-1.8-.8-1.9-1.7-2.2-3.3"/>
  <path fill="#29373c" d="m429.2 657.8-1.4 3.8a165 165 0 0 1-86.3 89.1 188 188 0 0 1-143.2 4c-44-16.5-79.6-50-98.7-92.9a192 192 0 0 1-4-145.2c15.2-39.4 49.3-81.5 88.3-98.9l3.4 7.3 3.4 7.8c-35.2 15.7-65.4 51.6-79 87.1a175 175 0 0 0-6 109.2c3 10.7 6.3 17.3 9.5 26.8 5.2 9.5 10.4 19.1 16.7 27.9a166.6 166.6 0 0 0 212.8 46.5 153 153 0 0 0 61.5-62.9l6.3-14.2 5.8 1.9q5.5 1.2 10.9 2.7"/>
  <path fill="#908f90" d="M108.7 656.5c.2-1.8 0-3 1.3-4.2 2 .4 3.3 2 5.2 3.6 5.2 9.5 10.4 19.1 16.7 27.9a166.6 166.6 0 0 0 212.8 46.5 153 153 0 0 0 61.5-62.9c1.4.6 3.8 1.4 5 2-20.3 35-41.1 57.8-79.4 74.3a172 172 0 0 1-132 1 168 168 0 0 1-91.1-88.2"/>
  <defs>
    <linearGradient id="d" x1="104.5" x2="186.9" y1="492.7" y2="583" gradientUnits="userSpaceOnUse">
      <stop offset="0" stop-color="#454e50"/>
      <stop offset="1" stop-color="#757476"/>
    </linearGradient>
  </defs>
  <path fill="url(#d)" d="m187.3 425 3.4 7.8c-35.2 15.7-65.4 51.6-79 87.1a175 175 0 0 0-6 109.2c3 10.7 6.3 17.3 9.5 26.8-2-1.6-3.2-3.2-5.2-3.6-1.3 1.2-1.1 2.4-1.3 4.2l-.8-1.4c-3-5.4-6-14.7-7.9-20.6a181 181 0 0 1 0-104.6c14-47.1 44.6-81.7 87.3-105"/>
  <path fill="#424b4e" d="m412.5 653.2 5.8 1.9c-2.1 4.7-4.3 10-7 14.4-1.3-.7-3.7-1.5-5.1-2z"/>
  <path fill="#05b59a" d="m754.6 263.6 3.2-.9c3.3 2 6.4 15 7.7 19.2q4.2 14.1 8.8 28c11.2 34.3 23.2 68 35 102 9.5 27.9 17.9 56 29.2 83.2a465 465 0 0 0 18.5 38.5c3.2 6.1 7.5 14 10.2 20.3 5.2 7.7 5.3 14.3 13.3 21.3 1.7 1.3 1.8 1.4 3 3.2l.4.7c0 1.6.3 5-.3 6.5-1.8 4.3-8 9.4-11.9 4.1-3.4-4.7-4.3-11-6.3-16.5-18-29-35.4-59.3-50.2-90-6.6-13.5-12-28.4-17.5-42.5q-17.4-44-31.4-89.2c-4-13-10.1-27-13.2-40.1l-1.3.1c-.4-3.3-4-11.5-5.5-14.8l-.7-2.4 1.7-2.1c-2.1-4.5-6-18.2-7.4-23.4z"/>
  <path fill="#3ad5b8" d="m754.6 263.6 3.2-.9c3.3 2 6.4 15 7.7 19.2q4.2 14.1 8.8 28c11.2 34.3 23.2 68 35 102 9.5 27.9 17.9 56 29.2 83.2a465 465 0 0 0 18.5 38.5c3.2 6.1 7.5 14 10.2 20.3l-1.4-.3c-3.8-3.1-7-11.4-9.6-15.8-23.3-38-36.2-78.5-50-120.5l-19.4-57.9c-10.3-31-23-64.7-32.2-95.8"/>
  <path fill="#009683" d="M865.4 573.2c3.3.7 12.6 3.4 15.1 2 1.7 1.3 1.8 1.4 3 3.2l.4.7c0 1.6.3 5-.3 6.5-1.8 4.3-8 9.4-11.9 4.1-3.4-4.7-4.3-11-6.3-16.5"/>
  <path fill="#12272f" d="M883.9 579.1c-2.5 2.8-6 7.9-10.2 6.3l-.5-1.4c1-6.4 5.3-6.5 10.3-5.6z"/>
  <path fill="#009683" d="M747.3 292.2c2.3 6.5 3.7 13 5.8 19.2l-1.3.1c-.4-3.3-4-11.5-5.5-14.8l-.7-2.4z"/>
  <path fill="#05b59a" d="m745.6 294.3.7 2.4c1.4 3.3 5.1 11.5 5.5 14.8-18.9 31.8-38 65.1-58 96.3-19.8 30.7-49.5 78.8-77.4 101.4-24.3 23.6-60.2 34-93.4 34.7-4.7 0-10.4 1.6-14.6-.2-.9-1-1-1-1.5-2.3-.3-3.3-1-5.2-1.9-8.4-.4-1.6-.9-2.4-.2-4 3.3-1.6 20.7 0 26.2-.3q10.2-.6 20-2.6c20.1-4.2 38.8-13.3 54.7-26.3 21.9-18 46.3-54.1 62.3-78.2q27.4-41 52.3-83.5c7.7-13.2 17.3-31.6 25.3-43.8"/>
  <path fill="#3ad5b8" d="m745.6 294.3.7 2.4c-4.7 21-28.8 56.5-40.8 75-26.2 40.4-54.2 87-86.6 122.8a95 95 0 0 1-19.5 16.6 148 148 0 0 1-94.4 22c-.4-1.7-.9-2.5-.2-4 3.3-1.7 20.7-.1 26.2-.4q10.2-.6 20-2.6c20.1-4.2 38.8-13.3 54.7-26.3 21.9-18 46.3-54.1 62.3-78.2q27.4-41 52.3-83.5c7.7-13.2 17.3-31.6 25.3-43.8"/>
  <path fill="#009683" d="M507 541.4c4.6-1.1 14.9-1.1 20.2-1.4 13.4-.9 27-3 39.8-7.1q11.4-3.9 22.2-9.3c6.5-3.4 21.1-13.5 27.2-14.4-24.3 23.6-60.2 34-93.4 34.7-4.7 0-10.4 1.6-14.6-.2-.9-1-1-1-1.5-2.3"/>
  <path fill="#c48752" d="M332.5 226.1c3-8.5 7.9-12 16.9-11.7 18.6.3 36.7 5 55.3 5.8 19.3.9 38.5-1.4 57.8-1.5 6.2 0 13.3.8 17.8 5.5 1.8 2.2 2.6 3.7 3.3 6.5-.1 1.9-.2 5.3-1.5 6.7-3.1 3.4-13.3 3.8-17.5 3.8-7.9.4-17.9-.6-25.5 1.3-26.3 6.6-46.5 16.5-74.7 9.9-12-2.9-20.5-3.2-31.3-12-2-4.6-1.9-6.4-1.8-11.3z"/>
  <path fill="#a36934" d="M333.1 240.5c-2-4.7-1.9-6.5-1.8-11.4 1.1 5.6 8.2 6.6 13 8.8a88 88 0 0 0 54 7.3c12.9-3.2 22-9 36.1-10.8 15-2 35.8 2.3 49.2-3.7-.1 1.9-.2 5.3-1.5 6.7-3.1 3.4-13.3 3.8-17.5 3.8-7.9.4-17.9-.6-25.5 1.3-26.3 6.6-46.5 16.5-74.7 9.9-12-2.9-20.5-3.2-31.3-12"/>
  <path fill="#eaa970" d="M332.5 226.1c3-8.5 7.9-12 16.9-11.7 18.6.3 36.7 5 55.3 5.8 19.3.9 38.5-1.4 57.8-1.5 6.2 0 13.3.8 17.8 5.5l-1.3.6a69 69 0 0 0-16.4-2.8c-20.2-.2-40.9 2.5-61 2.4q-15.3-.2-30.4-2c-6-.7-12.8-1.7-18.4-2.1a36 36 0 0 0-19.2 6.2z"/>
  <path fill="#05b59a" d="M747.3 386.6c1.8-3.7 11.8-17.6 14.5-21.2q1.4 3.3 2.1 6.7c.6 3 .7 4.9 1 8q-28.3 46.6-60.3 90.6c-32.6 45.5-60.9 83.8-110 112.8-3.7 2.2-7.7 5.2-11.8 5-1.5-1-.9-.4-1.6-2.3l-4.3-8.7c33.5-15.4 59.8-41.1 82.8-69.4 6.2-7.7 12-16.4 18.3-23.9 2.6-4 6-8.6 9-12.5 20.5-28 39.8-57 60.3-85.1"/>
  <path fill="#009683" d="M764 372c.5 3.2.6 5 .8 8.2q-28 46.5-60.2 90.5c-32.6 45.5-60.9 83.8-110 112.8l-4-2 5.7-3.1c56.1-33.2 94.5-94.2 131.2-146.5 10.1-14.5 32.2-43.4 36.4-59.8"/>
  <path fill="#3ad5b8" d="m747.3 386.6.4.9c-1.1 1.8-3 4.1-3.2 6.2.9 0 1-.1 2-.3-.5 1-13 18.1-14.1 19.5-9.3 11.9-43.3 64.2-52.7 71.2l-1.7.1c2.6-4 6-8.6 9-12.5 20.5-28 39.8-57 60.3-85.1"/>
  <path fill="#00726a" d="m581.2 586.2 9.4-4.6 4 2c-3.7 2.1-7.7 5-11.8 4.9-1.5-1-.9-.4-1.6-2.3"/>
  <path fill="#05b59a" d="M430.3 368.3c5.1-2 11.5-3.8 16.8-5.4l1.5 5.8 33.7 114.9 11 38.7c1.5 5.5 4.3 15.2 5.4 20.6.3.8.1.8 0 1.7-2.5 1.8-12.2 1-15.7 1-2.1-9.3-5.8-21-8.6-30.2l-14.5-49.2-13.6-46.6c-3-10-6-21.3-9.7-31-.8-3.3-1.9-6-3.2-9.3-1-2.5-2.3-8.2-3-11"/>
  <path fill="#3ad5b8" d="m448.6 368.7 33.7 114.9 11 38.7c1.5 5.5 4.3 15.2 5.4 20.6-.5.8-.2.5-1.2.7-2.4-2.4-9.1-25.4-10.6-30.4L471.8 461c-3-10.8-7-24.8-10.2-35.2-2-6.6-17-52.9-15.5-56.2z"/>
  <path fill="#29373c" d="M197.5 410.5c63.7-21.4 112.1-18 168.6 20-1.8 2.1-4.1 5-6.2 6.7l-5.5 5.9c-47.8-33.4-96.2-35.3-150.3-16.7l-3.5-8.2z"/>
  <path fill="#424b4e" d="M200.6 418.2c45-16 89.7-17.7 133.4 3.2 4.2 2 24.2 12.6 26 15.8l-5.6 5.9c-47.8-33.4-96.2-35.3-150.3-16.7z"/>
  <path fill="#009683" d="M433.4 379.3c1.3 3.2 2.4 6 3.2 9.4-2.6 1.4-3 1.7-5.3 3.6l-5.1 5.3c-9.7 10-19.1 19-28.7 28.6Q373.2 451 350 476.7a2388 2388 0 0 0-32.3 36.7c-10.2 12-20.5 24.9-31.6 36-3-2.6-4-2.2-7.9-2.1l-4.1.2c6.7-9.9 23-27.5 31.4-37.2q42.6-49.9 88.7-96.5c9.2-9.3 26-26.8 36-34 1.7 0 1.7.1 3.2-.5"/>
  <path fill="#3ad5b8" d="M433.4 379.3c1.3 3.2 2.4 6 3.2 9.4-2.6 1.4-3 1.7-5.3 3.6l-5.1 5.3c-3.6 0-6.2.3-9.8.7-28 28.7-54.7 55.2-81.6 85.2l-38.6 43.8c-5.4 6.1-12.3 14.9-18 20l-4.1.2c6.7-9.9 23-27.5 31.4-37.2q42.6-49.9 88.7-96.5c9.2-9.3 26-26.8 36-34 1.7 0 1.7.1 3.2-.5"/>
  <path fill="#05b59a" d="M433.4 379.3c1.3 3.2 2.4 6 3.2 9.4-2.6 1.4-3 1.7-5.3 3.6l-5.1 5.3c-3.6 0-6.2.3-9.8.7 6-5.9 10.2-9.3 14.5-16.5l-.6-2c1.6 0 1.6.1 3.1-.5"/>
  <path fill="#009683" d="M433.4 379.3c1.3 3.2 2.4 6 3.2 9.4-2.6 1.4-3 1.7-5.3 3.6.1-4.2 0-6.4-.4-10.5l-.6-2c1.6 0 1.6.1 3.1-.5"/>
  <defs>
    <linearGradient id="e" x1="701.6" x2="747.6" y1="509.7" y2="524.2" gradientUnits="userSpaceOnUse">
      <stop offset="0" stop-color="#01ad97"/>
      <stop offset="1" stop-color="#05d1b0"/>
    </linearGradient>
  </defs>
  <path fill="url(#e)" d="m777.7 415.6.8.2c1.6 1.8 2.3 4.7 3.1 7-62.9 38-98 123-85 194.5l-5.3 8.2-.6.3c-1.4-1.4-2.2-7.7-2.5-9.9a194 194 0 0 1 2-68.3 213 213 0 0 1 65.1-115.9c7-6 14.7-11 22.4-16.1"/>
  <path fill="#3ad5b8" d="M255.8 379.9c6.5-1 18.3-.3 25 .4a180 180 0 0 1 97.4 38l-6.3 6.6a179 179 0 0 0-46.2-25.7 181 181 0 0 0-131.6 3.7l-3.4-8.4c19.3-9 44-13.1 65.1-14.6"/>
  <path fill="#29373c" d="M386.7 448.8c28.9 29.4 40.2 50.6 50.2 90.2.6 2.1.9 2.5.3 4.5-2.3 2.6-4.8 2.2-8 2.2h-6.9c-8.2-35.8-21-58.2-46-85.3 1.7-2.1 4-4.5 5.9-6.6z"/>
  <path fill="#424b4e" d="M376.3 460.4c1.7-2.1 4-4.5 5.9-6.6 21.2 21.6 42.3 59.5 46.7 89.7l.2 2.2h-6.8c-8.2-35.8-21-58.2-46-85.3"/>
  <path fill="#12272f" d="M436.9 539c.6 2.1.9 2.5.3 4.5-2.3 2.6-4.8 2.2-8 2.2l-.3-2.2c1.4-5.7 4.5-1.3 8-4.5"/>
  <path fill="#3ad5b8" d="M176.6 401c1.7 1.3 3.4 6.1 4.4 8.3-51.6 28.3-82.4 66.4-100 122.7-2.4 2.5-6.5 5.5-9.3 7.8-.8.5-.5.3-1.5.5-.2-.6-.2-.7-.2-1.4.4-8.4 19.8-53.9 25.7-58.7 1.7-1.4 3.5-2.5 4.4-4.6-.6-1.9-.7-2-.6-4 18-30.8 46.6-53.2 77-70.6"/>
  <path fill="#a36934" d="M639.6 118c7.3-3.7 39-.4 48.7-1.6a7 7 0 0 1 6 1.8l1.2 3.2c.8 4.2.2 10-2.9 13.3-6.8 3-34.7.5-43.2.9-12.2.5-14.4-1.6-13.2-13.2 1.2-2.4 1.4-2.7 3.4-4.5"/>
  <path fill="#c48752" d="M639.6 118c7.3-3.7 39-.4 48.7-1.6a7 7 0 0 1 6 1.8l1.2 3.2-.7 4.3c-4.6 1-13.3-.4-18.4-.1h-7.6c-7.4-1.1-28.7 3.3-32.6-3.2 1.2-2.4 1.4-2.7 3.4-4.5"/>
  <path fill="#eaa970" d="M639.6 118c7.3-3.7 39-.4 48.7-1.6a7 7 0 0 1 6 1.8c-.6.5-1.9 1.5-2.6 1.4-7.8-1.4-47.7 2-52.1-1.7"/>
  <path fill="#5a6064" d="M510 616.4c-3-10.8 6.9-17 14.2-7.8 1 2.6.7 4 .6 6.8-1.4 2.2-2 4.4-.8 6.8 2.8 3.3 26.3 72 26 74.9-1.7 1.2-3 1-5 1.2h-1.7c-1.5-1-1.8-1-2.6-2.6-11.3-24.2-17.3-53.2-29.4-76.6z"/>
  <path fill="#424b4e" d="M510 616.4c-3-10.8 6.9-17 14.2-7.8 1 2.6.7 4 .6 6.8-1.4 2.2-2 4.4-.8 6.8-2 1.2-3.7 2-4.7 4 0 10.5 21 58.2 25 71.6l.7.5h-1.7c-1.5-1-1.8-1-2.6-2.6-11.3-24.2-17.3-53.2-29.4-76.6z"/>
  <path fill="#5a6064" d="M510 616.4c-3-10.8 6.9-17 14.2-7.8 1 2.6.7 4 .6 6.8-1.3 0-3.4-.5-4.6-.8-4.4-.5-6 1.5-9 4.5z"/>
  <path fill="#a3a1a1" d="M510 616.4c-3-10.8 6.9-17 14.2-7.8-1 1-1 1.1-2.3 1.6-6.9-2.8-9.3.3-12 6.2"/>
  <path fill="#908f90" d="M524.2 608.6c1 2.6.7 4 .6 6.8-1.3 0-3.4-.5-4.6-.8.2-2.8 0-1.7 1.7-4.4 1.3-.5 1.3-.7 2.3-1.6"/>
  <path fill="#009683" d="M398.3 436.8c3 1.3 6.7 6.1 8.9 8.6 21.6 25.1 37 55.4 44 87.9.7 3 2.4 8.6 1.5 11.5-1.5 1-3.2 1-5 1.2-1-.8-1.9-1.1-2.1-2.5-8-40.7-24.7-70.4-52.8-100.8z"/>
  <path fill="#3ad5b8" d="M874 385.5c18-1.2 36.7 2.2 54.4 5.8l-9.3 6.8c-16.5-4-39.1-5-56-3.4a161 161 0 0 0-45.7 11q-1.8-4.2-3.3-8.4a210 210 0 0 1 59.8-11.8"/>
  <path fill="#a3a1a1" d="M737.9 241.5c-2.8-10.4-6.6-20.7-9.2-31.3-4.3-16.8 4-26.6 11-40.9 3.1-6.5 5.5-11.8 8.2-18.6 8.5 13.5-.6 23.4-7.3 35.5-2 4.9-3.5 8.5-4.9 13.6 1 14.2 5.6 25.5 10.2 38.9z"/>
  <path fill="#908f90" d="M735.7 199.8c.3-4.6-1-8.4.7-12.4 1.9-1.6 1.2-1 4.2-1.2-2 4.9-3.5 8.5-4.9 13.6"/>
  <path fill="#424b4e" d="M808.6 305.1c4.3-8.2 15.2-10.6 23.4-12.7l-1.8 5q-1.1 4.8-1.9 9.6c-.3 5.1-.3 8.2-.1 13.2.8 2.2 2.1 12.6 3.2 16.6-12.6-3.8-21.2-6.5-25.3-20 0-3.2.3-5.2.7-8.4z"/>
  <path fill="#29373c" d="M806.1 316.9c5.2 1.9 16.1 5.1 21.4 4.4l.7-1.1c.8 2.2 2.1 12.6 3.2 16.6-12.6-3.8-21.2-6.5-25.3-20"/>
  <path fill="#5a6064" d="M808.6 305.1c4.3-8.2 15.2-10.6 23.4-12.7l-1.8 5q-1.1 4.8-1.9 9.6c-6.8.5-14.8 1.3-21.5 1.4z"/>
  <path fill="#a3a1a1" d="M808.6 305.1c4.3-8.2 15.2-10.6 23.4-12.7l-1.8 5c-2.6.5-4.5 1-6.9 1.6-3 .8-12.6 6.3-14.7 6.1"/>
  <path fill="#29373c" d="M515.3 589.6q7.3-.5 13.7 3c5.2 3 9 8 10.6 14 2.2 8.3 0 14.5-4.1 21.6l-3.9-9.5c1-4.8 1-9.2-1.5-13.6q-3-5.2-9-6.9c-5.5-1.5-10 .2-14.7 3-10.3 12-1 24.6 5 36.5l-4-2.3c-20.2-12.6-17.3-40.4 7.9-45.8"/>
  <path fill="#12272f" d="M252.8 557.3c-6-8.9-11.8-22.8-16.3-32.8q-11.4-25.3-22.3-50.8c-15.3-36-31.4-72.7-45.6-109.2-1-2.8-3.4-6.7-2.9-9.4l1-.4c4.8 3.2 60.7 147.3 71 164.5 1.7 2.8 15.6 35.2 15.6 38zM197.4 347.3c12.7-.4 26.7 0 39.4.1l55.2.3h29.9c7.3 0 18-.5 24.8.8l.8 1.5-.2-1.3.7 1 .2-.3v.2c-3.5 3.3-22.4 1.7-27.6 1.6q-14.3-.3-28.5-.2l-109.6-.4c-13.7-.1-33.5 1.4-45.8-1.3 9-1.7 20.3-1.5 29.5-1.6q15.6 0 31.2-.4"/>
  <path fill="#ecebee" d="M415.2 284.8c2-.2 3.4-.5 5 .5 2.3 4.2 17.4 54.4 16.8 57.6-1.4 1.3-1.5 1.3-3.4 2-2.3.4-2.7.6-5 .2-1.8-3-15.8-52.3-17-58 1.2-1.8 1.2-1.4 3.6-2.3"/>
  <path fill="#a3a1a1" d="M433.6 344.9c-2.3.4-2.7.6-5 .2-1.8-3-15.8-52.3-17-58 1.2-1.8 1.2-1.4 3.6-2.3 4.4 15.6 12.3 45.6 18.4 60.1"/>
  <path fill="#424b4e" d="M526.1 710.5c3.6-3.1 12.2-5.5 15.7-1.2.3 1.7.3 1.6 0 3.2-.2 3-.2 4 2.3 5.6 4-.5 4-3 3.6-6.5-.2-2.4-.5-1.6.8-3.3 3.5-1.6 5.7-2.2 8.9.3.3 1.8 0 1.5-.6 3.5 0 3.4.2 4.1 1 7.4 2-.6 2.6-.7 4.4-1.6 1.2-1.7 1-3.4 1-5.5-.1-2.7-.4-2.7 1-4.3 5-1.9 11.5-1.5 15.2 2.8 0 6.4-1.2 9.1-8.3 9.1-4.7.8-34.3.7-38.6 0-6.9 0-6.1-3.8-6.4-9.5"/>
  <path fill="#424b4e" d="M563.1 712.4c0-2.7-.3-2.7 1-4.3 5.2-1.9 11.6-1.5 15.3 2.8 0 6.4-1.2 9.1-8.3 9.1l-7.4-.2-.2-7.3z"/>
  <path fill="#908f90" d="M563.1 712.4c0-2.7-.3-2.7 1-4.3 5.2-1.9 11.6-1.5 15.3 2.8-2.5 2.2-12.2 1.6-16 1.6z"/>
  <path fill="#a3a1a1" d="M526.1 710.5c3.6-3.1 12.2-5.5 15.7-1.2.3 1.7.3 1.6 0 3.2-6 .1-10.5.8-15.7-2M547.7 711.6c-.2-2.4-.5-1.6.8-3.3 3.5-1.6 5.7-2.2 8.9.3.3 1.8 0 1.5-.6 3.5a51 51 0 0 1-9.1-.5"/>
  <path fill="#29373c" d="M563.1 712.4h.4l.2 7.4c2.3 0 5.1 0 7.4.2-4.7.8-34.3.7-38.6 0 4.6-.3 22.6.5 25.3-.5 2-.6 2.6-.7 4.4-1.6 1.2-1.7 1-3.4 1-5.5"/>
  <defs>
    <linearGradient id="f" x1="868.4" x2="883.7" y1="600.1" y2="570" gradientUnits="userSpaceOnUse">
      <stop offset="0" stop-color="#434c50"/>
      <stop offset="1" stop-color="#727374"/>
    </linearGradient>
  </defs>
  <path fill="url(#f)" d="M881.3 562.9c6.2 2.8 11.6 5.1 14 12q.7 1.5 1 3c1 3.9.8 9.1-.9 12.9a21 21 0 0 1-12.1 11c-5 1.9-10.6 1.6-15.4-.7-7-3.4-13.2-16.2-9.7-23.3l1-.3c3.7 2.7 5.2 9.5 7.6 13.4 6.8 11.4 21.2 3.7 23-7.1.9-5.7-3.3-9.8-6.6-14-1-1-1.5-5.2-1.9-7"/>
  <path fill="#a3a1a1" d="M881.3 562.9c6.2 2.8 11.6 5.1 14 12q.7 1.5 1 3l-.2.3c-2.4.4-4.4-7-12.9-8.3-1-1.2-1.5-5.3-1.9-7M703.2 112.4c9.2.9 25-2.7 27 7.6-3 .5-6.4 1-8.4 3.8q-1.5 2-2 4.4l-.4 6.8c-.3 2-.2 3.2-1.4 4.5q-7.2.1-14.5 0c-.7-1.6-.3-2.8.4-4.5a33 33 0 0 0 1.5-11.1l-.1-5.2z"/>
  <path fill="#29373c" d="M705.4 123.9c3.3 4.8 9.1 4.4 14.3 4.3l-.3 6.8c-.3 2-.2 3.2-1.4 4.5q-7.2.1-14.5 0c-.7-1.6-.3-2.8.4-4.5a33 33 0 0 0 1.5-11.1"/>
  <path fill="#12272f" d="M704 135c3.1 1 12.7 2.1 15.4 0-.3 2-.2 3.2-1.4 4.5q-7.2.1-14.5 0c-.7-1.6-.3-2.8.4-4.5"/>
  <path fill="#424b4e" d="M705.3 118.7c8.4.8 16.5.4 25 1.3-3.2.5-6.5 1-8.5 3.8q-1.5 2-2 4.4c-5.3.1-11.1.5-14.4-4.3z"/>
  <path fill="#a3a1a1" d="m957.4 448.1 2.3 1.6-41.5 68.4c-6.4 10.4-19.6 30.5-24 40.7l-1.3-1c1.6-10.2 55.5-94.3 64.5-109.7M859.8 606.5l1.7 1.3c-2.8 6.5-15.5 24.8-20.1 32l-31.5 49.3c-3.7 5.7-13.2 21.1-17.5 25.7l-1.4-.5c.9-5.2 60.4-94.3 68.8-107.8M882.2 611.6l2.4-.5c5.5 25 9.8 51.2 14.3 76.5 2.8 15.8 8.1 35.2 9.8 50.8l-2.6.3c-2-7-4.5-22.9-6-30.8l-12.9-70.3c-1.6-8.2-3-18-5-26M903.9 427.6l2.3.5c-2.8 26.7-9.7 57.2-14.5 83.7-1.8 10.2-5.2 32.8-8 42.2l-1.9-.2c.3-6.2 5.1-30 6.4-37l7.8-44.5c2.8-15.3 5.7-29.2 7.9-44.7M895.2 605.7c3.7 4.8 9 14.1 12.5 19.6a2472 2472 0 0 1 26 42.4c8.5 14 22 33.3 29.2 47.5l-2 1.2a6003 6003 0 0 1-45.3-73c-7.3-11.7-15.4-24.4-22.1-36.4zM869.8 611.2l3.3.6c-3.1 12.2-4.8 24.8-7.5 37a563 563 0 0 0-5.2 26.8c-3.6 21-8 41.7-11.6 62.7l-2.4-.3c1-10.7 4-22 5.7-32.6 4.9-31.4 13.2-63 17.7-94.2M852.5 598.2l1 1.9c-9.6 6-19 13-28.6 19.2-25.4 16.2-50.9 34-76.4 49.8l-1.6-2.6c11-5.7 23.5-14.5 34-21.5l45.5-30c6.2-4.2 20.2-14.3 26.1-16.8M905.9 586.6c40.1 6.4 80.6 15.6 120.9 22.9l-.4 3c-14.2-3.2-29.4-5.9-43.7-8.7q-38.6-7.6-77.2-14.7zM902.7 597.3c7 5.7 16.9 12.2 24.4 17.5l38 26.4c9.6 6.5 30.6 21.7 40 26.8l-.7 1.8c-8.5-4-26.7-16.9-35.2-22.7a7670 7670 0 0 1-68.3-47.1zM1001 491.2l1.3 2.1c-25 16.4-49 36.5-73.4 53.8-7.4 5.3-20.2 15.7-27.3 19.8l-1.4-2.2c9.6-6.3 20.4-14.7 29.8-21.7l41.4-30.8c8-5.9 21.3-16.3 29.6-21M729.7 547.3c23.4 5.5 46.6 11.6 70.2 17.2l34.3 8.2c3.7.9 12.1 2.7 15.4 4.2l-.7 1.5c-12.4-2-24.8-5.6-37.1-8.3-27.7-5.9-55-14.1-82.6-20.3z"/>
  <path fill="#f74410" d="M77.6 470c5.3.5 6.2 1.4 10.4 4.7-5.8 8.2-9.8 16.6-14 25.7-.9 2.2-1.5 3.7-3.5 5l-1-.2c-5.3-7.3 3.9-28.5 8.1-35.1"/>
  <path fill="#908f90" d="M848.8 587.2v2c-8.8 2-19.1 3.6-28.2 5.2l-65 11.7c-9.2 1.6-19.4 3-28.3 5l-.5-2.8c28.5-3.6 57.2-10.3 85.5-14.9 10.7-1.7 26-5.5 36.5-6.2"/>
  <path fill="#a3a1a1" d="M754 491.3c12 7.8 30.4 22.7 42.3 31.3 9 6.4 38.9 28.4 44.4 35-13.8-7.7-36.8-25.7-49.7-35.4-11.4-8.6-27.8-20-38.6-28.7z"/>
  <path fill="#908f90" d="M905.2 575.5c17-3.3 34.6-7.5 51.6-11.4q34.2-7.5 68.3-16l.4 2.6c-16.5 4.3-34.8 7.8-51.6 11.8q-22.4 5.3-44.9 10.3c-7 1.6-16.1 4-23.1 5.2z"/>
  <path fill="#a3a1a1" d="m846.4 429.3 2.4-.5c4.5 25.8 9.8 51.4 13.8 77.3.8 5.6 4.1 22 4.3 26.7a20 20 0 0 1-3.8-7.6c-4.6-24.9-8-50.3-12.9-75.2-1.3-6.9-2.2-13.9-3.8-20.7"/>
  <path fill="#908f90" d="m135 491.6 1.3-1.9c9.6 5.9 18.5 14.3 27.9 20.4 23.6 15.4 46 33.7 69.5 49.1l-1.3 1.6c-4-2.5-8.3-5.5-12-8.3-28.2-20.7-57.3-40.2-85.4-60.9"/>
  <path fill="#a3a1a1" d="m255.2 616.6 1.8.5c-1.6 10-4 19.9-6 29.8l-9 46.7c-1.7 9-6.4 39.1-9 45.6l-1.7-1.2c3.6-12.4 6-30.8 8.6-43.7 5-26 9.4-52 15.3-77.7M111.3 546.4c35 8 69.7 17.5 104.9 24.7 3.4.7 7.8 1.5 10.7 3l-.8 1.7c-21.2-5.5-43.2-9.9-64.5-15-16.9-4-33.4-8.3-50.3-12-.4-.8-.1-1.3 0-2.4M272.3 619.2l1.7.6c1.5 4 1.6 8.6 2.4 12.9 6 31.3 12.3 62.6 18 94l2.4 12-1.6.4c-4.8-19.9-8.7-44.6-12.8-64.8-3.2-15.9-8.3-39.7-10.1-55.1M241.5 611.2l1.1.9c-2.4 5-10.5 17.1-14 22.5Q215.2 656 201.4 677l-15.8 24.3c-2.2 3.4-6.7 10.8-9.1 13.7l-1.6-.8c22-33.8 44.2-69.7 66.6-103"/>
  <path fill="#908f90" d="m231.5 601.5 1 1.7-77.9 50c-2.9 1.8-21.5 13.8-23.6 14.5l-1-2q9.3-5 18.2-10.7c27.7-18 55.8-35.4 83.3-53.5"/>
  <path fill="#5a6064" d="M747.5 246.5c2.2-.6 3-1 5.1-.4 2 1.6 2.4 3.7 3.3 6.3v.7c-1.8 3.8-15.3 8-19.8 6.8-3.1-2.6-2.2-5.6-.7-9 3.5-1.5 8.3-3 12-4.4"/>
  <path fill="#424b4e" d="M735.4 250.9c1 2.2 1.5 3.7 3.9 4.7 4 1.6 11.3-1.1 15.1-2.9l1.5-.3v.7c-1.8 3.8-15.3 8-19.8 6.8-3.1-2.6-2.2-5.6-.7-9"/>
  <path fill="#908f90" d="M747.5 246.5c2.2-.6 3-1 5.1-.4 2 1.6 2.4 3.7 3.3 6.3l-1.5.3c-3.9-1.2-5.5-2.5-7-6.2"/>
  <path fill="#a3a1a1" d="m233.3 425.4 2.1-.3q5.4 34.7 11.6 69.2c1.8 10.3 7.5 36.4 6.5 45.2l-.7-.3c-1.4-14.3-5.7-32-8.1-46.7l-7.1-41.7c-1.4-8-2.5-17.6-4.3-25.4"/>
  <path fill="#908f90" d="M109.5 607.7c7.7-.6 23-3.8 31.2-5.2q27.7-4.5 55.6-9.4c9.7-1.7 20.3-4.5 30-5.8l-.2 1.3c-5 2-22.4 5-28.6 6a3066 3066 0 0 1-56 9.7c-9.1 1.5-23.6 3.4-32 5.4zM292.2 622.3l2.2.6c3.8 3.8 10.3 15.2 13.4 20.2q6.7 11 13.7 21.8l20.4 31.6c2.4 3.7 10 14.8 11.4 18.4l-.9.8c-20.1-31.3-40.4-61.6-60.2-93.4M294.4 425.3h1.4c-2.2 21-8.1 45.1-12 66.2-1.2 6.8-5.5 32.7-7.3 38.2l-1.7 2c.9-7.6 3.5-19.8 5-27.5l7.3-38.7c2.6-13.2 5.7-26.8 7.3-40.2M411.2 268.5c2-.4 2.4-.5 4.3.2 2 1.6 2.8 4.1 3.8 6.6-4.7.4-10.1 1.2-14.9 1.8-3.3.5-11 1.3-8-4.9 3.4-2.6 10.2-3 14.8-3.7"/>
  <path fill="#a3a1a1" d="M183.3 445.4q11.2 20 22.8 39.8c5.5 9.3 13.5 21.8 18.1 31.4-4.7-4-39.7-62.7-42.4-70.2z"/>
  <path fill="#908f90" fill-opacity=".9" d="m393.1 493.4.8 1.5q-23.5 16.4-46.6 33.6c-4.6 3.5-18.7 15-22.7 17l-2.2.2c2.5-3 16.4-13 20.5-16 16.5-12 33.3-25 50.2-36.3"/>
  <path fill="#a3a1a1" d="M427.4 354c5-1.7 16-7 18.7-.9-.9 3.8-6.5 4.2-10 5-3.8 2.2-8.4 4.3-12.2 1-.7-2-.7-1 0-3.1 1.4-1.4 1.6-1.5 3.5-2"/>
  <path fill="#5a6064" d="M436 358.2c-3.7 2-8.3 4.2-12.1.9-.7-2-.7-1 0-3.1 1.4-1.4 1.6-1.5 3.5-2 2.4 2.7 5.3 3.3 8.7 4.2"/>
  <path fill="#424b4e" d="M352.7 261.4c3.8.1 20 1.6 22 4.6l-.7 2c-9.2 3.3-16.6 2.9-21.3-6.6"/>
  <path fill="#908f90" d="M353 638c1.9.2 3.2 0 4.7 1 12 9.6 27.6 18.3 39.5 28l-.3 1.3c-4.1-1.5-38.9-26.1-43.8-30.3"/>
  <path fill="#12272f" d="m318 355.3.7 1c-.2 5.7-3.6 14.5-5.5 20.2l-.8-1a37 37 0 0 1 5.7-20.2"/>
</svg>
