<svg xmlns="http://www.w3.org/2000/svg" width="390" height="252" viewBox="23 37 390 252">
  <path fill="#0a2734" d="M125.2 40c53.9-2.6 96.4 35.1 107 86.8q1.2 6.1 1.7 12.4c2.7 30.3-6.8 60.4-26.3 83.7a104 104 0 0 1-74.4 36.8l.1 1.5a14 14 0 0 0 5.2 9.6c10 8.3 27.4 7 39.6 5.8 0-4.5 1.3-6 5.9-6.4s9.7-2 14.4-1.5c1.5.1 3 2.4 3.8 3.5l9.2-.1c9.9-.3 24.2-.8 33.9-2.8 11.3-2.2 23-6 32-13.4a54 54 0 0 0 13.1-17c16.6-32.2 8.7-79.5 13.9-115.4a74 74 0 0 1 10.4-31.3A49 49 0 0 1 346 71c9.3-1.8 19.6-.3 27.5 5 7.7 5.3 10.4 12.4 12 21.1 11 .6 8.6 8.8 8.6 17.5 4.2.3 7.8 1.2 10.9 4.3 5 5 5 9.7 5 16.3q.2 39.2.1 78.5v24c0 8 1.1 17.6-4.8 23.7-5.3 5.4-13.4 4.4-20.3 4.4-4.3 0-17.6.4-21-.5q-3-.7-5.4-2.7c-6-5.3-5.1-13-5.1-20.2v-97c0-5.5-.2-11.5 0-17a16 16 0 0 1 3.8-8.5c3.8-4.1 7.6-5 13-5.3 0-4.3-.9-12 1.8-15 2.2-2.5 4.7-2.4 7.6-2.6-1-7-3.3-12.1-9-16.3-12.3-8.8-29-5.3-40.3 3-18.6 13.6-21.1 37.3-22.2 58.4q-.7 13-.8 26c-.5 27.6-.7 60.3-18.2 83.4-12.1 15.9-33.2 22.8-52.3 24.6-10.8 1-22 1.1-33 2.5q0 .5-.2.9c-1.5 6.6-8.7 5-14.4 6.2-4.7 1-8 1.2-10.4-3.6l-10.4.7c-14.1 1-36-1.8-40.2-18.3q-.4-2.2-.4-4.5c-4.5-.2-8.2-.2-12.7-.7a100 100 0 0 1-54.8-25.6 113 113 0 0 1-35-76.8 114 114 0 0 1 28-81.2 105 105 0 0 1 72-35.5m25.5 79c3.8 3 8.1 6.9 10.5 11.1q6.9-4.3 13.5-9c9.4-6.2 18.6-13.3 28.2-19a78 78 0 0 0-23.7-26.8c-2.1 5-6.2 9.6-9.2 14.4L157.5 109c-1.7 2.7-4.8 7.5-6.8 10M59 203c4.6 7.8 11.8 15 18.9 20.6 2 1.7 4.9 3.4 6.6 4.8 4-6.4 7.9-13.7 11.7-20.2 4.7-8 10-16.4 14.5-24.5-4-2.6-7.9-6.7-10.7-10.5q-3.1 2.6-6.4 5-12.3 9.1-24.8 18-2.9 2.2-5.8 4.1c-1.1.7-3 1.9-4 2.7m90-19c1.2 1 4.7 8 5.8 10q6.8 12.1 13.4 24.5c.9 1.7 4.6 8.5 5.1 10 1-.4 4-2.6 5-3.2a87 87 0 0 0 21.5-22.6c-5.8-3.8-12.4-9-18.1-13.2l-13.7-9.9c-1.8-1.3-6.9-4.8-8.1-6.4q-4.4 6.5-11 10.8m-59-59.6c2 1.7 6.4 4.6 8.6 6 3.5-5.4 5.6-7.3 10.5-11.4-1-1-5-7.5-6.1-9.2-6.8-11.1-14.6-23.4-21.7-34.3A91 91 0 0 0 57 102.3c2.3 1.2 5.1 3.3 7.3 4.7l18.9 13c1.6 1 5.1 3.6 6.7 4.4m-31.7 77.4 8.3-6 24.3-17.7c2.6-2 6-4.1 8.4-6q-4-6.2-5.5-13.4c-4.1.4-14.5 3-18.9 4.2-9.6 2.3-19.9 4-29.4 6.3a84 84 0 0 0 12.8 32.6m102.2-29.4c8.8 6.1 18 13 26.8 19.4a232 232 0 0 1 13 10c.3-.7 3.3-5.3 4-6.7a79 79 0 0 0 9.4-25.8c-7-1.8-14.4-3.3-21.4-5-8-1.9-18.1-4.6-26.2-5.8-.7 3.6-3.4 11-5.6 14m6-27.7c15.8-2.4 32.1-6.2 48.2-8.9-.4-4-1.6-8-2.6-12q-2.9-10.8-8.5-20.5l-8.4 5.7a1740 1740 0 0 0-31 21.1l-2 1.6c1.7 3.5 4 9 4.2 13m-121.5-9c12 2 24.3 5 36.4 6.8 3 .4 9.6 1.7 12.2 1.7a37 37 0 0 1 4.5-12.8c-4.8-2.6-11.7-7.5-16.3-10.6l-25.4-17.3q-6.8 11.6-10 24.7c-.6 2.5-1 5.4-1.4 7.5m83-77q-6.9.2-13.6 1.8l4.3 27.1q2 10.1 3.5 20.2c0 .8.2 2.3.5 3l.1 2.3c4.5-1.2 10.3-.7 14.7-.2.4-.9 1.5-10.2 1.8-11.8l5.8-35.3 1-5.5a84 84 0 0 0-18-1.6m20.3 125.7-4.4 2.3c2.6 12.4 3.7 23 1.3 35.7q-1 5-2.6 9.9c-.8 2.6-2.3 5.8-3.4 8.5a73 73 0 0 0 33.8-12.2c-2.7-2.2-6.4-10-8.2-13.4l-8.8-16c-1.9-4.6-6-10-7.7-14.8m-26.9-71c-.5-2.2-1-6-1.4-8.2L116.6 86l-2-13.6c-.6-3.3-1.2-7.7-1.6-11.1l-.4-.3q-5.4 1-10.6 2.9a85 85 0 0 0-19.8 10.8l1.2 1.3c6.6 9.7 12.4 19 18.4 29.1l8.2 13.1a48 48 0 0 1 11.4-5m93.4 24.2c-12.7 2-25.3 5-37.9 7.1-1.2.2-9.3 1.5-10 1.8l-.1.3c0 2.6.1 7.2-.3 9.9 3.2.4 8.7 1.7 12 2.5l19.7 4.8q8 2.1 16 3.4 2.4-13.6 1-27.5.1-1.2-.4-2.3m-36.2-63c-4-3-10.4-7-15-8.7l-1-.5a58 58 0 0 0-15.2-4.6c-.5 4-1.6 9.7-1.8 13.4-.4 1.5-.8 4.4-1 6.1l-1.9 11.5-2.2 14.4c-.1.6-.8 4.4-.7 4.8l-.6 2.3c4.2 1.4 6 2.3 10 4.5 1.6-1.5 2.5-2.8 3.7-4.7 1.3-1.4 6-9.2 7.2-11.1q6.3-10 13.1-19.8c1.3-1.5 3.5-5.3 5.4-7.6m-45.7 166.7.3-.6c1-1.6 2-4.1 2.7-5.8 6-14.7 7-31 2.8-46.5-7.2 1-7.4 1.4-15.1.5 0 1.6 0 4.1-.4 5.7q-2.1 16.8-4.5 33.5c-.4 3-1.5 9.9-1.6 12.5 5.8.9 10 1 15.8.7m-23-53.2-13 22.6c-3.6 6.1-7 12.8-11 18.7a81 81 0 0 0 29.6 11c.3-1 .6-4.8.8-6 1.2-9.3 2.1-18.6 3.5-28 .8-4.4 1.4-9.6 2-14.1l.7-3.7c-4.4-1-6.7-2.1-10.7-4zm-16.6-42c-15.6-2-33-6-48.6-8.8-1.3 10.6-1.4 19.4.3 30 7-.9 16-3.2 23-4.7 8.3-1.9 17.3-3.7 25.4-5.8-.4-2.6-.4-8-.1-10.7"/>
  <path fill="#6ecb8f" d="M370.2 119.5H385c2.7 0 4-.1 6 2 1.5 1.4 3 3.8 3.2 6 .4 4.2.3 9 .3 13.3v107h-25.3c-3.3 0-7 0-10.2-.4l-.1-1.3c-.3-6.8 0-16 0-23V146c0-5.6-.3-11.6.3-17.1.5-5.8 5.5-9.1 11-9.4"/>
  <path fill="#f9fef9" d="m381.2 160.9-3.2 20.8 10.3.2c-3.5 5.6-6.7 12-10 17.8-1.4 2.3-3.3 7-5 8.7-.3-1.3 2.7-18 3.1-20.5-3.1-.2-7.1-.2-10.3-.3.5-1.2 1.5-2.8 2.2-4l5.4-9.8c1.4-2.6 5.6-11.3 7.5-13"/>
  <path fill="#4d5c63" d="M99.7 140a34 34 0 0 1 27-22.7c3.7-.3 8-.2 11.5.7a33 33 0 0 1 23.7 27.8c1.9 6-.7 15.9-3.6 21.4a31.7 31.7 0 0 1-59.3-7.5 33 33 0 0 1 .7-19.7"/>
  <path fill="#263940" d="M162 145.8c1.8 6-.8 15.9-3.7 21.4a31.7 31.7 0 0 1-59.3-7.5c.1-1.3.7-1 1-1.8l2.1-5.3c1.6 5.7 2.3 9.2 6 14.3l2.8 3.6a27 27 0 0 0 30.8 5.3c7.4-3.8 11.7-10 14.2-17.8l.3-2q.7-5 1.1-10c1.8-1.3 3.5 1.4 4.6-.2"/>
  <path fill="#0a2734" d="M155.9 158c.4 2-3 7.8-4.1 9.5-8.8 12.9-25.7 14.4-38.1 5.9-.7-.5-2.7-2-2.8-2.9a27 27 0 0 0 30.8 5.3c7.4-3.8 11.7-10 14.2-17.8"/>
  <path fill="#889598" d="M99.7 140a34 34 0 0 1 27-22.7c3.7-.3 8-.2 11.5.7-2.1.3-11.8-2.2-11.8 1.3.6.2 7.3-1 8.8-.1l1.5.1c-.3.2-.2.2-.5.2l.3.1c1.2.4 2.2.4 3.5 1v.5q-.8.7-2 1c2.8.7 4.4 1.2 6.9 2.8l2.8 1.8 3.2 3.3c.5.6 3 4.5 3.4 4.7 0 .9 0 1.2-.3 2-.7-1.1.6-1.4-1-1.9l.4 1.5-.1.1a24 24 0 0 0-13.6-12.1 27 27 0 0 0-29.5 8.4l-3 3.8h-.2c.8-2.1 3-3 2.8-4.8l-.2-.4c-1.7 1-3 4.9-5 5.3-2.3-2.7 4.1-7.6 4.7-9-.4-.5-.4-.3-1.2-.5-2.6 1.3-7 9.8-8.1 12.9l-.1.3z"/>
  <defs>
    <linearGradient id="a" x1="302.8" x2="292.9" y1="338.8" y2="329.5" gradientUnits="userSpaceOnUse">
      <stop offset="0" stop-color="#1b2224"/>
      <stop offset="1" stop-color="#4f5559"/>
    </linearGradient>
  </defs>
  <path fill="url(#a)" d="M324.1 317.8c-16.7 7.5-28.7 12.4-40.2 27.8-1.5 2-7.6 11-9 11.6-9.5-9.7 34.2-41 43.3-42.1 2.1-.3 3.4-.5 5.6-.6z" transform="scale(.38)"/>
  <path fill="#263940" d="M123.6 120c5.1-.6 7.5-1 12.6-.5l.3.1c1.2.4 2.2.4 3.5 1v.5q-.8.7-2 1l-3-1.4a24 24 0 0 0-11.3.6zm24.1 6.7c2-3 4.4.4 3.2 3.3-1.1-1.3-2-2.1-3.2-3.3m6.6 8 .3-.5c1.7-.1 2.4 3 2.5 4.4l-.3.5c-1.1-.6-2-3.2-2.5-4.4"/>
  <path fill="#0a2734" d="M128.6 139.4a11.7 11.7 0 1 1 3.4 23.1 11.7 11.7 0 0 1-3.4-23"/>
  <path fill="#4d5c63" d="M123.4 149a7.3 7.3 0 1 1 14.2 3.7 7.3 7.3 0 0 1-14.2-3.7"/>
  <path fill="#889598" d="M123.4 149a7.3 7.3 0 0 1 13.2-2.3c-2.3.7-7.1-6-12.7 3.9q-.1.5-.7.6z"/>
  <path fill="#4d5c63" d="m123.4 149 .5 1.6q-.1.5-.7.6z"/>
  <path fill="#0a2734" d="M129.9 147.7c5-.3 5.7 4.6 1.5 7-2.7.3-5-1.6-4.1-4.4.4-1.6 1.3-2 2.6-2.6"/>
  <defs>
    <linearGradient id="b" x1="259.6" x2="275" y1="381.6" y2="370.3" gradientUnits="userSpaceOnUse">
      <stop offset="0" stop-color="#273236"/>
      <stop offset="1" stop-color="#424f4f"/>
    </linearGradient>
  </defs>
  <path fill="url(#b)" d="m271.7 362.7.3.7c-1.9 5.9-4 23-6 26h-1.5c-5.3-5.7.6-15.4 3.2-21.4q1.5-3.1 4-5.3" transform="scale(.38)"/>
  <path fill="#b9bbbd" d="M127.4 50.7c3-.3 7.7 0 10.8.1A86 86 0 0 1 185.5 69c21.8 17 34.5 41.3 37.8 68.5a103 103 0 0 1-21 75.5 93 93 0 0 1-66.8 36.3 15 15 0 0 1 1.8-4.4h.4a86 86 0 0 0 56.4-28.1A99 99 0 0 0 188 76.7a86 86 0 0 0-72.5-20.8A90 90 0 0 0 68 81.4C27 123 30.3 193 77.2 228.4c15.8 12 34 17.5 53.8 17.3l-1.7 3.8a88 88 0 0 1-59.9-22 100 100 0 0 1-33.7-69.6C32.7 108.6 64.2 62 113.8 52q6.8-1.3 13.6-1.4"/>
  <path fill="#0aa76d" d="M398.4 128.8c1 .5 4.4.5 6 .8.5 3.7.3 13.3.2 17.3v76.6c0 7.7.3 16.3.1 23.9-2.4.4-4 .4-6.6.3z"/>
  <path fill="#4d5c63" d="M362.2 251.6c4.2-.2 9.5 0 13.9 0h28.2c-.6 3.6-1.8 5.1-4.4 7.4-5.2 3.2-21.7 1.2-28.4 1.7-1.3 0-4.5-.1-5.7-.4a8 8 0 0 1-3.7-1.8c-2.3-2-2.7-4-3-6.9zm13.3-147.2q.3-1 1-2c1.1-.6 9-.5 10.6-.3q.8.5 1.1 1.4c.8 1.7.7 8.5.7 10.8l-13.5.1c0-1.5-.2-8.5.1-10"/>
  <path fill="#889598" d="M375.5 104.4q.3-1 1-2c1.1-.6 9-.5 10.6-.3q.8.5 1.1 1.4c-1 .4-11.2 1-12.7 1"/>
  <path fill="#b9bbbd" d="M146 60.3c.8 0 1 0 1.5.4h-.1c-.5 4-1.6 9.8-1.8 13.5-.4 1.5-.8 4.4-1 6.1l-1.9 11.5-2.2 14.4c-.1.6-.8 4.4-.7 4.8l-.6 2.3q-.8 0-1.7-.4c.4-.9 1.5-10.2 1.8-11.8l5.8-35.3z"/>
  <path fill="#263940" d="M185 274.1q5-.9 10.1-1.4c3-.4 3.2.2 4 2.9.1 1 .4 2.4 0 3.4a56 56 0 0 1-12.9 2.3c.2-1.5.2-2.3.1-3.8l-1.4-3.4"/>
  <path fill="#4d5c63" d="M185 274.1q5-.9 10.1-1.4c3-.4 3.2.2 4 2.9l-.4.4-6.8.5c-1.3.1-5 1-5.6 1l-1.4-3.4"/>
  <path fill="#b9bbbd" d="m112.6 61 1.8-.5 4.3 27.1q2 10.1 3.5 20.2c0 .8.2 2.3.5 3l.1 2.3-1.4.3c-.5-2.2-1-6-1.4-8.2L116.6 86l-2-13.6c-.6-3.3-1.2-7.7-1.6-11.1zm-1.9 122.7 1.1.8-1.8 3.6-13.1 22.6c-3.6 6.1-7 12.8-11 18.7-.8-.4-.9-.4-1.4-1 4-6.4 7.9-13.7 11.7-20.2 4.7-8 10-16.4 14.5-24.5m104-47.9q.3 1 0 1.8c-12.6 2-25.2 5-37.8 7.1-1.2.2-9.3 1.5-10 1.8l-.1.3c-.2-.4-.3-1.6-.4-2 16-2.5 32.2-6.3 48.3-9m-121.3 21 .4 1.9c-4.1.4-14.5 3-18.9 4.2-9.6 2.3-19.9 4-29.4 6.3-.3-.4-.4-1.3-.5-1.8 7-1 16-3.3 23-4.8 8.3-1.9 17.3-3.7 25.4-5.8M45 135.7c12 2 24.3 5 36.4 6.8 3 .4 9.6 1.7 12.2 1.7q0 1-.3 2c-15.6-2-33-6-48.6-9zm133.6-61.1.6.7c-2.1 5-6.2 9.6-9.2 14.4L157.5 109c-1.7 2.7-4.8 7.5-6.8 10-.7-.5-1-.6-1.6-1.2 1.7-1.5 2.6-2.8 3.8-4.7 1.3-1.4 6-9.2 7.2-11.1q6.3-10 13.1-19.8c1.3-1.5 3.5-5.3 5.4-7.6m-12.5 83.9c0-.9 0-1 .4-1.8 3.2.4 8.7 1.7 12 2.5l19.7 4.8q8 2.1 16 3.4l-.5 1.9-21.4-5c-8-1.9-18.1-4.6-26.2-5.8m-44.3 33.8c1.6.6 1.3.6 1.4 2.3q-2.1 16.8-4.5 33.5c-.4 3-1.5 9.9-1.6 12.5l-1.6-.3c.3-1 .6-4.7.8-5.9 1.2-9.3 2.1-18.6 3.5-28 .8-4.4 1.4-9.6 2-14.1M99.3 172l.7 1.2q-3.1 2.6-6.4 5-12.3 9.1-24.8 18-2.9 2.2-5.8 4.1c-1.1.7-3 1.9-4 2.7 0-.2-.6-1-.7-1.2l8.3-6 24.3-17.7c2.6-2 6-4.1 8.4-6m103.7-70 .6 1.2-8.4 5.7a1740 1740 0 0 0-31 21.1l-2 1.6-1-1.6q6.9-4.3 13.5-9c9.4-6.2 18.6-13.3 28.2-19M81.3 75.5l.9-.7 1.2 1.3c6.6 9.7 12.4 19 18.4 29.1l8.2 13.1-1 .7c-.8-1-4.8-7.5-6-9.2-6.8-11.1-14.6-23.4-21.7-34.3m-24.2 26.8c2.3 1.2 5.1 3.3 7.3 4.7l18.9 13c1.6 1 5.1 3.6 6.7 4.4 2 1.7 6.4 4.6 8.6 6l-.5 1c-4.8-2.6-11.7-7.5-16.3-10.6l-25.4-17.3zm102.8 70.9.6-.8c8.8 6.1 18 13 26.8 19.4a232 232 0 0 1 13 10l-.5.9c-5.8-3.8-12.4-9-18.1-13.2l-13.7-9.9c-1.8-1.3-6.9-4.8-8.1-6.4M149 184c1.2 1 4.7 8 5.8 10q6.8 12.1 13.4 24.5c.9 1.7 4.6 8.5 5.1 10l-.3.1c-2.7-2.2-6.4-10-8.2-13.4l-8.8-16c-1.9-4.6-6-10-7.7-14.8z"/>
  <path fill="#6ecb8f" d="M394 119.1c5.7 1.5 9.8 4 10.4 10.5-1.6-.3-5-.3-6-.8-.7-5-1.4-5.5-4.5-9.7"/>
  <path fill="#03142a" d="M102 64c-.4 0-1.2 0-1.5-.2 3.2-.7 6.2-2.3 9.4-3 3.7-.8 7.1-1.8 11-1.9l-.5-.3a59 59 0 0 1 21 .2 60 60 0 0 0-13.3 0c-4.8.1-9 .6-13.7 1.7l-1.8.6q-5.4 1-10.6 2.9"/>
  <path fill="#889598" d="m122.5 188.6 1.1.3c0 1.6 0 4.1-.4 5.7 0-1.7.2-1.7-1.4-2.3z"/>
</svg>
