<svg xmlns="http://www.w3.org/2000/svg" width="850" height="684" viewBox="28 104 850 684">
  <path fill="#05202b" d="M602.7 107h.5c11.5.6 28.1-3.4 35.8 5 5.5 6.2 6.6 13.3 6.3 21.2q-.3 4.8-1.6 9.5 2.8 1.7 5.5 3.8c.7.5 2.8 2.1 3.3 2.7-1.7 1.7-2 1.8-4.1 2.9l-3-2.3-4-2c-2 2.4-2.9 3.6-5.5 5.6 6.7 1.2 13.3 1.7 12.6 10.5 7.3 6.3 12.2 9.4 17.1 18 1.2 2 5.5 11 6.6 12l-.1-1.7c2.2-.9 2.6-1.2 4.6-2.6 1.4 5.2 3 15.1 4.4 19l.8.4c2.2 1 2.8 1.6 3.5 4a92 92 0 0 1 2 12.8c-.7 1.5-1.3 1.7-2.7 2.5-.8 3.2 0 8.5-.2 12-.3 13.3 1.7 26.6 2 39.8.4 15-.3 31.3-1.8 46.2l-.5 7.4c-.3 3-1.6 18.8-2.4 20.5-.3 4-.7 10.5-1.4 14.4-.4 16.9 9.5 43.5 13.4 60.8l3.4 13.3c1.1 4 8.3 32.8 10.3 34 5.4 2.4 5.2 4.9 2.7 10l-.3 1.5c1.2 4.7 2.6 8.5 4.2 13.1 7.9-3 16.3-5 24.8-5.1 10.9-.6 34.3-1 43.3 5 3.1 3 3.5 4.5 1 8.3l-3.2 3c-1.5 1.5-3.4 3.2-4.7 4.7l.6.3c5.3 2.6 12.2 4.2 17.8 6.3a120 120 0 0 1 40.8 26.2c27 26.2 40.7 59.3 41.2 96.8q.3 14.5-2.6 28.8c-.8 4.1-2.2 9-3 12.9-2.6 5.3-6.9 22.5-11 27-2 4.5-13 22.1-16.4 24.5l-2.5 3.3a133 133 0 0 1-21.7 18.8A83 83 0 0 1 805 770q-2.2 1.5-4.8 2.5C788 778 768 785 754.6 784.8l-1 .1c-6.5 1-16.7.1-23.3-.7a131 131 0 0 1-111.7-97.4c-1.7-6.6-2.5-13.3-3.3-20-2.5 2.2-5.3 5.5-8.2 6.7-11.4 4.8-10.5-8.3-10.4-14.4a167 167 0 0 1 8.8-54.6c7.3-24.1 26.2-55.1 45.8-70.7 2.9-3.4 14.6-11.8 19-14.1-3.6-1.7-6.7-3-9.5-5.7-1.4-.5-4.4-3.8-5.1-5a51 51 0 0 1-5.1-32.8c.1-5 1.5-11.5 2.6-16.4-8.8 3.3-15.7 6-23.8 11.1-2.3 1.4-6 2.5-7.9 4.3-.3 1.6-.3 2-.4 3.7-2.4 2.1-12.4 5.3-15.3 3.4l-.5-1.4c-.5-.4-.2-.2-1-.5-4.3 1.9-10.7 4.8-15 6.2a178 178 0 0 1-44 7.5c-3.2 0-8.8 0-11.6.5-.8.8-.6.3-.7 1.4s.2 2.5-.7 3.2c-3 2.3-8 3-11.6 2.9-1.8-.1-2.5-2.8-3-2.9-3.2-.2-13.3 5.8-15.4 7-6.5 4.4-11.7 8.2-17.9 13l-6.7 5.4c-3.4-2.6-1-4-5.5-2.5 1.8-1.7 2.3-2 4.4-3.3-4.6-.3-10.3-.2-15-.2-1.5 3.5-12.7 27-12.7 27.5l.2.2c.4 1.5.7 3.5 1.7 4.2q1.3-1 2.9-1.6c-3.4 4.6-12.6 16-14 20.6-1.3 1.5-1.6 2.8-2.3 4.7a74 74 0 0 1 15.2 25.7c.4 1.3 2.7 10.6 3 11.1a75 75 0 0 1-3.1 36.9 66 66 0 0 1-14 23.6c-2.4 3-8.5 6.9-9 9 1.5 2.6 2 4.6 3.2 6.6l2.9 6.9 4.3 9.5c6 0 23.7-1.4 26.7 3.1 6.2 9.4 6.7 24.4-6.8 27l-40.3.2c-4.6.2-11.5.9-15.6-1.2-6.3-1.8-7-13.6-5.7-18.7 1.1-11.7 10.5-7.4 14.3-10.5-1.1-1.7-4.7-9.6-5.9-11.9-5 .5-10.3 2.3-15.8 3-6.8.6-14.3-.8-20.4-.1-11 1-22.4 3.5-33.4 5.3l-23 3.4c-3.3.5-9.7 1.6-12.9 1.7a86 86 0 0 1-10.2 1c-.6 1.4-1.7 4.3-2.4 5.3a77 77 0 0 1-6.4 12.3 132 132 0 0 1-73.9 55.9c-6 1.7-17 4-23.2 4.1a132 132 0 0 1-132.2-75.1A143 143 0 0 1 47.7 597c-17 5-21.4 1.5-12.4-14.9 2-6.1 11.5-19.8 15.5-25.6 2.5-2.3 7.5-9.8 11.3-13.7 1.3-1.8 8.2-8.5 9.7-10a159 159 0 0 1 63.1-35.6c23.6-7.4 59.7-6 82.3 4a94 94 0 0 1 19.1 7.7 155 155 0 0 1 22.7 13.6c14.2-11 27-21.7 42.5-31.3-2.3-8.1-7.6-24.4-9-32-2.2-.1-6.6-.1-8.3-1.3-10-7.1-8.3-21 4-23.8l-29-101-13.3-44.3c-2-7-4.9-16-6.3-23-11.9-1-13-3.6-16.8-14-4.4-.2-10 0-14.4 0a87 87 0 0 1-15.3-.6c-13.4-2.8-15.3-8.3-17-21-21.9-1.5-27.5-17.6-21.4-36.4a29 29 0 0 1 13.2-16.5c11-5.3 25-3 36.4-1.5 15 2.1 29.8 5.3 44.9 5.4q12 0 23.7-.6c12.2-.8 24.2-2 36.4-1.8 8.3.1 12.4.2 19.3 5.1 9.6 6.8 10.4 12 10.2 22.9-2 10.6-9 14.1-19.1 15.3-8-.2-22.6-.8-29.7 1.5-4 2.8-6.4 5-10 7.8-5.6 4.7-11.6 6-17 10.3 1.4 2 3.8 3.3 5 5.1 3 4.5.5 10.4 1.4 15.5 3.2 7.8 5.7 17.3 8 25.5 1.1 3.4 5 15.7 5.4 19q8.2 26.6 16 53.6l19.6 65.1c12.2-.7 15.2 4.1 16 15.8a48 48 0 0 1-4 6.3q2.6 8.6 5.4 17c1 2.9 2.7 7 3.4 9.7 5.4-1.2 11.2-3.4 16.4-5.3 29.5-10.6 59.3-20.2 89-30.2q4.5-1.5 9.2-2.8c0-16.6 0-23.2 20.5-22.7 9.5.2 13.7 3.9 15.7 13.1 2.8-.7 4-.8 6.8-1.2q-2.1-7.7-3-15.6c-.2-2-.5-4.6.7-6 2.6-3.1 10-4.2 13.8-5 22.5-4.9 44.8-10.4 67.3-15.2l5.9-1.4c-.9-8 1-8.2 8.4-9.5 5.2-1 6 2 7.8 6 8-1.9 16.8-6.4 19.6 3.8l.6 2.2q1.7 5.7 3 11.5 9.9-1.7 19.4-3.9c-1.9-9.2-3.8-16.8-5.4-26.4-12.8-2-12-8.2-13.8-18.8-23.3-5-6.2-19.7-3.7-33.4.5-3-2.6-9.2.3-12.6 2.2-2.6 5.4-2.9 8.6-3.4-2-8.1-3.5-21-5.4-30-7.1-35.3-12.5-71-19.7-106.3-5-1.7-7-3.4-10.2-7.2l-10 1c-5.2.6-13.3 1.8-18.3 1.9-3 1-8.8.4-11.7-1-9.2-4.2-11.1-17.6-6.7-26 5.6-10.7 23-7.3 33-8.5 3.7-.4 8 .4 9.6-3.2 1.3-7.5 5.2-11 13-10.7zm30.4 67.9c3.4 15.6 6 31.5 10 47.1 1.3 4.9 2.1 11.7 3.5 16.2.8 7.7 16.2 82 18.5 86.2 1.1.2 1.7.2 2.9.2l1-3.1c4-15.3 10.7-53.7 9.5-68.4.1-4.3-2-17-3-21.7-.2-.8-1.3-1-2.2-1.4l-.6-.2c-2.4-3-3.1-10.7-3.8-14.7.6-3 .9-2.9 3.4-4.7-5.1-15.5-12-31.6-25.9-40.9a24 24 0 0 1-4 4c-3.4 2-5.4 1.6-9.3 1.4M310.6 649.4l-8 .8c-.2 14-2.3 22.8-5.3 36.4-.6 2.5-2.8 8.1-3 9.6 1.4.3 1.4.2 2.9 0 6.3-1 14.2-1.4 20.2-2.5 9.7-1.7 18.2-3.3 28-4.5 3.9-.8 8.3-1.4 12.2-2-19-11.9-26.1-18-34.5-38.7q-1.7 0-3.3.2zM534.4 489c25.3.1 43.9-2.8 67-13.3 1-.9 1.2-.8 1.7-2-.6-2-2.6-1.4-4.4-1-6.6 1.1-13 3.1-19.5 4.6-7.6 2.1-39.2 8.7-44.8 11.7m123.4-26.7-2 11.7c-1.1 15.2-2.3 32.2 14.3 39.6l2.6 1 .2-.8c-2-5.4-4.2-12.4-7.6-17l-2.3-3.5-.3-.5c1.3-9-3.8-19.7-5-30.5m-169.5 47.2c2.3-2 4-3.8 6.8-5.4a75 75 0 0 1 20.5-10.5l.2-.6c-2.4 0-22 4.6-26.7 5.4q0 5.6-.8 11m256.4 42.8a80 80 0 0 0-15.5 1.7q3.2 11.3 6.6 22.5c.4 1.4 2.5 7.2 2.6 8.3 4.3 11.5 7.3 19.5 10.5 31.5 14.8 2 22.3 7.8 28.8 21.1l.3 1c1.9 14.3.6 27.8-11.5 37.4l-.5.6c-6.4 3.8-12.5 6-20 6.4l-1.3-.2c-7.3 0-13.4-2.6-19.4-6.4-8-7.3-12.8-14.6-12.7-25.8.1-6 .5-10 3.4-15.3l2-4a73 73 0 0 1-4-7.6c-2.2-2.7-6.3-13.2-7.7-16.7a238 238 0 0 1-12.8-31.6l-1.9-4.7c-12.3 8.6-13.9 12.5-22.6 23-1.7 3.2-4 6.2-5.7 9.5l-4 7.7-1.5 4.8c0 1.6-2.6 5.8-3.4 8.6-1.6 6-2.2 10.7-2.9 16.7-.2 23 2 41.7 14.4 61.7a87 87 0 0 0 22.3 25.7c14.3 13 37.7 21 56.9 20.5l2 .2c20.1-1 39.9-7.8 55-21.4a97 97 0 0 0 31-43c19.1-54.7-8.8-116.5-67-130.2-4-1-16-3.6-19.7-2v2.4l-.8-.1c-.5 2.3-.3 5-.7 6.5zM679.4 332q0-3 .3-5.8c.8-9.2 2.1-30.9 1.7-39.8-.4.4-6.2 31.6-7 35.4-.2 2-.8 3.3.7 4.7 1 1 3.6 5.4 4.3 5.5m-315 209.6c-.4 4.3-1 5-3.4 8.5.7 1.8 2 4.7 2.4 6.5a70 70 0 0 1 46-1.1q.8-2.3 2-4.5c3.8-11 11.8-24.7 14.9-34.4-17 5-33.4 11.3-50 17.5-2 .8-10.4 3.4-11.6 4.3-.2 1.3-.3 1.9-.3 3.2m-211.9 11.8-1.2-1c-1.1.6-.7.4-1.5 1.7l-1-3a77 77 0 0 0-36.5 17.7c-2.5 2-4.5 4.3-6.4 5.9l-.6.7A71 71 0 0 0 94 589.3l2.9 2.6c6.5 4.3 13.4 9 20 13q3.3-3.2 6.1-6.7l1-.7a79 79 0 0 1 10.9-8.3c5-4.6 15-6.7 20.3-9.2v-1c1.2-.5.9-.3 1.8-1.2l.4 1.6c1.8.3 6.1-.4 8.3-.5 5.6-.2 12 0 17.4 1.4 2.6.5 7.7 1.8 10 1.7 0-2.5 6.4-25.9 7.5-28.4-3-4.2-24-5.7-29.2-6.5h-.5c-4 .5-16.5 1-18.8 3.1 0 1.6.1 1.8.4 3.3m47.7 188.7a99 99 0 0 1-7.4-23.4c-3.2 0-7-1.2-10-1.3-4.8-.2-9.5.2-14.2 0-2.3 0-11.2-1.1-12.6-.7l-.4 1.4c-.2-1-.4-1.4-.8-2.2a75 75 0 0 1-30.9-16.4l-1-.7c-.7-1-3.7-4.4-4.7-5.6a76 76 0 0 1-8.6-12.4c-2.2-4-3.3-8.8-5.2-12.7l-.4-.8-.6-1.8c.2-1.7-1.2-11.3-1.4-13.8q-.2-4.2 0-8.5c.1-5 1-9 2.1-13.9l.1-1.5c-1.1-1.1-1.4-.9-3.3-1.3 1-.7 1.4-1.1 2.2-2 1 .3 1 .3 2 0 1.7-2.4 2.8-6.2 4-9q-3.8-2.4-7-5.1A165 165 0 0 1 87 600a71 71 0 0 0-7.1 17.7l-.7 2.4-.5 2.7a121 121 0 0 0 1.3 51.7c1.7 8.5 6 16.6 9.9 24.3 1.5 1.8 2.9 4.4 4.3 6.4a90 90 0 0 0 11.3 13.6l.5.2c1 1.1 6.5 6.5 6.8 7 3.2 2.3 7.2 5.8 10.3 7.7 6.2 3.7 14.3 6.7 21 9.4 2 .4 2.3 1 4 .6l.4-1.3c1.4.3 1.3-.2 2.4-.4 0 .8-.4 2.1 0 2.5 2 1.7 7.7 1.8 10.7 2.5 7.4.4 12.2.3 19.4-.4 7-1.3 12.5-2.4 19.1-4.5m28.7-27.4H227l-.4.2c-7.5.2-15.3 2.1-22.4 2.2-2 .4-8.9 1.4-10.5 1.2 2 5.6 3.2 11.5 5.4 17a38 38 0 0 1 2.3 6.1c.7 0 2.5-.8 3.3-1 7.3-3 11.4-5.2 17.8-9.6 3.9-2.7 7.5-6.2 11.2-9.3l.5-.4c1.3-1.8 4-4.4 5.5-6.1.8-1.1 1.1-1 1-2.2q-6 .8-11.9 1.9M211.1 703l-1.5 1.4-1.6 3.6q6.3-.5 12.6-1.4c1.8-.7 2.3 0 4.5-.6l10.8-1c1.8-.7 10-1 12.2-2 3.3-1.5 3.8-3.8 5-7l1-1.3a71 71 0 0 0 6.5-18.1c2.6-7.7 1.8-14.5 3.5-20.6l-1.8-.2c-2.7.5-9.3 1.4-12.2 1.5-3.1.6-13 .8-14.6 2.8l-.3 1.5c-.6 4.1-1 5.8-2 9.6-.7 2.5-4.1 10.5-4.1 11.7l.5.1-1.3 1.1c-3 3.8-9 11.9-12.4 15.1l-1 .8zm22-85.4 1.8 1.9-1.9.7c-.4 1.3 0 1.7.4 3.4.6 2 1 3 1.3 5 4-.7 24.7-2.6 26.4-3.8l.5-1.2c-1.2-3.5-2.1-11.1-4.2-13.3l-.6-.8c.4-1.4 0-3.3-.1-4.8-1.3-1-1.9-.8-3.5-.9-8.2 2.7-17.2 4.4-25.9 7.2q1.4 2.9 3.3 5.6l.8 1.3c1.2 0 .8 0 1.8-.3m192-21.6-1.4-1.2a110 110 0 0 0-8.4 15.3l.6.2c11.4-1.3 15.5-2.5 9.2-14.3m-95-14.2-6.8 1.4c-2.2.5-15.6 3.4-16 5.2 1.6 4.7 3.8 11 4.7 15.7 1.7 3.5 1.2 9.7 3.4 13.2 1.2.8.6.6 2 .5.9-1.4 1.6-6.6 1.9-8.5 1.5-10.5 6.8-18 10.8-27.5m65.3 88.5c-3.3-6.6-6.1-14-9.7-20.4-1.5-2.7-5.4-1.1-7.3.4a22 22 0 0 0-8.4 14.8c5.5 4.4 12 5.2 18.8 5.8 2.5.1 4.2-.2 6.6-.6M351 643.6c-1.4.2-2.3.1-3.5.8.2 1.7 2.1 4.2 3.3 5.4 3.3 3.3 7-4 8.8-6.5-.7-.5-3.5-.3-4.7-.2-1.8.4-2 .4-4 .5m-70.2-100c4.2 5.4 13.4 15.9 15.8 21.6 2.1 2.9 5.7 10.6 7.4 14.2l.8.3c5.4-1.1 14.2-4.7 21.2-6.3-2.1-4.3-2.9-11.4-5-15.8l-3-3c-3.3-2-5.2-4.4-7.7-7.3a35 35 0 0 1-6.7-17.6l-.4-2.6-.5-.2-2.3 1.5c-1.8 1.7-18 14.3-19.6 15.3M386 589.5c.6 1.9 2 5.7 2.3 7.4l.8.1c2-3.5 7-15 8-19l-.3-.4c-5.3-1.4-9.8-1.1-15.3-1.2l1.9 5.5c.8 2.3 1.7 5.5 2.6 7.6m-41.8 25.2c1.4 0 5.4.4 6.5.3 1.8 0 3 .3 4.3-.6a50 50 0 0 0-6.6-10.5c-3 4-3 6-4.2 10.8M631.7 324l-2.7 7.2.2.4.3-.1 2.6-.7c1.1-2.1 0-4.4-.4-6.8M418.5 658.5c6.6-6.3 14.6-17.8 13.1-27.4-5.9-.8-10-1.5-16 0-3.5 3-4 3.9-5.6 8.1.9 4 6 17 8.5 19.3m-42.8-80.7-1.3.3a54 54 0 0 0 7.7 20.5h.5c0-1.2 0-1.1-.2-2.2l-1.8-5.2-2.4-7c-.6-1.9-1.7-4.5-2.5-6.4m-136 2.9c-4 2.7-18.5 16.3-20.3 20.3l1 1.3c3.3 2.8 24.8-6 30.3-6.4-2.8-5.3-6-11.7-11-15.2m71-59.7c-2.8 3-2.3 4-1.8 8 2.4 9.7 5.2 16.5 14 22 4.5 1.8 9.5 3.2 14.4 2.8 5.5-.4 22.5-5.2 21.6-12.4l-.8-.4c-5 4.2-6.2 4.6-12.2 7.2-4.5 1.3-6.8 2-11.5 2a24 24 0 0 1-12-3.4c-7.7-4.1-9.8-12.9-10.6-20.7-.1-1.6-.4-3.8-1.1-5m-109.4 33c-.4 6.1-5.2 21.8-7.1 28.5l.9.8c2.1-.5 18.9-19.3 21.8-22.5-3-1.7-12.3-7-15.6-6.9"/>
  <path fill="#04a78e" d="M645.2 368.8c8-1.2 15-4 22.9-5 .6 3.2 1.8 7.2 2.7 10.5l5.3 23.5c3.3 13.8 7.7 28.2 10.8 42l1.1 4.4c1 4.8 9.5 33.3 8.5 35.8-1.6 1-1.9 1.1-3.7 1.8-6 2-14.1 3.9-20.3 5.5-2.4-6.4-3-13-4.6-19.5l-4.7-17.6q-1-4.6-1.3-9.6c-19.8 4.8-43.9 10-63.6 14.5-10 2.3-69.5 17.3-74.5 15.7-.9-.8-1-.9-1.5-2 0-14.7-18.8-15-29.4-13.2h-.8c-1.3 0-.8.2-2-.3-1.4-3.8-.7-11.6-.4-15.7 0-1.2.1-1.4.4-2.5 2.3-2.5 25.6-6.4 30.5-7.8 10-2.8 20.9-4.9 31-7.3q23.2-6 46.6-11.3c15.7-3.6 32.6-6.7 48-10.9l4.2-1c-.5-10.3-3.6-19.5-5.2-30"/>
  <path fill="#3fd0b1" d="M489.7 439.6c0-1.2.1-1.4.4-2.5 2.3-2.5 25.6-6.4 30.5-7.8 10-2.8 20.9-4.9 31-7.3q23.2-6 46.6-11.3c15.7-3.6 32.6-6.7 48-10.9q2 .9 3.8 1.1v6.7c-11.8 1.8-28.3 6-40.3 8.8L542 432.2l-33.9 7.8c-6.5 1.4-10.1 1.3-16.5 3.8-2-.7-1.7-2.2-1.9-4.2M663 372c4.6-.5 4.3-1.5 7.8 2.3l5.3 23.5c3.3 13.8 7.7 28.2 10.8 42l1.1 4.4c1 4.8 9.5 33.3 8.5 35.8-1.6 1-1.9 1.1-3.7 1.8l-1-.5c-2.4-4.2-6.8-20.9-8.3-25.8-1.9-6-4.5-12.7-6.2-18.7-3.3-11.7-5.6-24-8.3-35.7s-5.5-16.6-6-29.2"/>
  <defs>
    <linearGradient id="a" x1="247.3" x2="242.9" y1="226.6" y2="179.3" gradientUnits="userSpaceOnUse">
      <stop offset="0" stop-color="#965f26"/>
      <stop offset="1" stop-color="#dfaf7c"/>
    </linearGradient>
  </defs>
  <path fill="url(#a)" d="M154.8 193.9a29 29 0 0 1 13.2-16.5c11-5.3 25-3 36.4-1.5 15 2.1 29.8 5.3 45 5.4q11.8 0 23.7-.6c12.2-.8 24.1-2 36.4-1.8 8.3.1 12.4.2 19.3 5.1 9.6 6.8 10.3 12 10.2 23-2 10.6-9 14-19.1 15.2-8-.2-22.6-.7-29.8 1.5.5-1.3 1.4-1.2 2.7-1.5.8-2.8-2.4-3.5-2-8.6-1.7-1.5-8.8 2.4-12.2 1.2-2 .4-4.9 1-6.7 1.9-3.5.9-14 4.1-17.3 5.9-11.6 3.5-21 7-33.2 7.2-7.4-.1-15-1.5-22.4-2.4-1.4-.7-5.8-1.3-7.5-1.8-12.8-4-34.7-6-28.1-25 3.8-11 6-14 17.6-16l-2.4-.5c3-1.5 12 .2 16.1.1-.8-1.5-6.6-6.2-8.8-6.3-4.2-.3-1.6-3.7-6.2-2.5l-1.2 1.1c-2.4-.4 0-1-2.4-.8l-.2.4 1.7.9-.2.6c-3.4 1.9-7 2.7-10.5 4.5-2 1-3.3 2.8-5.2 3-.1-1.8.7-.3.5-2-2 1.9-2.2 2-1.7 4.7-.6 1-1 1.2-2 1.9q-1.1 2.7-3.7 4.2"/>
  <path fill="#021521" d="M154.7 193.8a29 29 0 0 1 13.2-16.5c11-5.3 25-3 36.4-1.5 15 2.1 29.8 5.3 44.9 5.4q12 0 23.7-.6c12.2-.8 24.2-2 36.4-1.8 8.3.1 12.4.2 19.3 5.1 9.6 6.8 10.4 12 10.2 22.9-2 10.6-9 14.1-19.1 15.3-8-.2-22.6-.8-29.7 1.5.5-1.3 1.4-1.2 2.6-1.6.8-2.8-2.3-3.4-2-8.5-1.7-1.5-8.7 2.4-12.2 1.2l4.4-1.1c17.2-3 23.4-1.5 40-2 1.6-.2 2.8-.4 4-1.6 2-2 2-5.7 1.8-8.4-.2-3.4-1.4-6.7-4-9-7.8-6.7-45.5-2-56.5-1.5-10.6.4-21.4.8-32 0-11.7-.7-23.3-3-35-4.7-6.7-1-13.3-2.4-20.2-2l-2.4-.4c3-1.5 12 .2 16.1.1-.8-1.5-6.6-6.2-8.8-6.3-4.2-.3-1.6-3.7-6.2-2.5l-1.2 1.1c-2.4-.4 0-1-2.4-.8l-.2.4 1.7.9-.2.6c-3.4 1.9-7 2.7-10.5 4.5-2 1-3.3 2.8-5.2 3 0-1.8.7-.3.5-2-2 1.9-2.2 2-1.6 4.7-.6 1-1 1.2-2.1 1.9q-1.1 2.7-3.7 4.2"/>
  <path fill="#8b582b" d="M282.8 213.6c2.4-2.5 14.1-3.2 18-4 1.6-.3 8.2.7 10.2.9 3.4.3 9-.3 11.8 1.1-16.6.5-22.8-1-40 2"/>
  <path fill="#475457" d="M493.8 409.6c-.2-2-.5-4.6.7-6 2.6-3.1 10-4.2 13.8-5 22.5-4.9 44.8-10.4 67.3-15.2 1.2.9.8.3 1.2 1.9-.2.7-1.2 3.3-1.3 4 2.4-.7 5-1.5 7.3-1.5.8.7.5.3.8 1.2l2.9 15.2c-5.8.8-11.9 2.4-17.6 3.7-22.1 5.2-44.7 9.9-66.7 15.7q-1.6-7-3-14.3v-2.2l-.7 1.2-.2-.2c-2.2 1.6-2.1 1.9-4.5 1.5"/>
  <path fill="#021521" d="M493.8 409.6c-.2-2-.5-4.6.7-6 2.6-3.1 10-4.2 13.8-5 22.5-4.9 44.8-10.4 67.3-15.2 1.2.9.8.3 1.2 1.9-.2.7-1.2 3.3-1.3 4L522 401.4c-4.3 1-20 4.2-22.9 5.6l-.6 1.2-.2-.2c-2.2 1.6-2.1 1.9-4.5 1.5"/>
  <path fill="#8a9292" d="M575.5 389.2c2.4-.6 5-1.4 7.3-1.4.8.7.5.3.8 1.2l-.3 1.6c-1.5 1-14.4 3.2-17.3 3.9q-33.2 8.1-66.7 14.8l-.2-2.2a233 233 0 0 1 22.9-5.6q26.8-6 53.5-12.3"/>
  <path fill="#021521" d="m642.3 173.6-.4-1.3c.8-3.2 3-7.8 6.6-8.4 7.3 6.3 12.2 9.4 17.1 18 1.2 2 5.5 11 6.6 12l-.1-1.7c2.2-.9 2.6-1.2 4.6-2.6 1.4 5.2 3 15.1 4.4 19l.8.4c2.2 1 2.8 1.6 3.5 4a92 92 0 0 1 2 12.8c-.7 1.5-1.3 1.7-2.7 2.5-.8 3.2 0 8.5-.2 12-.3 13.3 1.7 26.6 2 39.8.4 15-.3 31.3-1.8 46.2-1.3 1-1.5 2-3.1 2.4-1.2-.6-1.3-1.3-2-2.4 1-9.2 2.2-30.9 1.8-39.8-.4.4-6.2 31.6-7 35.4-2.7 2.1-3 2.4-6.4 2.7l1-3.1c4-15.3 10.7-53.7 9.5-68.4.1-4.3-2-17-3-21.7-.2-.8-1.3-1-2.2-1.4l-.6-.2c-2.4-3-3.1-10.7-3.8-14.7.6-3 .9-2.9 3.4-4.7-5.1-15.5-12-31.6-25.9-40.9a24 24 0 0 1-4 4"/>
  <defs>
    <linearGradient id="b" x1="294.6" x2="266.6" y1="429" y2="261.9" gradientUnits="userSpaceOnUse">
      <stop offset="0" stop-color="#808889"/>
      <stop offset="1" stop-color="#a3a6a5"/>
    </linearGradient>
  </defs>
  <path fill="url(#b)" d="m254.2 266.5-1-1.3c.8-2.2 4.2-2.4 6.4-2.9.6 2 2.2 7.5 2.9 9 1.2 1.1.5.8 2 1.1 2-1.2.8-2 2.9-4.5 2.5-1.2.8.4 3.3 1 .5-2.7-2-2.7-1.1-6.5 3.2 7.8 5.6 17.4 8 25.5 1 3.4 5 15.7 5.3 19l-.7-.3-.8-1.7c-1.5 2.7-1.3 3.6-4.3 4.5q-1.4.3-2.1 1.4c-.6 2.5 1 2.5.2 5.2 2.9 12.6 8.1 25.7 11.4 38.1 4.5 16.7 9.5 32.8 14.5 49.3 2.8 9.2 4.6 15.8 8 24.8l-.4.2q-1.6.7-3.2 0c-4.6-2.2-25.9-80.1-29.6-91-1.6-6.3-5.5-14.3-7.7-20.7q-2.4-7.3-4.3-14.5c-2.4-9.5-5.4-17.8-8.3-27-1.2-3.9.4-5.6-1.4-8.7"/>
  <path fill="#021521" d="M269.4 262.3c3.2 7.8 5.7 17.3 8 25.5 1.1 3.4 5 15.7 5.4 19l-.8-.4-.7-1.7c-1.5 2.7-1.4 3.6-4.4 4.6-1 .3-1.4.5-2 1.4-.6 2.4.9 2.5.2 5.1-1.3-3.2-2.7-9.3-3.8-12.9-3-9.8-7.2-22-9-31.8 1.3 1.2.6.9 2 1.2 2-1.2.9-2 2.9-4.5 2.5-1.2.8.4 3.4 1 .5-2.7-2-2.8-1.2-6.5"/>
  <path fill="#01816c" d="M522.3 468.9c.5 1 .6 1 1.5 2 5 1.5 64.5-13.5 74.5-15.8 19.7-4.5 43.8-9.7 63.6-14.5 0 3.4.7 6.4 1.3 9.6-3.5-1.2-3.7-.5-7 .2-44.9 9.5-89.5 21-134.1 31.3l-1.5-.3c-1-1.3-.6-1.3-.5-3.5 1.8-3.4 1.8-5.3 2.2-9"/>
  <defs>
    <linearGradient id="c" x1="404" x2="413.9" y1="669.4" y2="665.1" gradientUnits="userSpaceOnUse">
      <stop offset="0" stop-color="#48555a"/>
      <stop offset="1" stop-color="#7b8584"/>
    </linearGradient>
  </defs>
  <path fill="url(#c)" d="M387.3 633.4c2.2-4.2 6.6-1.3 8.4-4.9.3 2 .8 2.2 2.3 3.6 2.3 7.7 8.4 18.7 12 26.1 2.3 4.8 9.4 22 11.9 25.3 1 2.4 4 9.1 4.5 10.8l.9.4c.6 2.8 3 6.9 4.3 9.5-5 .1-7 .2-11-3.2-3.6-3.2-10.5-21-12.8-25.5-5.2-10.6-9.8-21.4-15-32-1-2-4-8.7-5.5-10"/>
  <path fill="#636e6f" d="M420.3 700.6c-4.8-12.2-9.4-17.4-12.8-31.8l.8.6c.5-.7-.4-1.5-.6-3.4l.4.1c2 5 4.3 9.3 6.4 14.9 2 5.5 10.9 14.2 13.6 20.2q.8 1 2 1.5c-1.6-2.2-3.9-6.1-3.9-8.8l.9.5c.5 2.7 2.9 6.8 4.3 9.4-5 .2-7 .2-11.1-3.2"/>
  <path fill="#04a78e" d="M716 508.2c14.2-2 30.3-4 44.5-3.2 2.6.3 8 1.2 10.3 1.3 1.7.3 2.4.4 3.9 1-.7 1.2-8.4 6.1-10.2 7.4-17 0-28.7-.4-45.7 3.3-1-2.9-2-6.8-2.8-9.8m-252.3-30.4 10.7.8c1.5 0 4.7.2 6 .6.7 7.7 0 14.6.2 22.2-6.1-3-11.7.3-16.7-1.4l-.7-1.4q.1-10.5.5-20.8"/>
  <defs>
    <linearGradient id="d" x1="567.7" x2="569" y1="482.9" y2="490.7" gradientUnits="userSpaceOnUse">
      <stop offset="0" stop-color="#01162c"/>
      <stop offset="1"/>
    </linearGradient>
  </defs>
  <path fill="url(#d)" d="M601.7 476c1.5 1 2.3 2.9 3 4.7-4.4 1.8-10.8 4.8-15 6.1a178 178 0 0 1-44.2 7.5c-4-.5-10 .6-12.4-1.1-.3-1.5-.3-.7.7-2.4l-2.5-1.3c2 .4 1.9.6 3.4-.2 25.4.1 43.9-2.8 67-13.3"/>
  <path fill="#021521" d="M297.2 696.1c6.3-.8 14.2-1.3 20.2-2.4 9.7-1.7 18.2-3.3 28-4.5l2.5.2c.4 1 .4.5 0 1.6a21 21 0 0 1-8.5 4.1l-.6.2h-.3l-.7 1.4 1.3.7c-3 .1-4.1.5-6.8-.7l-.3-.7.4-.4c-2.8-.1-4.3.2-7 .5l-.3.5c1 .8 1 .5 2.6.4-.6 1.2-.5.6-.4 2 2.6 3.7 5.2-2.2 9.7.7l-23 3.4c-3.3.5-9.7 1.6-12.9 1.7l-3.5-.3c1.6-.2 5.9-.1 6.8-.8l-.8-1h-.6l-1.3-1.2c0-.7 0-.8-.2-1.5-2.3-2.5-1.5-2.7-4.3-3.9"/>
  <path fill="#636e6f" d="M275.7 337.3c3.8 10.8 25 88.6 29.7 90.8q1.4.7 3.2.1l.3-.2v.3c-1.1 1.6-7.7 2.4-10 2.8-1-8.6-2.4-10.4-5-18.8-2-6.3-4.4-14-6-20.4-1-8-3.3-12.3-4.9-19.6-2.4-10.8-8-24.3-7.3-35"/>
  <defs>
    <linearGradient id="e" x1="492.5" x2="494.9" y1="473.1" y2="460.9" gradientUnits="userSpaceOnUse">
      <stop offset="0" stop-color="#969da0"/>
      <stop offset="1" stop-color="#c2c9c5"/>
    </linearGradient>
  </defs>
  <path fill="url(#e)" d="m481.2 461.2 9.3.6c4 0 9.8.3 13.6-.1l1 .2c3.4-.1 5-.3 8.1 1.3l2.1 2.9c-2.7 5-9 4-14.2 4-5.1.2-13.2.1-17.7 1.9v.3l1 .3-.9.4c-3.7-.7-7.3-1.2-11-.5l-3-.3c3.2-.6 8-.5 11.4-.5.3-3 .5-7.6.3-10.5"/>
  <path fill="#aaacac" d="m513 463 2 2.8c-2.7 5.1-9 4-14.2 4-1.2-.4-1.6-.2-2.8-.7l.5-.4c5.7.5 8.1-1.9 13.2-3.8z"/>
  <path fill="#d6d9d8" d="M504.7 461.6c3.5 0 5-.3 8.2 1.3l-1.2 2c-3 .5-8.7.8-11.4-.5l.2-.4h2.2l.6-1.4-1-.5c.5 0 1.9-.3 2.4-.5"/>
  <defs>
    <linearGradient id="f" x1="661.4" x2="651.4" y1="491.5" y2="493.7" gradientUnits="userSpaceOnUse">
      <stop offset="0" stop-color="#001321"/>
      <stop offset="1"/>
    </linearGradient>
  </defs>
  <path fill="url(#f)" d="M651 476.5c1.7-3 1-3.4 2.3-6.4h.5c1 1.9 1.9 2.1 2.4 4.1-1.2 15.2-2.3 32.3 14.3 39.7-1.9.7-.7.5-2.6 0l-3.2.8q-1.6.3-3.3-.4h-.3c-1.3-.5-4.3-3.8-5-5a51 51 0 0 1-5.2-32.8"/>
  <path fill="#243d43" d="M381.6 630.7c-3-4.2-3.1-10.5 2.1-13 4.4-2 7-1.1 11.1.3 3.4 1.6 2.2 8.5 2.3 11.8l.6 2c-1.5-1.4-1.9-1.6-2.3-3.6-1.7 3.5-6.1.7-8.3 4.9-3 1.2-3.8.1-5.5-2.4"/>
  <defs>
    <linearGradient id="g" x1="388.4" x2="387.4" y1="629.7" y2="617.6" gradientUnits="userSpaceOnUse">
      <stop offset="0" stop-color="#4f6268"/>
      <stop offset="1" stop-color="#727c7e"/>
    </linearGradient>
  </defs>
  <path fill="url(#g)" d="M381.9 631c-3-4.2-3.2-10.4 2-12.9 4.4-2 7-1.2 11.1.3.9 2 1.2 2.6 1.2 4.7l-.4.8c-1.5-.4-2-1.3-3.2-2.7-5.3-.2-9.5-1.8-9.7 4.8.2 1.3.7 3.2.3 4.4z"/>
  <path fill="#475457" d="M382.7 625.6c.4 1.3.9 3 2 3.7a4 4 0 0 0 3.4.3c2.9-1 4-2.4 7.2-2.6 1.4 1 1 1 1.8 2.8l.6 2c-1.5-1.4-1.9-1.6-2.3-3.6-1.7 3.5-6.1.7-8.3 4.9-3 1.2-3.8.1-5.5-2.4l1.4-.6c.4-1.2-.1-3.1-.3-4.5m214.9-241.1c3.5-.7 10-3 13.5-2.6q.7.3 1.1 1.7c.8 3.5 2.6 11 2.3 14.3-3.5.2-9.3 1.7-12.9 2.6l-3-13.8z"/>
  <path fill="#969a99" d="M597.6 384.5c3.5-.7 10-3 13.5-2.6q.7.3 1.1 1.7c.8 3.5 2.6 11 2.3 14.3-3-2.3-5-8.7-6.6-12.4-3.2.5-6 1-9.3 1.2z"/>
  <path fill="#021521" d="M135 497.2c23.5-7.4 59.6-6 82.2 4-3.7.5-3.7-1.4-6.3-1-.5 1-.4 1-1.3 1.6-4.5-.5-22.1-3.6-25.3-6l.7-1c-.5-1-.8-.7-2-1.2l-.9.5-.4-.6h.3l-.3.2 1.7 1.9-.4.4-1.6-.1-1.4-1.8c-9.1-1-9.6-2.8-18.2 2.2-.4.2-2.9 1.2-3.8 1.3-1.2 0-11.7 0-11.9-.2-3.8-4-7 1.4-11.2-.2"/>
  <path fill="#d6d9d8" d="M462.2 460.6q9.4-.2 18.7.4c.2 2.9 0 7.5-.2 10.4-3.5 0-8.2 0-11.5.5-1.6.2-4.9.2-6.6.2z"/>
  <path fill="#020507" d="M589.9 372.5c5.2-1 6 2 7.8 6 8-1.9 16.8-6.4 19.6 3.8l.6 2.2c-.8 1.2-1 1.7-2.3 2.6-1.6-.5-1.4-1.3-2.9-3l-.5-.5q-.4-1.4-1-1.7c-3.6-.5-10 1.9-13.6 2.6-1.1 1.4-.5 1-2 1.3-1.1-.5-1.2-.4-1.9-1.3l-.4-1.4c-.3-1.9-.5-4.7-1.6-6-2.2-.3-2.6-.2-4.5-1.2-.2-1.3-.2-.6.6-2 1-.4 1.3-.7 2-1.4"/>
  <path fill="#475457" d="M263.7 302q2 7.3 4.3 14.5c2.2 6.4 6.2 14.4 7.7 20.8-.7 10.7 5 24.2 7.3 35 1.6 7.3 3.8 11.6 4.9 19.6-2-5.3-4.3-14.3-6-20l-14-46.1c-1-3.3-4.3-15.7-5.5-18 .1-2 .9-3.7 1.3-5.8"/>
  <path fill="#021521" d="M495 504.1a75 75 0 0 1 20.6-10.5l.7.4-.3.5c.3 3.7 1 2.2 3.3 4.8l.7-2q1-.5 2-.7c3-.1 4-.3 7-1 1-1 .4-.7 1.7-1 .9 1 .8 1 1.4 2.2.7-.6.5-.3.9-.8 0 1 .2 2.5-.7 3.2-3 2.3-8 3-11.6 2.9-1.8-.1-2.5-2.8-3-2.9-3.2-.2-13.3 5.8-15.4 7-1.6-3.7-3.9-3.1-6.6-1.6zm259.6 280.7-4.3-.4 8.9-.7q-2.8-.3-5.6-1l-.4-.7c2-2.3 22.5-6 26.3-6.3 7.5-.5 5.8.7 13-3.2 6.5 2 3.1-.5 7.8 0-12.3 5.4-32.3 12.4-45.7 12.3"/>
  <path fill="#8a9292" d="M515 465.8c.4 6.8.4 9.2-7.4 9.5-4 .2-10.8-1-14.4-.4-3.2-.6-7-1.1-10-2.1l.9-.5-1-.3v-.3c4.5-1.7 12.6-1.7 17.7-2 5.2 0 11.5 1.2 14.2-4"/>
  <path fill="#021521" d="M421.7 683c1.6 0 3.8-2 5.5-3 .8 0 .9.2 1.6-.2l.7.8c1.5 2.5 2 4.5 3.2 6.5l2.9 6.9-.2 3.3c-1 1.4-.4 1-1.9 1.4-3.6-1-4.8-5-6.7-6l.5 1.2-.2.5-.9-.5c-.5-1.7-3.6-8.4-4.5-10.8m183.8-78.6c7.3-24.1 26.2-55.1 45.8-70.7-1.2 4-5.4 6.2-7.9 9-1.1 1.1-1.6 5.6-4 6.8-2.3 1.2-2.4.3-4.3 2.3-1 3-.4 4-3.5 4.8-1 1.2-1 2.2-1.3 3.8 1-1.1-7.5 8-5.5 6.3-6 4.8-15.3 35.8-19.3 37.7M739 496.2c10.8-.6 34.2-1 43.2 5-.5 1.2-.4 1.4-1.5 2-4.2.9-5-2.2-8.9.1l-.2.7c1.3 2 .5 1.3 2.6 2.1-.5-.2-2.5.1-3.4.2-2.3-.1-7.7-1-10.3-1.3 2.5-1.2 8-1.3 8.7-2.2-5-4.3-11-3.4-13.7-4.8v-1.5c-4.2-.4-14 1.1-16.6-.3"/>
  <path fill="#01816c" d="m463.2 498.6.7 1.4c5 1.7 10.6-1.7 16.7 1.4q.2 3.3 0 6.5c-7 .7-9.2.8-16.1-.2z"/>
  <path fill="#021521" d="m263 241.7-.2-.7c1.6-1.8 3-2.3 5-3.4l.1-.6-1.7.4-.7-.5c0-1.7 0-2-.4-3.6l-.6-.2c-1 .9-1.1 1.2-2.4 1.4l.3.4h-.2c-.8-6.5 5.8-7 10.6-6.5 1.6.1 4.7.1 6 .6l1.2 2.4c-5.6 4.7-11.6 6-17 10.3M62.1 542.8c.1 1.7.1 1.7-1.2 3-1.2 1.2 0 3.4-.6 4.6-5.5 10.7-16.6 16.7-21.7 27.4-.7 1.3-2 4-3.3 4.3 2-6.1 11.5-19.8 15.5-25.6 2.5-2.3 7.5-9.8 11.3-13.7"/>
  <path fill="#243d43" d="M185.7 232.6c10.9 3.3 10.3 4.7 22.9 6.6l1.2-.1c1.9.7 1.2.1 2.2 1.5l-.1.7c-2 1.8-7.9 1.1-10.7 1.1-9.9 0-12.3-1-15.5-9.8"/>
  <path fill="#021521" d="M198.9 227.2c7.3 1 15 2.3 22.3 2.5l.4.7c-1 .3-1 .3-2 .3-2.4 2.7-5.6 8.3-9.8 8.4h-1.2l.6-.7c-2.4-3-3.6-6-5.6-9.3 0 .1-3.6-1-4.7-1.9M185 783.4l-3.6-.2v-.2l2.7-.1c-1-.7-.8-.2-1.2-1.4 3.4-6 16.9-5.5 22.6-3.4.3.6 0 .4.6.8 1.3-.3.6-.3 2.1.4-6 1.7-17 4-23.2 4.1"/>
  <path fill="#243d43" d="M254 266.3c1.9 3.2.3 4.9 1.5 8.7 2.8 9.3 5.9 17.5 8.2 27-.4 2-1.2 3.8-1.3 5.8-1.2-3.2-1.7-7-2.7-10.2-4.5-13-7.3-17.6-5.7-31.3"/>
  <defs>
    <linearGradient id="h" x1="594.5" x2="591.3" y1="401.6" y2="391" gradientUnits="userSpaceOnUse">
      <stop offset="0" stop-color="#59676a"/>
      <stop offset="1" stop-color="#717a7a"/>
    </linearGradient>
  </defs>
  <path fill="url(#h)" d="m593.6 383.3.4 1.4q2 8.9 3.7 17.7c-2.5.3-4 .4-6.5 1-.7-4-2.7-12.2-3.2-15.6 2.2 1 1 1.7 3.7 2l.8-.8c.8-2.3 1.1-3.2 1.1-5.7"/>
  <path fill="#021521" d="m842.7 740-.8-.1c1-1.5 2.9-3 3.1-4.4l-.9-.8c.8-.7 1-1 1.7-1.8l-.4-1.7c2.2-4.4 8-16.4 13.8-15.7-2 4.5-13 22.1-16.5 24.5M687 439.7q0-1.3.3-2.6c.2 1.2.1 1.6.6 2.7.7-1.5 2-5.3 3.1-6.3.7-.6 1.8 0 2.7-1.6l-.4-1.5.5-1 3.4 13.3c-2 .7-1.7 2-5.5 3.1-2.5-.6-2.4-1.6-3.2-4l-.4 1.1.5-1v.4c-.6 1-.5.8-.6 1.9z"/>
  <path fill="#01816c" d="m489.1 480.8 7.3.6c2 .4 4.9.4 6.4 1.6.2 1.2.2 1.4.1 2.5-2.5.4-10.7 3.2-14 4z"/>
  <path fill="#021521" d="m438.4 671.5.1-1 2-2.8c-1.4.4-1.9 2.3-4 2.9l-.3-.7c1.6-2.2 5.6-8.4 8-9.4l.6.9c1.3-1.4 3.2-4.8 3.6-6.6l-1.2.6-.7-1.9a18 18 0 0 1 3.8-6.8l.6.1v2.3l.5-.4c.2-1.2 0-1.1.6-2l.5 1.2a66 66 0 0 1-14 23.6"/>
  <path fill="#969a99" d="M591.7 377c1 1.4 1.3 4.2 1.6 6 0 2.6-.4 3.5-1.1 5.8l-.8.8c-2.8-.3-1.5-1.1-3.7-2q-1-4.5-1.8-9.2z"/>
  <path fill="#021521" d="M193 251.2c1.3-.3 1.6-.3 2.8-.8-1-.5-1.2-.3-1.4-1 .7-1.8 3.9-2.7 5.6-3.5 3-1.3 4.7-1.6 6.5 1.8-.1 1.7.2 1-1 2.3l-2.7.8c2 0 4-.2 5.6 1a87 87 0 0 1-15.3-.6"/>
  <path fill="#005a51" d="M520 477.9c0 2.2-.4 2.2.6 3.5l1.5.3q-9.5 2.4-19.2 3.8l-.1-2.5c-1.5-1.2-4.4-1.2-6.4-1.6 8 0 17.3 1.1 23.7-3.5"/>
  <path fill="#021521" d="M282.1 723.4v-1.8c-2.3-2.7-1.5-11.4 4.2-12.2.8 1 .4.8 1.5 1.6h.7a77 77 0 0 1-6.4 12.4M236.3 509c4.1 1.7 19.7 10.6 22.7 13.5l-.8.1c-3.3-1.5-10.2 2-10.5-4.4-.2-5.3-9.3-5-11.4-9.3m255.8-53.3h.8l6.1.2q.2 1.8 1.5 2.9l-1.2 2c1.9 1 2.7-.4 4.5.7-3.8.5-9.6.2-13.6.1l1.7-.7c.7-1.5.8-1.5.6-3.3-1.1-1.2-.7-.8-3-1l.2-.4c1.2 0 1.4 0 2.4-.5M605.3 481c4.3.9 11-5.6 14.9-4v-.3h.5l.4 2.2c-2.4 2.1-12.4 5.3-15.3 3.4zm-133.1-8.7c3.8-.8 7.3-.2 11 .5 3 1 6.8 1.5 10 2-3.5 1.4-8-1.2-11-1.2.8 1.2 1 1.4 1.3 2.8a4 4 0 0 1-3 2.8c-1.4-.4-4.6-.5-6-.6v-.6c1.7-.6 2 .2 4.4.2 0-1.7-.3-3.1.7-4.4 1-.3.7-.2 1.7-.7l-.2-.2-8.1-.2z"/>
  <path fill="#04a78e" d="M522 496.6c-.5-2.4-1-3.5.1-5.5 1.6-.9 3.7-.8 5.5-.9.8 2.1 1 3.2 1.4 5.4-3 .7-4 .9-7 1"/>
  <path fill="#021521" d="M586.9 118.2c1.3-7.5 5.2-11 13-10.7.7-.4-2.2 1.4-1.6.8-4.7 4.7-8.4 2.8-10.6 9.7-.6.3-.4.3-.8.2M404 732.6c1.1-.3 1-.4 2.3 0 4.4-1.7 8.7-3.7 12 .7l1.2.5c-4.6.2-11.5.9-15.6-1.2m8.6-29.2.4-1c.8 1.4.5.7.4 2.4q-1.6 2.1-4.2 1.8l-1.3-1.2c-.8 1.9-.2 1.1-1.8 2.3-1.4 0-1.4-.1-2.5-.9-3.7 2.4-3.5 5.7-5.3 7.1 1.1-11.7 10.5-7.4 14.3-10.5m150.2-546.5-.1-.2.2-.4 2.7-.4.4-1.3c4-2.3 10.2-.4 15 .3-5 .7-13.2 1.9-18.2 2m-86.1 361.9c.5-.6.2-.4.7-.6l.1.6q2.4.3 4.7 1l1.3-1 1 .4-6.7 5.4c-3.4-2.6-1-4-5.5-2.5 1.8-1.7 2.3-2 4.4-3.3m233.6-32.2c-1.3-2.4-2.7-3.3-2.7-6.9 0-1.3-.3-1.6 0-3 5.4 2.4 5.2 4.9 2.7 10M310.6 649.4c-1.7-.2-2.6-.2-4.3-.2l.2-.3c3-1.4 6-3.3 9.3-3.3l.1 2 .8.6c1.6-.2 1.6-.3 3 .5-2.8.2-6.2.6-9 .7M679.4 332l.3-5.7c.6 1.1.7 1.8 1.9 2.4 1.6-.3 1.8-1.5 3.1-2.4l-.5 7.4-.5-3-.7.2-1 2c-1.5 1-.8.8-2.3.8zm-425-109.6c3.5-1.7 13.8-5 17.3-5.8l.2.5c-2.1 1-6.5 2.5-8.8 2.8l.8.4c-.2 1.5-1.5 2-2.8 2.2-3-1-3.4-.6-6.2.6l-.5-.4zm550.7 547.5c.8-1.6.7-1.2 2.4-2.4.2-1.2.1-3 1.6-2.8l.2 1.7h.6c.2-1.9-.1-1.7.8-3 2.4-.5 2.6 1 3 .8 2.5-1.1 1.9-2 4.8-2a83 83 0 0 1-13.4 7.7M649.2 146.5c.7.5 2.8 2.1 3.3 2.7-1.7 1.7-2 1.8-4.1 2.9l-3-2.3a9 9 0 0 0 3.8-3.3m31.2 222.1c-.6-2.8-2.2-3-1.9-5.7l1.3-.6.4-.2c1.4-4-1.4-4.7 1.6-7.9-.3 4-.7 10.5-1.4 14.4"/>
  <path fill="#aaacac" fill-opacity=".9" d="M792.5 567.4c.9 4.5-23.8 42-27 50l-1.1 2.9-.4-1.2c1-6.4 23.7-42.9 28.5-51.7m-13.9 89.8 20.8 6L823 670c2.6.8 10.5 2.6 12.5 3.6-9.2.8-35.9-9.9-46-11.7-2.5-.5-9.5-2.5-10.9-4.7"/>
  <path fill="#aaacac" d="M724.7 537.3c38.3-5.3 70.6 2.7 98.2 31a77 77 0 0 1 13.6 17 78 78 0 0 1 7 12.4 78 78 0 0 1 9.6 28.6 130 130 0 0 1-6.2 68.7c-3.6 9.4-10.3 18.6-15.8 27a107 107 0 0 1-136.9 30.2c-10.1-4-24-16.5-31.7-24.8-1.9-2-4.8-6.2-6.7-8.6l-1.8.6c-3-2-10.3-14.4-10.2-17.6q1-.6 1.7-1.5a126 126 0 0 1-6.8-79.2c6.2-25 24.9-53.5 47-67 1.3 3 2.1 5.5 3 8.7-9 5.5-9.7 7-17.6 14.5-2.5 2.9-6.4 7.2-8.6 10.2a114 114 0 0 0-18 44.1l.6.2c-.9 8.2-1.6 13.1-1.4 21.4 1-2.4-.4-3.6.7-5.4l.6.3v1-.7c.3-2.7.6-4 1.2-6.6v.4c.7-2.3.4-2.7 2-4h.9c.8 1.1 1.7 2.1 1.8 3.4l.6-.8c-.2 23 2 41.7 14.4 61.7a87 87 0 0 0 22.3 25.7c14.3 13 37.7 21 56.9 20.5l2 .2c20.1-1 39.9-7.8 55-21.4a97 97 0 0 0 31-43c19.1-54.7-8.8-116.5-67-130.2-4-1-16-3.6-19.7-2v2.4l-.8-.1c-.5 2.3-.3 5-.7 6.5l-.2-8.8a80 80 0 0 0-15.5 1.7l-.4-.4 2-.8c-2.2-5-.4-2.6 0-6.4-1.1-1.5-.4-.8-2.4-1.6h-.8l-1.2-.3c-1.2-2.3-1.2-4.6-1.7-7.2"/>
  <path fill="#021521" d="M728.4 544.8c10.4-2.5 17.2-2 27.6-1.2 11.3 1.6 21.5 4.1 32 9 72.5 33.5 79.4 137.9 16 185.3a98 98 0 0 1-73.2 18 102 102 0 0 1-67.8-41.7 108 108 0 0 1-18.6-82.6l.7.2c-.9 8.2-1.6 13.1-1.4 21.4 1-2.4-.4-3.6.7-5.4l.6.3v1-.7c.3-2.7.6-4 1.2-6.6v.4c.7-2.3.4-2.7 2-4h.9c.8 1.1 1.7 2.1 1.8 3.4l.6-.8c-.2 23 2 41.7 14.4 61.7a87 87 0 0 0 22.3 25.7c14.3 13 37.7 21 56.9 20.5l2 .2c20.1-1 39.9-7.8 55-21.4a97 97 0 0 0 31-43c19.1-54.7-8.8-116.5-67-130.2-4-1-16-3.6-19.7-2v2.4l-.8-.1c-.5 2.3-.3 5-.7 6.5l-.2-8.8a80 80 0 0 0-15.5 1.7l-.4-.4 2-.8c-2.2-5-.4-2.6 0-6.4-1.1-1.5-.4-.8-2.4-1.6"/>
  <path fill="#969a99" d="M685.7 554c1.3 3.1 2.1 5.6 3 8.8-9 5.5-9.7 7-17.6 14.5l.1-.4c2.4-7.8 10-10.9 15.4-15.8v-1c-1-1.4-.4-1-1.9-1.4-3.1.7-4.3 3.4-6.5 5a81 81 0 0 0-8.8 6.8c-5.7 5.1-9.1 11.3-13.6 17.5-1.3 1.8-4.2 4-5 5.5-1.9 3.4-2.7 7.8-4 11.3-1 2.5-4 6.6-4.6 8.9-1.3 6-3.3 18.6-6.3 24.2 0-3.8 1.9-13 2.8-16.8 6.2-25 24.9-53.5 47-67"/>
  <path fill="#8a9292" d="M652 712.2c3.6 1.2 11.5 12 14.2 15.7 4.4 6.2 25.3 19.7 28 24.3-10.1-4-24-16.5-31.7-24.8-1.9-2-4.8-6.2-6.7-8.6z"/>
  <path fill="#021521" d="m655.8 718.8-1.8.6c-3-2-10.3-14.4-10.2-17.6q1-.6 1.7-1.5c2 4.2 4.1 7.8 6.4 11.9z"/>
  <path fill="#8a9292" d="M843.6 597.7a78 78 0 0 1 9.5 28.6c-3.5-4.8-6.5-17.5-9.3-24.3zm-7.1-12.4a78 78 0 0 1 7 12.4l.3 4.3a29 29 0 0 1-7.3-16.7m-108.9-40.5q.6-.8 1.7-1.2c7.5-2.2 19.5-3.3 26.7 0-10.4-.7-17.2-1.3-27.6 1.2z"/>
  <path fill="#3fd0b1" d="M320.3 452.8c.8 0 1.7-.3 2 0 4.4 9 6.6 23.6 11.1 32.1 2 1.3 3-.2 4.8.7-1.9 1.5-3.3.8-4.5 3.8a14 14 0 0 0-.7 7.6c1.6 9.3 13.9 38.6 10.8 46.4l-3.1 1c-4 .2-6.5.2-10.5 0l-2.6-.2c-3.3-3.6-8.3-28.7-10.6-35.2-11.1 4.6-21 13.1-30.5 20a439 439 0 0 0-68.6 62c-1.5 1.7-3.7 3.5-5.4 5.3a257 257 0 0 0-21.1 24.5c-7.5 9.8-14.3 13-3.2 22.8 5.3-1.3 15-2.5 20.6-3.2l37-4.6c23.9-3 48.4-7 72.3-9.2.7 3.2.8 9 .9 12.6-37.7 6.6-76.7 9.7-114.6 15.3-10.1 1.4-20.3 5-30.8 6.6-4 .5-6.5.8-10.6.5-.5-.5-.2-.2-.9-.6-6.8-3.7-10.6-7.2-10-15.4 3-12.6 13.6-15 21.3-23.9 13-14.7 26.3-28.9 39.1-43.7 3.3-3.7 7.2-7 10.5-10.5 14.8-16 31.9-30.7 49.1-44 9-7 22.7-18 32.6-23.2 1.3-1.3 5-4 6.7-5.3l-1.3-6c-2.4-11-6.2-21.5-8-32.8 6.4-.6 12-2.3 18.2-3.4"/>
  <path fill="#04a78e" d="M320.3 452.8c.8 0 1.7-.3 2 0 4.4 9 6.6 23.6 11.1 32.1 2 1.3 3-.2 4.8.7-1.9 1.5-3.3.8-4.5 3.8a14 14 0 0 0-.7 7.6c1.6 9.3 13.9 38.6 10.8 46.4l-3.1 1c-4 .2-6.5.2-10.5 0l-2.6-.2c-3.3-3.6-8.3-28.7-10.6-35.2-11.1 4.6-21 13.1-30.5 20a439 439 0 0 0-68.6 62c-1.5 1.7-3.7 3.5-5.4 5.3a257 257 0 0 0-21.1 24.5c-7.5 9.8-14.3 13-3.2 22.8a5 5 0 0 1-3.6 2.4c-4-1.3-4.5-7.3-7.7-9.6-1.5-1-5.7-.1-7.5-2.7-.3-.5-.6-.4-1.2-.5l-3.2 2.3c1.7-2 3.8-3.5 5.5-5.4q7.3-7.5 15-14.9c8.5-8.1 15.5-20.8 25-27.3 6-4.1 6.2-5 10.4-11 4.8-6.7 11.6-12.1 17.8-17.4 3.8-3.4 7-9 11.7-12l8.2-5.1c6.9-5.3 13.5-11 20.4-16.3 5.8-4.4 10.3-7 15.7-12.5 3.5-3.6 10.6-7.8 14.6-11 1.1-.9 2.7-.8 3.3-2.2-.6-1.3-1-1.4-2-2.4-1.9-.2-3.3 1.8-6 2.3 1.4-1.3 5.2-4 6.8-5.3l-1.3-6c-2.4-11-6.2-21.5-8-32.8 6.4-.6 12-2.3 18.2-3.4"/>
  <path fill="#3fd0b1" d="M320.3 452.8c.8 0 1.7-.3 2 0 4.4 9 6.6 23.6 11.1 32.1 2 1.3 3-.2 4.8.7-1.9 1.5-3.3.8-4.5 3.8a14 14 0 0 0-.7 7.6c1.6 9.3 13.9 38.6 10.8 46.4l-3.1 1c-.5-.2-1.3-.4-1.5-.8-2.5-7-3.7-17.5-5.9-24.6-3.3-11-7-21.9-10.3-32.8-2.3-7.6-11-27.5-2.7-33.4"/>
  <path fill="#04a78e" d="M318.1 626.6c.7 3.2.8 9 .9 12.6-37.7 6.6-76.7 9.7-114.6 15.3-10.1 1.4-20.3 5-30.8 6.6-4 .5-6.5.8-10.6.5-.5-.5-.2-.2-.9-.6-6.8-3.7-10.6-7.2-10-15.4.4 3.1.6 4.6 3.3 6 .8-3.7 1.2-7 3.7-9.8 6.3-6.5 14.2-5.2 17.5 3.4.7 1.5.2 5 .8 7.4l.8-.1c7.8-6 24.3-5.3 34.1-6.6q11.5-1.3 22.8-3.1c4.6-.8 9.1-2 13.7-2.6 8.6-1.1 65-6.2 68.4-8.7.8-1.6.8-3 1-5"/>
  <path fill="#05202b" d="M159.1 641.8c6.3-6.5 14.2-5.2 17.5 3.4l-.2 2c-.3 3-1.2 5-3.6 7a9 9 0 0 1-6.6 2 8 8 0 0 1-5.8-3.4c-2.7-3.6-1.9-6.9-1.3-11"/>
  <path fill="#aaacac" d="M63.9 584.8c3.6 2.5 7.2 7 9.8 7.3 1.6 1 4.7 2.4 5.5 4 2.9.7 2.1 2.2 7.1 2.5l.8.9v.6a71 71 0 0 0-7.1 17.7l-.7 2.4-.5 2.7a121 121 0 0 0 1.3 51.7c1.7 8.5 6 16.6 9.9 24.3a23 23 0 0 0-7.2 3.2l-.1 1.4c17 26.6 36.4 42.9 67.8 50.2 35 8.2 72-4.5 95.2-32 4-4.7 10-14.3 17.4-10.8.2 4-9.2 14.5-12.1 17.8a118 118 0 0 1-17 15.3l-.9 1.9c-1.2.6-1.5.6-2.2 1.8l.4.5c1.3-1.4 4.4-2.4 6.3-3.6 12.5-8.3 20.2-21.3 29.4-32.7 1.8-2.2 4.7-4.3 7.3-2 .5 8-28.5 38.3-36.2 43-6.8 4.2-14.4 8.5-22 11.6a130 130 0 0 1-65.2 6.6 211 211 0 0 1-31.5-10.4 121 121 0 0 1-61-66.1c-14-37.3-10.6-74 5.5-109.8"/>
  <path fill="#243d43" d="M63.9 584.8c3.6 2.5 7.2 7 9.8 7.3a53 53 0 0 0-5.8 11.3 119 119 0 0 0-7.3 55.2c1.8 17.7 5.4 31.3 14.3 46.8.9 1.6 4.2 8 5.2 9.1 5 9.2 21.2 26 30 31 10 8 32.5 15.3 45.4 17.4 17.8 2.9 49.5 0 64.4-10.8a61 61 0 0 0 14.2-8l-1 1.8c-1.2.6-1.5.6-2.2 1.8l.4.5c1.3-1.4 4.4-2.4 6.3-3.6 12.5-8.3 20.2-21.3 29.4-32.7 1.8-2.2 4.7-4.3 7.3-2 .5 8-28.5 38.3-36.2 43-6.8 4.2-14.4 8.5-22 11.6a130 130 0 0 1-65.2 6.6 211 211 0 0 1-31.5-10.4 121 121 0 0 1-61-66.1c-14-37.3-10.6-74 5.5-109.8"/>
  <path fill="#021521" d="M79.2 596c2.9.8 2.1 2.3 7.1 2.6l.8.9v.6a71 71 0 0 0-7.1 17.7l-.7 2.4-.5 2.7a121 121 0 0 0 1.3 51.7c1.7 8.5 6 16.6 9.9 24.3a23 23 0 0 0-7.2 3.2l-.1 1.4c-3-4.6-4.9-8.8-6.9-13.8-13.1-33-10.7-61.7 3.4-93.6"/>
  <path fill="#8a9292" d="M110.1 745.4q4 .9 7.7 2.2c3.5 1.5 5.8 2.7 9.6 4 4.2 1.5 13 3.2 16.3 5.5v.6c-1.9-.1-4-3.4-7.1-1.2 2.5 4.1 29.4 6.8 34.6 6l-5.5-.2c8.3-.4 15.6-.4 23.8-1.9 9.3-1.6 21.8-6.8 30.4-8.3-15 10.7-46.6 13.7-64.4 10.8-12.9-2-35.3-9.4-45.4-17.5"/>
  <path fill="#969a99" d="M80 714.5c2.4 1.3 5 5.5 7.3 8l-2.1-3.3a121 121 0 0 0 27 24.7c1.5 1 4.3 2.6 5.6 3.7q-3.7-1.3-7.7-2.2c-8.8-4.9-25-21.7-30-30.9"/>
  <path fill="#aaacac" fill-opacity=".9" d="m708.7 659.1.9.1v.4c-2 1-12.4 3.7-15.3 4.6-12.5 3.7-24.6 7.7-37.4 10l-1.2-.3c.7-.9 6.6-1.9 8.2-2.3 15-3.8 29.5-9.3 44.8-12.5m-51.2-42.4a860 860 0 0 0 41.4 16.9c3.3 1.3 12.1 4.3 14.6 5.8-2.3 0-4-.7-6.2-1.5-16.2-6.1-32.4-12.2-48.2-19.2-.6-.3-1.3-1.4-1.6-2"/>
  <path fill="#04a78e" d="M340 483.7c6.8-1.3 15.7-5.4 20-6.6 11-3.2 88.3-31.2 93.9-30.2.7 1.1.5 1.2.5 2.8.3 3 .4 5.3.5 8.2-1.7 2.7-4.3 8-3.2 11a44 44 0 0 1 3.5 20.6v7q-11.1 5.3-22.8 9.3c-5.6 2-11.4 3.4-17 5.3-6.6 2.3-65.6 23.6-66 25-1 2.8 1 3.7-2.2 5.8l-3.4 1.5c3-7.8-9.2-37.1-10.8-46.4a14 14 0 0 1 .7-7.6c1.2-3 2.6-2.3 4.5-3.8-1.9-.9-2.7.6-4.8-.7z"/>
  <path fill="#3fd0b1" d="M340 483.7c6.8-1.3 15.7-5.4 20-6.6 11-3.2 88.3-31.2 93.9-30.2.7 1.1.5 1.2.5 2.8l-.2 5.8c-9.7.7-21.2 5.3-30.5 8.5q-22 7.6-44.3 14.8c-12 3.8-24.3 9.7-36.6 12.8-.3-1.3-.5-2-1-3.3-.7-1.8-2.6-2.9-1.8-4.6"/>
  <path fill="#01816c" d="M347.2 541.9c1-5-2.2-11.2-.6-14 .7-1.2 16-5.2 18.6-6.2 18.3-7.2 37.2-13.4 55.8-19.9 11.4-4 22.9-8.7 34.2-12.3v7q-11.1 5.3-22.8 9.3c-5.6 2-11.4 3.4-17 5.3-6.6 2.3-65.6 23.6-66 25-1 2.8 1 3.7-2.2 5.8"/>
  <path fill="#aaacac" d="M71 574.1c39.8-56.4 109-71 167.1-33-3.7 3.8-6.4 3.6-9.1 8-1.6 2.3-2.1 3-4 5-18-8-30.4-15-51.2-15.5-4.2 0-9.8-.3-14 .5 1 0 3.5.3 4.3.1q-2 .3-3.8.9l-.1.6.9.5.6-.6.5.5c-.9.8-.7.3-.9 1.3.7 1.3 1.3 1.6 2.5 2.4-.5 1.4-1.5 1.6-3 1.8 1 1.2 7.3-.5 10.1.4-4 .6-16.5 1-18.8 3.2 0 1.6.1 1.8.4 3.3l-1.2-1c-1.1.6-.7.4-1.5 1.7l-1-3a77 77 0 0 0-36.5 17.7c-2.5 2-4.5 4.3-6.4 5.9l-.6.7A71 71 0 0 0 94 589.3l2.9 2.6-.3.7-.4-.3-1.2-.7-.7.7c.2 2 .4 2.8 2 4.2v.6a87 87 0 0 1-10.2-7l.4-.4c.7.3.3.2 1 .3 1.3-1.8 0-4.3-1.6-5.4l.7-.3a61 61 0 0 1-6-3.7c-2-.6-7.6-5-9.5-6.5"/>
  <path fill="#243d43" d="M71 574.1c39.8-56.4 109-71 167.1-33-3.7 3.8-6.4 3.6-9.1 8a71 71 0 0 0-7.8-5c-49.7-27-110-9.6-140.7 36.5-2-.6-7.5-5-9.4-6.5"/>
  <path fill="#021521" d="M159.8 539.1c1 0 3.5.3 4.3.1q-2 .3-3.8.9l-.1.6.9.5.6-.6.5.5c-.9.8-.7.3-.9 1.3.7 1.3 1.3 1.6 2.5 2.4-.5 1.4-1.5 1.6-3 1.8 1 1.2 7.3-.5 10.1.4-4 .6-16.5 1-18.8 3.2 0 1.6.1 1.8.4 3.3l-1.2-1c-1.1.6-.7.4-1.5 1.7l-1-3a77 77 0 0 0-36.5 17.7c-2.5 2-4.5 4.3-6.4 5.9l-.6.7A71 71 0 0 0 94 589.3l2.9 2.6-.3.7-.4-.3-1.2-.7-.7.7c.2 2 .4 2.8 2 4.2v.6a87 87 0 0 1-10.2-7l.4-.4c.7.3.3.2 1 .3 1.3-1.8 0-4.3-1.6-5.4l.7-.3q5.1-7 10.8-13.3c4.3-4.7 10.5-10.5 15.7-14.1 11.5-7.8 33.1-17.2 46.7-17.8"/>
  <path fill="#04a78e" d="m693.9 493 7-1.9c2.5 12.7 8.1 27.8 11 40.8 2.4 10.1 7.3 20.6 9 31.1 3.2 10.2 7 21 10.1 31.2 3.5 11 9.1 22.2 12.6 33.5 1.4 2.5 2.2 7.6 3.8 9.9 3.7 5 10.3 8 6.9 15.6a10 10 0 0 1-6 5.4c-10.5 3.5-12.7-9.2-16-16a771 771 0 0 1-26.9-60l-5.7-13.4c-2.4-6-3.6-12.2-5.5-18.3l-17.8-54c5.3-1.4 12.1-2.7 17.5-3.9"/>
  <path fill="#3fd0b1" d="m693.9 493 7-1.9c2.5 12.7 8.1 27.8 11 40.8 2.4 10.1 7.3 20.6 9 31.1 3.2 10.2 7 21 10.1 31.2 3.5 11 9.1 22.2 12.6 33.5l-.2.4h-.4c-2-5.7-4.6-11.5-6.3-16.6-2.4 6-3.7 5.3-.5 11.5 1 1.7 3 6 3.5 7.8-4.6-7.3-8.2-17.4-11.4-25.5-2.2-6.5-6-13-8-19.6-3.3-10.9-6.5-21.6-10.5-32.2-1.5-4.7-2.4-9.6-4-14.1-3.3-9.3-9.6-18.1-10.4-28.2-.4-4.2-3.1-14.8-1.5-18.2"/>
  <path fill="#475457" d="M327.3 614a65 65 0 0 1 63.8-54.3 63.5 63.5 0 0 1 43 103.4c-4 5.1-9.1 12.3-13 2.9 2.8-3.2 6.9-6.8 9.1-10-3.7-.6-3.8 3.4-9.9 3.6l-.5-.9-.8.4c-.5-.5-.5-.2-.5-.6 6.6-6.3 14.6-17.8 13.1-27.4a10 10 0 0 1 4.2-1.7l.5-1.2q-1.1-2-2.6-3.9c-8.7-3-14.7-2-23.5-.9l.8-7c5-.3 8.5-.5 13.5-1.4-1.8-.8-2.7-2.6-5-4.2-1.2 0-1.7 0-2.8-.3l-.8-.2c11.4-1.3 15.5-2.5 9.2-14.3 1 .5 1 .8 2.2 1.1 1.4-1 1.6-.9 3.3-1.1.5.6.1.4 1 .6l-.5-1 .4-.6c-7.9-13.5-20.7-19.5-35.1-24.1-10.6-3.4-25.6.3-34.8 6-20.3 12.4-36 45.5-21.7 67.4l.2-.6c3 3.5 4.7-2.5 10.8 0q-1.9-.2-3.5.7c.2 1.7 2.1 4.2 3.3 5.4 3.3 3.3 7-4 8.8-6.5-.7-.5-3.5-.3-4.7-.2l.4-.8c1.5-.5 13-3.1 14.2-3-1.8 3.2-4.6 5.5-5.5 8.1l.3.4-.6 1.5c-2.1 4.1-9.2 14.4-14.1 10a49 49 0 0 1-14-48.4c.7-2.2-.6-3.7.9-7.1 2-4.8 6.8-11.2 8.3-15.8l-.4-.3c-2.1 1.8-4 5.4-5.6 7.9-2 3.4-2.3 8.2-5.4 10.6-.1-2.2 1-2.5.6-4.1-1 .6-.7.4-1.4 1.3-1.6-.2-1-.4-2 .3-1.6 3.6-1.7 7.9-2.7 10.4z"/>
  <defs>
    <linearGradient id="i" x1="352.6" x2="345.8" y1="588" y2="578.9" gradientUnits="userSpaceOnUse">
      <stop offset="0" stop-color="#5e696b"/>
      <stop offset="1" stop-color="#889291"/>
    </linearGradient>
  </defs>
  <path fill="url(#i)" d="M327.5 614.4a65 65 0 0 1 63.8-54.4l-.3.7c-8.8.8-13.4-.2-22.3 4.2a7 7 0 0 1 .1 2.4c4.5-.8 13.7-4.2 17.9-2.9.9 1 .3.7 1.6 1l-.3.7c-4.5 1.6-10 .2-13.5 1.2a58 58 0 0 0-34.7 25.5q-.8 1.5-1 3c-1.9 3.6-2.2 8.4-5.3 10.7-.1-2.1 1-2.5.6-4.1-1 .7-.7.4-1.4 1.3-1.6-.2-1-.4-2.1.3-1.5 3.6-1.6 7.9-2.7 10.5z"/>
  <path fill="#021521" d="m354.8 643 .4-.7c1.5-.5 13-3.1 14.2-3-1.8 3.2-4.6 5.5-5.5 8.1-3.5 5.8-5 8.9-10.7 12.6l-1.3-.6c-5.5-2.4-10-9.6-12-15l.2-.7c3 3.5 4.7-2.5 10.8 0q-1.9-.2-3.5.7c.2 1.7 2.1 4.2 3.3 5.4 3.3 3.3 7-4 8.8-6.5-.7-.5-3.5-.3-4.7-.2m76.8-12.1a10 10 0 0 1 4.2-1.6l.5-1.2c2.8 4.7 2.5 6.6 1.3 12.2a46 46 0 0 1-7.4 15.6c-3.7-.6-3.8 3.4-9.9 3.6l-.5-.9-.8.4c-.5-.5-.5-.2-.5-.6 6.6-6.3 14.6-17.8 13.1-27.4m-.1-36.1c1.4 2 2.2 3.5 2.8 6 3 11.6.3 11.4-9.8 14-1.8-.8-2.7-2.6-5-4.2-1.2 0-1.7 0-2.8-.3l-.8-.2c11.4-1.3 15.5-2.5 9.2-14.3 1 .5 1 .8 2.2 1.1 1.4-1 1.6-.9 3.3-1.1.5.6.1.4 1 .6l-.5-1z"/>
  <path fill="#04a78e" d="M81.4 535.5c14-12 24.5-18.5 41.4-25.5a129 129 0 0 1 97.4.3c12.8 5.3 20.5 9.5 32 17.4-2.8 3.1-4 4.4-7.7 6.6a142 142 0 0 0-71.7-23.9c-8.2-.3-17.1 1.2-25.4 2.7a140 140 0 0 0-89 61.6c-2.6 4.2-5.2 9.5-7.5 14-3.8 1-6 1.1-9.9 1.5 5.6-16.4 21.7-38 34.5-49.9.8-.7 5-4.3 6-4.8"/>
  <defs>
    <linearGradient id="j" x1="154.6" x2="149.8" y1="526.3" y2="503.2" gradientUnits="userSpaceOnUse">
      <stop offset="0" stop-color="#36bfa9"/>
      <stop offset="1" stop-color="#8ddac6"/>
    </linearGradient>
  </defs>
  <path fill="url(#j)" d="M81.5 535.8c13.9-12 24.5-18.6 41.4-25.5a129 129 0 0 1 97.4.3c.6 2 .9 1.8.3 3.2-3 .8-3.4-1.5-7.8.3l1-.2c-2.6-1-9.1-4.4-11.7-4.8-21-3-43.8.8-64.6 4.9-5 1-15.8 5.3-20.4 7.6-8.2 4-16 8.7-24.8 11.6-2.3.9-5.4 4-8.3 5.2l-.2-.3c1-.3 2.7-3.5 5.5-5.1-4.1-2-4.1 2.5-7.3 3z"/>
  <defs>
    <linearGradient id="k" x1="628.1" x2="639.4" y1="248.6" y2="246" gradientUnits="userSpaceOnUse">
      <stop offset="0" stop-color="#445256"/>
      <stop offset="1" stop-color="#919896"/>
    </linearGradient>
  </defs>
  <path fill="url(#k)" d="M612 160.5q3.4 3 7 5.7 2 1.4 3.5 3.3L643.2 271c2.9 14.9 7.2 32.3 8.8 47.3.4.6 1.7 7.5 2 8.6-4 .7-7 1.3-10.9 1.6-.8-7.6-3.3-15.3-4.6-22.8-.9-5.1-1.3-10.5-2.2-15.7l-9.2-51c-1.8-9.4-4.3-18.6-5.9-28.2-1.2-4.4-1.9-11.4-3-16.2-2.6-11.8-6-21.8-6.3-34"/>
  <path fill="#475457" d="M620.9 210.7c.2-3.6-.9-10.4-.3-13.2 1 .8 1 1.7 1.6 3 0 5 1 13.3 2.4 18 1.7 6 3.6 10.4 4.8 16.8 1.4 7 1 11.3 1.3 18.2.1 1.9 2.5 6.2 2.9 8.1.6 3.1.3 5.8 1 9 1 4 2.9 8.5 3.9 12.4 1.1 4.5.7 11.1 1.2 15.8.3 2.4 2.7 6 3.5 8.7 1.8 5.7.6 13.8 5.2 18 .6.7 1 .8 1.9 1.2 1.4-.2.8.1 1.8-.7 0-2.1-.9-6.4-.5-7.9.4.6 1.8 7.5 2 8.6-4 .8-6.9 1.3-10.8 1.6-.9-7.6-3.4-15.2-4.7-22.8-.8-5-1.3-10.5-2.2-15.6l-9.2-51c-1.7-9.4-4.2-18.7-5.8-28.2"/>
  <defs>
    <linearGradient id="l" x1="613.9" x2="621.6" y1="179.2" y2="175.9" gradientUnits="userSpaceOnUse">
      <stop offset="0" stop-color="#4f5e60"/>
      <stop offset="1" stop-color="#77797a"/>
    </linearGradient>
  </defs>
  <path fill="url(#l)" d="M612 160.5q3.4 3 7 5.7c-1 1.3-1.3 1.8-1 3.7 1 8.1 6.2 23.1 4.5 30.8-.5-1.4-.6-2.3-1.6-3-.6 2.7.5 9.6.3 13.1-1.2-4.4-1.9-11.4-3-16.2-2.6-11.8-6-21.8-6.3-34"/>
  <path fill="#04a78e" d="M677.2 526.2c1.3.8 3 7.8 3.5 9.7-12 4.2-22.5 15.4-30.8 24.6a132 132 0 0 0-31.9 64c-1.9 10-1.7 18.9-2.5 28.9-2.7 3-4.4 4.7-6.5 8-.9 1.3-.3 1-1.6 1.2-1.1-1.8-.9-6.3-.8-8.5.2-27 7.6-55.2 21.5-78.4 10.3-17.2 30.3-41.4 49.1-49.5"/>
  <path fill="#475457" d="M124 661.3a51 51 0 0 1-.2-27.4c.6-2.3 1.2-4.3 3.3-5.5 1.8.1 1.5.3 3.2 1.5 2 1.2 3.1 2 4.9 3.4-9 23.1-.3 44 23 52.6 6.7 2.5 12.5 2.2 19.4 3 .2 4.2 1.2 8.3-4.6 8.3a51 51 0 0 1-36.2-13.8c-5.2-5.1-12.2-14.8-12.7-22"/>
  <path fill="#aaacac" d="M124 661.3a51 51 0 0 1-.2-27.4c.6-2.3 1.2-4.3 3.3-5.5 1.8.1 1.5.3 3.2 1.5a56 56 0 0 0-4 20c0 2.9-.2 8.7-.9 11.3-.9.4-.4.3-1.3.1"/>
  <path fill="#243d43" d="M280.7 653c2.6-.7 7.3-.8 10.3-1.1-.5 14-4 33-9.6 45.9-1.7.2-5.9 1-7 .3l-.3-1.3h-.6l-.7 1.8-.5.2c.3-.9.4-1 .4-2h-.7c-2.2 4.4-6.8 3.9-11.2 4a118 118 0 0 0 11.7-47q4.2-.2 8.2-.7"/>
  <path fill="#969a99" d="M280.7 653c.8 3-3.2 25.6-4.2 29.8-1 3.8-3.4 10-4.5 14-2.2 4.4-6.8 3.9-11.2 4a118 118 0 0 0 11.7-47q4.2-.2 8.2-.7"/>
  <path fill="#475457" d="M606.5 117c7.1-.3 16.7-1.2 23.4-1.1 3.3 3.3 3.7 4 5.3 8.4a57 57 0 0 1-1.6 18.7c-2.3 2-3 2.5-5.7 4-1.4-3.3-2.6-6.9-5.8-8.8-1.3-.9-2.1-.8-3.5-2-2.5.2-6.1.2-8.7.3-.2-4.7-.6-6.4-2.1-10.7l-2-3c-3.4-2-6.6-1.7-7.9-3.5l.3-.9c2.5-2 5-1.5 8.3-1.5"/>
  <path fill="#969a99" d="M606.5 117c7.1-.3 16.7-1.2 23.4-1.1 3.3 3.3 3.7 4 5.3 8.4-3.7 0-25.8 2-27.4 1.5l-2-3c-3.4-2-6.6-1.7-7.9-3.5l.3-.9c2.5-2 5-1.5 8.3-1.5"/>
  <path fill="#8a9292" d="M605.8 122.9c-3.4-2.2-6.6-1.8-7.9-3.6l.3-.9c2.5-2 5-1.5 8.3-1.5-1.1.9-3.8.9-5.1.6l.8.2h-1c1.5 1.7 4 3.5 4.6 5.2"/>
  <path fill="#243d43" d="M635.1 135c-.2 3.2-.6 4.9-1.5 8-2.3 2-3 2.5-5.7 4-1.4-3.3-2.6-6.9-5.8-8.8-1.3-.9-2.1-.8-3.5-2 4-.8 12.6-1.4 16.5-1.2"/>
  <path fill="#475457" d="M631.5 346.3c-.4-1.6-.8-2.9-.3-4.4 1-.6 35.2-7.6 37.7-7.8.9.9 1.2 2.9 1.6 4.2 1 3.2 2 6.8.6 9.9a188 188 0 0 1-37.6 9.3c-.8-3.7-1.2-7.8-2-11.2"/>
  <path fill="#969a99" d="M631.5 346.3c-.4-1.6-.8-2.9-.3-4.4 1-.6 35.2-7.6 37.7-7.8.9.9 1.2 2.9 1.6 4.2a387 387 0 0 1-39 8"/>
  <defs>
    <linearGradient id="m" x1="424.9" x2="440" y1="540.7" y2="546.4" gradientUnits="userSpaceOnUse">
      <stop offset="0" stop-color="#09c6a8"/>
      <stop offset="1" stop-color="#00987e"/>
    </linearGradient>
  </defs>
  <path fill="url(#m)" d="M432.3 527a28 28 0 0 1 14.9-1c1 1.2.7.6 1 2.1-6 11-10.5 27.1-17.9 38.7-3.8-2.5-8.9-5-13-7.2 3-9.7 10.6-23 15-32.7"/>
  <path fill="#636e6f" d="m186.1 665.5 6.5.1a41 41 0 0 1-5.6 13.6c.8 3.8 1.6 8.4 5 10.5 3.5 2 10 3 11 7.4 1.1 4.2.3 11.2-4 13.2-5 2.6-11.4 3-15-2.3-2.6-3.5-2-7.1-1-11.2q.7-2.3 1.9-4.4c-5.5-19.3-17.8-4.9-20-22.4 1.5 0 2.3-.2 3.8-.6.6 4.5-.3 3.7 3 7.7 10.3.7 13.2-1.2 14.4-11.6"/>
  <path fill="#05202b" d="M194.8 701.2c.2-2.2-.2-2.5 1-3.9 5-.5 5.3 7.5 1.2 11.2l2 1.8c-5 2.6-11.4 3-15-2.3-2.6-3.5-2-7.1-1-11.2l1.2.5c.7 1.3.7 1.8 1 3.2.7-1.7 1.3-2.5 2.9-3 1.4.6 1 .4 1.8 2.2 1.2 1.6.6 1.3 2.4 2 1.4 0 1.2 0 2.5-.5"/>
  <path fill="#969a99" d="m183 696.8 1.2.5c.7 1.3.7 1.8 1 3.2.1 7.3 5.3 9.5 11.8 8l2 1.8c-5 2.6-11.4 3-15-2.3-2.6-3.5-2-7.1-1-11.2"/>
  <path fill="#8a9292" d="M190 699.7c.7-2 .3-1.9 1.7-3 2.5.2 3 2.4 3 4.5-1.2.6-1 .4-2.4.6-1.8-.8-1.2-.5-2.4-2.1"/>
  <path fill="#475457" d="M559.8 131.6c5-.9 35.8-3.2 39.6-2 1.6 1.1 1.8 2.2 2.7 4 2.3 4.2 0 6.8-3.1 9.5-13 2-21.8 4-35.1 3.8q-.4-5.5-1.3-11c-1-1.2-2-2.9-2.8-4.3"/>
  <path fill="#969a99" d="M559.8 131.6c5-.9 35.8-3.2 39.6-2 1.6 1.1 1.8 2.2 2.7 4-12.8.7-25 1.5-37.7 3.4-.3 0-1.6-.9-1.8-1q-1.6-2.1-2.8-4.4"/>
  <path fill="#04a78e" d="M463.7 427.5c1.5-7.8 10.5-5.2 16.2-3.7.7 3.8.7 7 .6 10.8-.3 8 .6 15.6.3 23.7q-8.6-.6-17-1.4c-.5-11-.8-18.3 0-29.4"/>
  <path fill="#04a78e" d="M463.7 427.5c1.5-7.8 10.5-5.2 16.2-3.7.7 3.8.7 7 .6 10.8-1.5.4-4.2.5-5.9.7-.2-9-2.8-7.6-10.9-7.8"/>
  <defs>
    <linearGradient id="n" x1="261.1" x2="270.5" y1="581.7" y2="572.4" gradientUnits="userSpaceOnUse">
      <stop offset="0" stop-color="#152e37"/>
      <stop offset="1" stop-color="#29484c"/>
    </linearGradient>
  </defs>
  <path fill="url(#n)" d="M253.1 568.2c1.2-3 5.4-5.3 8.3-6.3a131 131 0 0 1 17.2 25.7c-3.7 1.2-6.8 1.4-10.6 2.5-3.3.9-5 2-9.3 2.9-5.6-7.6-6.1-10.2-13.3-17.3 2.2-2.6 5.1-5.1 7.7-7.5"/>
  <defs>
    <linearGradient id="o" x1="261.7" x2="251.8" y1="578.5" y2="581" gradientUnits="userSpaceOnUse">
      <stop offset="0" stop-color="#5b686a"/>
      <stop offset="1" stop-color="#7b7f80"/>
    </linearGradient>
  </defs>
  <path fill="url(#o)" d="m253.1 568.2 1.9 2.3c3 4.4 6.4 8.5 9 13.1l4 6.5c-3.3.9-5 2-9.3 2.9-5.6-7.6-6.1-10.2-13.3-17.3 2.2-2.6 5.1-5.1 7.7-7.5"/>
  <path fill="#636e6f" d="m253 568 1.8 2.1c-2 0-1.7-.4-3.2.5 1.1 1.8 1.9.8 1.8 2l-1.6-.8c-1.4.6-1.3.6-2.1 1.9-.3 2.6 7.3 11.2 9 14q1 1.4 3 1.6l2.5-1.8c0-1.1-.1-1-.6-2l.3-2.2 4 6.5c-3.3.8-5 2-9.4 2.8-5.6-7.5-6-10.1-13.2-17.2 2.2-2.6 5.1-5.1 7.7-7.5"/>
  <defs>
    <linearGradient id="p" x1="753.9" x2="739.7" y1="671.3" y2="637.2" gradientUnits="userSpaceOnUse">
      <stop offset="0" stop-color="#2c3d40"/>
      <stop offset="1" stop-color="#425658"/>
    </linearGradient>
  </defs>
  <path fill="url(#p)" d="M758.5 638.3c2.4 1.5 4.3 3.1 7.1 3 1-.8 1-.8 1.6-1.8 3.8 5.6 1.5 17.7-1.8 23.3-3.3 5.3-8.6 9-14.6 10.4-27.8 6.1-33.1-29.8-25.9-30.4 3 2.2 2.4 10.3 4.3 14 6.4 13.1 27.6 14.8 32.2-.8 2.3-7.8.8-10.8-2.9-17.7"/>
  <path fill="#aaacac" d="M133.6 616.7a45 45 0 0 1 47-15.7l-2.7 3.9c-1.7 2.3-3.2 3.3-5.4 5-12.3 1.8-20.8 4-29.8 13-.8-.5-4.3-2.7-5-3q-2.1-1.5-4.1-3.2"/>
  <path fill="#475457" d="m137.7 620 2.8-2.9c11.9-11.5 22-12.5 37.4-12.2-1.7 2.3-3.2 3.3-5.4 5-12.3 1.8-20.8 4-29.8 13-.8-.5-4.3-2.7-5-3m-25.9 11.4c1.3-2.6 2.2-9.8 5.4-10.1a32 32 0 0 0 4.5 3c-6.4 21-6.6 32.7 4 52.5l.7 1.4a18 18 0 0 1-4.5 5.7l-3.5-5.4a68 68 0 0 1-6.6-47"/>
  <path fill="#969a99" d="M111.8 631.3c1.3-2.6 2.2-9.8 5.4-10.1 2.1 3.7-.8 12.8-3.7 15.2h-.8c-1.1-1.3-.9-3.3-.9-5"/>
  <path fill="#243d43" d="m126.4 678.1.4.5c2.3 2.5 4.4 5.9 6.8 8.4a52 52 0 0 0 35.3 15q3.5.3 6.9.2l.4 7.2a62 62 0 0 1-26.5-4.4 54 54 0 0 1-27.8-21.2c2.3-2 3-3.1 4.5-5.7"/>
  <defs>
    <linearGradient id="q" x1="628.5" x2="624.1" y1="147.6" y2="166.7" gradientUnits="userSpaceOnUse">
      <stop offset="0" stop-color="#1a262b"/>
      <stop offset="1" stop-color="#2d444a"/>
    </linearGradient>
  </defs>
  <path fill="url(#q)" d="M613.8 143.7c1.3-.3 4.5-1.3 5.6-.5 5.5 4.1 5.4 10.2 12.7 13.8 4.5 2.3 7.6 1.8 11.4 3-.2 14.6-9.7 11-18.3 4.7-4.5-3.3-15.8-12.6-14.4-19.7.2-.7 2.2-1 3-1.3"/>
  <path fill="#636e6f" d="M613.5 143.7c1.2-.4 4.5-1.4 5.5-.6 5.6 4.1 5.4 10.2 12.7 13.8 4.6 2.3 7.6 1.8 11.4 3-1.5 7.3-9.5 2.9-13.5.7a54 54 0 0 1-16.1-17"/>
  <path fill="#aaacac" d="M123.5 610.2a55 55 0 0 1 50.2-22.7c.6 1.7 1.3 2.7.8 4.3-2.3 1.8-5.4 0-8.3 1.5-13.2 2.2-29.2 9-37.3 19.7q-2.8-1.2-5.4-2.8"/>
  <path fill="#01816c" d="M274.6 548.8q2.4 3 4.9 5.6c1.5 2.5 5.2 7.8 7.2 10 3.6 6.9 6.1 9 9.7 17.5l-8.7 2.6a103 103 0 0 0-20.8-29.3c2.7-2.4 4.8-4.2 7.7-6.4"/>
  <path fill="#021521" d="M250.7 595.9c-.6 1-.5.7-1.5 1.4l-.3.5c-2 1.3-4.6 2.5-6 4.2 3 1.5 7.3 1.3 10.3 1.8-8.2 2.7-17.2 4.4-25.9 7.2q1.4 2.9 3.3 5.6l.8 1.3c1.2 0 .8 0 1.8-.3l1.7 1.9-1.9.7c-.4 1.3 0 1.7.4 3.4l-.4.7c-.9-.6-6-1.6-7.5-1.3l-.5.7q-1.9-5.2-4.5-10h1c.8-1 .5-.5.8-1.7-2.5-2.6-2-4-3.7-5.8l-1.5.6-.1-.8c.7-2.3.4-1.5 2.4-3.3V601l1 1.3c3.3 2.8 24.8-6 30.3-6.4"/>
  <path fill="#01816c" d="M407.5 582c5.6.5 9.6 4.3 13 8.3-2.7 6.5-6 11.5-9 18.9-3.5 1.5-9.6-5.4-12.9-7.6 2-6.8 5.7-13.4 9-19.7"/>
  <path fill="#04a78e" d="M365 583c2.5 3.1 7.2 17.6 8.6 22-1.7 1.4-7.4 6.8-9.3 7.2l-.8-.9c-3.9-5.7-7.2-12.4-11.3-17.7a43 43 0 0 1 12.7-10.5"/>
  <path fill="#01816c" d="M346 621q4.6-.4 9.2-.4c10-.1 9.2 6.7 9 14.1l-6.1 1c-4.7.9-10 1.8-14.6 2.1-1.2-4.1-2-11.6-1-15.8 1.2-1 1.6-.7 3.5-1m91.2-108.6c5.7-1.7 13-3.3 19-4.5-1.6 7.6-4.6 13-8.2 20-.4-1.6 0-1-1-2.1a28 28 0 0 0-14.9.9q2.7-7.1 5-14.3"/>
  <path fill="#636e6f" d="m327.3 614 .5.1c-.4 7.1-1 18.4 1.7 25 2-.1 3.9-.4 5.8.1l1 1c-.2 2-1.5 7-3.5 8a62 62 0 0 0 22.6 27.7c4 2.2 9.9 5.4 14.6 6 2.6.2 4.2 1.6 6.5 2.1 9.9 2.4 14 2.6 23.1-1l.6-.8c-1.3-2.2-1-4.7-2.2-6.4-2.7-.3-5.7.2-9 .5-7.6 1-25-2.3-25.3-12-.2-4.2 2.7-4.3.2-10.6l2-.4c.8 4.7-3.6 10.1-.4 14.8 1.2-.6.9-.2 1.3-1.3-.7-1-.5-.6-.8-1.8l.8-.8c2 .4 1.2 2.2 3.3 2.6l-.5-1.2.4-.5c5.5 4.4 12 5.2 18.8 5.8l-2 .6c0 4.3-4 3.5-7.4 3.6 4.9 1.3 14.3.7 19.3-.6.9 3.7 1 4.8 2.5 8.2-6.6 3-9.5 4.3-17 3.4a102 102 0 0 1-26.7-8.3 64 64 0 0 1-30.2-63.8"/>
  <path fill="#021521" d="M365.5 668c1.2-.5.9 0 1.3-1.2-.7-1-.5-.6-.8-1.8l.8-.8c2 .4 1.2 2.2 3.3 2.6l-.5-1.2.4-.5c5.5 4.4 12 5.2 18.8 5.8l-2 .6c0 4.3-4 3.5-7.4 3.6-4.7 0-10.7-3.6-13.9-7"/>
  <path fill="#243d43" d="m257.2 243.7 2 4.9c1.3 2 1.6 3.3 2.6 5.3-9.5 2.1-17.4 2.4-26.8 3.7-.6-1.8-1.2-4.2-2-5.9-.6-1.8-.8-1.6-.4-3.2 2.5-.9 8-1.6 11-2 4.7-.8 8.8-1.7 13.6-2.8"/>
  <defs>
    <linearGradient id="r" x1="234.1" x2="256.9" y1="252.2" y2="245" gradientUnits="userSpaceOnUse">
      <stop offset="0" stop-color="#868c8f"/>
      <stop offset="1" stop-color="#b0b2b0"/>
    </linearGradient>
  </defs>
  <path fill="url(#r)" d="m257.3 243.8 2.1 4.9c-3 2.3-8.6 1.4-12.6 1.8-4.2.3-9.5 1.4-13.6 1.4-.6-2-.9-1.6-.5-3.3 2.5-.8 8-1.5 11-2 4.8-.8 8.9-1.7 13.6-2.8"/>
  <path fill="#01816c" d="M296.8 590.3c1.2-.1 1.3-.2 2.3.3 3.5 4.7 7.3 23 8.3 29.2l-5.8.8-2.3.2c-1.5-.9-1.6-5.6-2-7.4q-2.3-11-6-21.7z"/>
  <path fill="#475457" d="M212.7 662.8h.8l.5.5a39 39 0 0 1-15.2 22.9c-.5.3-1.6-.5-2.2-.8-1.3-1-4.3-3.3-3.2-5a195 195 0 0 0 9.2-16.7z"/>
  <path fill="#8a9292" d="M622.6 302.5c7.3-1.1 5.9 7.4 5.5 12.3-.6 7-4 13.3-6.3 19.7-.5 1.4.5 4 0 6.1-1.2.7-2 .5-3.6.5-11-2.6 4.1-19.4 4.3-26.5 0-3.9-1.7-9.6 0-12"/>
  <path fill="#243d43" d="M223.2 660.5c1.4-.1 1.4-.2 2.7.2 3.1 7.5-11 29.6-18 33.7l-4.2-5.3a49 49 0 0 0 14.1-20.4c.7-2 .6-4.2 1.5-6.8 1.2-1 2.3-1 4-1.4"/>
  <defs>
    <linearGradient id="s" x1="280.9" x2="261.3" y1="616.3" y2="606.3" gradientUnits="userSpaceOnUse">
      <stop offset="0" stop-color="#556266"/>
      <stop offset="1" stop-color="#707878"/>
    </linearGradient>
  </defs>
  <path fill="url(#s)" d="M272.3 598.3c2 4 6.6 20.3 7.3 25l-10.2 1c-1-9.1-3.3-14.2-6.8-22.7 3.1-1.6 6.3-2.3 9.7-3.3"/>
  <path fill="#8a9292" d="M319.6 433.6c2 0 1.5-.3 3 .5 2 6.2-12.9 8.7-16.9 10.4-4.7 2-9 4.1-14.1 5-2 0-1.3.5-2.6-.6a8 8 0 0 1 0-5.9c1.7-2 26.9-8.8 30.6-9.4"/>
  <path fill="#475457" d="M140.1 641.4c1.8.7 2.6 1 4.5 1.4-2.4 11.6 1.5 23.2 13.9 26.2.9.2 1.8 7.3 2 8.7-4.5.3-12.9-6-15.7-9.6-6.4-8.4-5.8-16.9-4.7-26.7"/>
  <path fill="#020507" d="m303.5 529.7.6-1c1.8-1 2.6-.3 4.8.3 2.4 9.7 5.2 16.5 14 22 1.6 3.1 11.3 3.7 14.7 3.7l-.4 1c-4.8 2.4-9.1.5-14 .3-3-.1-3.3-1.3-5.3-1.4-3.3-2-5.2-4.4-7.7-7.3a35 35 0 0 1-6.7-17.6"/>
  <path fill="#aaacac" d="M108 608.2c-1-.9-7.5-5.1-8.9-6l-22.6-15.4c-2.8-2-9.6-6.5-12-8.8l.2-.5c3.9.2 16.8 9.8 21.4 12.6a87 87 0 0 0 10.2 7c8.2 7.3 37.7 23.7 42.4 30.6l-.2.4c-5-1.6-18.8-12-24.3-15.6a39 39 0 0 0-6.2-4.3"/>
  <path fill="#243d43" d="M274.5 597c1.6-.4 7.2-2 8-1 4.4 5.9 4.9 19 6.8 25.4-2.9.6-5.2 1.2-8.1 1.3a72 72 0 0 0-6.7-25.7"/>
  <path fill="#021521" d="M359 541.4c-.4-2-.5-1.3.3-3.1 3.2-2.5 4.5.6 5 3.4-.3 4.3-.9 5-3.3 8.5.7 1.8 2 4.7 2.4 6.5q-3.1.8-6-.3l-.8.4.5-.6-.4-.3-.2 1.6q-.4-1.4-1-2.6c-2-.3-3.6 1.1-5.7 2.3l-2-1.2c-2.9.1-3.4.7-4.3-2l-1-.3-5 1c-3.3 0-13-.6-14.6-3.7 4.5 1.8 9.5 3.2 14.4 2.8 5.5-.4 22.5-5.2 21.6-12.4"/>
  <path fill="#475457" d="M408.1 715.8c1.5-2.1 2.2-2.3 5-2.7 3-.5 7.9-1.2 10.7-.3.5 1.7.4 2.7.4 4.6q0 3.8.3 7.4c-6 0-11 .3-17.2 0-.2-3.5-.7-5.9.8-9"/>
  <path fill="#969a99" d="M408.1 715.8c1.5-2.1 2.2-2.3 5-2.7 3-.5 7.9-1.2 10.7-.3.5 1.7.4 2.7.4 4.6-3.3.4-10.8-.1-14.3-.2-1.1 0-1.1-.5-1.8-1.4"/>
  <path fill="#475457" d="M446.1 712.7c3.8-.7 10.5-.5 14.5-.5 0 3.5.2 8.7-.1 12-5.4.4-9.6.6-15 .6-.3-3.1-.9-8.6-.3-11.5z"/>
  <path fill="#969a99" d="M446.1 712.7c4.3.2 9.8-.3 13.5 0 .7 1.2.8 3.5 0 4.7q-6.8 0-13.7-.3c-.8-.8-.6-2.3-.7-3.8z"/>
  <path fill="#04a78e" d="M349.8 557.2c2-1.2 3.6-2.6 5.6-2.3q.7 1.1 1 2.6c-.1.8-.2 2.1-1 2.6-7.1 4.9-13 6.5-19.7 12.5-1.9-4.2-2.9-8.6-4-13a34 34 0 0 0 18-2.4"/>
  <path fill="#021521" d="M211 703c2.1-3.2 1.8-7.2 4.3-11 4.4-6.7 9.8-11.7 14.7-18.3.9.5.4.2.8 1.3l.6-.3v-1c-1-.4-.5-.1-1.3-.7.5-3.8.7-8.2 2.4-11.4 2.2 1.4-.4.5 1.4 1.8.2-1.2.3-1.6.8-2.8l.5 1c-.6 4.1-1 5.8-2 9.6-.7 2.5-4.1 10.5-4.1 11.7l.5.1-1.3 1.1c-3 3.8-9 11.9-12.4 15.1l-1 .8zm527.4-118.2c-1-.4-.5-.4-1.2-.3l-.9 2.7c-2-.2-1.7-3.4-2.4-5.1-.4-.5-3-2.4-3.2-2.9-1.7-3.2-9.7-24.4-2.5-23.9.6-.7.4-.8.6-1.7l.4.4q3.2 11.3 6.6 22.5c.4 1.4 2.5 7.2 2.6 8.3m-412.5-11.4.4-.1v.5c-1.5 1-1.5.8-3.2 1l.7 1c-1.2 2.3-3 2.9-2.7 4.2l.4.4c1 1 1.6 1.4 1.8 2.8-2.2.5-15.6 3.4-16 5.2l-.1 1.8c-1.8-2.2-1-3.9-.2-6.3-1.6-1.6-1.8-2.2-3-3.7l.7-.5c5.4-1.1 14.2-4.7 21.2-6.3M204.3 717.2c-1.2 0-3.3.1-4-.3l1.9-.2c.8-3 3.3-2 5.4-.8.8.5 4 0 5.2-.1l-1-.5-.5-1.2c.8-1.8 1.2-2.3 1-4.2-.9-1.5-.3-1-1.6-1.6l-3 .6-.4-.8c0-1.6.3-2 .9-3.5l1.4-.2-1.6 3.6q6.3-.5 12.6-1.4c1.8-.7 2.3 0 4.5-.6l10.8-1c-2.7 2.7-6 .5-8.7 1.8.6.9.6.8 1.5 1.4a41 41 0 0 1-7.7 2.4l-.3.5c2.5 3.4 1.5-.8 3.2 3.3l3.2.4-.4.2c-7.5.2-15.3 2.1-22.4 2.2m75.2-162.8c1.2.4.7.2 1.8 1.4.7-3.5-4.4-9-2.1-11.8l.9.2.1-.7.5.2c4.2 5.3 13.4 15.8 15.8 21.5l-.9.2c-2.8-5-2.6-.2-6.7-3.1-1.2-1-1.7-1.5-3.2-.7.7 1.2.9 1.4 1 2.8-2-2.2-5.7-7.5-7.2-10"/>
  <path fill="#475457" d="M211.5 615.1c2.2-.5 7-2 9-1.5q2.6 5 4.5 10 1.2 3.4 2 6.7-3.7.3-7.6.4c-2.5-6.2-3.9-10.4-8-15.6"/>
  <path fill="#021521" d="M108 608.2a39 39 0 0 1 6.2 4.3l-.4.8-1.6-1.4c-.8.2-.7 0-1.5.4 1.2 1.4 2.9 3 3.3 4.8-2.2 6.5-7.4 12.4-10.2 18.7-1.4 3.2.3 4.8-1.8 7.5.1-5 1-9 2.1-13.9l.1-1.5c-1.1-1.1-1.4-.9-3.3-1.3 1-.7 1.4-1.1 2.2-2 1 .3 1 .3 2 0 1.7-2.4 2.8-6.2 4-9q-3.8-2.4-7-5.1l.4-.4 1.1.3c3-1 3.5-.7 5.8.9l.2-.5c-.5-1-1-1.2-1.8-1.9zm49-30.4.4 1.6c1.8.3 6.1-.4 8.3-.5 5.6-.2 12 0 17.4 1.4-1.4.4-6 2-6.9 1.7l.4-.9.8-.1-.1-.8c-1.4-.2-1-.3-2.3 0l1 .5c-2.4 2.7-6.7 1.2-9.9 1.5a80 80 0 0 0-19 3.4c-3 1.1-9 4.3-12.2 3.6 5-4.6 15-6.7 20.3-9.2v-1c1.2-.5.9-.3 1.8-1.2"/>
  <path fill="#475457" d="M206 617.3c3.5 1.9 7 10.5 8.5 14l-6.2.7-2.3.3c-1.6-.8-4.3-8.2-6.1-11.2 2-1.7 3.8-2.5 6.1-3.8m347.9-484.6c6.8 0 8.3 11.1 3.5 15.6l-1.2.2c-7.5.8-7-11.3-2.3-15.8"/>
  <path fill="#020507" d="m745.5 687.3 1 6.8c.6 18.5.1 36.6.6 54.8l-2-.2c-.3-10.8-.5-23.8-.3-34.6.7-8.4 0-17.9.7-26.8"/>
  <path fill="#021521" d="m312 604-.6.7c-.1-1 .1-1-.4-1.4l.9 8-.8.3c-3.5-1.6-2.2-2.5-3.4-4.5-1.8-2.9-1.2-4.8-2.2-8.3v2l-.5-.2c-.4-.7-1.9-3.7-1.7-4.2 1-2.8 1-5.8 1.4-8.5l1-.2q.3 2 1.3 3.5l.2-1 .1-1.8c1.6 4.7 3.8 11 4.7 15.7m114.3-87.4h.9c0 .3-1.6 11.1-2.1 12.4-.8 2-4.5 4.6-5.1 9.2-.7 4.8-4.9 9.6-8.6 12.8 3.8-11 11.8-24.7 14.9-34.4"/>
  <defs>
    <linearGradient id="t" x1="188.4" x2="175.3" y1="590.9" y2="592" gradientUnits="userSpaceOnUse">
      <stop offset="0" stop-color="#3c4f53"/>
      <stop offset="1" stop-color="#5a6869"/>
    </linearGradient>
  </defs>
  <path fill="url(#t)" d="M173.8 587.8q8.3.3 16.4 2.5-2.2 3-5 5.6l-13.2-2c-1.9-.3-4.2-.1-5.7-.3 3-1.4 6 .3 8.3-1.4.5-1.6-.2-2.7-.8-4.4"/>
  <path fill="#8a9292" d="M751.4 626.6c6.7 2.2 11 3.7 14.5 10.6l.9 2c-.6 1-.6 1-1.6 1.7-2.8.1-4.7-1.5-7-3-2.7-4-4.5-7-6.8-11.3"/>
  <path fill="#021521" d="M397.1 578c1.4-1 .7-.1 2.2-1 .6.6 1 2.3 1.4 3.5 2.1 5.7-7 15.1-11 17.2l-.6-.8c2-3.5 7-15 8-19"/>
  <path fill="#aaacac" fill-opacity=".9" d="M688.5 727.3c0-1.7 32.7-47.4 36.4-50.7-2 5.7-32 46.5-36.4 50.7"/>
  <path fill="#969a99" d="M777.7 637.4q12.8-4.9 26-9.6c7.6-2.9 18.2-7.6 26.2-8.7-4.8 2.3-11.5 4.7-16.5 6.6-9.2 3.4-26.2 11-35.4 12.8z"/>
  <path fill="#021521" d="m239.8 715.1.7.6c-.5 1-1 1.4-1.8 2.2v.5c-.3 5.3-2.3 5.2-6 9-1.5 1.5-6.2 5.2-8.2 5.3-.6-.5-1.3-1.4-1.9-1.8 3.9-2.7 7.5-6.2 11.2-9.3l.5-.4c1.3-1.8 4-4.4 5.5-6.1"/>
  <path fill="#aaacac" fill-opacity=".8" d="M766.5 675.8c2.2 1.9 28.4 39.7 30.3 43.3l-.6 1.2c-10-13.4-20.4-30-30.2-44z"/>
  <path fill="#021521" d="M250.1 657.3c-1.4 0-2 .2-3-.4l.7.1-.4-1.2c2.6-2.2 8.2-3.3 11.6-4.4 1.6-.5 1.8-.3 3 .3.6 1.7 2.4 3.9 2.5 5l-.4-.7-1.8-.2c-2.7.5-9.3 1.4-12.2 1.5"/>
  <defs>
    <linearGradient id="u" x1="152" x2="154.6" y1="565.4" y2="565.1" gradientUnits="userSpaceOnUse">
      <stop offset="0" stop-color="#020203"/>
      <stop offset="1" stop-color="#050506"/>
    </linearGradient>
  </defs>
  <path fill="url(#u)" d="M149.9 554.6c.8-1.4.3-1.2 1.5-1.9l1.2 1.1c1.1 8 3.1 16.4 4.5 24.4-1 .8-.6.6-1.8 1.2-1.6-4.8-4.3-19.3-5.4-24.9"/>
  <path fill="#021521" d="M706.3 606.8c1.4.7 2.2 2.8 3.5 4.7l.1.9c1.1-.5 1.1-.8 1.8-1.9 2.8.2 5.5 4 5.7 6.6q-1.3 2.3-4 2.3l-.6-.6-.3.2 2.1 4.1-.3.4h-.4a128 128 0 0 1-7.6-16.7"/>
  <path fill="#969a99" d="M431.7 712.5c2.8-.1 5.3-.8 7.4 1.3.3 2.6-2.4 4.2-4.2 5.8-1.5 1.2-1.8 1.6-3.5.8-2-2.5-2.5-5.7.3-7.9"/>
  <path fill="#020507" d="m79.3 620.2.7-2.4c7.6 2.6 15.2 5.3 23.1 6.9l-2.2 1.9c-7.3-2-14.7-3.7-21.6-6.4m75.5 95.8q.5 1 .8 2.2c-1 8.5-3.4 16-4.6 24-1.1.1-1 .6-2.4.3.8-4.7 4.8-23 6.2-26.5m223.4-131.8c.5-1.6.5-1.7 1.4-3.2 1.8-.3 1.7 0 3.8.8.8 2.3 1.7 5.5 2.6 7.6-2.4 2-2.3 2.1-5.4 1.8zm366.7-23.1c.4-1.6.2-4.2.7-6.5l.9.1c0 6.2.4 17.8 0 23.7-.8 3.5-.3 7-1 10.7-.8-.7-.7-8-.9-9.6zM229.6 683c4 2 22.6 10 24.6 11.7l-1 1.3c-3.1-1-22-10-25-11.9zm27.2-73.5.6.8c-4.2 2.5-17.2 7.2-22.5 9.2l-1.7-2c5.5-2.1 12.7-4.4 18.4-6.4 2-.8 3.2-1.1 5.2-1.6m-56.2-55.9.7.3c-.4 6.2-5.2 21.9-7.1 28.6l-1-.5a270 270 0 0 1 7.4-28.4"/>
  <path fill="#021521" d="M383 574.7c2-3 12.3-3.2 13.8 2.8-5.3-1.4-9.8-1.1-15.3-1.2h-.4v-.5z"/>
  <path fill="#636e6f" d="m164 619.2.5.2c-2.1 1.7-8.4 8-10.2 8.5l-.9-.6c-1-.8-2.1-1-2.8-2.1 1.7-2.6 10.4-5.2 13.4-6"/>
  <path fill="#021521" d="m204.8 740.4.8.8q-.8.2-1.4.9c-2.4 2-5.8 2.5-8.8 2.4-.7 1-.5.6-.8 1.9-1 .9-.5.7-1.7.9-.4-1.1-.3-.8-.4-2h-.7c-1.9 1.5 0 2.8-3.3 3.5-1.2-1.5-.8-.6-1-2.7-1.8.5-4 1.3-5.7 1l-.7-.4c7-1.3 12.5-2.4 19.1-4.5l1.3-.7c.7 0 2.5-.8 3.3-1"/>
  <path fill="#020507" d="M106.4 719c.8-3.4 13.4-16.6 16.5-20.1l1 .7a129 129 0 0 1-17.5 19.4"/>
  <path fill="#969a99" fill-opacity=".9" d="M105.9 574.8a333 333 0 0 1 18 22.7l-.9.7c-5.7-6-12.2-15.8-17.7-22.7z"/>
  <path fill="#021521" d="M375.7 577.8c2.1-2.6 3.5-4 7.3-3l-2 1 .1.5h.4l1.9 5.5c-2-.8-2-1.1-3.8-.8-.9 1.5-.9 1.6-1.4 3.2-.6-1.9-1.7-4.5-2.5-6.4"/>
  <path fill="#020507" d="m192.8 718.8 1-.4c2 5.6 3.2 11.5 5.4 17a38 38 0 0 1 2.3 6.1l-1.3.7a99 99 0 0 1-7.4-23.4"/>
  <path fill="#021521" d="M346 548.2c.6-6 4-6.8 9.3-6.3h.4l.6-1.4.7-.3 1.1.8c-5 4.2-6.2 4.6-12.2 7.2"/>
  <path fill="#475457" d="m82.2 674.3-.3-.6c1-1.6 18.2-6.8 21.5-8l.6 1.7q-11 3.3-21.8 7"/>
  <path fill="#aaacac" d="M145.3 630.1c5.4 0 5.6 2.8 2.5 6.5-1.5.2-2.4.3-3.6-.5-1.7-2.5-.8-4 1.1-6"/>
  <path fill="#021521" d="M386 589.4c.6 1.9 2 5.7 2.3 7.4-3.6-1.7-1.8-1.2-6-.4l-1.7-5.2c3 .3 3 .2 5.4-1.8M148.6 742.5c1.4.3 1.3-.2 2.4-.4 0 .8-.4 2.1 0 2.5 2 1.7 7.7 1.8 10.7 2.5-3.5.8-9.2-.4-13.7.3-1-.8-1-1.3-1.5-2.8-1.2-.3-1.7-.5-2.9-1l.6-.4c2 .4 2.3 1 4 .6zm151.7-214.1c1.2-4 3.9-3.7 7.4-4l-.1-1.5c1.1-1.3 1.5-1.3 3-1.9-2.7 3-2.2 4-1.7 8-2.2-.6-3-1.2-4.8-.4l-.6 1.1-.4-2.6-.5-.2zm27.3 15.8 2.6.2-.3 1c1.3 1.9 2.5 3.6 4.7 4.2l-.2.6a24 24 0 0 1-12-3.4c2.2-.8 2.3 1.4 4.7-.3l.2-1.4-.3-.4zm-70.9 60.5.3-.5c.7 3.2 1.8 5.4 3.1 8.4l2.4 1.2c-.4 1.8-1.6 2-1.6 2.4-.1 3.3 1.2 3.8.7 7.4-1.2-3.5-2.1-11.1-4.2-13.3l-.6-.8c.4-1.4 0-3.3-.1-4.8"/>
  <path fill="#475457" d="M744.6 579.5c.2 1.6.1 8.9.8 9.6.8-3.8.3-7.2 1-10.7 0 4.6.6 18.7-1.3 22a147 147 0 0 1-.5-20.9"/>
  <path fill="#021521" d="M163 661.6c4.1.3 6.6 0 10.6-.5l2.4.3q-1.2 0-2.3.4.9.6 1.6 1.4c-.7 1.1-.6.9-2 1.6q-2.7.5-5.1-1.2l.1-.4 3.2-1c-2.7 0-6.6 1-8.6-.2zm11.6 2.8c1 .7 2.7.6 4.2.8 1.3 1 .8.4 1.2 2.5-1.8.3-2.2.6-3.8 1.3l-.7.7.6 1.6h-.6c-.9-1.7-.7-2.8-1.4-4.4-.7-1.5-.5-1.2.5-2.5"/>
  <path fill="#636e6f" d="M195.1 626.5c.7 2.2 3 5 2.1 6.8l-2.1.2c-2-.4-2.4-.2-3-2.2.6-2 1.8-3.2 3-4.8"/>
  <path fill="#475457" d="m744.7 682.6 1.3.2c.5 4 .6 7.2.5 11.3l-1-6.8c-.8 9 0 18.4-.7 26.8z"/>
  <path fill="#020507" d="m215 700 .9-.8c4 2.3 3 6.2 9.2 6.8-2.2.6-2.7 0-4.5.6-2.4-1.7-4-4.3-5.7-6.6"/>
  <path fill="#021521" d="m113 726.2-.6.3c-2-1.4-7.9-4.5-7.8-6.7l1-.9.5.2c1 1.1 6.5 6.5 6.8 7M663.3 603l-.6-2c.6-2.3 4-7.4 6.3-7.6-1.7 3.3-4 6.3-5.7 9.6"/>
  <path fill="#020507" d="M227 714.8h2c1.8 1.8 4 4 5.3 6.4l-.5.4c-3.3-1-4.1-4.8-7.1-6.6z"/>
  <path fill="none" d="M631.7 324c.3 2.4 1.5 4.7.4 6.8l-2.6.7h-.3l-.2-.3z"/>
  <path fill="#021521" d="m657.8 615.5-.6-1.3-1.5.2-.4-.8c.4-3.8.5.2 2-3.4l.5-.1.8.5.7.1z"/>
  <path fill="#636e6f" d="M622.5 466.4c1.5-.1 1.6-.2 3.1.1-.4.8-2.7 1.7-3.7 2.2l-1.8.6-.8-.4v-1c1.3-1.4 1-1 3.2-1.5"/>
  <path fill="#969a99" fill-opacity=".9" d="m796.2 720.3.6-1.2c1.7 2.2 4.6 5.6 5 8-2.2-.9-4.2-4.7-5.6-6.8"/>
  <path fill="#021521" d="M615.2 388.4c1.7 0 1.8.6 2.3 2 0 2 0 2-1.2 3.7l-.7-.6c-.7-2-.5-3-.4-5.1M164.8 670c-.2-.2-.1 0 0-.6l2.3-.2-.3-1.5.4-.6 1.7.1c.8.8.5.3.6 1.8l-.8.4c-1.5.4-2.3.7-3.9.6m122.6-339.3c1.1 2 .7 2.8.7 5.4-1.2-.7-.8-.4-1.6-1.7-.3-1.5.2-2.2.9-3.7m8.2 28.8.8.5c.7 1.2.6 1.2 1 2.6l-1 .9-.2-.2c-.8-1.8-.9-1.9-.6-3.8m-9.3-31.4 1-.6c.2 1-.3 1.8-.6 3-.5-.3-.8-1.2-1.2-1.8z"/>
  <path fill="#25bf6b" d="m128.3 274.8.1.2c.5 1.9-18.5 70.4-21 78h50c-10.8 14.4-22.8 29.1-34 43.4l-52.3 66.5c-.5.8-.2.4-1.1 1 0-.3 17.1-85 19.6-92.2-14.7-.3-33-.6-47.5 0 4.6-6.2 17.1-19.6 22.8-26l43-48.2c6.3-7 14.7-15.6 20.4-22.7"/>
  <path fill="#020507" d="M648.4 152c2.1-1 2.4-1.1 4.1-2.8l7.3 7.5a95 95 0 0 1 16.9 32.9c-2 1.4-2.4 1.7-4.6 2.6-1.2-2.6-2.5-7.1-3.7-10.1a76 76 0 0 0-20-30"/>
  <defs>
    <linearGradient id="v" x1="466.2" x2="459.5" y1="541.7" y2="530.7" gradientUnits="userSpaceOnUse">
      <stop offset="0" stop-color="#00070e"/>
      <stop offset="1" stop-color="#000001"/>
    </linearGradient>
  </defs>
  <path fill="url(#v)" d="M472.4 522.4c4.5-1.5 2.2 0 5.6 2.5-.7.6-4 3.4-4.4 4-5.3 4.3-9.9 9.8-14.5 14.8-.6.7-4.8 5.3-5.2 5.5q-1.5.6-2.9 1.6c-1-.7-1.2-2.7-1.6-4.2 1.8-1.5 5.6-6.5 7.5-8.7q7.5-8 15.5-15.5"/>
</svg>
