<svg xmlns="http://www.w3.org/2000/svg" width="950" height="770" viewBox="32 118 950 770">
  <path fill="#041c2c" d="M692.3 120.7c5.2-.2 11-.6 15.9 1.4 15.8 6.7 17.3 28.1 11 41.9-3.2 7.2-8.2 9.9-15.1 12.3 2.9 11 5.3 23.5 7.6 34.6l10.5 50.5 13.9 66.8c2.6 12.7 5.6 24.6 8 37.4 3.7 0 9.7.1 12.7 2.8 5.2 4.6 6.7 15.3 7.2 21.9.5 6.3-2 8.7-5.9 12.9 1.4 10 5.4 23.1 7.7 33.5 7.6 33.4 17 67.4 24.8 100.8 3.2-2 10-6.1 10.9-10 .6-2.3-1.6-4.8-2.5-6.7-7-14.4.6-26.4 13.5-33a56 56 0 0 1 33.3-3.7c14.4 4 14 29.8 9.8 41-8 21.6-26.6 14.8-42.4 8.6-6.8 5.2-10.7 9.8-18.6 15.2.8 5.7 2.2 10.2 3.6 15.7 6.7-1.3 13.1-3 20-3.9 12.2-1.4 47.8-2.3 56.8 5.2q2.3 1.8 2.5 4.7c0 4.4-5.4 7.5-8 10.2-1 1-1.4 1.5-1.5 2.8 1 1.2 21.1 7.8 24.5 9.4q15 6.6 28 16.7c32.2 25 53.1 62 58 102.4 5 40.6-6 83.7-31.4 115.9a148 148 0 0 1-100.4 56.2 147 147 0 0 1-107.4-31.5 151 151 0 0 1-53.6-100.4c-4.5 2.8-8.2 8.6-14.3 7.9-7.4-1-6.3-10-6.4-15.5-1.8-64.3 31.5-129 87.5-161.7-1.1-3-6.1-19.6-7.3-20.7-7.2-6.8-2.6-7.9-4-13a596 596 0 0 1-7.4-30.6c-4.8.3-19.9 3.8-25.4 5q-29.3 6.3-58.3 13.5c-35.1 8.6-70.9 16.4-106 25.1-.2 24.5-10.1 22.2-30.4 21.8-8.8 22.4-19.4 40.7-29.3 62a82.4 82.4 0 0 1 7.5 104.3 78 78 0 0 1-15.7 15.6c4.6 9.2 8.4 16.8 12 26.3a90 90 0 0 1 26.6 1.4c8 3 8.7 16 7 23.3-1.6 8.8-14.5 10.6-21.9 9.6-10-1.5-46.7 2.5-53.1-1.5q-5.1-3.4-6.3-9.4c-1-5.4-.6-13.7 2.7-18.2 2.7-3.7 8.8-4.7 13-5 .2-2.7-4.3-10.7-5.8-13.9-5 .8-17 4.1-21.5 3.6-16.8-1.8-30.5 1.5-47 4.2l-34.7 5.2c-8.4 1.3-19.7 2.1-27.1 3.6a156 156 0 0 1-48.4 59.6c-10.1 8-28.6 17.1-40.7 21-38 12.2-79.4 8.8-115-9.4C39.7 827 14 731 52.4 656.2c35.1-68.8 118-102.2 189.7-70.7 9.7 4.2 18.3 9.8 27.7 14.7 5.7-4 13-10.5 18.6-15a394 394 0 0 1 43.6-31.3c-3-10.7-8.3-25.5-10-36-3.2-.3-8.1-.5-10.8-2.3-6.1-4.1-7.5-15.7-3.2-21.5 2.3-3 5.3-3.7 9-4.2q-10.7-39.4-22.5-78.6c-3.8-12.5-6.9-25.4-10.6-38l-14.2-48.2c-2.1-7.4-5.8-18-7.3-25.3-13.3-.8-14.9-5-19.4-16.3-21.9-.9-49 7.3-52.2-23-15.5-4.3-28.8-9.2-27.4-29.4.7-10 5.2-20.9 13.2-27.3 14.5-11.9 36.8-6.3 53.7-4 12.8 2.3 25.3 3.9 38.4 4.5 26.4 1.3 52.8-3.2 79.2-2.2 7.5.3 17.9 5.1 22.3 11.6 9.4 14 5.5 34.7-14.1 36.3-12.4 1.3-22.3-.2-34.1 1.6-2.8.4-11.7 8.2-14.5 10-5.6 4.2-12 6.9-17.5 11l.2 1c4 2.8 4.3 3 6.2 7.4 2 5 0 9.3.8 12.8q3.5 13.4 7.6 26.6l27 92.3c6.5 21.9 14 45 19.9 67 9.7-.4 15.2 1.8 17.2 13.1 1 5.2-.9 7.7-4 11.6 2.5 9.5 8 21.6 9.8 30.2 4.2-.6 13-4 17.3-5.4l25.3-9a2681 2681 0 0 1 86.9-29c.1-5.6-1.2-16 2.5-19.9 3-3.3 8.2-5 12.7-5 11.7-.3 24.1-1.3 24.5 14 17.8-2.6 44.4-9.9 62.8-14.1q54.6-12.9 109.4-24.6c-2-8.3-4.6-20.5-5.2-28.8-14.9-3.2-15.3-7.7-16.4-21.9-2.2-.6-7.3-1.8-9.2-3-13-7.3 5.1-25.2 5.2-33.8.1-10.6-5.6-15.4 9.5-18.7-2.2-20.3-7.6-44.5-11.3-64.7q-7.8-44.3-16.3-88.4c-6-2.3-7.7-3.7-12.2-8.1-13.1.7-26.9 4-39.8 3.5-20-.8-21.7-35.1-3-38.7 11.9-2.3 25.2-1.7 37.3-2.7 3-20.4 21-14.9 37.6-15.6m123.3 504c2.3 12.1 7.1 27.8 11.4 39.6s7.7 17.4 9.6 30.4c12 2 20.3 5.7 27.6 15.5 7.4 10 7 19.3 5.6 31.2q0 .8-.3 1.6l-.5.7c-1 1.5-2.6 4.8-3.5 6.5-2.9 5.5-5.2 8-9.6 12.3 2 2.1 2.4 2.8 3.8 5.3l-.8.2-3.7-4.9a48 48 0 0 1-20.6 6.5H829c-16-.3-30.6-16-32.7-31.2a39 39 0 0 1 5.9-26.6 403 403 0 0 1-25.4-57c-1-2.8-2.1-9-4.2-10.7-2.5 0-6.2 3.8-8.2 5.5a110 110 0 0 0-30.8 46.4c-6 12.4-8.7 46.6-3.9 59.9a108 108 0 0 0 46 70.5c13.4 9.2 39.3 19 55.6 17.4.5-1.2.3-2 .6-2.6 1.3 1.2.6 1 2 1.2l-.2.9.6.6c22-.6 44.8-8.6 61.3-23.4a112 112 0 0 0 32.8-42.9l.6-1.4c2.3-6.2 3.3-9.5 4.6-16a113 113 0 0 0 1.8-50.1 109 109 0 0 0-56.9-76.6c-10.8-5.4-32.3-12-44.5-9.9h-1.4q-8.5.1-17 1M79.6 704c-6.1 32.6-.4 62.6 17.9 90.5a128 128 0 0 0 34.9 33 160 160 0 0 0 24.6 9.9q1.6.6 3.3 1c10 2.6 18.5 3.4 29 2.7a107 107 0 0 0 73.6-37.6 305 305 0 0 0-34.5 3.7l-6.7.6c-9.5 1-19.1 4.6-27.2-3.4-4.6-4.5-5.8-12.1-4.5-18.2.8-3.9 2.4-6.6 2.3-10.8-3.6 0-16-.5-18.2 1.2l-1.1-.7-6.5-1.7a59 59 0 0 1-19.5-9.6l-.9-1c-1.4-2.4-6.1-8.5-8-11.4-9.2-14.4-7.2-22.8-3.9-38.2-1.3-.6-.7-.4-2.3-.3-16.7-5.2-33-12-50-16.8zm156.8-72.4a104 104 0 0 0-68.8-12.8c-15.5 3.1-25.7 5.5-38.7 15.3l-1.3 1.1c-16.2 8.4-28.3 24.7-37 40.3-2.6 4.6-4.6 9.8-7 14.5l-1 4.6c8.3 2.8 16.9 5.4 25 8.5 8.9 3.3 17.2 7 26.3 9.6l.8.2c1.7-1.7 4.5-8 6-10.5 3.8-6.3 10.5-10.4 16.3-14.7 5.8-1.7 12.5-4 18.5-4.3 4.9-.3 10.9.5 15.6-.1 1.9-3.5 16.2-21.6 19.4-24.8 6.5-6.5 21-19.3 25.9-26.9m58.3-7.9c8.5 11.5 14.1 18.4 20.7 31l2.1 3.4c7.3-2.6 14.1-4.2 21.5-6.2 7-1.9 13.7-4.2 20.6-6a1414 1414 0 0 0-16.7-58c-7.9 4.7-18.8 13.3-26.3 19-7 5.4-15.3 11.3-22 16.8m38.2 108.9c-1 19.4-3.4 33.2-9.2 51.8 12.2-1.8 24.4-3 36.4-5.3a391 391 0 0 1 34.7-4.9 96 96 0 0 1-31.1-27.7c-3-4.1-5.2-11.6-8-15.8H354zM212 763.3l-.5.8c-.6 1.7-1.1 2.7-.6 4.3 1.6 1.8 4.3 2.6 6.5 3.7 11.5 5.8 11.3 13.9 11 24.7l32.7-3.5c11-1.2 11.5-1.3 16-11.4v-2l1-.2c6.3-8.4 10.2-30 11-40.7-22.1 1.8-45.3 5.4-67.8 7.8-3 6.2-6.2 10.7-9.3 16.5M398 609c1.3 4.6 4.2 13.3 4.7 17.8 22.1-5.2 28.5-6.7 51.1-.5 5.7-14.9 13-28.6 18.9-43l-.7-.1c-8.9 1.3-32.7 10.5-41.3 13.8-10.2 4-22.7 8-32.7 12m-136 45a561 561 0 0 0-27.6 28.1 123 123 0 0 0 11.5-2.9c9.4-2.6 18.8-5.6 28.1-8.1-2.9-6-6.5-13.4-12-17.1m198 33.6 4.8-.2c3.3-.5 6.5-.5 8.6-3.4a8 8 0 0 0 1.4-5.6 15 15 0 0 0-5.7-8.7c-2.8 5.8-6.5 12.3-9.1 17.9m-137.8-20.4a207 207 0 0 1 7.7 27.7c.2 1.7 0 2.7.8 3.8 4.8-.4 15-1.9 20-2.8 1.2-8.8 2-13 4.6-21.2 1.8-5.5 8.3-14.8 8.1-18.4-1.2-.4-.7-.3-2-.2-14.3 3.3-25.6 7.6-39.2 11.1m66.4 25.3 4.5-.5c-1.4-2.2-6.5-10.6-8.4-11.3-3.2 4.5-4 5.3-5 10.9l-.2.9zm316.1-318.8h2.5c1-2.3-.3-5.2-1-7.9-1 2.1-3.4 6.2-2.8 8.4 1-.2.6 0 1.3-.5M839.8 494c-8.5 5.6-7.8 33.7 1 34 6-3.2 6.5-11.1 6.3-17.1-.1-5.9.6-16.6-7.3-17m-442 230.3c-2 0-4.6 0-6.5.3l-8.4 1.4c2.2 3 3.7 5.4 6.4 8 4.7-3.4 5.4-4.8 8.5-9.7m64.3-13.6c-3.1 1.8-6.3 6-8.2 9a85 85 0 0 0 9.4 20c2.7 1 3.8-.7 5.4-2.7 2-3 15.3-21.9 8.8-26a54 54 0 0 0-15.4-.3M437 754.8c-1.8-4.8-7.4-20.4-11.7-23.6-.5-.3-2.5-.2-3.2-.2-9.6 2.8-23 21.8 1.9 24 5.4.7 7.6.7 13-.2m-149.9-50.5c-.6-4.6-3.8-21.3-7.7-24.1-7.2 1-57.7 15.4-61.3 18.3-.5 4 4 9.3 4.7 13.5 1.2 0 .8.1 2-.2 20.6-2.5 41.7-5.7 62.3-7.5m139.6-54.6c-5.4.4-8.2.6-13.4 2.2a95 95 0 0 0 9.5 22.1c2 .8 3.6.6 5.7.5 1.3-.3 2.1-.4 2.7-2 2-5.3 7.4-15.7 8.7-20.7-2.2-2.8-9.8-2.5-13.2-2"/>
  <defs>
    <linearGradient id="a" x1="657.8" x2="659.9" y1="551.2" y2="409.7" gradientUnits="userSpaceOnUse">
      <stop offset="0" stop-color="#009683"/>
      <stop offset="1" stop-color="#01b69b"/>
    </linearGradient>
  </defs>
  <path fill="url(#a)" d="M721.8 415.9c8.5-1.3 17-4.2 25.7-5.7 1 4.5 2.6 7.8 3.6 13 2.9 13.2 6 25 9.2 38.1l10.7 45.3c2.6 10.8 6.8 24 8.6 34.9l-5.5 1.8c-5 2-17.4 4.7-22.5 5.5-2.7-7.6-2.6-13.6-4.4-20.2-1.7-5.9-4.7-16.9-6.7-22.5-5.7 1-11.9 2.8-17.6 4l-27.7 6L593 539.6c-16.4 3.8-31.5 8.2-48.4 11.5 0-5 0-9.2.6-14.2 4-1.5 10-2.6 14.5-4.1 1.4-3.7 1.4-6 1.7-9.8-4.2-9.2-7.1-7.5-16.6-8.1-.4-7-1.1-14-.5-21 .7-1.3 1-2 2.6-2.3 11.1-3 22.5-5.3 33.7-8l94.7-22.4c15.5-3.5 31-6 46.4-10.5q3-.6 6.1-1c-1.5-11-4-22.7-5.9-33.8"/>
  <path fill="#47d9b8" d="M721.6 450.7c1.4.4 3.4 1 4.8 1.2q.2 3.8.6 7.4c-17.5 3.4-33.8 7.4-51.2 11.4l-73.3 16.6-34 8c-9.2 2.1-13.2 1.7-22.1 5.8q-1.3-3.6-2.2-7.3c.7-1.2 1-1.8 2.6-2.2 11.1-3 22.5-5.3 33.7-8l94.7-22.4c15.5-3.5 31-6 46.4-10.5m19.9-30.9q3.3-1 6.7-2.3l2.9 5.6c2.9 13.3 6 25.1 9.2 38.2l10.7 45.3c2.6 10.8 6.8 24 8.6 34.9l-5.5 1.8c-4.7-3-7.7-24.4-10-30.3-10-26.8-12.8-55.3-21.5-82.5-1-2.7-1-7.8-1.1-10.7"/>
  <path fill="#27414b" d="m810.4 606-.4-.6c-1.5-2.5-2.5-3.8-2-6.6 3.4-5.6 21.6-4.5 27.7-4.9 25.7-1.6 52.8 7.7 74 21.7 63.6 41.8 74.9 138.2 31.3 198.5-7.3 10.2-25.5 31.7-36.9 36.1a43 43 0 0 1-19.7 10.7c-5 2.1-15.6 6.7-20.4 7.4a230 230 0 0 1-59 .7 135 135 0 0 1-82.2-52.6c-16.5-24.2-27.6-57.9-24.8-87.3.8-9 2.8-19.3 4.3-28.3-1.5-8.5 5.9-21.5 9-29 5-11.6 8.7-17.2 18.6-25.3a91 91 0 0 1 21.7-21c2.3-2.4 10.2-9.9 13.3-7.8a6 6 0 0 1-1.5 5.4c1 1.6.2.8 1.5 1.6 3 1.9 4.3 6.7 4 9.8l-.7.5a94 94 0 0 0-24 22 122.4 122.4 0 0 0 18.6 172.4 115 115 0 0 0 85.3 23 124 124 0 0 0 33.8-10.8 117 117 0 0 0 50.6-50.5c45.5-83.6-18.6-192-117-176.9-5.2.8-4.8-4.6-5.1-8.2"/>
  <path fill="#b0b1b2" d="M810.4 606c17-2.2 39.8-2 56.1 2.8a127 127 0 0 1 66.8 49.8c4.3 6.2 8.9 12.7 11.1 20 4.3 8.5 8.6 25.8 10 35.9 6.3 47.7-14 102.7-57 127.5a301 301 0 0 1-20 10.4c-9.6 1-13.5 3.6-22.3 5.4-12 2.4-25.3 2.3-37.2 3.7q-8.3-1.3-16.4-3.3a121 121 0 0 1-74.1-56.2c-4.4-7.4-8.5-14.4-11.3-22.5-17.9-52.6-4.6-110.5 39-146.3 3-2.4 6.2-5.5 9.6-7.4 1.3 1.4 3.1 7.2 3.5 9.2a94 94 0 0 0-24 22 122.4 122.4 0 0 0 18.6 172.4 115 115 0 0 0 85.3 23 124 124 0 0 0 33.8-10.8 117 117 0 0 0 50.6-50.5c45.5-83.6-18.6-192-117-176.9-5.2.8-4.8-4.6-5.1-8.2"/>
  <path fill="#999d9e" d="M933.3 658.6c4.3 6.2 8.9 12.7 11.1 20l-1.2-.3c-3.3-2.6-6.4-10-8.7-13.8-1.3-2.4-1.3-3-1.2-5.9"/>
  <path fill="#0d2e39" d="M702.3 700.8c-1.5-8.5 5.9-21.5 9-29 5-11.6 8.7-17.2 18.6-25.3l-.3.6c-3 5.4-7.5 10.4-10 15-3.4 6.7-8 14.8-11 21.6-2.2 5-4 11.7-6.3 17.1"/>
  <path fill="#7f888b" d="M818 861.5c11.8-1.4 25.1-1.3 37.1-3.7 8.8-1.8 12.7-4.5 22.4-5.4a101 101 0 0 1-59.6 9.1"/>
  <path fill="#295261" d="M751.6 625.4c2.3-2.3 10.2-9.8 13.3-7.7a6 6 0 0 1-1.5 5.4c-3 .5-10.3 4.5-11.8 2.3"/>
  <path fill="#0d2e39" d="M884.4 860.9c3.4-3.8 14.6-8.4 19.7-10.7a43 43 0 0 1-19.7 10.7"/>
  <path fill="#999d9e" d="M923.1 699c1.4-.2.9-.2 2.3.1-.6.9-48.5 18.7-53.8 20.2l-1.5-.2v-.7c2.3-1.4 10.7-3.8 13.9-5 12.4-4.4 26.5-11.2 39.1-14.3"/>
  <path fill="#999d9e" fill-opacity=".9" d="m877 655 1 .6c-2.2 4.5-7.6 13-10.3 17.7-3.2 5.6-10.6 19.5-14 24.2 3.1-9 18.2-34 23.3-42.5"/>
  <path fill="#465359" d="M877 655c2.5-4.5 6.4-12.2 9.6-15.8-2.8 6.7-4.9 10.3-8.5 16.4z"/>
  <path fill="#999d9e" fill-opacity=".9" d="M751.1 754.3c13.1-4 30.2-9.5 43.4-12.6l.4.2c-6.2 3.8-33.7 10.2-42.6 13.4z"/>
  <path fill="#b0b1b2" fill-opacity=".5" d="M785.4 795.5c7.6-10 14.7-20.5 22.4-30.3v.3c-2 4-18.4 28.5-20.9 30.6-.8-.6-.5-.4-1.5-.6"/>
  <path fill="#7f888b" fill-opacity=".9" d="m777.3 806.1 1.6.9c-2 2.8-7.6 10.9-10.1 12.5l-.4-.3c1.2-3.1 6.7-10 9-13"/>
  <path fill="#b0b1b2" fill-opacity=".8" d="M785.4 795.5c1 .2.7 0 1.5.6l-8 10.9-1.6-.9z"/>
  <path fill="#b0b1b2" fill-opacity=".6" d="M752.3 755.3c-1.8.5-12.1 3.6-13.3 3q6-2.4 12.1-4z"/>
  <path fill="#03aa93" d="m503.4 503 1 .3c.9 2.4 1 10.3.7 12.9-3.2 5.1-3.6 2.4-3.6 10.1l.1 4.4 3.4 5.6c1 5-.2 17.3.2 23.8-8.5 4.4-9.6 3.8-18 6.8l-27.1 9.4c-7.4 2.5-72.7 26-73.9 28.4.2 2 .3 2.6.9 4.6 1.7 4.6 4.5 11 6 15.3-2.9-1.8-5.5-11.7-7.8-14.7-3.2-4.1-5.1-20-9.2-22a301 301 0 0 1-12.5-46c-.8-4.4-2-4.4-1-9.4 1.6 5.3 3.3 9.3 5.4 14.4l7.7-1.6c6-1 13.8-4.4 19.7-6.5q39-13.5 78.2-26.6c9.7-3.3 20-5.9 29.8-9.2"/>
  <path fill="#47d9b8" d="M375.7 545.3c6-1 13.8-4.4 19.7-6.5q39-13.5 78.2-26.6c9.7-3.3 20-5.9 29.8-9.2 0 3.7-.1 6.2.3 9.8-14.2 2.2-28.6 8.7-42.1 13.1-7.6 2.5-14.4 4.5-22 7.4-7 2.6-14.9 4.6-22.2 7.2l-26.6 9.5c-3.5 1.2-8.5 3.5-11.8 4.4-1.1-3-3.6-6.8-3.3-9"/>
  <path fill="#01947f" d="M505 536.3c1 5-.2 17.3.2 23.8-8.5 4.4-9.6 3.8-18 6.8l-27.1 9.4c-7.4 2.5-72.7 26-73.9 28.4.2 2 .3 2.6.9 4.6-2.8-3-6-10.1-4.3-14 4.7-2.2 11.3-3.8 16.4-5.8 27.7-10.8 56-19.8 84-29.9 6.9-2.5 13.6-5.8 20.7-7.2.1-5.2.9-10.8 1.1-16.1"/>
  <path fill="#465359" d="m131 743.1 1 .3v.8c-3.4 2-13.4 4.6-17.5 5.8-10 3-20 6.3-30 9-1-.2-.6 0-1.4-.7 1.4-1.8 42.2-14 47.8-15.2"/>
  <defs>
    <linearGradient id="b" x1="270.6" x2="266.1" y1="246.6" y2="206" gradientUnits="userSpaceOnUse">
      <stop offset="0" stop-color="#b1753b"/>
      <stop offset="1" stop-color="#dba575"/>
    </linearGradient>
  </defs>
  <path fill="url(#b)" d="M179.6 218.8c8.2-15.4 29.2-9.8 43-7.8 11.6 1.6 22.7 3.5 34.4 4.6l17.5.4c26.2.8 53-4.5 79.2-1.3 7.7 1 12.6 16 7.3 21.8-2.3 2.4-4 2-7.1 2.1-12.2.4-25.4-1-37.4 1.2-21.3 4-41.5 14.3-62.8 17.8-15.7 2.6-36-.9-51.3-4.8-9.4-2.4-23.2-5.2-27-15a32 32 0 0 1 4.2-19"/>
  <path fill="#9f652f" d="M175.5 237.7c6.3-.4 17.5 3.7 23.8 5 23.2 5.4 45 9 68.1 1.2 27.7-9.4 54-15.2 83.3-11.6-4.4 1.2-15.2-1.4-18.5.3 13.2 3.6 13.6 7 28.8 3.9-2.3 2.4-4 2-7.1 2.1-12.2.4-25.4-1-37.4 1.2-21.3 4-41.5 14.3-62.8 17.8-15.7 2.6-36-.9-51.3-4.8-9.4-2.4-23.2-5.2-27-15"/>
  <path fill="#efb883" d="M179.6 218.8c8.2-15.4 29.2-9.8 43-7.8 11.6 1.6 22.7 3.5 34.4 4.6v.7c-9.5-.2-18.7-2.6-28.2-3.6-1.7-.2-2.4.9-3.4 1.4-6.1 3-16 1-22.7 1.3-7 .4-12.8.8-19.6.2-1.2-.2-2.3 4-2.6 5z"/>
  <path fill="#03aa93" d="M336 563.3c3.3-1.2 4.8-2.2 8.2-1.5l.7.7c-.2 3.5-6.6 7.3-9.3 9.1-4.5 5.5-9.4 6-13.8 11.4-2.5 2.7-2.4 8.8-5.3 11-5.8 4.3-12.8 7-17.7 12.4-1.9 2-2 1.5-2.5 4.5-7.3 6-14.8 11.7-21.7 18.2-12 11.1-75.2 74.3-76.6 85.2q-.4 2.9 1.4 5.2a11 11 0 0 0 7.6 4.2h.8l.6.1c21-3.4 46.3-5.8 67.5-8.5 10-1.3 71-10.5 74.8-8.8q.6 6.6.9 13.3-32 5.4-64.1 8.6c-6 .8-12 2.1-18 3-16.9 2.2-33.9 3.9-50.7 6.8-7.3 1.2-14.6 3-21.8 4.2-8.3 1.5-19.8 4.7-27.2-.3a14 14 0 0 1-6-9.4c-1.5-9.1 5-18.5 12.7-22.6 8.1-5.8 23.6-24 31.6-32.2 2.2-3.2 7.7-8.6 10.5-11.7 8.6-9.6 19.7-22.4 29.4-30.8 6.2-7.4 14-14.4 21.3-20.8q31.4-28.3 66.8-51.3"/>
  <defs>
    <linearGradient id="c" x1="271.7" x2="263.1" y1="631" y2="619.8" gradientUnits="userSpaceOnUse">
      <stop offset="0" stop-color="#2ab8a2"/>
      <stop offset="1" stop-color="#65e0c8"/>
    </linearGradient>
  </defs>
  <path fill="url(#c)" d="M336 563.3c3.3-1.2 4.8-2.2 8.2-1.5l.7.7c-.2 3.5-6.6 7.3-9.3 9.1-8.8 4.8-9 6.4-15.8 11.5-5 4.6-10 7.4-15.4 11.5l-20.1 16c-3.6 2.6-8.2 4.6-11.6 7.4-4 3.5-7.6 7.9-11.4 11.7-6.5 6.6-14.6 13.1-20.3 20.4a71 71 0 0 1-14.4 15c-2.8 2.2-6.9 8.5-10.1 10-2.7-2.6-5.5 1.9-8.4 2.8 2.2-3.2 7.7-8.6 10.5-11.7 8.6-9.6 19.7-22.4 29.4-30.8 6.2-7.4 14-14.4 21.3-20.8q31.4-28.3 66.8-51.3"/>
  <path fill="#27c1a9" d="M336 563.3c3.3-1.2 4.8-2.2 8.2-1.5l.7.7c-.2 3.5-6.6 7.3-9.3 9.1-8.8 4.8-9 6.4-15.8 11.5 1.2-2 2.8-4 3.2-6.2l-.5-.5c-9.5 1.2-28.1 20.5-37 25.8-8.1 5-30.6 30.6-37.5 33.2 6.2-7.4 14-14.4 21.3-20.8q31.4-28.3 66.8-51.3M208.4 723.8c21-3.4 46.3-5.8 67.5-8.5 10-1.3 71-10.5 74.8-8.8l-.6 3.3-.3-2.3c-2.7-1.2-21.8 1.5-26 2.2l1.8.3v.5c-1.9 1.7-4.7 1.6-7.3 1.7v.8c3.1 2 25.8-.7 29.5-2.3l.6.5c-2.6.6-7.2 1.9-9.8 1.9-9.9 0-18.8 3-28.5 4.2-12.3 1.5-24.8 2.2-37.2 3.4-5 .5-12.8 2.3-18.3 3.2q-14.7 2.2-29.4 4c-5.3.6-12.7 1.6-17.9 1l-.2-.3c5.7-.2 10.6-.3 16.3-1.5 6.7-1.4 12-2.8 18.9-2.6l-4.5-1.3c0-1.2 0-.6.3-1.9-5-1.1-30.7 4.5-32.3 3zm-.3-45.8c3-1 5.7-5.5 8.4-2.8-8 8.8-14.9 18.4-24.2 26.4-2.9 2.5-5.2 5.9-8.4 8.5l-.8-1.2c-3.4 0-6.2 3.7-10 5.6l3.4-4.4c8.1-5.8 23.6-24 31.6-32.2"/>
  <path fill="#47d9b8" d="M173.1 714.5c3.8-1.9 6.6-5.6 10-5.6l.8 1.2c-3.3 2.2-10 8.2-13.2 8.7l-.4-.7c.8-2 1.2-2.2 2.8-3.6"/>
  <path fill="#0d2e39" d="M180 718.6c13.4-1 16.4 14 3 20.8-9.5.3-15.4-7.7-10.9-16.7 1.4-2.7 5-3.5 8-4"/>
  <path fill="#b0b1b2" d="M79.2 656.2c1.6-2.6 6.4-7.8 6.9-10.1 1.1-5.1-1.4-9 3.3-13.6 3-2.9 10.3-1.6 11.5-2.6a129 129 0 0 1 84.5-32c8.1.1 15.5 1.4 23.6 2.4 4-2.1 4.5-1.8 6.5 1.8 5.1 2.4 12 3.6 17.2 6 1.6.7 11.3-4.7 12.7-6.2-5-3.1-15.3-6.9-21.3-9-27.2-10-59.5-7.6-86.6 1.7-3.5 1.2-23 11.3-24 11.1a131 131 0 0 1 62.5-19.5c17.7-1 36.2.6 52.6 7.5 10.6 4.5 21 8 29.8 15.7-3.2 5.5-4.5 3.8-6.7 6.8-3.2 4.4-1.2 4.6-6.3 9.2-3.6-1.1-5.2-2-8-4.4-6.5-3.2-13.5-6.9-20.3-9-22.8-7-46.5-6.5-68.9 1-29.1 10-53.2 31-67 58.5-16 32-18.2 66-6.8 99.7a120 120 0 0 0 60 68.5 118 118 0 0 0 63.1 10.4 111 111 0 0 0 64.1-30.2c4.3-5 12.1-14.6 16.5-18.6 4-.9 7.6-1.5 11.8-1.7a124 124 0 0 1-36.8 38.8c-2.5 1.7-4.4 3.1-7.1 4.4a97 97 0 0 1-24.5 11.1c-14 5.2-24 6.7-39 6.3-3-.1-7.8 0-10.6-.6-12.5.3-49.6-12.9-58.5-21.7-10-6-27.2-24-32.9-34-6-10.4-12.8-24.4-16.7-35.9-1.8-2.6-5.4-15.8-6.5-19.5-.5-1.4 1-7.2-.2-10.7-1.6-4.6-.2-11.8-.2-16.6 0-25.2 8.5-44.5 22.3-65"/>
  <path fill="#27414b" d="M79.2 656.2c1.6-2.6 6.4-7.8 6.9-10.1 1.1-5.1-1.4-9 3.3-13.6 3-2.9 10.3-1.6 11.5-2.6a129 129 0 0 1 84.5-32c8.1.1 15.5 1.4 23.6 2.4 4-2.1 4.5-1.8 6.5 1.8 5.1 2.4 12 3.6 17.2 6 1.6.7 11.3-4.7 12.7-6.2-5-3.1-15.3-6.9-21.3-9-27.2-10-59.5-7.6-86.6 1.7-3.5 1.2-23 11.3-24 11.1a131 131 0 0 1 62.5-19.5c17.7-1 36.2.6 52.6 7.5 10.6 4.5 21 8 29.8 15.7-3.2 5.5-4.5 3.8-6.7 6.8-3.2 4.4-1.2 4.6-6.3 9.2-3.6-1.1-5.2-2-8-4.4 5.6.4 5.6 3 10.2 1 1.2-1.5.8-.7 1-2.6-1.3-3.7-7.2-6.4-10.7-8a122 122 0 0 0-97-4.4c-28.2 10.9-44.8 26.5-61.5 50.8A104 104 0 0 0 65 690.1a127 127 0 0 0-5.7 51.3c.6 7 4.7 20.8 4.5 26.6-1.8-2.6-5.4-15.8-6.5-19.5-.5-1.4 1-7.2-.2-10.7-1.6-4.6-.2-11.8-.2-16.6 0-25.2 8.5-44.5 22.3-65"/>
  <path fill="#999d9e" d="M278.1 801.3c4-.9 7.6-1.5 11.8-1.7a124 124 0 0 1-36.8 38.8c.3-.8 1.3-3.7 1.9-4.3 5.4-5.2 28.2-25.3 29.9-31.5-1.3-2.4-6-1.1-7 .2-4.8 6.6-7.7 13.4-15.7 16.9l-.6.2c4.3-5 12.1-14.6 16.5-18.6"/>
  <defs>
    <linearGradient id="d" x1="130.5" x2="132.4" y1="848.8" y2="841.2" gradientUnits="userSpaceOnUse">
      <stop offset="0" stop-color="#949c9d"/>
      <stop offset="1" stop-color="#b1adae"/>
    </linearGradient>
  </defs>
  <path fill="url(#d)" d="m113.4 837.9.5-1.1c3.2.2 13.1 7.2 18.3 8.6 4.3 1.1 18 4.6 20 7.7q5.3 1.7 10.3 3.8a88 88 0 0 0 14 2.5l-4.6.2c-12.5.3-49.6-12.9-58.5-21.7"/>
  <path fill="#7f888b" d="M207.4 855.1c4-.4 10.5-1.6 14.1-1.2-14 5.2-24 6.7-39 6.3-3-.1-7.8 0-10.6-.6l4.6-.2c8.5.4 22-2.8 31-4.3"/>
  <path fill="#999d9e" d="M207.4 855.1c4.3-1.7 7.7-3 12.2-4 2.3-.6 10-1.5 11.6-2.2 4-2 10.2-5.9 14.8-6.1a97 97 0 0 1-24.5 11.1c-3.6-.4-10.2.8-14 1.2"/>
  <path fill="#03aa93" d="m774 556.5 9.2-2c2.4 9.7 5 17.7 7.5 27.1q11.9 44.6 25.9 88.5c3 9.5 11.2 26.4 13 34.3 2 3.8 2.4 8.8 4.5 12.4 3.4 5.4 12.7 13.2 8.5 20.4-3 5.1-10.6 8-15.8 4-5.2-3.8-5.2-10.5-8-16-9-17-16.3-34.6-24.4-52-4.5-10-8-21.8-12.9-32-2.6-5.5-3.4-13.9-5.8-19.7-1.5-6-6.4-14.3-7.6-20-2.8-13.7-8.1-27.6-11.1-41 5.2-1.4 11.6-2.7 17-4"/>
  <path fill="#47d9b8" d="m774 556.5 9.2-2c2.4 9.7 5 17.7 7.5 27.1q11.9 44.6 25.9 88.5c3 9.5 11.2 26.4 13 34.3-.3.2 0 .1-.7 0l-1-2.4h-1a8 8 0 0 0-2.1 6.1c-1.7-5.6-5.2-11.2-7.7-16.6-11.9-26.1-19.1-54-28-81.2-4-12-10.3-22.2-12-35-1-6.2-3.5-12.3-3-18.8"/>
  <path fill="#5b686c" fill-opacity=".9" d="m219.8 624.8.3.3c.4 1.6-7.2 26.1-8.3 29.5l-.4-.3c.1-3.1 7-25.7 8.4-29.5"/>
  <path fill="#5b686c" d="M421 631.8a63 63 0 0 1 46.8 11.8 71 71 0 0 1 28.6 46.7c2.8 18.7-1 37.5-11.5 53.3-3.4 3.8-7.8 10.5-12.9 11.9-2.4.6-5.1-3.6-4.9-5.4.5-3.8 8.4-7.8 10.3-10.6a59 59 0 0 0 9.4-23.7c.6-5.1-2.5-8.3-5.2-12.3a29 29 0 0 0-18.8-1.8c-9.7 1.8-9.1.8-7.6-7.6 11.8.3 16-1.2 27.5-3.6 1-6.8.8-8.8-.2-15.7l-.5-.5c-4-4.3-9-12-12.8-15.5a82 82 0 0 0-39.2-17.1c-10-.3-29.3 4.9-36.2 12.1-7.7 8.1-17.6 17.7-20.9 28.7-.4 1.5-3.5 11.3-3.8 11.8-1.7 17 2.8 30 13.2 43.3 2 2.6 5.7 6.5 9.3 4.7 4.2-1.3 7-2.3 11.2-.9l.5.5c-4.6 17.5 17 19.4 29 19.2 3.3 0 5.6-.2 8.8-1.2l3 10q-2.4.8-5 1.3c-15 3.6-35.3-2.6-48.2-10a69 69 0 0 1-28.4-41.1c-9.6-44.4 15.6-78.6 58.6-88.3"/>
  <defs>
    <linearGradient id="e" x1="384.6" x2="441.6" y1="756.7" y2="652.8" gradientUnits="userSpaceOnUse">
      <stop offset="0" stop-color="#4e5d64"/>
      <stop offset="1" stop-color="#7b8280"/>
    </linearGradient>
  </defs>
  <path fill="url(#e)" d="m444.2 770-5 1.2c-15.2 3.6-35.4-2.6-48.3-10a69 69 0 0 1-28.4-41.1c-9.6-44.4 15.6-78.6 58.6-88.3l2.3.4c-2.4 1-12.5 2.2-13.7 3.4l1.3.4c-.1 1.4-.3 1.5-1.2 2.7a39 39 0 0 1 14.2-3.2c-6 2.8-13 4.5-18.7 7-5.9 2.5-18.5 9.9-21.5 15.8 1-.1 1-.3 1.5 0l-3.8 5.5c-.6 1-3.9 3.5-4.5 4.7-1 2-1 5.2-2.8 6.7-.6-1.2-.2-3.7-.1-5.3a70 70 0 0 0-5 20.5c0 1.3-.2 1.4-.8 2.9.5 1 .2.6.8 1-1.7 17 2.8 30 13.2 43.3 2 2.6 5.7 6.5 9.3 4.7 4.2-1.3 7-2.3 11.2-.9l.5.5c-4.6 17.5 17 19.4 29 19.2 3.3 0 5.6-.2 8.8-1.2z"/>
  <path fill="#01947f" d="M348.4 511.5q3.5-.8 7-1.3c1.9 5.5 5.3 18.1 7.1 22.3-.9 5 .3 5 1.1 9.4a301 301 0 0 0 12.5 46c4.1 2 6 17.9 9.2 22 2.3 3 5 12.9 7.8 14.7.7 1.5 1.5 3 1 4.8-1.2 3.1-8.6 6.4-11.5 7.4l-12.2 7c-3-6.4-3.6-12.9-5.7-19.1-5.6-16.3-10-34.7-15.7-50.8-4.3 3.7-14 7.4-19.7 11.6-11 8.3-21.9 17.4-33 25.4.6-3 .6-2.5 2.5-4.5 4.9-5.5 11.9-8.1 17.7-12.4 3-2.2 2.8-8.3 5.3-11 4.4-5.5 9.3-5.9 13.8-11.4 2.7-1.8 9.1-5.6 9.3-9l-.7-.8c-3.4-.7-4.9.3-8.1 1.5 2.3-2 5.2-3.6 7.3-6l-11.3-42.8a115 115 0 0 0 16.3-3"/>
  <path fill="#47d9b8" d="M348.4 511.5q3.5-.8 7-1.3c1.9 5.5 5.3 18.1 7.1 22.3-.9 5 .3 5 1.1 9.4a301 301 0 0 0 12.5 46c4.1 2 6 17.9 9.2 22 2.3 3 5 12.9 7.8 14.7.7 1.5 1.5 3 1 4.8-1.2 3.1-8.6 6.4-11.5 7.4-.7-.1-3-.4-3.3-.8-2.8-3.5-3.3-16.3-3.7-20.5-2.7-11-5-22.9-8.2-33.7-4.8-16.2-10.5-32.5-16-48.5-2-5.6-3.4-12-4.8-17.7 0-.5 1.5-3.6 1.8-4.1"/>
  <path fill="#27c1a9" d="M376 588c4.2 1.9 6 17.8 9.3 22 2.3 3 5 12.8 7.8 14.6.7 1.5 1.5 3 1 4.8-1.2 3.1-8.6 6.4-11.5 7.4-.7-.1-3-.4-3.3-.8-2.8-3.5-3.3-16.3-3.7-20.5 2-3.4-2.7-6.9-.5-8.8 2.3 4.4 1.3 3.4 2.5 7.6 2.2-3.6 1.2-18.2-.3-22.7z"/>
  <defs>
    <linearGradient id="f" x1="698.9" x2="712.9" y1="276.7" y2="273.5" gradientUnits="userSpaceOnUse">
      <stop offset="0" stop-color="#49555b"/>
      <stop offset="1" stop-color="#828b8d"/>
    </linearGradient>
  </defs>
  <path fill="url(#f)" d="M700.1 263.8c-2.6-15.8-7.5-32-9.5-48.3-1.1-9.4-7.4-25-6.3-34.7 1.6-.9 6.5-1.5 8.8-1.9 4.5 13.7 5.8 25.5 8.6 39.6 2.2 11.3 6.8 28.8 7.4 40.1q9 38.2 16.3 76.5c2 10.8 3.9 22.5 6.2 33-4 1.3-8.3 1.4-12.4 2-.5-6.9-3.3-16.5-4.5-23.7q-6.4-41.4-14.6-82.6"/>
  <path fill="#5b686c" d="M700.1 263.8c-2.6-15.8-7.5-32-9.5-48.3-1.1-9.4-7.4-25-6.3-34.7 1.6-.9 6.5-1.5 8.8-1.9 4.5 13.7 5.8 25.5 8.6 39.6 2.2 11.3 6.8 28.8 7.4 40.1l-.2-.5c-2.2-5.6-3.3-12.6-4.6-18.6A1103 1103 0 0 1 694 185q-.5-2-2-3.5c-1.6-.7-1.5-.6-3.1-.2-.8 1-1 1-.6 2.8 1.2 6.1-.2 15.6 3 21.1l1-1.4c4.5 10.4 3.4 19.7 4.7 30.5.3 2.1 2.5 8 3.2 10.3 3.9 12.3 6.2 24.8 8.2 37.5.7 4.3 2.6 10 2.8 14.1-2.3-6.3-7-28-11.1-32.4"/>
  <defs>
    <linearGradient id="g" x1="343.7" x2="274.4" y1="391.7" y2="386.5" gradientUnits="userSpaceOnUse">
      <stop offset="0" stop-color="#83918d"/>
      <stop offset="1" stop-color="#a9a5ab"/>
    </linearGradient>
  </defs>
  <path fill="url(#g)" d="M285.7 326v-.5c-2.3-7.8-9.1-19-6.7-27.3.6-2.4 4.3-2.5 6.3-1.3 1 1.4 4 13.2 4.8 16 10.9 37.5 22.3 74.9 32.7 112.5 2 7 3.6 14.3 6 21.1a210 210 0 0 1 11.6 36.7c-1.9 2.2-7.2 2.3-10.5 2.8-2-9.8-4.6-14.3-6.9-22.7-3.6-13.4-7-26.5-11-39.8q-3.7-11.8-7.7-23.5c-1.3-4.2-2.5-11.8-3.8-16.7-4-14.1-13.9-43.4-14.8-57.4"/>
  <path fill="#5b686c" d="M285.7 326c4.1 5.1 8.6 23.4 11 30.5 2.2 7 5.2 14 7.4 20.9 1.8 6 2.7 12.5 4.3 18.5 1.7 6.3 4.5 12.7 6.2 19 5.5 20.8 10.5 42 19 61.8.9 2.2 1 5.1 3 6.5l1-.3.6-1c-1.7-5.9-9.2-30-9.4-35.4a210 210 0 0 1 11.6 36.7c-1.9 2.2-7.2 2.3-10.5 2.8-2-9.8-4.6-14.3-6.9-22.7-3.6-13.4-7-26.5-11-39.8q-3.7-11.8-7.7-23.5c-1.3-4.2-2.5-11.8-3.8-16.7-4-14.1-13.9-43.4-14.8-57.4"/>
  <defs>
    <linearGradient id="h" x1="696" x2="724.6" y1="656.3" y2="675.9" gradientUnits="userSpaceOnUse">
      <stop offset="0" stop-color="#04c4b1"/>
      <stop offset="1" stop-color="#0aa790"/>
    </linearGradient>
  </defs>
  <path fill="url(#h)" d="M755.9 593c1.6 2 3 8 3.9 11a88 88 0 0 0-24 16.9c-26.4 25-43.9 54.2-48.4 90.7-1 8-1 16.6-1.1 24.8-4 3-5.5 5.6-8.2 9.7-1 1-.5.8-1.8 1-.8-1.5-.4-5.6-.4-7.6a187 187 0 0 1 8.2-53.5c9.9-31 25-54.9 49.4-76.2 8.3-7.2 12.2-11.6 22.4-16.8"/>
  <defs>
    <linearGradient id="i" x1="448.7" x2="457" y1="752.2" y2="748.4" gradientUnits="userSpaceOnUse">
      <stop offset="0" stop-color="#4d5b60"/>
      <stop offset="1" stop-color="#717e80"/>
    </linearGradient>
  </defs>
  <path fill="url(#i)" d="M421.7 695.6c5-2.4 14.3-4.1 17.4 2.6 1.5 3 0 8.6 1 12.9 9.9 21.3 21.4 43.7 30.4 65.1 2 4.1 9.7 13.3 5.9 17-12 3.7-19.7-22.1-23.6-29.8-2.5-5.2-6-10.6-7.6-16-.5-.9-2.7-6.5-3.4-8q-3.6-7.7-7.5-15.3c-1.5-1.5-2-2.7-3.1-4.2-6-8.1-13.5-7.8-11.9-20z"/>
  <path fill="#465359" d="M421.7 695.6c5-2.4 14.3-4.1 17.4 2.6 1.5 3 0 8.6 1 12.9l-1-1.6-.8-1.8c-2.7-.2-6.4 3.3-6.4 6-.1 3.7 1.4 7 2.4 10.4-1.5-1.5-2-2.7-3.1-4.2-6-8.1-13.5-7.8-11.9-20z"/>
  <path fill="#27414b" d="M434.3 724c-1.5-1.4-2-2.6-3.1-4.1-6-8.1-13.5-7.8-11.9-20 .7 3.9.8 7.3 3.5 9.8 1.3-2.2-.3-2.8 1.5-6l.1 3c.4 1.5.4 1.4 1.6 2.5 5 1.6 7.9-4.3 12.6-2.6.7 1.4.5 1.2.5 3l-.8-2c-2.7-.1-6.4 3.4-6.4 6.1-.1 3.7 1.4 7 2.4 10.4"/>
  <path fill="#041c2c" d="M424.3 703.7c2.7-2.3 6.2-5 8.8-.8.3 6.8-6 4-8.7 3.7z"/>
  <path fill="#7f888b" d="M428.4 695.6c1.6-.5 4.7 0 5.7 1.3-1.8 1.1-3.8.6-6.2 1.6-2.2.9-3.2 1.6-5 1-.4-3 3.2-3.7 5.5-4"/>
  <path fill="#465359" d="M445.2 747.4c2.2 1.2 2.5 2.6 4 4.2 7 7.4 7.6 17 12.1 25.4 2 3.7 7.5 8.9 10.4 12.6-1.2-2.2-2.6-4.3-3.2-6.7 1.8 2 4.3 6.2 5.9 7.3-.4-4-3.6-9.2-3.9-14 2 4.1 9.7 13.3 5.9 17-12 3.7-19.7-22.1-23.6-29.8-2.5-5.2-6-10.6-7.6-16"/>
  <defs>
    <linearGradient id="j" x1="466" x2="503.1" y1="603" y2="606" gradientUnits="userSpaceOnUse">
      <stop offset="0" stop-color="#07ccb1"/>
      <stop offset="1" stop-color="#007f6d"/>
    </linearGradient>
  </defs>
  <path fill="url(#j)" d="M503 573c2-.1 2.8-.5 3.9 1.2-.2 4.3-9.3 21.9-11.7 26.3-3.6 6.4-12.7 32.7-17 37-2.7.4-5.2-1.6-7.4-3-2.4-1.5-5.6-2.8-8.2-4 6.5-18.6 18.1-33.2 21.9-52 4.5-1.7 13.2-3.8 18.5-5.4"/>
  <path fill="#465359" d="M672.7 136.4c-2.4-.2-3.9 0-5.4-2 .5-1.8 3.7-2.3 5.7-2.3 10 .2 21-.7 30.8-.8 2.4 0 5.6 6.6 6.5 8.6.5 3.4.2 8 .2 11.4.1 5.8-1.2 13.4-7.4 15.3-7.2 2-18 1.9-25.5 1.7a35 35 0 0 0 2.7-23.5c-2.4-3.5-3.9-6-7.6-8.4"/>
  <path fill="#283640" d="M680.3 144.8c3.5 4.4.4 7.6 3.5 9.9 7.6.3 19.3-2.7 26.7-3.4.1 5.8-1.2 13.4-7.4 15.3-7.2 2-18 1.9-25.5 1.7a35 35 0 0 0 2.7-23.5"/>
  <path fill="#999d9e" d="M672.7 136.4c-2.4-.2-3.9 0-5.4-2 .5-1.8 3.7-2.3 5.7-2.3 10 .2 21-.7 30.8-.8 2.4 0 5.6 6.6 6.5 8.6a97 97 0 0 0-28.1 3.3c-2.9-4-4.2-7.7-9.5-6.8"/>
  <path fill="#27414b" d="M308 736c3-.5 8-1.8 10.4-.3 2.6 7.4-5.2 40.3-8.8 47.9l-1.4 2.8-7.3.3c-.6-1.3-.3-.9-.1-2.7-2 1.7 1.8 1.7-2 2.3-.4-1.1-.1-.8.5-2.5l-.9 1.2-.6-.6-.4.8c-1.8 4.8-8.2 4-12.5 4.1 9.2-18 13.1-32.5 13.9-52.5 2.8-.4 6.3-.6 9.2-.8"/>
  <path fill="#999d9e" d="M308 736c-2 20.7-2.6 29.6-10.6 49.2-1.8 4.8-8.2 4-12.5 4.1 9.2-18 13.1-32.5 13.9-52.5 2.8-.4 6.3-.6 9.2-.8"/>
  <defs>
    <linearGradient id="k" x1="175.9" x2="143.6" y1="758" y2="718.4" gradientUnits="userSpaceOnUse">
      <stop offset="0" stop-color="#344248"/>
      <stop offset="1" stop-color="#53636a"/>
    </linearGradient>
  </defs>
  <path fill="url(#k)" d="M145.4 717c-1.2-12.6 20.6-24.9 31.8-23.5 1.5.2 1.7-.3 2.6.7l-.4 1.5-.5.5c-10 8.2-21.1 11.2-22.5 26.3-1 10.9 2 27.2 15.1 28.8 0 5-.1 7.4 1 12.4a39 39 0 0 1-24.6-15.7c-2.2-2.6-3-7.1-5.4-9.9-2-3-2.3-14.3-.5-17.7.5-.8 1-.7 2-.9s.5 0 1.4-.7z"/>
  <defs>
    <linearGradient id="l" x1="162.2" x2="157.8" y1="705.8" y2="699.9" gradientUnits="userSpaceOnUse">
      <stop offset="0" stop-color="#818b8d"/>
      <stop offset="1" stop-color="#a8abab"/>
    </linearGradient>
  </defs>
  <path fill="url(#l)" d="M145.4 717c-1.2-12.6 20.6-24.9 31.8-23.5 1.5.2 1.7-.3 2.6.7l-.4 1.5c-5.8 1.1-12.2 5.3-18 7.1-6.3 2-10.1 12.7-16 14.2"/>
  <path fill="#7f888b" d="M142.5 738.1c-2-3-2.3-14.3-.5-17.7.5-.8 1-.7 2-.9 1 .5 1.6.5 1.8 1.5.6 3.1 1.2 14.6-1.3 16.9z"/>
  <path fill="#5b686c" d="M200.6 780.1c-2.1-6.9-3.3-10.7-10.8-12.5-6.8-1.6-12.6-4.4-11.6-12.7l1.3-1c4.4.3 5.2 7.7 11 8.5 9.9 1.2 8.6-9.5 14-13.5 3.3-.7 5.2 1.6 4.2 4.7-1.3 4-4 7.5-6 11 1.2 5 2.5 12 8.5 12.3 2.8.3 3.6.3 5.5 2.5 1 1 2.7 2.2 4 3.1.6 2.4 1 4.1 1.2 6.6 1.5 13-13.1 16.6-21.6 8.8-4.9-4.5-4.6-13.2.3-17.8"/>
  <defs>
    <linearGradient id="m" x1="211.8" x2="209.2" y1="779.5" y2="784.2" gradientUnits="userSpaceOnUse">
      <stop offset="0" stop-color="#747677"/>
      <stop offset="1" stop-color="#858c8e"/>
    </linearGradient>
  </defs>
  <path fill="url(#m)" d="M211.2 776.9c2.8.3 3.6.3 5.5 2.5-5.2 3-5.4 9.6-8.7 9.6a6 6 0 0 1-2.3-4.7c-.2-4.7 4.8-4.7 7.7-4.9l.3-.5z"/>
  <path fill="#041c2c" d="M209.3 797.2c-4.4 0-5.3-.7-7.6-4.6-1.2-2.1-.3-4.4 2-5.2 2.6 2.1 3.3 3.3 6.9 2.8 1.9-1.1 2.3-3.2 3-5.3l1-.3 1.3 1c3.4 5.2-.5 13-6.6 11.6"/>
  <path fill="#283640" d="M209.3 797.2c-4.4 0-5.3-.7-7.6-4.6-1.2-2.1-.3-4.4 2-5.2 2.6 2.1 3.3 3.3 6.9 2.8 1.9-1.1 2.3-3.2 3-5.3l1-.3 1.3 1-.5.8c-1.2 2.2-1 4-3.3 5.1-2 1-5.4 1.2-6.7 2.6.5 1.9 2.2 2.3 3.9 3"/>
  <path fill="#465359" d="M713.2 383.5q7-.9 14-2.5c5.2-1.2 17-4.6 21.9-4.3 1 1 .8 2.2 1.2 4 1 2.7 2.5 8.8 1.4 11.7a251 251 0 0 1-43.2 10.6c-1-3.6-3.9-15.2-3-18.5 1.7-1.3 5.5-1 7.7-1"/>
  <path fill="#999d9e" d="M713.2 383.5q7-.9 14-2.5c5.2-1.2 17-4.6 21.9-4.3 1 1 .8 2.2 1.2 4l-1 1c-5.7.5-39.1 10.3-42.4 8.6-.5-1.8-.4-2 0-3.9 1.4-2.1 3.8-2.4 6.3-2.9"/>
  <path fill="#27414b" d="M840.4 706.8a28 28 0 0 1 15.3 10.8 21 21 0 0 1 3.3 12c2.2 37.5-51.7 41-53 2.7 0-2.7-.1-4.2.5-6.9l.6-.5c7.4.3 4.6 8.3 6.3 13.4 4.1 12.1 22.8 17.8 32.2 8.4 7.7-7.8 6.7-16.3 2.5-25.7-3-5-5.2-8.9-7.7-14.2"/>
  <path fill="#7f888b" d="M840.4 706.8a28 28 0 0 1 15.3 10.8c0 2.2.2 3.7-.6 5.7-2.5 2.3-4.7-.8-7-2.3-3-5-5.2-8.9-7.7-14.2"/>
  <path fill="#27414b" d="M629 155c-1.6-2.2-3-2-3.5-5 1.4-2.6 9-2.8 11.6-2.4 8.4 1 30.3-6.9 34.8 2.2 14.1 15-37.4 16.5-43 16.3 0-2.4.5-9.4.1-11"/>
  <path fill="#999d9e" d="M629 155c-1.6-2.2-3-2-3.5-5 1.4-2.6 9-2.8 11.6-2.4 8.4 1 30.3-6.9 34.8 2.2-3.7 2.5-27.5 2.5-33.4 4-.4.2-9.1 1.2-9.5 1.2"/>
  <path fill="#03aa93" d="M515.4 478.4c3.7-2.4 14-3.5 17.4-.3a19 19 0 0 1 1.3 8.5c.4 4.3.2 24.6 0 28.9-6.6.1-12-.2-18.6-.5q-.8-9.5-.8-18.9c0-5.6 1-12.2.7-17.7"/>
  <path fill="#27c1a9" d="M515.4 478.4c3.7-2.4 14-3.5 17.4-.3a19 19 0 0 1 1.3 8.5c-2.3-5.5.5-4.6-4.7-9.7-2.1 0-7.2 0-8.7 1-.4 1.7-.3.8.7 2.8l-1.3.6h1c-3 0-3.8-.8-5.7-2.9"/>
  <path fill="#5b686c" d="M281.8 633.5c10.3 2.9 14.8 9.6 19.9 18.6 1.5 2.7 3.4 5.6 2.8 8.8-1.4 1.5-4 2-6 2.5-5.1 2-10.3 4.6-15.6 3.4-2.5-3.1-4.3-7.2-6.9-10.7-2.4-3.2-4.4-5-6.7-8.4 2.5-2.9 4.4-4.1 7.4-6.3 1.3-2.5 3.4-5.6 5-7.9"/>
  <path fill="#27414b" d="M281.8 633.5c10.3 2.9 14.8 9.6 19.9 18.6 1.5 2.7 3.4 5.6 2.8 8.8-1.4 1.5-4 2-6 2.5-4.3-3.7-11.5-19.9-16.5-21.6-2 .7-1.1.1-2.5 1.8-1.4-2.1-.7-1.7-2.8-2.2 1.3-2.5 3.4-5.6 5-7.9"/>
  <path fill="#0d2e39" d="M279.5 643.6c1.4-1.7.5-1.1 2.5-1.8 5 1.7 12.2 17.9 16.5 21.6-5.1 2-10.3 4.6-15.6 3.4 5.9-4.2 15.4 2 4-13.3zm10.7 39.6c-1.5-1.9-2.9-3.5-2.6-5.9 3-5.7 17.2-5.6 22.7-5.2a84 84 0 0 1 7.2 28.1c-5.4 1.3-8 2-13.6 1.9a53 53 0 0 1-8.6.4 54 54 0 0 0-5.1-19.3"/>
  <path fill="#5b686c" d="M290.2 683.2c-.6-2-1.4-3.7-.8-5.6 2.9-2.6 5.9-3.9 9.5-2 2.2 1.2 2.5 4.3 3 6.5a83 83 0 0 0 4 12.2c.2 2.2 1 5.2.5 6.6-1 .9-1.3.8-2.5 1.2a53 53 0 0 1-8.6.4 54 54 0 0 0-5.1-19.3"/>
  <path fill="#041c2c" d="M301.9 682.1c.5-2.2.1-2.5 1.4-4 4.3 1.2 6.5 19.7 5.7 23.2-.7-1.2-2.3-5.3-3-7a79 79 0 0 1-4.1-12.2"/>
  <path fill="#03aa93" d="M515.6 539.4c5.5 0 12.5-.3 18.2-.4.8 8.8.7 14 .2 23 0 4.1 1 11.4-5.1 11.5-3.5 0-8.7-.7-12.2-1.3q-.8-4.4-1.2-8.7c-.9-8.8-.4-15.4.1-24.1"/>
  <path fill="#01947f" d="M515.5 563.5c3 1.8 14.6-.6 18.5-1.6 0 4.2 1 11.5-5.1 11.6-3.5 0-8.7-.7-12.2-1.3q-.8-4.4-1.2-8.7"/>
  <path fill="#27c1a9" d="M840 569.7c8.2.1 17.4 1 25.6 1.7-3.1 4.1-7 6.3-11.4 9.3a251 251 0 0 0-33.1.3c-5 .3-13.3 2.1-18.1 3.5-.8-3.3-2-7.4-3-10.7a242 242 0 0 1 40-4"/>
  <path fill="#27414b" d="M806.7 508.1c.7-1.5 2-4 3-5.2 2.9-3.6 15-9.4 19-6 .3 1.8-1.1 6.2-1.7 8.2 0 7.4 1 14.7 1 21.4-6.7-1.3-28.4-8.2-21.3-18.4"/>
  <defs>
    <linearGradient id="n" x1="816.5" x2="819.2" y1="509.2" y2="495.5" gradientUnits="userSpaceOnUse">
      <stop offset="0" stop-color="#7e8687"/>
      <stop offset="1" stop-color="#a5a5a4"/>
    </linearGradient>
  </defs>
  <path fill="url(#n)" d="M806.7 508.1c.7-1.5 2-4 3-5.2 2.9-3.6 15-9.4 19-6 .3 1.8-1.1 6.2-1.7 8.2-.5 1-.5 1.8-1.3 2-6.4.8-11.7.4-18.2 1.6z"/>
  <path fill="#b0b1b2" d="M514.3 519.5a78 78 0 0 1 21 0c3.7 0 12.7-1 14.8 1 6.1 11.4-11 11-17.4 11-4.8 0-8.7.2-13.5.5-1.7 0-3.3.3-4.8-.4-.5-2.5-.8-9.6-.1-12.1"/>
  <path fill="#7f888b" d="M535.4 519.5c3.6 0 12.6-1 14.7 1 6.1 11.4-11 11-17.4 11q1.3 0 2.2-.8c1.3-1.8.6-9 .5-11.2"/>
  <path fill="#e3e3e3" d="M519.2 532c-1.7 0-3.3.3-4.8-.4-.5-2.5-.8-9.6-.1-12.1 1.8 0 4.8-.3 6 .6.4 2.4 0 9.9-1 11.9"/>
  <path fill="#01947f" d="M404 657c2.4 2.4 8 20.2 8.8 24.3-3 3.5-6 5.6-9.5 8.4l-1.8-2.6c-1.7-2.2-12.9-16.8-11.8-19 2-3.9 10.2-9.2 14.3-11.2m48.6-.4c5.2.4 10.9 5.2 13.7 9.4-7.7 10.9-5.6 8.8-11.1 20.9-5 .5-9.4-5.7-12.8-9.2 1-5.4 6.4-17 10.2-21.1m-68.3 43.2c15.2-.8 18.3-1.2 18 15-2.7.7-4 1-6.8 1.3-17.7 1.4-18.4 6.2-17.6-15.9z"/>
  <path fill="#283640" d="m282 275 3.1 4.8c1.6 1 2.6 4.5 3.3 6.4a90 90 0 0 1-29.4 3q-2.1-2.2-4-4.8c-.5-1.8-1-3-.3-4.7 2.4-.8 23.5-4 27.4-4.7"/>
  <path fill="#999d9e" d="m282 275 3.1 4.8c-.7 1.6-.8 2-2.4 2.8-3.3 0-7.2-.4-10.4-.1q-8.7.7-17.4 1.9c-.4-1.8-.8-3-.2-4.7 2.4-.8 23.5-4 27.4-4.7m414.7 66c1.7 0 3.8-.1 4.6 1.7 3.4 8 .2 19-2.8 26.7-1.1 2.8-3 5.6-3.8 8.2-.3 1.2 1.2 3.9.8 6.2-1.3 1.5-.5 1-2.7 1.3-1.3-.3-3.9-1-4.7-1.5-6.6-4.3 6.8-21.9 7.7-27.5.6-3.9-.5-8.2-.8-12.1-.2-1.7.5-2 1.7-3M317.2 503.1c.1-.8.6-3.7 1-3.9 6.3-3.3 30.5-10.3 36.4-10.4 2.6 1.7 2.8 5.3-.5 6.5-5.8 3-9 3.2-15.1 5.2-6.2 2-13 5.8-19.5 6.5-1.6-1.2-1.6-1.7-2.3-3.9"/>
  <path fill="#7f888b" d="M317.2 503.1c5.7 1 12-2.4 17.7-3.6q9.6-1.9 19.2-4.2c-5.8 3-9 3.2-15.1 5.2-6.2 2-13 5.8-19.5 6.5-1.6-1.2-1.6-1.7-2.3-3.9"/>
  <defs>
    <linearGradient id="o" x1="459" x2="461.6" y1="817.1" y2="807.7" gradientUnits="userSpaceOnUse">
      <stop offset="0" stop-color="#35434c"/>
      <stop offset="1" stop-color="#546065"/>
    </linearGradient>
  </defs>
  <path fill="url(#o)" d="M453 803.4c4.2-1 12.3-3.1 15.8-1 2.2 3 1.4 9.7 1.4 14q-5.5.1-11 .6c-10 .8-8.4-4.7-7-11.6z"/>
  <path fill="#999d9e" d="m453 803.4.7.1c4.6.6 14.2-.3 16.3 2-2.2 3-15 3.3-17.4 1.7l-.4-1.8z"/>
  <path fill="#465359" d="M500.1 802.4c2.2-.8 8.4-.4 10.9-.3q.2 7-.3 14-3.1.2-6.3.2c-2.7.3-7.6.2-10.5.2.3-4.4-1.7-11 .5-13.6 2-1 3.5-.6 5.7-.5"/>
  <path fill="#999d9e" d="M500.1 802.4c4 .8 7.7-1.3 10.3 1.6.4 1.8.4 1.7 0 3.5-1.3 1-1.5.6-3.5.6-4.3 0-7.1.4-11.1-.9l-.7-.7c.5-2.6 2.8-3.1 5-4"/>
  <defs>
    <linearGradient id="p" x1="412.8" x2="394.7" y1="729.2" y2="728.8" gradientUnits="userSpaceOnUse">
      <stop offset="0" stop-color="#1a3644"/>
      <stop offset="1" stop-color="#495c5d"/>
    </linearGradient>
  </defs>
  <path fill="url(#p)" d="m413.3 715.9.5-1.4.5-.1c1.2 1.5 2.6 3.8 2.3 5.7-1.9 11.4-6.3 13.7-12.9 20.8l-.4 1-.5-.5c-4.1-1.4-7-.4-11.2 1 9.2-8.5 12.4-17.4 21.7-26.5"/>
  <path fill="#0d2e39" d="m413.3 715.9.5-1.4.5-.1c1.2 1.5 2.6 3.8 2.3 5.7-1.9 11.4-6.3 13.7-12.9 20.8.6-2.3.7-4 2.5-5.7 4.5-4.2 10.2-13.2 7.1-19.3"/>
  <path fill="#27414b" d="M617.8 150c6.4 0 7.3 6.6 7 11.7-.1 3.4-1.6 4.5-4 6.6-8.3-1-9.6-12.4-3-18.3"/>
  <path fill="#5b686c" d="M478.7 801.7c2.8-.2 6.7-.8 9 .8l.2 1.6c-.3 3.7-1.1 7.3-1.5 10.9l-1.3 1.3c-2.7.4-5.8 1.1-7.5-1.5-2.7-4-3.2-10.2 1.1-13.1"/>
  <path fill="#999d9e" d="M478 804c2.4-.1 7.3-1 8.2 1.8l-1 1.4-2.7 1c-2 .5-2.5.4-4-.5-1-1.7-.6-1.4-.5-3.6"/>
  <path fill="#283640" d="M201.8 263.2c6.1 1.4 11.7 3.8 17.9 5.2 3 .6 8.5 1 11.4 2 .4.2.6 1.8.8 2.5-9.4.4-16.8 1.3-25.8-1.5-2.4-3-2.9-4.6-4.3-8.2"/>
  <path fill="#030304" d="m173 776 1 .6c-1.7 14.2-7 30.2-9.1 43.5l-3.2.2-.5-1.2 7.2-27.6c1-3.9 3-12.2 4.6-15.6m39-12.6c2.2 0 10 2.5 12.6 3.1q15 3.7 29.8 7.7c6.3 1.7 16.7 3.8 22.6 5.8v1.5q-4.4-.5-8.6-1.7a636 636 0 0 0-52.7-12.9q-2.6-.6-4.2-2.7z"/>
  <path fill="#7f888b" d="m146.1 763.6 1 1c-4 9.3-18.7 23.2-25.2 31.6-2.1 2.6-8.5 10.7-11.5 11.3l-.3-.6c1-2.1 8-9.4 10-11.9 8.5-10.4 17.9-20.8 26-31.4"/>
  <path fill="#030304" d="m79.5 704-.5-.1a121 121 0 0 1 4-13.9h.7l-1 4.6q12.5 4 25 8.5c8.8 3.3 17.1 7 26.2 9.6l-2 1c-16.7-5.2-33-12-50-16.8zm752.9 81c.2-2.7-.1-5 .5-7.7.8.6.8 1.6 1.1 2.8v61l-.2 1.3c-1.4-.2-.7 0-2-1.2 1.1-15.8.5-40 .6-56.1m.1-161.6 1.4.1c.3 10.7.6 30.4 0 41.1q-.2 2.5-1.4 4.5c-.9-14.2-.4-31.3 0-45.7"/>
  <path fill="#b0b1b2" fill-opacity=".9" d="M733.8 696.4c3 .5 7.5 2.6 10.6 3.8l27.2 10.6c5.3 2.2 13 6 18.2 7.6l-.4.8-6.6-2.5-26-10.3c-6-2.5-16.1-6-22.3-8.7z"/>
  <path fill="#283640" d="m161.2 819.1.5 1.2c1.3 0 2 0 3.2-.2-1.5 5.9-3.4 12.5-4.6 18.4l-3.3-1.1c.6-1.4 3.6-15.9 4.2-18.3"/>
  <path fill="#27414b" d="m81.3 648 .3.3c-.3 1.5-5.7 6.7-6.9 8.9-5.1 9.6-12.7 23.3-14.5 33.6-1.8-3.4 3.8-13.8 4.7-17.8.4-1.6 1.6-5.3 2.4-6.8 3.1-1 6-10 8.9-12.8z"/>
  <path fill="#b0b1b2" fill-opacity=".8" d="M870 743c3.5-1.3 42 11 48.5 12.7v1.1c-2.6-.5-6.3-1.7-8.9-2.5-13-4.3-26.7-7.2-39.5-11.4"/>
  <path fill="#7f888b" fill-opacity=".9" d="m138.2 654.3 1-1.3c2.4 4.3 17.7 30.9 17.4 34.1-1-.7-16.7-29.7-18.4-32.8"/>
  <path fill="#295261" d="M212 705.3c1.7 1 4.5 5.9 3.4 8-.4.8-1.6 1.2-2.4 1.7-2.6-.7-4-.4-4.8-3.2.5-2.3 2.3-4.5 3.8-6.5"/>
  <path fill="#b0b1b2" fill-opacity=".2" d="M859.7 767.8c2 3 20.1 28.4 20.6 29.7l-.3 1.7-11-15.9c-2.8-3.8-8.1-11.1-10.1-15.3z"/>
  <path fill="#283640" d="m127.6 635.2 1.3-1.1a160 160 0 0 1 10.3 18.9l-1 1.3c-3.6-5.6-6.5-12.8-10.6-19"/>
  <path fill="#465359" d="m221.7 807.8 6.7-.6c2 2.3 6 12.8 7.5 16.4v.7c-6.8-8.3-3-16.2-14.2-16.5"/>
  <path fill="#7f888b" fill-opacity=".9" d="M918.5 755.7c3.4.8 13.1 2.3 14.6 4.4-2.5.4-11.9-2.5-14.6-3.3z"/>
  <path fill="#283640" d="M828.9 769.5h5.7l-1.1.7q.4 5 .5 10c-.3-1.3-.3-2.3-1-2.9-.7 2.7-.4 5-.6 7.8-.4-4.6.5-11-.8-15-.2-.4-2-.5-2.7-.6"/>
  <path fill="#7f888b" fill-opacity=".9" d="M888.1 808.5c1.5 2.2 7.1 9.7 7.1 11.7-2.5-2.3-6.4-8.5-8.4-11.6z"/>
  <path fill="#b0b1b2" fill-opacity=".7" d="m880 799.2.3-1.7 7.8 11-1.3.1c-2.2-2.6-4.8-6.6-6.8-9.4"/>
  <path fill="#283640" d="M832.5 669.2c1-1.2 1.1-2.9 1.5-4.5 0 3 .5 8.3-.8 10.9l-.7-.3h.8v-.2l-1-.6z"/>
  <path fill="#b0b1b2" fill-opacity=".4" d="m789.8 718.4 2.1.3q1 .9 2.1 1.5l.5.9-.3-.2.1.3-5-2z"/>
</svg>
